<svg viewBox="0 0 800 800" xmlns="http://www.w3.org/2000/svg"><path d="M561.3120568081072,473.1392708512408 L561.2467471646314,519.9182919679172 M561.2770319958395,530.6305787687756 L559.0379945409348,530.474781757089 M559.0379945409348,530.474781757089 L556.9283906363198,530.0164706645676 M556.9283906363198,530.0164706645676 L555.0709722664983,529.2823566413012 M555.0709722664983,529.2823566413012 L553.5737552071344,528.3152088031283 M553.5737552071344,528.3152088031283 L552.5237262419056,527.1713447940878 M552.5237262419056,527.1713447940878 L551.9818027385505,525.9173370906174 M551.9818027385505,525.9173370906174 L551.9793004923523,524.6261134739545 M551.9793004923523,524.6261134739545 L552.5161720179835,523.3727173117134 M552.5161720179835,523.3727173117134 L553.5610397091156,522.2299373451933 M553.5610397091156,522.2299373451933 L555.0530691008277,521.2640958723273 M555.0530691008277,521.2640958723273 L556.9055257259947,520.5312124734809 M556.9055257259947,520.5312124734809 L559.0108211513839,520.0737751821936 M559.0108211513839,520.0737751821936 L561.2467471646314,519.9182919679172 M561.3424760755031,483.82714525103466 L561.2770319958395,530.6305787687756 M561.3120568081072,473.1392708512408 L559.0711770384389,473.29439938424343 M559.0711770384389,473.29439938424343 L556.9612188021702,473.75079324973774 M556.9612188021702,473.75079324973774 L555.1046606528646,474.48200510840235 M555.1046606528646,474.48200510840235 L553.6093290814235,475.44564406470494 M553.6093290814235,475.44564406470494 L552.5621505702691,476.5858185330153 M552.5621505702691,476.5858185330153 L552.0240943741453,477.83635763293717 M552.0240943741453,477.83635763293717 L552.0266077262108,479.1246386580416 M552.0266077262108,479.1246386580416 L552.5697383305321,480.37578925882 M552.5697383305321,480.37578925882 L553.6221010224069,481.5170476957485 M553.6221010224069,481.5170476957485 L555.1226432901391,482.4819929310418 M555.1226432901391,482.4819929310418 L556.9841852106633,483.2144353324166 M556.9841852106633,483.2144353324166 L559.0984710528382,483.6717029388477 M559.0984710528382,483.6717029388477 L561.3424760755031,483.82714525103466 M622.9616285630024,437.94087741358805 L622.7606920449025,484.6391562503381 M622.9616285630024,437.94087741358805 L561.3120568081072,473.1392708512408 M622.7606920449025,484.6391562503381 L561.2467471646314,519.9182919679172 M713.0196581957962,525.2716871440934 L641.3868413944058,484.6391595584849 M641.3868413944058,484.6391595584849 L641.1028384173351,483.3674739267351 M641.1028384173351,483.3674739267351 L640.2942936873001,482.16997562669974 M640.2942936873001,482.16997562669974 L639.0083351318406,481.1161912461893 M639.0083351318406,481.1161912461893 L637.3197699093867,480.26725607432206 M637.3197699093867,480.26725607432206 L635.3267065724217,479.67239416165427 M635.3267065724217,479.67239416165427 L633.144859635921,479.36609280849086 M633.144859635921,479.36609280849086 L630.9008664462938,479.3660906052977 M630.9008664462938,479.3660906052977 L628.7249392233938,479.6723952633159 M628.7249392233938,479.6723952633159 L626.7433611132719,480.2672549725343 M626.7433611132719,480.2672549725343 L625.0711866366463,481.1161901442214 M625.0711866366463,481.1161901442214 L623.8055700918014,482.16997672889136 M623.8055700918014,482.16997672889136 L623.0201439994692,483.36747172184374 M623.0201439994692,483.36747172184374 L622.7606920449025,484.6391562503381 M561.2770319958395,530.6305787687756 L592.3231491893762,548.3966303303621 M400.50419771055266,588.8662909844743 L592.3231491893762,548.3966303303621 M471.6248624293411,479.3273817474723 L400.50419771055266,588.8662909844743 M471.6248624293411,479.3273817474723 L502.3662212779092,496.9190362198258 M502.3662212779092,496.9190362198258 L502.6335901992235,498.1940415756546 M502.6335901992235,498.1940415756546 L503.4274925482586,499.3952348387896 M503.4274925482586,499.3952348387896 L504.7019343371208,500.45273184123 M504.7019343371208,500.45273184123 L506.38291975499226,501.3049706123055 M506.38291975499226,501.3049706123055 L508.3727349920193,501.90231266101466 M508.3727349920193,501.90231266101466 L510.5556237726712,502.2099478041956 M510.5556237726712,502.2099478041956 L512.8045563706937,502.2099482536903 M512.8045563706937,502.2099482536903 L514.9886335046732,501.9023119695252 M514.9886335046732,501.9023119695252 L516.9807542775286,501.3049710962925 M516.9807542775286,501.3049710962925 L518.6650314481437,500.45273225600806 M518.6650314481437,500.45273225600806 L519.9435572281936,499.3952349770209 M519.9435572281936,499.3952349770209 L520.7420965140454,498.19404143745516 M520.7420965140454,498.19404143745516 L521.0143910237581,496.91903621982567 M521.0143910237581,496.91903621982567 L631.5828505390575,433.7860586111476 M631.5828505390575,433.7860586111476 L752.8075207407674,502.24882616399117 M752.8075207407674,502.24882616399117 L713.0196581957962,525.2716871440934 M592.4576893440135,501.55281677364104 L592.3231491893762,548.3966303303621 M561.3424760755031,483.82714525103466 L592.4576893440135,501.55281677364104 M622.9616285630024,437.94087741358805 L623.2216287766208,436.67211320787857 M623.2216287766208,436.67211320787857 L624.0087657266272,435.4773687943703 M624.0087657266272,435.4773687943703 L625.2771556697686,434.42600320202246 M625.2771556697686,434.42600320202246 L626.9530045734436,433.5790187350969 M626.9530045734436,433.5790187350969 L628.9389447010462,432.98552609173646 M628.9389447010462,432.98552609173646 L631.119668505929,432.6799254206503 M631.119668505929,432.6799254206503 L633.3686148452188,432.6799276187797 M633.3686148452188,432.6799276187797 L635.5552845131933,432.9855249926069 M635.5552845131933,432.9855249926069 L637.5527606290702,433.5790198343529 M637.5527606290702,433.5790198343529 L639.2450727260541,434.4260043014584 M639.2450727260541,434.4260043014584 L640.5338946087859,435.4773676947107 M640.5338946087859,435.4773676947107 L641.3442524061936,436.672115407706 M641.3442524061936,436.672115407706 L641.6289121974028,437.9408807141389 M400.21138478533345,541.93099471389 L592.4576893440135,501.55281677364104 M471.49209623616565,432.6413055311016 L400.21138478533345,541.93099471389 M471.49209623616565,432.6413055311016 L502.3011998006391,450.19259290223783 M520.990601244054,450.19259290223783 L520.7177016861237,451.4646775006905 M520.7177016861237,451.4646775006905 L519.9173935603192,452.6631201302296 M519.9173935603192,452.6631201302296 L518.6360372914755,453.7181960913233 M518.6360372914755,453.7181960913233 L516.948032176767,454.56848393259077 M516.948032176767,454.56848393259077 L514.9515027641748,455.1644575189737 M514.9515027641748,455.1644575189737 L512.7625930043284,455.4713896963266 M512.7625930043284,455.4713896963266 L510.5086854098728,455.47138924786066 M510.5086854098728,455.47138924786066 L508.3209692658056,455.1644582088804 M508.3209692658056,455.1644582088804 L506.3267556025645,454.5684834497116 M506.3267556025645,454.5684834497116 L504.6420568167212,453.7181956774948 M504.6420568167212,453.7181956774948 L503.3648026228675,452.66311999231493 M503.3648026228675,452.66311999231493 L502.5691519683083,451.46467763857333 M502.5691519683083,451.46467763857333 L502.3011998006391,450.19259290223783 M631.8021888303003,387.20509458236364 L520.990601244054,450.19259290223783 M753.2964839171404,455.5101786271281 L631.8021888303003,387.20509458236364 M753.2964839171404,455.5101786271281 L713.4214928908973,478.48046000581513 M713.4214928908973,478.48046000581513 L641.6289121974028,437.9408807141389 M641.6289121974028,437.9408807141389 L641.3868413944058,484.6391595584849 M713.4214928908973,478.48046000581513 L713.0196581957962,525.2716871440934 M753.2964839171404,455.5101786271281 L752.8075207407674,502.24882616399117 M631.8021888303003,387.20509458236364 L631.5828505390575,433.7860586111476 M520.990601244054,450.19259290223783 L521.0143910237581,496.91903621982567 M502.3011998006391,450.19259290223783 L502.3662212779092,496.9190362198258 M471.49209623616565,432.6413055311016 L471.6248624293411,479.3273817474723 M400.21138478533345,541.93099471389 L400.50419771055266,588.8662909844743" stroke="black"  stroke-width="4"  fill="red"/>
<path d="M520.990601244054,450.19259290223783 L520.9667060405397,403.2590825269531 M502.2358901823287,403.2590825269531 L502.5044281458349,404.5282082041028 M502.5044281458349,404.5282082041028 L503.30183482221855,405.72386343394817 M503.30183482221855,405.72386343394817 L504.5819138600482,406.77648591951515 M504.5819138600482,406.77648591951515 L506.27034245469184,407.62479699874837 M506.27034245469184,407.62479699874837 L508.2689740306847,408.2193864590853 M508.2689740306847,408.2193864590853 L510.4615389346219,408.5256041189462 M510.4615389346219,408.5256041189462 L512.7204435833468,408.5256045663698 M512.7204435833468,408.5256045663698 L514.9142074005504,408.2193857707821 M514.9142074005504,408.2193857707821 L516.9151650074219,407.6247974805051 M516.9151650074219,407.6247974805051 L518.6069146040859,406.7764863323814 M518.6069146040859,406.7764863323814 L519.8911139210838,405.72386357154227 M519.8911139210838,405.72386357154227 L520.6931987398253,404.5282080665406 M520.6931987398253,404.5282080665406 L520.9667060405397,403.2590825269531 M502.3011998006391,450.19259290223783 L502.2358901823287,403.2590825269531 M520.990601244054,450.19259290223783 L520.7177016861237,451.4646775006905 M520.7177016861237,451.4646775006905 L519.9173935603192,452.6631201302296 M519.9173935603192,452.6631201302296 L518.6360372914755,453.7181960913233 M518.6360372914755,453.7181960913233 L516.948032176767,454.56848393259077 M516.948032176767,454.56848393259077 L514.9515027641748,455.1644575189737 M514.9515027641748,455.1644575189737 L512.7625930043284,455.4713896963266 M512.7625930043284,455.4713896963266 L510.5086854098728,455.47138924786066 M510.5086854098728,455.47138924786066 L508.3209692658056,455.1644582088804 M508.3209692658056,455.1644582088804 L506.3267556025645,454.5684834497116 M506.3267556025645,454.5684834497116 L504.6420568167212,453.7181956774948 M504.6420568167212,453.7181956774948 L503.3648026228675,452.66311999231493 M503.3648026228675,452.66311999231493 L502.5691519683083,451.46467763857333 M502.5691519683083,451.46467763857333 L502.3011998006391,450.19259290223783 M582.6407759406154,415.1494141182747 L582.753110953802,368.29769110145264 M582.6407759406154,415.1494141182747 L520.990601244054,450.19259290223783 M582.753110953802,368.29769110145264 L520.9667060405397,403.2590825269531 M511.7683281122803,317.9035306459537 L582.7008906302253,357.77530729236787 M582.7008906302253,357.77530729236787 L584.9330811995999,357.92803291742524 M584.9330811995999,357.92803291742524 L587.0372559227897,358.3773601262412 M587.0372559227897,358.3773601262412 L588.8912637066458,359.09725255581395 M588.8912637066458,359.09725255581395 L590.3874312659315,360.0459734288511 M590.3874312659315,360.0459734288511 L591.4387885622698,361.1684959837569 M591.4387885622698,361.1684959837569 L591.984110878419,362.3996760963137 M591.984110878419,362.3996760963137 L591.9915524153093,363.6680080906616 M591.9915524153093,363.6680080906616 L591.4604718186931,364.8997845412365 M591.4604718186931,364.8997845412365 L590.4215637273239,366.0233689579566 M590.4215637273239,366.0233689579566 L588.9350938385564,366.9733706819725 M588.9350938385564,366.9733706819725 L587.0874214572306,367.6944717094177 M587.0874214572306,367.6944717094177 L584.9860036654593,368.14465560610927 M584.9860036654593,368.14465560610927 L582.753110953802,368.29769110145264 M502.2358901823287,403.2590825269531 L471.3587426924366,385.74869260490357 M399.91726274485035,494.7858589605866 L471.3587426924366,385.74869260490357 M592.5928286738865,454.5003840645307 L399.91726274485035,494.7858589605866 M592.5928286738865,454.5003840645307 L561.408211113113,436.8156282677754 M561.408211113113,436.8156282677754 L559.1592164333374,436.6605453526154 M559.1592164333374,436.6605453526154 L557.0402278275374,436.20433505107025 M557.0402278275374,436.20433505107025 L555.1745440082597,435.47358640623656 M555.1745440082597,435.47358640623656 L553.6706617305181,434.51087293472847 M553.6706617305181,434.51087293472847 L552.6159549162661,433.37225455896794 M552.6159549162661,433.37225455896794 L552.0716118220686,432.1239988707964 M552.0716118220686,432.1239988707964 L552.06908729003,430.8386993691364 M552.06908729003,430.8386993691364 L552.6083333958679,429.59105512274544 M552.6083333958679,429.59105512274544 L553.6578329699296,428.45352060854725 M553.6578329699296,428.45352060854725 L555.15648136907,427.4921132897607 M555.15648136907,427.4921132897607 L557.017159243579,426.7625950682909 M557.017159243579,426.7625950682909 L559.131800989158,426.30725842066187 M559.131800989158,426.30725842066187 L561.3776565124351,426.1524892568626 M561.3776565124351,426.1524892568626 L672.4316856984879,363.03380074382113 M672.4316856984879,363.03380074382113 L551.735751202244,295.4868302366426 M551.735751202244,295.4868302366426 L511.7683281122803,317.9035306459537 M471.49209623616565,432.6413055311016 L471.3587426924366,385.74869260490357 M502.3011998006391,450.19259290223783 L471.49209623616565,432.6413055311016 M582.6407759406154,415.1494141182747 L584.8687501072077,414.9960194621607 M584.8687501072077,414.9960194621607 L586.9655427206148,414.5447789653017 M586.9655427206148,414.5447789653017 L588.8091527259392,413.821985302426 M588.8091527259392,413.821985302426 L590.2923594512513,412.8697533046519 M590.2923594512513,412.8697533046519 L591.3289931163414,411.7435306014577 M591.3289931163414,411.7435306014577 L591.8589197118845,410.5088611951387 M591.8589197118845,410.5088611951387 L591.8515109092018,409.23754970879156 M591.8515109092018,409.23754970879156 L591.3074052703654,408.00347671766986 M591.3074052703654,408.00347671766986 L590.2583771682309,406.87831602659196 M590.2583771682309,406.87831602659196 L588.765515442105,405.9273650610947 M588.765515442105,405.9273650610947 L586.9155979185059,405.2057801719817 M586.9155979185059,405.2057801719817 L584.8160604914117,404.75539648666734 M584.8160604914117,404.75539648666734 L582.5887853734296,404.6023117471095 M511.81219575871506,364.6364386866341 L582.5887853734296,404.6023117471095 M551.692075517693,342.16653521015536 L511.81219575871506,364.6364386866341 M551.692075517693,342.16653521015536 L672.1218980367544,409.87316409162577 M561.3120568081072,473.1392708512408 L672.1218980367544,409.87316409162577 M561.3120568081072,473.1392708512408 L559.0711770384389,473.29439938424343 M559.0711770384389,473.29439938424343 L556.9612188021702,473.75079324973774 M556.9612188021702,473.75079324973774 L555.1046606528646,474.48200510840235 M555.1046606528646,474.48200510840235 L553.6093290814235,475.44564406470494 M553.6093290814235,475.44564406470494 L552.5621505702691,476.5858185330153 M552.5621505702691,476.5858185330153 L552.0240943741453,477.83635763293717 M552.0240943741453,477.83635763293717 L552.0266077262108,479.1246386580416 M552.0266077262108,479.1246386580416 L552.5697383305321,480.37578925882 M552.5697383305321,480.37578925882 L553.6221010224069,481.5170476957485 M553.6221010224069,481.5170476957485 L555.1226432901391,482.4819929310418 M555.1226432901391,482.4819929310418 L556.9841852106633,483.2144353324166 M556.9841852106633,483.2144353324166 L559.0984710528382,483.6717029388477 M559.0984710528382,483.6717029388477 L561.3424760755031,483.82714525103466 M592.4576893440135,501.55281677364104 L561.3424760755031,483.82714525103466 M592.4576893440135,501.55281677364104 L400.21138478533345,541.93099471389 M400.21138478533345,541.93099471389 L471.49209623616565,432.6413055311016 M582.5887853734296,404.6023117471095 L582.7008906302253,357.77530729236787 M511.81219575871506,364.6364386866341 L511.7683281122803,317.9035306459537 M551.692075517693,342.16653521015536 L551.735751202244,295.4868302366426 M672.1218980367544,409.87316409162577 L672.4316856984879,363.03380074382113 M561.3120568081072,473.1392708512408 L561.3776565124351,426.1524892568626 M561.3424760755031,483.82714525103466 L561.408211113113,436.8156282677754 M592.4576893440135,501.55281677364104 L592.5928286738865,454.5003840645307 M400.21138478533345,541.93099471389 L399.91726274485035,494.7858589605866" stroke="black"  stroke-width="4"  fill="red"/>
<path d="M322.3147887581572,422.1516656037774 L322.781916216255,469.4490892955755 M471.2247977884491,338.64813299112654 L471.35874269243664,385.74869260490357 M322.3147887581572,422.1516656037774 L471.2247977884491,338.64813299112654 M322.781916216255,469.4490892955755 L471.35874269243664,385.74869260490357 M502.1702904527237,356.1170892082822 L502.2358901823288,403.2590825269531 M471.2247977884491,338.64813299112654 L502.1702904527237,356.1170892082822 M471.35874269243664,385.74869260490357 L502.2358901823288,403.2590825269531 M520.9667060405397,403.2590825269531 L520.6931987398253,404.5282080665406 M520.6931987398253,404.5282080665406 L519.8911139210838,405.72386357154227 M519.8911139210838,405.72386357154227 L518.6069146040859,406.7764863323814 M518.6069146040859,406.7764863323814 L516.9151650074219,407.6247974805051 M516.9151650074219,407.6247974805051 L514.9142074005504,408.2193857707821 M514.9142074005504,408.2193857707821 L512.7204435833468,408.5256045663698 M512.7204435833468,408.5256045663698 L510.4615389346219,408.5256041189462 M510.4615389346219,408.5256041189462 L508.2689740306847,408.2193864590853 M508.2689740306847,408.2193864590853 L506.27034245469184,407.62479699874837 M506.27034245469184,407.62479699874837 L504.5819138600482,406.77648591951515 M504.5819138600482,406.77648591951515 L503.30183482221855,405.72386343394817 M503.30183482221855,405.72386343394817 L502.5044281458349,404.5282082041028 M502.5044281458349,404.5282082041028 L502.2358901823288,403.2590825269531 M520.9427046923471,356.1170892082822 L520.9667060405397,403.2590825269531 M502.1702904527237,356.1170892082822 L502.43941677875296,357.383216957885 M502.43941677875296,357.383216957885 L503.2385872458208,358.576048445421 M503.2385872458208,358.576048445421 L504.52150365150936,359.6261854933837 M504.52150365150936,359.6261854933837 L506.2136786081044,360.47249389886684 M506.2136786081044,360.47249389886684 L508.2167477165997,361.06567985015323 M508.2167477165997,361.06567985015323 L510.41418292319315,361.3711747524918 M510.41418292319315,361.3711747524918 L512.6781068349239,361.3711751988595 M512.6781068349239,361.3711751988595 L514.8767462876225,361.06567916347467 M514.8767462876225,361.06567916347467 L516.8821517771419,360.4724943794862 M516.8821517771419,360.4724943794862 L518.5776625068206,359.6261859052752 M518.5776625068206,359.6261859052752 L519.8647175173171,358.57604858269013 M519.8647175173171,358.57604858269013 L520.6685869357707,357.3832168206478 M520.6685869357707,357.3832168206478 L520.9427046923471,356.1170892082822 M520.9667060405397,403.2590825269531 L632.0224931878649,340.41896664749214 M632.2437701792387,293.4262800665297 L632.0224931878649,340.41896664749214 M520.9427046923471,356.1170892082822 L632.2437701792387,293.4262800665297 M753.7876150367817,408.56430334553767 L632.0224931878649,340.41896664749214 M754.2809289309371,361.4097826411813 L753.7876150367817,408.56430334553767 M632.2437701792387,293.4262800665297 L754.2809289309371,361.4097826411813 M714.2305313104835,384.27281463336834 L713.8251131820045,431.4813109799775 M754.2809289309371,361.4097826411813 L714.2305313104835,384.27281463336834 M753.7876150367817,408.56430334553767 L713.8251131820045,431.4813109799775 M642.1162754972777,343.92282073214324 L641.8720544589701,391.0359050254786 M714.2305313104835,384.27281463336834 L642.1162754972777,343.92282073214324 M713.8251131820045,431.4813109799775 L641.8720544589701,391.0359050254786 M623.1634544702879,391.0359017326235 L623.4240052600242,389.7700961875219 M623.4240052600242,389.7700961875219 L624.2128605352768,388.5781384545122 M624.2128605352768,388.5781384545122 L625.4840360565715,387.5292256230169 M625.4840360565715,387.5292256230169 L627.163575569416,386.6842174536366 M627.163575569416,386.6842174536366 L629.1538969591085,386.0921098092781 M629.1538969591085,386.0921098092781 L631.3394385378242,385.7872223592282 M631.3394385378242,385.7872223592282 L633.5933599393288,385.7872245522274 M633.5933599393288,385.7872245522274 L635.784873704325,386.0921087127135 M635.784873704325,386.0921087127135 L637.7867821809754,386.6842185503274 M637.7867821809754,386.6842185503274 L639.4828578159741,387.5292267198878 M639.4828578159741,387.5292267198878 L640.7745558034264,388.57813735741786 M640.7745558034264,388.57813735741786 L641.58673481504,389.77009838221886 M641.58673481504,389.77009838221886 L641.8720544589701,391.0359050254786 M623.366175841377,343.92281744708475 L623.1634544702879,391.0359017326235 M642.1162754972777,343.92282073214324 L641.8302929404376,342.6600115167864 M641.8302929404376,342.6600115167864 L641.0162845113505,341.47087368324605 M641.0162845113505,341.47087368324605 L639.7216975537848,340.4244479235332 M639.7216975537848,340.4244479235332 L638.0218416029604,339.5814419291571 M638.0218416029604,339.5814419291571 L636.0154810496058,338.99073522847164 M636.0154810496058,338.99073522847164 L633.819101675987,338.68657361809505 M633.819101675987,338.68657361809505 L631.5601831501233,338.68657143029327 M631.5601831501233,338.68657143029327 L629.3698024612336,338.99073632243756 M629.3698024612336,338.99073632243756 L627.3750804338061,339.5814408350652 M627.3750804338061,339.5814408350652 L625.6918340196767,340.4244468292611 M625.6918340196767,340.4244468292611 L624.4178606578045,341.47087477774164 M624.4178606578045,341.47087477774164 L623.6272795394108,342.660009327287 M623.6272795394108,342.660009327287 L623.366175841377,343.92281744708475 M561.4435482651863,378.956523556703 L561.3776565124351,426.1524892568626 M623.366175841377,343.92281744708475 L561.4435482651863,378.956523556703 M623.1634544702879,391.0359017326235 L561.3776565124351,426.1524892568626 M561.408211113113,436.8156282677753 L559.1592164333374,436.6605453526154 M559.1592164333374,436.6605453526154 L557.0402278275374,436.20433505107025 M557.0402278275374,436.20433505107025 L555.1745440082597,435.47358640623656 M555.1745440082597,435.47358640623656 L553.6706617305181,434.51087293472847 M553.6706617305181,434.51087293472847 L552.6159549162661,433.37225455896794 M552.6159549162661,433.37225455896794 L552.0716118220686,432.1239988707964 M552.0716118220686,432.1239988707964 L552.06908729003,430.8386993691364 M552.06908729003,430.8386993691364 L552.6083333958679,429.59105512274544 M552.6083333958679,429.59105512274544 L553.6578329699296,428.45352060854725 M553.6578329699296,428.45352060854725 L555.15648136907,427.4921132897607 M555.15648136907,427.4921132897607 L557.017159243579,426.7625950682909 M557.017159243579,426.7625950682909 L559.131800989158,426.30725842066187 M559.131800989158,426.30725842066187 L561.3776565124351,426.1524892568626 M561.4742391043453,389.5946005776723 L561.408211113113,436.8156282677753 M561.4435482651863,378.956523556703 L559.1926948404082,379.1109286109571 M559.1926948404082,379.1109286109571 L557.0733487453266,379.56519409444485 M557.0733487453266,379.56519409444485 L555.2085328199292,380.2929963346318 M555.2085328199292,380.2929963346318 L553.7065528448653,381.25214256930593 M553.7065528448653,381.25214256930593 L552.6547218949565,382.38700228814173 M552.6547218949565,382.38700228814173 L552.1142806044274,383.6317134670833 M552.1142806044274,383.6317134670833 L552.1168163912141,384.9139920778842 M552.1168163912141,384.9139920778842 L552.6623774013059,386.1593146204955 M552.6623774013059,386.1593146204955 L553.7194388051017,387.2952580600971 M553.7194388051017,387.2952580600971 L555.2266759961362,388.2557102805621 M555.2266759961362,388.2557102805621 L557.0965201881661,388.98474278646273 M557.0965201881661,388.98474278646273 L559.2202325265721,389.4398818096489 M559.2202325265721,389.4398818096489 L561.4742391043453,389.5946005776723 M592.7285712954156,407.2378989592994 L592.5928286738866,454.50038406453064 M561.4742391043453,389.5946005776723 L592.7285712954156,407.2378989592994 M561.408211113113,436.8156282677753 L592.5928286738866,454.50038406453064 M443.8104562486667,491.8680319683472 L444.0079502801947,539.3275036005693 M592.7285712954156,407.2378989592994 L443.8104562486667,491.8680319683472 M592.5928286738866,454.50038406453064 L444.0079502801947,539.3275036005693 M322.781916216255,469.4490892955755 L308.4698687599929,466.87228621285476 M308.4698687599929,466.87228621285476 L293.85246034640915,464.9165571981426 M293.85246034640915,464.9165571981426 L279.0092725827527,463.5921803521611 M279.0092725827527,463.5921803521611 L264.0210580951788,462.90610250840285 M264.0210580951788,462.90610250840285 L248.96923483420093,462.8619434980281 M248.96923483420093,462.8619434980281 L233.9355649867651,463.4599184442734 M233.9355649867651,463.4599184442734 L219.00170625430763,464.6968960841312 M219.00170625430763,464.6968960841312 L204.2488659021411,466.5663838630104 M204.2488659021411,466.5663838630104 L189.75734197459465,469.05855122333577 M189.75734197459465,469.05855122333577 L175.60619999536425,472.16029138784717 M175.60619999536425,472.16029138784717 L161.87278836704783,475.8552596712787 M161.87278836704783,475.8552596712787 L148.63244953673788,480.1239333508637 M148.63244953673788,480.1239333508637 L135.95805626917502,484.94373398937284 M135.95805626917502,484.94373398937284 L123.91970610416615,490.2890611215321 M123.91970610416615,490.2890611215321 L112.58429101681014,496.1314569608044 M112.58429101681014,496.1314569608044 L102.01513584926721,502.4397244679459 M102.01513584926721,502.4397244679459 L92.27173480975978,509.1800531975537 M92.27173480975978,509.1800531975537 L83.40928719303423,516.3161628450409 M83.40928719303423,516.3161628450409 L75.47858051744953,523.8094925548207 M75.47858051744953,523.8094925548207 L68.52543900959336,531.6193651478252 M68.52543900959336,531.6193651478252 L62.59056534630753,539.7032443352284 M62.59056534630753,539.7032443352284 L57.70926808062899,548.0168604616467 M57.70926808062899,548.0168604616467 L53.9113256879059,556.5144261551247 M53.9113256879059,556.5144261551247 L51.22048781593719,565.1490206943961 M51.22048781593719,565.1490206943961 L49.65460907936023,573.8726135228414 M49.65460907936023,573.8726135228414 L49.22522046591098,582.636547662371 M49.22522046591098,582.636547662371 L49.937670038637464,591.3915852232046 M49.937670038637464,591.3915852232046 L51.79074523867513,600.0883647565024 M51.79074523867513,600.0883647565024 L54.776764736705786,608.6776206071104 M54.776764736705786,608.6776206071104 L58.88168591051698,617.1103791834373 M58.88168591051698,617.1103791834373 L64.08481202805882,625.3384118031217 M64.08481202805882,625.3384118031217 L70.35912525052146,633.3143853772617 M70.35912525052146,633.3143853772617 L77.67127464986288,640.9922241703605 M77.67127464986288,640.9922241703605 L85.9816874586117,648.3273947507469 M85.9816874586117,648.3273947507469 L95.24486141869755,655.277146021971 M95.24486141869755,655.277146021971 L105.40948587614218,661.8008336999205 M105.40948587614218,661.8008336999205 L116.41878797505541,667.8601473067366 M116.41878797505541,667.8601473067366 L128.21078977214455,673.4193919440681 M128.21078977214455,673.4193919440681 L140.71870874627916,678.4456966514406 M140.71870874627916,678.4456966514406 L153.87127733106075,682.9092801006088 M153.87127733106075,682.9092801006088 L167.59325319837137,686.7835928774646 M167.59325319837137,686.7835928774646 L181.80579809756165,690.045561330914 M181.80579809756165,690.045561330914 L196.4269572695288,692.6757290154832 M196.4269572695288,692.6757290154832 L211.37229462288082,694.6583281482655 M211.37229462288082,694.6583281482655 L226.55517260174622,695.9815466765176 M226.55517260174622,695.9815466765176 L241.88758957205962,696.6374331909228 M241.88758957205962,696.6374331909228 L257.28057936502984,696.6220252643514 M257.28057936502984,696.6220252643514 L272.6446667795198,695.9354637265313 M272.6446667795198,695.9354637265313 L287.8907630151052,694.581829571421 M287.8907630151052,694.581829571421 L302.93034113362324,692.569266755401 M302.93034113362324,692.569266755401 L317.67639992855874,689.9097720697258 M317.67639992855874,689.9097720697258 L332.04361656346134,686.6192945690113 M332.04361656346134,686.6192945690113 L345.94914792671943,682.7174612572076 M345.94914792671943,682.7174612572076 L359.3131312869458,678.227501924094 M359.3131312869458,678.227501924094 L372.05902545953495,673.1760808890381 M372.05902545953495,673.1760808890381 L384.1141796605044,667.5931897529982 M384.1141796605044,667.5931897529982 L395.4102343972144,661.5117963594095 M395.4102343972144,661.5117963594095 L405.88355374136853,654.9677424293654 M405.88355374136853,654.9677424293654 L415.4755680472823,647.9994275978206 M415.4755680472823,647.9994275978206 L424.1330703858936,640.6476051483396 M424.1330703858936,640.6476051483396 L431.80848534584703,632.9551146620273 M431.80848534584703,632.9551146620273 L438.4602055192921,624.9665715272859 M438.4602055192921,624.9665715272859 L444.05267753143806,616.7281247596097 M444.05267753143806,616.7281247596097 L448.55662986905014,608.2871230376904 M448.55662986905014,608.2871230376904 L451.94917178284715,599.6918826870599 M451.94917178284715,599.6918826870599 L454.21383835134816,590.9913426722773 M454.21383835134816,590.9913426722773 L455.3406608096888,582.2348179579188 M455.3406608096888,582.2348179579188 L455.3261543247027,573.4716777039387 M455.3261543247027,573.4716777039387 L454.1732242239512,564.751094703945 M454.1732242239512,564.751094703945 L451.8911909510967,556.1217429822779 M451.8911909510967,556.1217429822779 L448.49556330846514,547.6315753434749 M448.49556330846514,547.6315753434749 L444.0079502801947,539.3275036005693 M443.8104562486667,491.8680319683472 L448.3080181250757,500.1529861326206 M448.3080181250757,500.1529861326206 L451.71114636091437,508.6236384132422 M451.71114636091437,508.6236384132422 L453.9981784175614,517.2331866056763 M453.9981784175614,517.2331866056763 L455.15356525200684,525.9337892324486 M455.15356525200684,525.9337892324486 L455.1679598538818,534.6768845410365 M455.1679598538818,534.6768845410365 L454.0384446868207,543.413412419372 M454.0384446868207,543.413412419372 L451.76850685266544,552.0941160967297 M451.76850685266544,552.0941160967297 L448.36813225190076,560.669792138547 M448.36813225190076,560.669792138547 L443.85381800952877,569.0916115384366 M443.85381800952877,569.0916115384366 L438.2485021540117,577.311365832227 M438.2485021540117,577.311365832227 L431.5815186048329,585.2818113730543 M431.5815186048329,585.2818113730543 L423.8884981861156,592.9569008863484 M423.8884981861156,592.9569008863484 L415.2111403998668,600.2921167545217 M415.2111403998668,600.2921167545217 L405.5971272994826,607.2447127375128 M405.5971272994826,607.2447127375128 L395.099786310809,613.7740238585636 M395.099786310809,613.7740238585636 L383.7778208643619,619.8417332558961 M383.7778208643619,619.8417332558961 L371.69501330443126,625.4120760952223 M371.69501330443126,625.4120760952223 L358.9198813748002,630.4521549317392 M358.9198813748002,630.4521549317392 L345.5252449222369,634.9320419526948 M345.5252449222369,634.9320419526948 L331.58782401497945,638.8251293325413 M331.58782401497945,638.8251293325413 L317.187668694776,642.1082363386031 M317.187668694776,642.1082363386031 L302.40781690738527,644.7617772992846 M302.40781690738527,644.7617772992846 L287.3337925614966,646.7698366771718 M287.3337925614966,646.7698366771718 L272.0528021709688,648.1204428342348 M272.0528021709688,648.1204428342348 L256.653581697265,648.8054688763777 M256.653581697265,648.8054688763777 L241.22543028049608,648.8208423454287 M241.22543028049608,648.8208423454287 L225.85803419051453,648.1664227133051 M225.85803419051453,648.1664227133051 L210.6405691427962,646.8461641103063 M210.6405691427962,646.8461641103063 L195.66124356939088,644.8680012890411 M195.66124356939088,644.8680012890411 L181.00689798669504,642.2437215390817 M181.00689798669504,642.2437215390817 L166.76216551657595,638.989059511104 M166.76216551657595,638.989059511104 L153.00919124187482,635.1234306825215 M153.00919124187482,635.1234306825215 L139.82699544910975,630.6698599831466 M139.82699544910975,630.6698599831466 L127.29099301785169,625.6548405807553 M127.29099301785169,625.6548405807553 L115.47261364978965,620.1080904816538 M115.47261364978965,620.1080904816538 L104.43879037402962,614.0624104642293 M104.43879037402962,614.0624104642293 L94.25163927891117,607.5534188738031 M94.25163927891117,607.5534188738031 L84.96805810790437,600.6193436239787 M84.96805810790437,600.6193436239787 L76.63946861408738,593.3007409504717 M76.63946861408738,593.3007409504717 L69.31146965669507,585.64026882545 M69.31146965669507,585.64026882545 L63.023715945699564,577.6823631160707 M63.023715945699564,577.6823631160707 L57.80962516014574,569.4729980074989 M57.80962516014574,569.4729980074989 L53.69626660370159,561.0594016197297 M53.69626660370159,561.0594016197297 L50.70437339821723,552.4896950031008 M50.70437339821723,552.4896950031008 L48.848008903914945,543.8127417442787 M48.848008903914945,543.8127417442787 L48.134860419206575,535.0776961140471 M48.134860419206575,535.0776961140471 L48.56613165929434,526.3338072237424 M48.56613165929434,526.3338072237424 L50.136450902559886,517.6302001665468 M50.136450902559886,517.6302001665468 L52.83424976890058,509.0154197208646 M52.83424976890058,509.0154197208646 L56.64162237941673,500.5373849695942 M56.64162237941673,500.5373849695942 L61.534755131797795,492.24290703485065 M61.534755131797795,492.24290703485065 L67.48379275942432,484.17766567080184 M67.48379275942432,484.17766567080184 L74.4533383799353,476.38582584541143 M74.4533383799353,476.38582584541143 L82.40258989338065,468.90982266360726 M82.40258989338065,468.90982266360726 L91.28561327777913,461.79023599835926 M91.28561327777913,461.79023599835926 L101.05150130169864,455.0655339623462 M101.05150130169864,455.0655339623462 L111.64492634245403,448.7719091565632 M111.64492634245403,448.7719091565632 L123.00625755299689,442.9430898997111 M123.00625755299689,442.9430898997111 L135.07202619449504,437.61019711387235 M135.07202619449504,437.61019711387235 L147.77518971317556,432.8016188683255 M147.77518971317556,432.8016188683255 L161.04549407899006,428.542892680091 M161.04549407899006,428.542892680091 L174.80990502961816,424.8565412800692 M174.80990502961816,424.8565412800692 L188.99291420551384,421.76203908741957 M188.99291420551384,421.76203908741957 L203.51700381062452,419.27569024528196 M203.51700381062452,419.27569024528196 L218.30293596745798,417.4105689534602 M218.30293596745798,417.4105689534602 L233.27023826007834,416.17648129822635 M233.27023826007834,416.17648129822635 L248.33752760615135,415.579903653015 M248.33752760615135,415.579903653015 L263.42296990612954,415.62395947081535 M263.42296990612954,415.62395947081535 L278.44462659935726,416.3084341676032 M278.44462659935726,416.3084341676032 L293.3209042241098,417.62971693598917 M293.3209042241098,417.62971693598917 L307.97087605302397,419.58087825440373 M307.97087605302397,419.58087825440373 L322.3147887581572,422.1516656037774 M272.81499077947706,519.0128177883471 L268.42182110270085,516.9242249066634 M268.42182110270085,516.9242249066634 L263.3904412934785,515.3728073909949 M263.3904412934785,515.3728073909949 L257.9136609572136,514.417671786125 M257.9136609572136,514.417671786125 L252.20105728901143,514.0952042458214 M252.20105728901143,514.0952042458214 L246.4711343352426,514.417681971913 M246.4711343352426,514.417681971913 L240.9430915362642,515.3728116358515 M240.9430915362642,515.3728116358515 L235.8284639649089,516.9242331158298 M235.8284639649089,516.9242331158298 L231.3232209393696,519.0128177883471 M231.3232209393696,519.0128177883471 L227.60023047979553,521.5589171551837 M227.60023047979553,521.5589171551837 L224.80280275229015,524.4652473331853 M224.80280275229015,524.4652473331853 L223.03899100035346,527.6206311593214 M223.03899100035346,527.6206311593214 L222.37743654258222,530.9041491064149 M222.37743654258222,530.9041491064149 L222.84460649979457,534.1897266067488 M222.84460649979457,534.1897266067488 L224.42354850478284,537.351004150298 M224.42354850478284,537.351004150298 L227.05449306161364,540.2661511020939 M227.05449306161364,540.2661511020939 L230.6369607234347,542.8226232539907 M230.6369607234347,542.8226232539907 L235.033442369015,544.9216193297054 M235.033442369015,544.9216193297054 L240.07485770044102,546.4818485077506 M240.07485770044102,546.4818485077506 L245.56686918409093,547.4428628140286 M245.56686918409093,547.4428628140286 L251.2975350217697,547.7674069741875 M251.2975350217697,547.7674069741875 L257.0456311428658,547.4428707866077 M257.0456311428658,547.4428707866077 L262.5892049610761,546.4818533473549 M262.5892049610761,546.4818533473549 L267.71434089680616,544.9216201834982 M267.71434089680616,544.9216201834982 L272.2235020050791,542.8226232539907 M272.2235020050791,542.8226232539907 L275.94313213507337,540.2661479743088 M275.94313213507337,540.2661479743088 L278.7305243568946,537.3510061395959 M278.7305243568946,537.3510061395959 L280.4791210735339,534.1897345591233 M280.4791210735339,534.1897345591233 L281.1226133609031,530.9041400237068 M281.1226133609031,530.9041400237068 L280.6372703245688,527.6206209477036 M280.6372703245688,527.6206209477036 L279.04278122406276,524.4652402460731 M279.04278122406276,524.4652402460731 L276.401328250239,521.5589049721432 M276.401328250239,521.5589049721432 L272.81499077947706,519.0128177883471 M272.81499077947706,519.0128177883471 L273.39791515311646,566.5348153607787 M273.39791515311646,566.5348153607787 L276.9763197623426,569.0867508998855 M276.9763197623426,569.0867508998855 L279.61198355603455,571.9997585881797 M279.61198355603455,571.9997585881797 L281.20305227610083,575.1623793271006 M281.20305227610083,575.1623793271006 L281.68747921566523,578.4534278785511 M281.68747921566523,578.4534278785511 L281.0456149895808,581.7465519771897 M281.0456149895808,581.7465519771897 L279.30113248589043,584.9150638001784 M279.30113248589043,584.9150638001784 L276.5201864635419,587.8368783339466 M276.5201864635419,587.8368783339466 L272.809089326715,590.3992023048629 M272.809089326715,590.3992023048629 L268.3102210245802,592.5029991939647 M268.3102210245802,592.5029991939647 L263.19674102124253,594.0667990435695 M263.19674102124253,594.0667990435695 L257.6657356458043,595.0300128397967 M257.6657356458043,595.0300128397967 L251.9306334814334,595.355290648195 M251.9306334814334,595.355290648195 L246.21288303363315,595.0300048489983 M246.21288303363315,595.0300048489983 L240.73320747426914,594.0667941929034 M240.73320747426914,594.0667941929034 L235.70307060355162,592.5029983382196 M235.70307060355162,592.5029983382196 L231.31637392481554,590.3992023048629 M231.31637392481554,590.3992023048629 L227.74182104080205,587.8368814688893 M227.74182104080205,587.8368814688893 L225.11661782356796,584.9150618063256 M225.11661782356796,584.9150618063256 L223.54102588551794,581.7465440065964 M223.54102588551794,581.7465440065964 L223.07469004787004,578.4534369820805 M223.07469004787004,578.4534369820805 L223.73453521538931,575.162389562142 M223.73453521538931,575.162389562142 L225.4941646090678,571.9997656915584 M225.4941646090678,571.9997656915584 L228.28510148653734,569.0867631109036 M228.28510148653734,569.0867631109036 L231.99954452122404,566.5348153607787 M231.99954452122404,566.5348153607787 L236.49451293460652,564.4414311198518 M236.49451293460652,564.4414311198518 L241.59753241378996,562.886443250416 M241.59753241378996,562.886443250416 L247.11307704683543,561.9291174274599 M247.11307704683543,561.9291174274599 L252.8300880216804,561.6058981292393 M252.8300880216804,561.6058981292393 L258.529857529159,561.9291072182493 M258.529857529159,561.9291072182493 L263.99437012343225,562.8864389958001 M263.99437012343225,562.8864389958001 L269.0145161224994,564.441422891817 M269.0145161224994,564.441422891817 L273.39791515311646,566.5348153607787" stroke="black"  stroke-width="4"  fill="red"/>
<path d="M521.0380760621397,543.4397529803964 L521.0143910237581,496.91903621982567 M502.3662212779092,496.9190362198258 L502.6335901992235,498.1940415756546 M502.6335901992235,498.1940415756546 L503.4274925482586,499.3952348387896 M503.4274925482586,499.3952348387896 L504.7019343371208,500.45273184123 M504.7019343371208,500.45273184123 L506.38291975499226,501.3049706123055 M506.38291975499226,501.3049706123055 L508.3727349920193,501.90231266101466 M508.3727349920193,501.90231266101466 L510.5556237726712,502.2099478041956 M510.5556237726712,502.2099478041956 L512.8045563706937,502.2099482536903 M512.8045563706937,502.2099482536903 L514.9886335046732,501.9023119695252 M514.9886335046732,501.9023119695252 L516.9807542775286,501.3049710962925 M516.9807542775286,501.3049710962925 L518.6650314481437,500.45273225600806 M518.6650314481437,500.45273225600806 L519.9435572281936,499.3952349770209 M519.9435572281936,499.3952349770209 L520.7420965140454,498.19404143745516 M520.7420965140454,498.19404143745516 L521.0143910237581,496.91903621982567 M502.4309564794925,543.4397529803964 L502.3662212779092,496.9190362198258 M521.0380760621397,543.4397529803964 L520.7663839236111,544.7176407969622 M520.7663839236111,544.7176407969622 L519.9696056756625,545.9215494272671 M519.9696056756625,545.9215494272671 L518.69389790646,546.9814364897776 M518.69389790646,546.9814364897776 L517.0133322492557,547.8356009154302 M517.0133322492557,547.8356009154302 L515.0256006883048,548.4342912628626 M515.0256006883048,548.4342912628626 L512.8463348875498,548.7426224801462 M512.8463348875498,548.7426224801462 L510.6023553709969,548.7426220296362 M510.6023553709969,548.7426220296362 L508.4242726958484,548.4342919559142 M508.4242726958484,548.4342919559142 L506.4388365246153,547.8356004303497 M506.4388365246153,547.8356004303497 L504.7615481402216,546.9814360740622 M504.7615481402216,546.9814360740622 L503.4899063977318,545.9215492887236 M503.4899063977318,545.9215492887236 L502.6977446876644,544.717640935474 M502.6977446876644,544.717640935474 L502.4309564794925,543.4397529803964 M582.4175845473098,508.236164564672 L582.5289348672628,461.79512894912114 M582.4175845473098,508.236164564672 L521.0380760621397,543.4397529803964 M582.5289348672628,461.79512894912114 L521.0143910237581,496.91903621982567 M582.4771725435223,451.223626685064 L584.699553809048,451.37706591392043 M584.699553809048,451.37706591392043 L586.7944743331554,451.8284924681212 M586.7944743331554,451.8284924681212 L588.640319602759,452.5517480152119 M588.640319602759,452.5517480152119 L590.1298900707712,453.50490034158065 M590.1298900707712,453.50490034158065 L591.1765992748858,454.63266517362285 M591.1765992748858,454.63266517362285 L591.719493652045,455.86959375730527 M591.719493652045,455.86959375730527 L591.72686993606,457.1438463243595 M591.72686993606,457.1438463243595 L591.1980923387125,458.38137138206514 M591.1980923387125,458.38137138206514 L590.1637231643524,459.51019834384675 M590.1637231643524,459.51019834384675 L588.6837653084351,460.46463184437266 M588.6837653084351,460.46463184437266 L586.8441998564906,461.1890963039232 M586.8441998564906,461.1890963039232 L584.7520121081075,461.6413797669739 M584.7520121081075,461.6413797669739 L582.5289348672628,461.79512894912114 M511.85587146013245,411.1648646185314 L582.4771725435223,451.223626685064 M551.6485905209652,388.64243682177687 L511.85587146013245,411.1648646185314 M671.8134718241108,456.5066786710918 L551.6485905209652,388.64243682177687 M561.2467471646314,519.9182919679172 L671.8134718241108,456.5066786710918 M561.2770319958395,530.6305787687756 L559.0379945409348,530.474781757089 M559.0379945409348,530.474781757089 L556.9283906363198,530.0164706645676 M556.9283906363198,530.0164706645676 L555.0709722664983,529.2823566413012 M555.0709722664983,529.2823566413012 L553.5737552071344,528.3152088031283 M553.5737552071344,528.3152088031283 L552.5237262419056,527.1713447940878 M552.5237262419056,527.1713447940878 L551.9818027385505,525.9173370906174 M551.9818027385505,525.9173370906174 L551.9793004923523,524.6261134739545 M551.9793004923523,524.6261134739545 L552.5161720179835,523.3727173117134 M552.5161720179835,523.3727173117134 L553.5610397091156,522.2299373451933 M553.5610397091156,522.2299373451933 L555.0530691008277,521.2640958723273 M555.0530691008277,521.2640958723273 L556.9055257259947,520.5312124734809 M556.9055257259947,520.5312124734809 L559.0108211513839,520.0737751821936 M559.0108211513839,520.0737751821936 L561.2467471646314,519.9182919679172 M592.3231491893762,548.3966303303621 L561.2770319958395,530.6305787687756 M592.3231491893762,548.3966303303621 L400.50419771055266,588.8662909844743 M400.50419771055266,588.8662909844743 L471.6248624293411,479.3273817474723 M502.3662212779092,496.9190362198258 L471.6248624293411,479.3273817474723 M471.7570450676487,525.8082559739169 L471.6248624293411,479.3273817474723 M502.4309564794925,543.4397529803964 L471.7570450676487,525.8082559739169 M582.4175845473098,508.236164564672 L584.6357863423082,508.0820654408645 M584.6357863423082,508.0820654408645 L586.7233894081232,507.62875249744553 M586.7233894081232,507.62875249744553 L588.558928014601,506.9026388426839 M588.558928014601,506.9026388426839 L590.035651203335,505.9460322978274 M590.035651203335,505.9460322978274 L591.0677657588561,504.81463473568976 M591.0677657588561,504.81463473568976 L591.5953993290887,503.5742909257635 M591.5953993290887,503.5742909257635 L591.588055350071,502.29713527213886 M591.588055350071,502.29713527213886 L591.0463668543299,501.05738797702446 M591.0463668543299,501.05738797702446 L590.0019663188384,499.9270526301344 M590.0019663188384,499.9270526301344 L588.5156726281805,498.9717273625769 M588.5156726281805,498.9717273625769 L586.6738817226124,498.2468227224197 M586.6738817226124,498.2468227224197 L584.5835578399588,497.79436675924643 M584.5835578399588,497.79436675924643 L582.366048967193,497.6405776160925 M511.89935644850055,457.49012087714675 L582.366048967193,497.6405776160925 M551.6052949909376,434.9158401838476 L511.89935644850055,457.49012087714675 M551.6052949909376,434.9158401838476 L671.5063982824233,502.93567172105924 M561.1817256999161,566.4909006835546 L671.5063982824233,502.93567172105924 M561.1817256999161,566.4909006835546 L558.9507315886051,566.6467339424617 M558.9507315886051,566.6467339424617 L556.8500784098981,567.1052010183621 M556.8500784098981,567.1052010183621 L555.0017052258031,567.8397341021465 M555.0017052258031,567.8397341021465 L553.5129634607737,568.8077492892744 M553.5129634607737,568.8077492892744 L552.4703964131054,569.9531006751758 M552.4703964131054,569.9531006751758 L551.934704352591,571.2093165221554 M551.934704352591,571.2093165221554 L551.9371955663803,572.5034442246694 M551.9371955663803,572.5034442246694 L552.4779173225265,573.7602716348742 M552.4779173225265,573.7602716348742 L553.5256228891787,574.9067071046228 M553.5256228891787,574.9067071046228 L555.0195294455497,575.8760287041174 M555.0195294455497,575.8760287041174 L556.8728424934375,576.6117924570506 M556.8728424934375,576.6117924570506 L558.9777851512107,577.071133368225 M558.9777851512107,577.071133368225 L561.2118769841961,577.2272804333383 M592.1892043111377,595.0331822207058 L561.2118769841961,577.2272804333383 M592.1892043111377,595.0331822207058 L400.79571007314644,635.5931186838704 M400.79571007314644,635.5931186838704 L471.7570450676487,525.8082559739169 M582.366048967193,497.6405776160925 L582.4771725435223,451.223626685064 M511.89935644850055,457.49012087714675 L511.85587146013245,411.1648646185314 M551.6052949909376,434.9158401838476 L551.6485905209652,388.64243682177687 M671.5063982824233,502.93567172105924 L671.8134718241108,456.5066786710918 M561.1817256999161,566.4909006835546 L561.2467471646314,519.9182919679172 M561.2118769841961,577.2272804333383 L561.2770319958395,530.6305787687756 M592.1892043111377,595.0331822207058 L592.3231491893762,548.3966303303621 M400.79571007314644,635.5931186838704 L400.50419771055266,588.8662909844743" stroke="black"  stroke-width="4"  fill="red"/>
<path d="M561.5762156749813,283.9314823222093 L561.509733995442,331.54999201739395 M561.5405619863186,342.16267681770205 L559.2815211225679,342.0083269997473 M559.2815211225679,342.0083269997473 L557.1530639438481,341.55427338377575 M557.1530639438481,341.55427338377575 L555.2790407828062,340.8269796480714 M555.2790407828062,340.8269796480714 L553.7684336765253,339.86881849374583 M553.7684336765253,339.86881849374583 L552.7090071466673,338.73558525298586 M552.7090071466673,338.73558525298586 L552.1622227586322,337.49323451384964 M552.1622227586322,337.49323451384964 L552.159675641658,336.2140165988287 M552.159675641658,336.2140165988287 L552.7013174265453,334.97227712588 M552.7013174265453,334.97227712588 L553.7554901332234,333.84012743075107 M553.7554901332234,333.84012743075107 L555.2608165297281,332.88327205390397 M555.2608165297281,332.88327205390397 L557.1297889526427,332.1572083872809 M557.1297889526427,332.1572083872809 L559.2538603750031,331.70402816911184 M559.2538603750031,331.70402816911184 L561.509733995442,331.54999201739395 M561.6071817389927,294.518440986429 L561.5405619863186,342.16267681770205 M561.5762156749813,283.9314823222093 L559.3152994152174,284.08514472495267 M559.3152994152174,284.08514472495267 L557.1864815471708,284.5372254193751 M557.1864815471708,284.5372254193751 L555.3133340564879,285.26152766819604 M555.3133340564879,285.26152766819604 L553.8046462935758,286.21606208142185 M553.8046462935758,286.21606208142185 L552.7481213797173,287.3454661315343 M552.7481213797173,287.3454661315343 L552.2052737553443,288.5841948288826 M552.2052737553443,288.5841948288826 L552.2078322786203,289.8603117990595 M552.2078322786203,289.8603117990595 L552.7558455434742,291.0996516453983 M552.7558455434742,291.0996516453983 L553.8176478067954,292.23013903106136 M553.8176478067954,292.23013903106136 L555.3316399311266,293.1859789713394 M555.3316399311266,293.1859789713394 L557.209860782403,293.91151105293744 M557.209860782403,293.91151105293744 L559.3430840509394,294.3644649750986 M559.3430840509394,294.3644649750986 L561.6071817389927,294.518440986429 M623.7743286822774,249.06681340854908 L623.5697985703928,296.60025474420945 M623.7743286822774,249.06681340854908 L561.5762156749813,283.9314823222093 M623.5697985703928,296.60025474420945 L561.509733995442,331.54999201739395 M714.6377591579853,336.853587419307 L642.361582413052,296.6002580213695 M642.361582413052,296.6002580213695 L642.0749338620719,295.3404854273915 M642.0749338620719,295.3404854273915 L641.2590877574165,294.15420769185243 M641.2590877574165,294.15420769185243 L639.9615988789536,293.1102992872322 M639.9615988789536,293.1102992872322 L638.2579457235184,292.2693216317815 M638.2579457235184,292.2693216317815 L636.2471132474134,291.68003640127915 M636.2471132474134,291.68003640127915 L634.0458466118473,291.37660678099337 M634.0458466118473,291.37660678099337 L631.7819087543389,291.3766045984568 M631.7819087543389,291.3766045984568 L629.5866674787599,291.68003749261237 M629.5866674787599,291.68003749261237 L627.5875253108455,292.2693205403223 M627.5875253108455,292.2693205403223 L625.9005555966355,293.11029819559275 M625.9005555966355,293.11029819559275 L624.6237720517017,294.1542087837152 M624.6237720517017,294.1542087837152 L623.8314575235058,295.3404832431578 M623.8314575235058,295.3404832431578 L623.5697985703928,296.60025474420945 M561.5405619863186,342.16267681770205 L592.8649212048217,359.763970064943 M399.32505547039705,399.8603229404455 L592.8649212048217,359.763970064943 M471.0902576338117,291.3382586674253 L399.32505547039705,399.8603229404455 M471.0902576338117,291.3382586674253 L502.10439869991586,308.7652389899261 M502.10439869991586,308.7652389899261 L502.3741159718291,310.02832951304964 M502.3741159718291,310.02832951304964 L503.1750580494254,311.21830023415737 M503.1750580494254,311.21830023415737 L504.4608244292266,312.2659192493041 M504.4608244292266,312.2659192493041 L506.15676240991155,313.11019871235266 M506.15676240991155,313.11019871235266 L508.16428879992503,313.7019627425482 M508.16428879992503,313.7019627425482 L510.36661599396183,314.0067254050162 M510.36661599396183,314.0067254050162 L512.6355815238734,314.00672585031396 M512.6355815238734,314.00672585031396 L514.8391183325189,313.7019620575156 M514.8391183325189,313.7019620575156 L516.8489915229277,313.11019919181996 M516.8489915229277,313.11019919181996 L518.5482801465353,312.2659196602082 M518.5482801465353,312.2659196602082 L519.8382035793206,311.21830037109737 M519.8382035793206,311.21830037109737 L520.6438655564677,310.0283293761415 M520.6438655564677,310.0283293761415 L520.9185964999555,308.7652389899261 M520.9185964999555,308.7652389899261 L632.4660261740437,246.22568212018845 M632.4660261740437,246.22568212018845 L754.7764399922844,314.0452407574408 M754.7764399922844,314.0452407574408 L714.6377591579853,336.853587419307 M593.0018824865851,312.0771752585385 L592.8649212048217,359.763970064943 M561.6071817389927,294.518440986429 L593.0018824865851,312.0771752585385 M623.7743286822774,249.06681340854908 L624.0365452521904,247.81011815492593 M624.0365452521904,247.81011815492593 L624.8306008067113,246.62674110201206 M624.8306008067113,246.62674110201206 L626.1102069590386,245.58538071215062 M626.1102069590386,245.58538071215062 L627.8009164811824,244.74645784998228 M627.8009164811824,244.74645784998228 L629.8044984222713,244.15861480387088 M629.8044984222713,244.15861480387088 L632.0046219043452,243.8559234525644 M632.0046219043452,243.8559234525644 L634.2736014491479,243.85592562976703 M634.2736014491479,243.85592562976703 L636.4797771448528,244.15861371520475 M636.4797771448528,244.15861371520475 L638.4951015227516,244.7464589387747 M638.4951015227516,244.7464589387747 L640.2025688850104,245.585381801123 M640.2025688850104,245.585381801123 L641.502972722428,246.6267400128163 M641.502972722428,246.6267400128163 L642.3206648167763,247.81012033382547 M642.3206648167763,247.81012033382547 L642.6079824646176,249.06681667770738 M399.0269525105941,352.0770813809662 L593.0018824865851,312.0771752585385 M470.95511825175043,243.8176712358858 L399.0269525105941,352.0770813809662 M470.95511825175043,243.8176712358858 L502.03821296960336,261.2021274501227 M520.8943807483331,261.2021274501227 L520.6190338685174,262.4621408741642 M520.6190338685174,262.4621408741642 L519.8115713203331,263.6492136660523 M519.8115713203331,263.6492136660523 L518.5187666511736,264.69428196383456 M518.5187666511736,264.69428196383456 L516.8156832604338,265.53650599187915 M516.8156832604338,265.53650599187915 L514.8013224181436,266.12682832239733 M514.8013224181436,266.12682832239733 L512.592866387632,266.4308502847049 M512.592866387632,266.4308502847049 L510.3188367346804,266.43084984049096 M510.3188367346804,266.43084984049096 L508.11159572326443,266.1268290057625 M508.11159572326443,266.1268290057625 L506.09959217058497,265.536505513579 M506.09959217058497,265.536505513579 L504.3998743922653,264.694281553931 M504.3998743922653,264.694281553931 L503.111245347898,263.6492135294459 M503.111245347898,263.6492135294459 L502.30852378780975,262.4621410107387 M502.30852378780975,262.4621410107387 L502.03821296960336,261.2021274501227 M632.6892676838424,198.81578994519748 L520.8943807483331,261.2021274501227 M755.2741629325067,266.46927144495226 L632.6892676838424,198.81578994519748 M755.2741629325067,266.46927144495226 L715.0468088690427,289.2222151802534 M715.0468088690427,289.2222151802534 L642.6079824646176,249.06681667770738 M642.6079824646176,249.06681667770738 L642.361582413052,296.6002580213695 M715.0468088690427,289.2222151802534 L714.6377591579853,336.853587419307 M755.2741629325067,266.46927144495226 L754.7764399922844,314.0452407574408 M632.6892676838424,198.81578994519748 L632.4660261740437,246.22568212018845 M520.8943807483331,261.2021274501227 L520.9185964999555,308.7652389899261 M502.03821296960336,261.2021274501227 L502.10439869991586,308.7652389899261 M470.95511825175043,243.8176712358858 L471.0902576338117,291.3382586674253 M399.0269525105941,352.0770813809662 L399.32505547039705,399.8603229404455" stroke="black"  stroke-width="4"  fill="red"/>
<path d="M520.8943807483331,261.2021274501227 L520.870056734841,213.42637450790278 M501.9717313413553,213.42637450790278 L502.2426383230026,214.68327092983534 M502.2426383230026,214.68327092983534 L503.04714728874893,215.86740739543882 M503.04714728874893,215.86740739543882 L504.3386517708662,216.9098911062478 M504.3386517708662,216.9098911062478 L506.0421662298346,217.75003270720492 M506.0421662298346,217.75003270720492 L508.0586669561675,218.33889683814144 M508.0586669561675,218.33889683814144 L510.27084375753344,218.64216615100258 M510.27084375753344,218.64216615100258 L512.5499601854785,218.64216659411844 M512.5499601854785,218.64216659411844 L514.7633574467287,218.33889615646558 M514.7633574467287,218.33889615646558 L516.7822260223497,217.75003318432255 M516.7822260223497,217.75003318432255 L518.4891211637746,216.90989151513782 M518.4891211637746,216.90989151513782 L519.7848199672167,215.8674075317074 M519.7848199672167,215.8674075317074 L520.5940911512255,214.68327079359872 M520.5940911512255,214.68327079359872 L520.870056734841,213.42637450790278 M502.03821296960336,261.2021274501227 L501.9717313413553,213.42637450790278 M520.8943807483331,261.2021274501227 L520.6190338685174,262.4621408741642 M520.6190338685174,262.4621408741642 L519.8115713203331,263.6492136660523 M519.8115713203331,263.6492136660523 L518.5187666511736,264.69428196383456 M518.5187666511736,264.69428196383456 L516.8156832604338,265.53650599187915 M516.8156832604338,265.53650599187915 L514.8013224181436,266.12682832239733 M514.8013224181436,266.12682832239733 L512.592866387632,266.4308502847049 M512.592866387632,266.4308502847049 L510.3188367346804,266.43084984049096 M510.3188367346804,266.43084984049096 L508.11159572326443,266.1268290057625 M508.11159572326443,266.1268290057625 L506.09959217058497,265.536505513579 M506.09959217058497,265.536505513579 L504.3998743922653,264.694281553931 M504.3998743922653,264.694281553931 L503.111245347898,263.6492135294459 M503.111245347898,263.6492135294459 L502.30852378780975,262.4621410107387 M502.30852378780975,262.4621410107387 L502.03821296960336,261.2021274501227 M583.0931129680994,226.4925695534432 L583.2074569617148,178.80295822441525 M583.0931129680994,226.4925695534432 L520.8943807483331,261.2021274501227 M583.2074569617148,178.80295822441525 L520.870056734841,213.42637450790278 M511.5909123383807,128.89965830621645 L583.1543022117576,168.38270648929873 M583.1543022117576,168.38270648929873 L585.406373484512,168.53394837251793 M585.406373484512,168.53394837251793 L587.529304071451,168.97891056344403 M587.529304071451,168.97891056344403 L589.399855388092,169.69181027509842 M589.399855388092,169.69181027509842 L590.9093939996769,170.63131705150022 M590.9093939996769,170.63131705150022 L591.9701724293839,171.74293952333664 M591.9701724293839,171.74293952333664 L592.5204163497258,172.96216693977829 M592.5204163497258,172.96216693977829 L592.5279910175043,174.2181882789921 M592.5279910175043,174.2181882789921 L591.9922437232749,175.4380115346698 M591.9922437232749,175.4380115346698 L590.9441372412653,176.5506949287299 M590.9441372412653,176.5506949287299 L589.4444698392655,177.49148142274964 M589.4444698392655,177.49148142274964 L587.5803673315155,178.20558864359157 M587.5803673315155,178.20558864359157 L585.4602429589145,178.6514067547269 M585.4602429589145,178.6514067547269 L583.2074569617148,178.80295822441525 M501.9717313413553,213.42637450790278 L470.81937573483117,196.08499668127746 M398.7275048736191,304.0783000825454 L470.81937573483117,196.08499668127746 M593.1394591556358,264.1761166330627 L398.7275048736191,304.0783000825454 M593.1394591556358,264.1761166330627 L561.6741003084062,246.66050134181057 M561.6741003084062,246.66050134181057 L559.4049231099538,246.50690404766328 M559.4049231099538,246.50690404766328 L557.2669123627284,246.05506426476495 M557.2669123627284,246.05506426476495 L555.3844749771663,245.33131697561763 M555.3844749771663,245.33131697561763 L553.867082632851,244.37782873246078 M553.867082632851,244.37782873246078 L552.8028939589888,243.2501232545053 M552.8028939589888,243.2501232545053 L552.2536462822372,242.01383382474273 M552.2536462822372,242.01383382474273 L552.2510762758697,240.7408584957531 M552.2510762758697,240.7408584957531 L552.795135119698,239.50518007772152 M552.795135119698,239.50518007772152 L553.8540227594337,238.37855768967322 M553.8540227594337,238.37855768967322 L555.3660869314508,237.42637468028457 M555.3660869314508,237.42637468028457 L557.2434281816443,236.70385694723717 M557.2434281816443,236.70385694723717 L559.3770137519921,236.25289019334832 M559.3770137519921,236.25289019334832 L561.6429952416777,236.09960643984238 M561.6429952416777,236.09960643984238 L673.6846341939167,173.59013631556687 M673.6846341939167,173.59013631556687 L551.9123863324189,106.70270815034786 M551.9123863324189,106.70270815034786 L511.5909123383807,128.89965830621645 M470.95511825175043,243.8176712358858 L470.81937573483117,196.08499668127746 M502.03821296960336,261.2021274501227 L470.95511825175043,243.8176712358858 M583.0931129680994,226.4925695534432 L585.3408924894236,226.34063986525084 M585.3408924894236,226.34063986525084 L587.4563090656843,225.89370909199647 M587.4563090656843,225.89370909199647 L589.3162767109362,225.17781943645966 M589.3162767109362,225.17781943645966 L590.8126228155252,224.2346843648581 M590.8126228155252,224.2346843648581 L591.8584144652328,223.11922276514065 M591.8584144652328,223.11922276514065 L592.3929874152269,221.89635316259645 M592.3929874152269,221.89635316259645 L592.3854463631602,220.63719438930883 M592.3854463631602,220.63719438930883 L591.8364411513745,219.41492077987192 M591.8364411513745,219.41492077987192 L590.7780337967998,218.3005203892169 M590.7780337967998,218.3005203892169 L589.2718603014896,217.35866538122661 M589.2718603014896,217.35866538122661 L587.4054724826448,216.6439835661634 M587.4054724826448,216.6439835661634 L585.2872621360111,216.19790894693796 M585.2872621360111,216.19790894693796 L583.0401941621035,216.0462889313242 M511.63556061107454,176.46418003350982 L583.0401941621035,216.0462889313242 M551.8679351625946,154.21123639542932 L511.63556061107454,176.46418003350982 M551.8679351625946,154.21123639542932 L673.3693092154101,221.2667324661536 M561.5762156749813,283.9314823222093 L673.3693092154101,221.2667324661536 M561.5762156749813,283.9314823222093 L559.3152994152174,284.08514472495267 M559.3152994152174,284.08514472495267 L557.1864815471708,284.5372254193751 M557.1864815471708,284.5372254193751 L555.3133340564879,285.26152766819604 M555.3133340564879,285.26152766819604 L553.8046462935758,286.21606208142185 M553.8046462935758,286.21606208142185 L552.7481213797173,287.3454661315343 M552.7481213797173,287.3454661315343 L552.2052737553443,288.5841948288826 M552.2052737553443,288.5841948288826 L552.2078322786203,289.8603117990595 M552.2078322786203,289.8603117990595 L552.7558455434742,291.0996516453983 M552.7558455434742,291.0996516453983 L553.8176478067954,292.23013903106136 M553.8176478067954,292.23013903106136 L555.3316399311266,293.1859789713394 M555.3316399311266,293.1859789713394 L557.209860782403,293.91151105293744 M557.209860782403,293.91151105293744 L559.3430840509394,294.3644649750986 M559.3430840509394,294.3644649750986 L561.6071817389927,294.518440986429 M593.0018824865851,312.0771752585385 L561.6071817389927,294.518440986429 M593.0018824865851,312.0771752585385 L399.0269525105941,352.0770813809662 M399.0269525105941,352.0770813809662 L470.95511825175043,243.8176712358858 M583.0401941621035,216.0462889313242 L583.1543022117576,168.38270648929873 M511.63556061107454,176.46418003350982 L511.5909123383807,128.89965830621645 M551.8679351625946,154.21123639542932 L551.9123863324189,106.70270815034786 M673.3693092154101,221.2667324661536 L673.6846341939167,173.59013631556687 M561.5762156749813,283.9314823222093 L561.6429952416777,236.09960643984238 M561.6071817389927,294.518440986429 L561.6741003084062,246.66050134181057 M593.0018824865851,312.0771752585385 L593.1394591556358,264.1761166330627 M399.0269525105941,352.0770813809662 L398.7275048736191,304.0783000825454" stroke="black"  stroke-width="4"  fill="red"/>
<path d="M320.4252089643219,230.82860257418497 L320.9007930001732,278.982268677043 M470.6830258256599,148.13873792808425 L470.8193757348312,196.0849966812773 M320.4252089643219,230.82860257418497 L470.6830258256599,148.13873792808425 M320.9007930001732,278.982268677043 L470.8193757348312,196.0849966812773 M501.90495172325296,165.43647684581828 L501.9717313413553,213.4263745079027 M470.6830258256599,148.13873792808425 L501.90495172325296,165.43647684581828 M470.8193757348312,196.0849966812773 L501.9717313413553,213.4263745079027 M504.668778640278,169.141805019489 L504.7294012839539,217.14103319960378 M501.90495172325296,165.43647684581828 L502.08390839144175,166.45850225329002 M502.08390839144175,166.45850225329002 L502.6200344011197,167.4414475201487 M502.6200344011197,167.4414475201487 L503.49281725392865,168.34750471134288 M503.49281725392865,168.34750471134288 L504.668778640278,169.141805019489 M501.9717313413553,213.4263745079027 L502.15029462901157,214.45097412409848 M502.15029462901157,214.45097412409848 L502.6852282222394,215.4363947286263 M502.6852282222394,215.4363947286263 L503.5560650406336,216.34473325036254 M503.5560650406336,216.34473325036254 L504.7294012839539,217.14103319960378 M511.3646718224226,170.67740173453205 L511.41032557998,218.6804949638826 M504.668778640278,169.141805019489 L506.1027477381198,169.79376403993183 M506.1027477381198,169.79376403993183 L507.7395958041317,170.27826749791237 M507.7395958041317,170.27826749791237 L509.5163603786388,170.576646538055 M509.5163603786388,170.576646538055 L511.3646718224226,170.67740173453205 M504.7294012839539,217.14103319960378 L506.1601669180388,217.79463330887094 M506.1601669180388,217.79463330887094 L507.79335640315315,218.280356219743 M507.79335640315315,218.280356219743 L509.56614814457663,218.57948620188145 M509.56614814457663,218.57948620188145 L511.41032557998,218.6804949638826 M520.8456236940968,165.43647684581828 L520.870056734841,213.42637450790278 M511.3646718224226,170.67740173453205 L513.4733546749706,170.54593382360423 M513.4733546749706,170.54593382360423 L515.4766744328299,170.1581435084779 M515.4766744328299,170.1581435084779 L517.2740473970234,169.53353117367442 M517.2740473970234,169.53353117367442 L518.775277430933,168.70349933036616 M518.775277430933,168.70349933036616 L519.905086449134,167.70975902862068 M519.905086449134,167.70975902862068 L520.6068888936821,166.60222064915183 M520.6068888936821,166.60222064915183 L520.8456236940968,165.43647684581828 M511.41032557998,218.6804949638826 L513.5142909672122,218.54869619339178 M513.5142909672122,218.54869619339178 L515.513128138793,218.15992989845967 M515.513128138793,218.15992989845967 L517.306478743157,217.5337454160807 M517.306478743157,217.5337454160807 L518.8043486520006,216.7016241161167 M518.8043486520006,216.7016241161167 L519.9316282712156,215.70538184759135 M519.9316282712156,215.70538184759135 L520.63185856901,214.59505447088242 M520.63185856901,214.59505447088242 L520.870056734841,213.42637450790278 M633.1387334107296,103.36256680907718 L632.9135011048841,151.1952451675524 M520.8456236940968,165.43647684581828 L633.1387334107296,103.36256680907718 M520.870056734841,213.42637450790278 L632.9135011048841,151.1952451675524 M674.0013669741707,125.70068295436943 L673.6846341939167,173.59013631556687 M633.1387334107296,103.36256680907718 L674.0013669741707,125.70068295436943 M632.9135011048841,151.1952451675524 L673.6846341939167,173.59013631556687 M756.2763035680778,170.67739955849865 L755.7741122087757,218.68049278237288 M674.0013669741707,125.70068295436943 L756.2763035680778,170.67739955849865 M673.6846341939167,173.59013631556687 L755.7741122087757,218.68049278237288 M715.870422686935,193.31735256627164 L715.4576923797404,241.3773080310985 M756.2763035680778,170.67739955849865 L715.870422686935,193.31735256627164 M755.7741122087757,218.68049278237288 L715.4576923797404,241.3773080310985 M643.1040911412975,153.36167159674042 L642.8554827839719,201.32112085578407 M715.870422686935,193.31735256627164 L643.1040911412975,153.36167159674042 M715.4576923797404,241.3773080310985 L642.8554827839719,201.32112085578407 M640.2937575808751,149.66793861557932 L640.0515136975555,197.61806061844027 M643.1040911412975,153.36167159674042 L642.9110821720469,152.3422986983355 M642.9110821720469,152.3422986983355 L642.3620874715537,151.36229930762462 M642.3620874715537,151.36229930762462 L641.4783075737282,150.45929432465564 M641.4783075737282,150.45929432465564 L640.2937575808751,149.66793861557932 M642.8554827839719,201.32112085578407 L642.6629299132283,200.29917448739627 M642.6629299132283,200.29917448739627 L642.1151850411727,199.31670059146137 M642.1151850411727,199.31670059146137 L641.2334002414717,198.41141513623018 M641.2334002414717,198.41141513623018 L640.0515136975555,197.61806061844027 M633.5922130774561,148.13874009439368 L633.3649632433337,196.08499885306023 M640.2937575808751,149.66793861557932 L638.8539890790998,149.01858021497384 M638.8539890790998,149.01858021497384 L637.2143020253451,148.5361197526154 M637.2143020253451,148.5361197526154 L635.4376529727174,148.23904338275003 M635.4376529727174,148.23904338275003 L633.5922130774561,148.13874009439368 M640.0515136975555,197.61806061844027 L638.6149745294794,196.9670618581419 M638.6149745294794,196.9670618581419 L636.9789587088567,196.4833825194041 M636.9789587088567,196.4833825194041 L635.206281967131,196.18555557147909 M635.206281967131,196.18555557147909 L633.3649632433337,196.08499885306023 M624.1861352647164,153.36166834389923 L623.9797720971113,201.32111759473167 M633.5922130774561,148.13874009439368 L631.4897839618293,148.26962370826806 M631.4897839618293,148.26962370826806 L629.4952729857448,148.65573040176366 M629.4952729857448,148.65573040176366 L627.7085683160024,149.27775642574883 M627.7085683160024,149.27775642574883 L626.2191940690365,150.1045887076852 M626.2191940690365,150.1045887076852 L625.1018305291366,151.0948579119297 M625.1018305291366,151.0948579119297 L624.4125823473488,152.1989879234215 M624.4125823473488,152.1989879234215 L624.1861352647164,153.36166834389923 M633.3649632433337,196.08499885306023 L631.2672236834499,196.21621316150748 M631.2672236834499,196.21621316150748 L629.2771559897478,196.60329535964743 M629.2771559897478,196.60329535964743 L627.4944260821394,197.2268928026119 M627.4944260821394,197.2268928026119 L626.0083590722168,198.05581363718025 M626.0083590722168,198.05581363718025 L624.8934694090876,199.0485838301438 M624.8934694090876,199.0485838301438 L624.2057373656976,200.15550187847435 M624.2057373656976,200.15550187847435 L623.9797720971113,201.32111759473167 M561.7100748057808,188.05285287214537 L561.6429952416777,236.09960643984238 M624.1861352647164,153.36166834389923 L561.7100748057808,188.05285287214537 M623.9797720971113,201.32111759473167 L561.6429952416777,236.09960643984238 M552.2291340686074,193.31735038044803 L552.1832751465873,241.37730583979607 M561.7100748057808,188.05285287214537 L559.5983578523951,188.18477838646282 M559.5983578523951,188.18477838646282 L557.5931552484742,188.5739574285908 M557.5931552484742,188.5739574285908 L555.7948893571622,189.20093315389786 M555.7948893571622,189.20093315389786 L554.2936609194512,190.03434633892442 M554.2936609194512,190.03434633892442 L553.1647480261981,191.0324964873705 M553.1647480261981,191.0324964873705 L552.4648316248288,192.14541483761417 M552.4648316248288,192.14541483761417 L552.2291340686074,193.31735038044803 M561.6429952416777,236.09960643984238 L559.5360093222378,236.23186293726195 M559.5360093222378,236.23186293726195 L557.5352977252733,236.6220183313301 M557.5352977252733,236.6220183313301 L555.7410581845008,237.25056683861018 M555.7410581845008,237.25056683861018 L554.2431898611449,238.08607038749392 M554.2431898611449,238.08607038749392 L553.1168023547089,239.08672368555196 M553.1168023547089,239.08672368555196 L552.4184496579574,240.20243247689996 M552.4184496579574,240.20243247689996 L552.1832751465873,241.37730583979607 M555.0191849605296,197.0432286232263 L554.9670517709244,245.11252009096245 M552.2291340686074,193.31735038044803 L552.413709571631,194.3450440621825 M552.413709571631,194.3450440621825 L552.956245751849,195.33344035388353 M552.956245751849,195.33344035388353 L553.8359860776523,196.24452265226728 M553.8359860776523,196.24452265226728 L555.0191849605296,197.0432286232263 M552.1832751465873,241.37730583979607 L552.3674321468002,242.4075752514985 M552.3674321468002,242.4075752514985 L552.908747240837,243.39844833780407 M552.908747240837,243.39844833780407 L553.7865104101329,244.3118133066569 M553.7865104101329,244.3118133066569 L554.9670517709244,245.11252009096245 M561.7413198133877,198.58734256766576 L561.6741003084062,246.66050134181057 M555.0191849605296,197.0432286232263 L556.4603932618832,197.69880405753884 M556.4603932618832,197.69880405753884 L558.1042036191038,198.185995206321 M558.1042036191038,198.185995206321 L559.8873854332323,198.4860295120256 M559.8873854332323,198.4860295120256 L561.7413198133877,198.58734256766576 M554.9670517709244,245.11252009096245 L556.4050242180272,245.7697375746019 M556.4050242180272,245.7697375746019 L558.0451448399765,246.2581488890936 M558.0451448399765,246.2581488890936 L559.8243251039332,246.55893457536362 M559.8243251039332,246.55893457536362 L561.6741003084062,246.66050134181057 M593.2776555823323,216.05927252939978 L593.1394591556359,264.1761166330627 M561.7413198133877,198.58734256766576 L593.2776555823323,216.05927252939978 M561.6741003084062,246.66050134181057 L593.1394591556359,264.1761166330627 M443.0115113964919,299.8748853697399 L443.2126051714187,348.1994055221455 M593.2776555823323,216.05927252939978 L443.0115113964919,299.8748853697399 M593.1394591556359,264.1761166330627 L443.2126051714187,348.1994055221455 M100.5114036589253,420.91507558131593 L101.50000269610206,469.5339876339865 M443.0115113964919,299.8748853697399 L447.5493136203443,308.0807672595064 M447.5493136203443,308.0807672595064 L450.98277840250864,316.470697755212 M450.98277840250864,316.470697755212 L453.2900263286908,324.99832778467027 M453.2900263286908,324.99832778467027 L454.4553453204162,333.6162762052717 M454.4553453204162,333.6162762052717 L454.46928063646396,342.2764456063427 M454.46928063646396,342.2764456063427 L453.32886508893387,350.93024201466653 M453.32886508893387,350.93024201466653 L451.0375946992897,359.5288736922851 M451.0375946992897,359.5288736922851 L447.6055244426359,368.02359878496463 M447.6055244426359,368.02359878496463 L443.04928149466394,376.36604346260094 M443.04928149466394,376.36604346260094 L437.3919949498235,384.50844585583036 M437.3919949498235,384.50844585583036 L430.6632510241163,392.40399729184526 M430.6632510241163,392.40399729184526 L422.8989937356221,400.0070719309249 M422.8989937356221,400.0070719309249 L414.1412950721685,407.27355722939444 M414.1412950721685,407.27355722939444 L404.4382684774114,414.1610937454001 M404.4382684774114,414.1610937454001 L393.8437288710685,420.6293825093279 M393.8437288710685,420.6293825093279 L382.41692099060805,426.6404497939548 M382.41692099060805,426.6404497939548 L370.2222196436304,432.15884955186334 M370.2222196436304,432.15884955186334 L357.3287829723498,437.15197627110035 M357.3287829723498,437.15197627110035 L343.8101150142815,441.59016669660906 M343.8101150142815,441.59016669660906 L329.743659808406,445.44704733948504 M329.743659808406,445.44704733948504 L315.21022550203776,448.6996409797111 M315.21022550203776,448.6996409797111 L300.29363862210766,451.32853342951154 M300.29363862210766,451.32853342951154 L285.0802369252981,453.3179482213101 M285.0802369252981,453.3179482213101 L269.6580579278006,454.6560180916864 M269.6580579278006,454.6560180916864 L254.11668363909695,455.334686949265 M254.11668363909695,455.334686949265 L238.54626457467486,455.3499177586367 M238.54626457467486,455.3499177586367 L223.03734132172008,454.7015712424536 M223.03734132172008,454.7015712424536 L207.67993773720485,453.3935671012617 M207.67993773720485,453.3935671012617 L192.56309924677726,451.43377096762845 M192.56309924677726,451.43377096762845 L177.77448779898012,448.83386737465935 M177.77448779898012,448.83386737465935 L163.39953391110748,445.6094534999195 M163.39953391110748,445.6094534999195 L149.52115287576208,441.77977484766546 M149.52115287576208,441.77977484766546 L136.21910160014556,437.36765422730457 M136.21910160014556,437.36765422730457 L123.56949314951999,432.3993514959673 M123.56949314951999,432.3993514959673 L111.6444132034706,426.9043220332693 M111.6444132034706,426.9043220332693 L100.5114036589253,420.91507558131593 M443.2126051714187,348.1994055221455 L447.74027996653365,356.4254516707981 M447.74027996653365,356.4254516707981 L451.16611003827114,364.8359676999645 M451.16611003827114,364.8359676999645 L453.4682705938515,373.3844890166189 M453.4682705938515,373.3844890166189 L454.6310906277394,382.02351710657183 M454.6310906277394,382.02351710657183 L454.6451425533799,390.7048361509778 M454.6451425533799,390.7048361509778 L453.5074717196758,399.37973329498135 M453.5074717196758,399.37973329498135 L451.22157194201117,407.99929818574736 M451.22157194201117,407.99929818574736 L447.7974808466243,416.51467121950725 M447.7974808466243,416.51467121950725 L443.25179290966423,424.87736243526433 M443.25179290966423,424.87736243526433 L437.6075891643037,433.03949600757926 M437.6075891643037,433.03949600757926 L430.8943923482609,440.9541522587202 M430.8943923482609,440.9541522587202 L423.14806766715975,448.5755977859322 M423.14806766715975,448.5755977859322 L414.4105933654819,455.85961664581976 M414.4105933654819,455.85961664581976 L404.72997430944673,462.76375065042265 M404.72997430944673,462.76375065042265 L394.15990271172427,469.2476073813417 M394.15990271172427,469.2476073813417 L382.75948704934893,475.27312549307555 M382.75948704934893,475.27312549307555 L370.592952984698,480.8047775289982 M370.592952984698,480.8047775289982 L357.72929744091164,485.8098834187171 M357.72929744091164,485.8098834187171 L344.2418522056687,490.25871233470446 M344.2418522056687,490.25871233470446 L330.20787904787403,494.12483092980744 M330.20787904787403,494.12483092980744 L315.7079952462258,497.3852099958552 M315.7079952462258,497.3852099958552 L300.8258287824941,500.02039153627334 M300.8258287824941,500.02039153627334 L285.6475125038544,502.01456355392617 M285.6475125038544,502.01456355392617 L270.26087469599577,503.35583211848837 M270.26087469599577,503.35583211848837 L254.75528434893096,504.0361230487571 M254.75528434893096,504.0361230487571 L239.22067761748033,504.05139025862593 M239.22067761748033,504.05139025862593 L223.74737998877282,503.4014941513362 M223.74737998877282,503.4014941513362 L208.42520177698685,502.0903632242103 M208.42520177698685,502.0903632242103 L193.34297767516566,500.12588076977295 M193.34297767516566,500.12588076977295 L178.58816282169485,497.51975757467187 M178.58816282169485,497.51975757467187 L164.24598698086862,494.28762593818846 M164.24598698086862,494.28762593818846 L150.39917154308102,490.4487747875628 M150.39917154308102,490.4487747875628 L137.1272879769187,486.02607856483195 M137.1272879769187,486.02607856483195 L124.50627359314916,481.0458567233837 M124.50627359314916,481.0458567233837 L112.6080489511246,475.5376317225107 M112.6080489511246,475.5376317225107 L101.50000269610206,469.5339876339865 M100.5114036589253,420.91507558131593 L90.2331393856972,414.4669130797083 M90.2331393856972,414.4669130797083 L80.86702320431795,407.5977201711392 M80.86702320431795,407.5977201711392 L72.46492609502121,400.3476881520004 M72.46492609502121,400.3476881520004 L65.0728374279679,392.75908909103566 M65.0728374279679,392.75908909103566 L58.73074306330034,384.8759546323779 M58.73074306330034,384.8759546323779 L53.47233032022132,376.7438383116644 M53.47233032022132,376.7438383116644 L49.32487625732762,368.4095335313832 M49.32487625732762,368.4095335313832 L46.30926072903384,359.92071569184117 M46.30926072903384,359.92071569184117 L44.43963048095361,351.32579300551106 M44.43963048095361,351.32579300551106 L43.72369643192212,342.6734587608186 M43.72369643192212,342.6734587608186 L44.16262598454796,334.01249724557647 M44.16262598454796,334.01249724557647 L45.75095117241028,325.39156693340925 M45.75095117241028,325.39156693340925 L48.47695182255728,316.8587485546552 M48.47695182255728,316.8587485546552 L52.32251416463231,308.4615002462597 M52.32251416463231,308.4615002462597 L57.263565396281024,300.2461800324855 M57.263565396281024,300.2461800324855 L63.26993915638326,292.25802285233226 M63.26993915638326,292.25802285233226 L70.30588083516705,284.5407610576943 M70.30588083516705,284.5407610576943 L78.33018577555714,277.13641169662515 M78.33018577555714,277.13641169662515 L87.2964754920182,270.0851526807678 M87.2964754920182,270.0851526807678 L97.1533582262631,263.4250690789444 M97.1533582262631,263.4250690789444 L107.8449870382567,257.1919913214508 M107.8449870382567,257.1919913214508 L119.31117820426743,251.4193086387262 M119.31117820426743,251.4193086387262 L131.4878808094279,246.13782772224044 M131.4878808094279,246.13782772224044 L144.30744315298588,241.3756488688007 M144.30744315298588,241.3756488688007 L157.69897820144152,237.15804979409 M157.69897820144152,237.15804979409 L171.58879848739628,233.5073233416884 M171.58879848739628,233.5073233416884 L185.90072463689214,230.4427446108027 M185.90072463689214,230.4427446108027 L200.55655380296656,227.9804504649854 M200.55655380296656,227.9804504649854 L215.4763511211216,226.1333806960114 M215.4763511211216,226.1333806960114 L230.57893905858748,224.91124043134855 M230.57893905858748,224.91124043134855 L245.7822235950073,224.32043928996825 M245.7822235950073,224.32043928996825 L261.0036573607138,224.364068505859 M261.0036573607138,224.364068505859 L276.1605886346315,225.04191571909007 M276.1605886346315,225.04191571909007 L291.17071428719623,226.3504073490431 M291.17071428719623,226.3504073490431 L305.95240362294584,228.28268529371346 M305.95240362294584,228.28268529371346 L320.4252089643219,230.82860257418497 M101.50000269610206,469.5339876339865 L91.24466906397515,463.07030645432167 M91.24466906397515,463.07030645432167 L81.8993237696626,456.18456122431905 M81.8993237696626,456.18456122431905 L73.51572475570549,448.91703641699803 M73.51572475570549,448.91703641699803 L66.13976314338288,441.31010261929134 M66.13976314338288,441.31010261929134 L59.811341494133444,433.40789465842334 M59.811341494133444,433.40789465842334 L54.56407931865044,425.25607343324384 M54.56407931865044,425.25607343324384 L50.425201450499685,416.90154328629274 M50.425201450499685,416.90154328629274 L47.41555088401077,408.39209333358656 M47.41555088401077,408.39209333358656 L45.549253453555025,399.776247969634 M45.549253453555025,399.776247969634 L44.83401421232696,391.10281808056527 M44.83401421232696,391.10281808056527 L45.271009783788145,382.42070651640785 M45.271009783788145,382.42070651640785 L46.85479650722459,373.7786907557264 M46.85479650722459,373.7786907557264 L49.573692495151704,365.224969862792 M49.573692495151704,365.224969862792 L53.40963637979121,356.8071195026313 M53.40963637979121,356.8071195026313 L58.33862067135823,348.5716132121679 M58.33862067135823,348.5716132121679 L64.3305573777269,340.5637993178795 M64.3305573777269,340.5637993178795 L71.34978198904747,332.8275204365299 M71.34978198904747,332.8275204365299 L79.35519122433476,325.4049001581501 M79.35519122433476,325.4049001581501 L88.30051851384059,318.3362188234223 M88.30051851384059,318.3362188234223 L98.13449409023508,311.6596590995694 M98.13449409023508,311.6596590995694 L108.80140175209033,305.41114368795326 M108.80140175209033,305.41114368795326 L120.24119695183151,299.62414820146194 M120.24119695183151,299.62414820146194 L132.38997531606503,294.32955937482086 M132.38997531606503,294.32955937482086 L145.18023846494117,289.5555508028515 M145.18023846494117,289.5555508028515 L158.54125868172093,285.32746637020756 M158.54125868172093,285.32746637020756 L172.39951289217768,281.66765746689885 M172.39951289217768,281.66765746689885 L186.67899059047338,278.5954499511497 M186.67899059047338,278.5954499511497 L201.3016613238582,276.1270232841032 M201.3016613238582,276.1270232841032 L216.18776562035822,274.27535148310477 M216.18776562035822,274.27535148310477 L231.25630338101092,273.0501653829801 M231.25630338101092,273.0501653829801 L246.42535948051304,272.4578916001583 M246.42535948051304,272.4578916001583 L261.61256602842366,272.50162957232226 M261.61256602842366,272.50162957232226 L276.735450753624,273.18116637328706 M276.735450753624,273.18116637328706 L291.71188909691193,274.49291894355457 M291.71188909691193,274.49291894355457 L306.4604274992172,276.430010995775 M306.4604274992172,276.430010995775 L320.9007930001732,278.982268677043 M270.45675140329314,326.7610421239435 L271.05032888517013,375.1515176786024 M227.8883013735951,350.3450432250122 L228.58015976043419,398.793108653459 M270.45675140329314,326.7610421239435 L266.0240597184067,324.6923035765435 M266.0240597184067,324.6923035765435 L260.94723740074664,323.1556388488209 M260.94723740074664,323.1556388488209 L255.4208303091659,322.2095879209138 M255.4208303091659,322.2095879209138 L249.6563067833739,321.8901878549199 M249.6563067833739,321.8901878549199 L243.87414736935438,322.20959800981234 M243.87414736935438,322.20959800981234 L238.29554033447135,323.1556430533064 M238.29554033447135,323.1556430533064 L233.1339474829807,324.69231170765795 M233.1339474829807,324.69231170765795 L228.58713205049168,326.7610421239435 M228.58713205049168,326.7610421239435 L224.82955502139248,329.2829482734709 M224.82955502139248,329.2829482734709 L222.0058594208294,332.1616760075726 M222.0058594208294,332.1616760075726 L220.22511802899942,335.2871085903314 M220.22511802899942,335.2871085903314 L219.55663842583436,338.53947732606866 M219.55663842583436,338.53947732606866 L220.02717279845814,341.79390475371474 M220.02717279845814,341.79390475371474 L221.61965817378945,344.92522832989266 M221.61965817378945,344.92522832989266 L224.27382113735285,347.81276879729785 M224.27382113735285,347.81276879729785 L227.8883013735951,350.3450432250122 M271.05032888517013,375.1515176786024 L266.627584210349,373.07771565957535 M266.627584210349,373.07771565957535 L261.5621992990736,371.53728853813317 M261.5621992990736,371.53728853813317 L256.0482830219372,370.5889207617755 M256.0482830219372,370.5889207617755 L250.29682774004183,370.26873840529106 M250.29682774004183,370.26873840529106 L244.5278165297786,370.58893087538354 M244.5278165297786,370.58893087538354 L238.96193707598772,371.5372927529143 M238.96193707598772,371.5372927529143 L233.81216621710772,373.0777238105954 M233.81216621710772,373.0777238105954 L229.27581563760054,375.1515176786024 M229.27581563760054,375.1515176786024 L225.5269453353913,377.6795939023036 M225.5269453353913,377.6795939023036 L222.70986280317086,380.5653612473703 M222.70986280317086,380.5653612473703 L220.93338413981826,383.6984325544266 M220.93338413981826,383.6984325544266 L220.26664915494473,386.95874563701875 M220.26664915494473,386.95874563701875 L220.73633820849872,390.2211177276288 M220.73633820849872,390.2211177276288 L222.3254160926476,393.36008099745743 M222.3254160926476,393.36008099745743 L224.97373616203123,396.25466251732166 M224.97373616203123,396.25466251732166 L228.58015976043419,398.793108653459 M227.8883013735951,350.3450432250122 L232.32436324978408,352.4241801717203 M232.32436324978408,352.4241801717203 L237.41140271841374,353.9696525702399 M237.41140271841374,353.9696525702399 L242.95331833910723,354.9215796186708 M242.95331833910723,354.9215796186708 L248.73623451639028,355.24305528185414 M248.73623451639028,355.24305528185414 L254.5369006430547,354.9215875158686 M254.5369006430547,354.9215875158686 L260.1313246510232,353.9696573640774 M260.1313246510232,353.9696573640774 L265.3036205471245,352.4241810174368 M265.3036205471245,352.4241810174368 L269.854428128548,350.3450432250122 M269.854428128548,350.3450432250122 L273.6085861562599,347.8127656991249 M273.6085861562599,347.8127656991249 L276.42206462232446,344.9252303003468 M276.42206462232446,344.9252303003468 L278.18731374679095,341.7939126307167 M278.18731374679095,341.7939126307167 L278.8374006983222,338.53946832949816 M278.8374006983222,338.53946832949816 L278.34835970370233,335.28709847561544 M278.34835970370233,335.28709847561544 L276.7400411306646,332.16166898775117 M276.7400411306646,332.16166898775117 L274.07517506858585,329.28293620616773 M274.07517506858585,329.28293620616773 L270.45675140329314,326.7610421239435 M228.58015976043419,398.793108653459 L233.00625992833193,400.87731077945966 M233.00625992833193,400.87731077945966 L238.08181612394327,402.4265470007195 M238.08181612394327,402.4265470007195 L243.61117087842803,403.3807918304576 M243.61117087842803,403.3807918304576 L249.3809353463547,403.70305014139 M249.3809353463547,403.70305014139 L255.16836902751274,403.3807997468821 M255.16836902751274,403.3807997468821 L260.74999323005716,402.42655180623035 M260.74999323005716,402.42655180623035 L265.9104179594582,400.87731162723605 M265.9104179594582,400.87731162723605 L270.45074197537485,398.793108653459 M270.45074197537485,398.793108653459 L274.1962080875329,396.2546594115961 M274.1962080875329,396.2546594115961 L277.0031193519019,393.36008297271763 M277.0031193519019,393.36008297271763 L278.76417576197923,390.2211256238542 M278.76417576197923,390.2211256238542 L279.41260156047827,386.9587366184794 M279.41260156047827,386.9587366184794 L278.92449012605834,383.69842241499686 M278.92449012605834,383.69842241499686 L277.31965130587383,380.5653542103873 M277.31965130587383,380.5653542103873 L274.6606773123905,377.6795818054834 M274.6606773123905,377.6795818054834 L271.05032888517013,375.1515176786024" stroke="black"  stroke-width="4"  fill="red"/>
<path d="M520.9427046923471,356.1170892082822 L520.9185964999555,308.7652389899261 M502.10439869991586,308.7652389899261 L502.3741159718291,310.02832951304964 M502.3741159718291,310.02832951304964 L503.1750580494254,311.21830023415737 M503.1750580494254,311.21830023415737 L504.4608244292266,312.2659192493041 M504.4608244292266,312.2659192493041 L506.15676240991155,313.11019871235266 M506.15676240991155,313.11019871235266 L508.16428879992503,313.7019627425482 M508.16428879992503,313.7019627425482 L510.36661599396183,314.0067254050162 M510.36661599396183,314.0067254050162 L512.6355815238734,314.00672585031396 M512.6355815238734,314.00672585031396 L514.8391183325189,313.7019620575156 M514.8391183325189,313.7019620575156 L516.8489915229277,313.11019919181996 M516.8489915229277,313.11019919181996 L518.5482801465353,312.2659196602082 M518.5482801465353,312.2659196602082 L519.8382035793206,311.21830037109737 M519.8382035793206,311.21830037109737 L520.6438655564677,310.0283293761415 M520.6438655564677,310.0283293761415 L520.9185964999555,308.7652389899261 M502.17029045272363,356.11708920828227 L502.10439869991586,308.7652389899261 M520.9427046923471,356.1170892082822 L520.6685869357707,357.3832168206478 M520.6685869357707,357.3832168206478 L519.8647175173171,358.57604858269013 M519.8647175173171,358.57604858269013 L518.5776625068206,359.6261859052752 M518.5776625068206,359.6261859052752 L516.8821517771419,360.4724943794862 M516.8821517771419,360.4724943794862 L514.8767462876225,361.06567916347467 M514.8767462876225,361.06567916347467 L512.6781068349239,361.3711751988595 M512.6781068349239,361.3711751988595 L510.41418292319315,361.3711747524918 M510.41418292319315,361.3711747524918 L508.2167477165997,361.06567985015323 M508.2167477165997,361.06567985015323 L506.2136786081044,360.47249389886684 M506.2136786081044,360.47249389886684 L504.52150365150936,359.6261854933837 M504.52150365150936,359.6261854933837 L503.2385872458208,358.576048445421 M503.2385872458208,358.576048445421 L502.43941677875296,357.383216957885 M502.43941677875296,357.383216957885 L502.17029045272363,356.11708920828227 M582.8659432733969,321.23855579674904 L582.9792761653177,273.9706460831557 M582.8659432733969,321.23855579674904 L520.9427046923471,356.1170892082822 M582.9792761653177,273.9706460831557 L520.9185964999555,308.7652389899261 M582.9265917359191,263.49866956943595 L585.1686785889567,263.65066288443757 M585.1686785889567,263.65066288443757 L587.2821896355593,264.0978357129556 M587.2821896355593,264.0978357129556 L589.144432446511,264.8142768502447 M589.144432446511,264.8142768502447 L590.6472557926775,265.7584500670967 M590.6472557926775,265.7584500670967 L591.7033026460241,266.8755928535009 M591.7033026460241,266.8755928535009 L592.2510747119875,268.10087369393386 M592.2510747119875,268.10087369393386 L592.2585823716347,269.36312976317123 M592.2585823716347,269.36312976317123 L591.7251786307478,270.5890067309075 M591.7251786307478,270.5890067309075 L590.681691613044,271.70721097818614 M590.681691613044,271.70721097818614 L589.1886521298268,272.65266456239226 M589.1886521298268,272.65266456239226 L587.3328010474155,273.3703138315767 M587.3328010474155,273.3703138315767 L585.2220714098585,273.81834301968564 M585.2220714098585,273.81834301968564 L582.9792761653177,273.9706460831557 M511.6800118152307,223.8187614837471 L582.9265917359191,263.49866956943595 M551.8236797591478,201.510533421092 L511.6800118152307,223.8187614837471 M673.0553821906688,268.7319604041336 L551.8236797591478,201.510533421092 M561.509733995442,331.54999201739395 L673.0553821906688,268.7319604041336 M561.5405619863186,342.16267681770205 L559.2815211225679,342.0083269997473 M559.2815211225679,342.0083269997473 L557.1530639438481,341.55427338377575 M557.1530639438481,341.55427338377575 L555.2790407828062,340.8269796480714 M555.2790407828062,340.8269796480714 L553.7684336765253,339.86881849374583 M553.7684336765253,339.86881849374583 L552.7090071466673,338.73558525298586 M552.7090071466673,338.73558525298586 L552.1622227586322,337.49323451384964 M552.1622227586322,337.49323451384964 L552.159675641658,336.2140165988287 M552.159675641658,336.2140165988287 L552.7013174265453,334.97227712588 M552.7013174265453,334.97227712588 L553.7554901332234,333.84012743075107 M553.7554901332234,333.84012743075107 L555.2608165297281,332.88327205390397 M555.2608165297281,332.88327205390397 L557.1297889526427,332.1572083872809 M557.1297889526427,332.1572083872809 L559.2538603750031,331.70402816911184 M559.2538603750031,331.70402816911184 L561.509733995442,331.54999201739395 M592.8649212048217,359.763970064943 L561.5405619863186,342.16267681770205 M592.8649212048217,359.763970064943 L399.32505547039705,399.8603229404455 M399.32505547039705,399.8603229404455 L471.0902576338117,291.3382586674253 M502.10439869991586,308.7652389899261 L471.0902576338117,291.3382586674253 M471.2247977884491,338.64813299112654 L471.0902576338117,291.3382586674253 M502.17029045272363,356.11708920828227 L471.2247977884491,338.64813299112654 M582.8659432733969,321.23855579674904 L585.1037762967392,321.0858841483883 M585.1037762967392,321.0858841483883 L587.2098397185108,320.6367706372571 M587.2098397185108,320.6367706372571 L589.0615924196761,319.9173843265203 M589.0615924196761,319.9173843265203 L590.5513398630322,318.9696419667444 M590.5513398630322,318.9696419667444 L591.5925323835245,317.8487302421874 M591.5925323835245,317.8487302421874 L592.1247720177258,316.61988446583973 M592.1247720177258,316.61988446583973 L592.1172975291533,315.3545708011353 M592.1172975291533,315.3545708011353 L591.5707530827156,314.1263212669501 M591.5707530827156,314.1263212669501 L590.5170562254577,313.0064712206543 M590.5170562254577,313.0064712206543 L589.0175681583718,312.0600094904501 M589.0175681583718,312.0600094904501 L587.1594519851326,311.3418315638508 M587.1594519851326,311.3418315638508 L585.050619433726,310.89357459010057 M585.050619433726,310.89357459010057 L582.8134916669037,310.7412127560531 M511.72426721867765,270.96475329485065 L582.8134916669037,310.7412127560531 M551.7796188655451,248.6019421848883 L511.72426721867765,270.96475329485065 M551.7796188655451,248.6019421848883 L672.7428440840988,315.98718629578696 M561.4435482651863,378.956523556703 L672.7428440840988,315.98718629578696 M561.4435482651863,378.956523556703 L559.1926948404082,379.1109286109571 M559.1926948404082,379.1109286109571 L557.0733487453266,379.56519409444485 M557.0733487453266,379.56519409444485 L555.2085328199292,380.2929963346318 M555.2085328199292,380.2929963346318 L553.7065528448653,381.25214256930593 M553.7065528448653,381.25214256930593 L552.6547218949565,382.38700228814173 M552.6547218949565,382.38700228814173 L552.1142806044274,383.6317134670833 M552.1142806044274,383.6317134670833 L552.1168163912141,384.9139920778842 M552.1168163912141,384.9139920778842 L552.6623774013059,386.1593146204955 M552.6623774013059,386.1593146204955 L553.7194388051017,387.2952580600971 M553.7194388051017,387.2952580600971 L555.2266759961362,388.2557102805621 M555.2266759961362,388.2557102805621 L557.0965201881661,388.98474278646273 M557.0965201881661,388.98474278646273 L559.2202325265721,389.4398818096489 M559.2202325265721,389.4398818096489 L561.4742391043453,389.5946005776723 M592.7285712954156,407.2378989592994 L561.4742391043453,389.5946005776723 M592.7285712954156,407.2378989592994 L399.6218225620071,447.42943676166215 M399.6218225620071,447.42943676166215 L471.2247977884491,338.64813299112654 M582.8134916669037,310.7412127560531 L582.9265917359191,263.49866956943595 M511.72426721867765,270.96475329485065 L511.6800118152307,223.8187614837471 M551.7796188655451,248.6019421848883 L551.8236797591478,201.510533421092 M672.7428440840988,315.98718629578696 L673.0553821906688,268.7319604041336 M561.4435482651863,378.956523556703 L561.509733995442,331.54999201739395 M561.4742391043453,389.5946005776723 L561.5405619863186,342.16267681770205 M592.7285712954156,407.2378989592994 L592.8649212048217,359.763970064943 M399.6218225620071,447.42943676166215 L399.32505547039705,399.8603229404455" stroke="black"  stroke-width="4"  fill="red"/></svg>