<svg viewBox="0 0 800 800" xmlns="http://www.w3.org/2000/svg"><path d="M442.9372143142399,609.3603156155752 L442.74235707263114,562.5344867086594 M590.5312716820179,523.9577128237852 L590.6652165602562,477.3211609334413 M442.9372143142399,609.3603156155752 L590.5312716820179,523.9577128237852 M442.74235707263114,562.5344867086594 L590.6652165602562,477.3211609334413 M559.553944355076,506.1518110364176 L559.6190993667194,459.555109371855 M590.5312716820179,523.9577128237852 L559.553944355076,506.1518110364176 M590.6652165602562,477.3211609334413 L559.6190993667194,459.555109371855 M559.5888145355116,448.84282257099653 L557.3528885222638,448.9983057852729 M557.3528885222638,448.9983057852729 L555.2475930968747,449.4557430765602 M555.2475930968747,449.4557430765602 L553.3951364717077,450.18862647540664 M553.3951364717077,450.18862647540664 L551.9031070799956,451.15446794827267 M551.9031070799956,451.15446794827267 L550.8582393888635,452.29724791479276 M550.8582393888635,452.29724791479276 L550.3213678632324,453.5506440770339 M550.3213678632324,453.5506440770339 L550.3238701094306,454.84186769369677 M550.3238701094306,454.84186769369677 L550.8657936127856,456.0958753971671 M550.8657936127856,456.0958753971671 L551.9158225780144,457.2397394062076 M551.9158225780144,457.2397394062076 L553.4130396373782,458.20688724438065 M553.4130396373782,458.20688724438065 L555.2704580071997,458.94100126764687 M555.2704580071997,458.94100126764687 L557.3800619118149,459.3993123601684 M557.3800619118149,459.3993123601684 L559.6190993667194,459.555109371855 M559.5237930707962,495.415431286634 L559.5888145355116,448.84282257099653 M559.553944355076,506.1518110364176 L557.3198525220907,505.99566397130434 M557.3198525220907,505.99566397130434 L555.2149098643175,505.53632306013 M555.2149098643175,505.53632306013 L553.3615968164297,504.80055930719675 M553.3615968164297,504.80055930719675 L551.8676902600587,503.83123770770214 M551.8676902600587,503.83123770770214 L550.8199846934067,502.68480223795365 M550.8199846934067,502.68480223795365 L550.2792629372605,501.4279748277487 M550.2792629372605,501.4279748277487 L550.276771723471,500.1338471252348 M550.276771723471,500.1338471252348 L550.8124637839854,498.87763127825514 M550.8124637839854,498.87763127825514 L551.8550308316537,497.7322798923538 M551.8550308316537,497.7322798923538 L553.343772596683,496.76426470522586 M553.343772596683,496.76426470522586 L555.1921457807781,496.02973162144144 M555.1921457807781,496.02973162144144 L557.2927989594853,495.571264545541 M557.2927989594853,495.571264545541 L559.5237930707962,495.415431286634 M670.155539194991,385.4312092741711 L559.5888145355116,448.84282257099653 M669.8484656533035,431.8602023241386 L670.155539194991,385.4312092741711 M559.5237930707962,495.415431286634 L669.8484656533035,431.8602023241386 M549.9906578918452,317.5669674248562 L670.155539194991,385.4312092741711 M549.9473623618178,363.84037078692694 L549.9906578918452,317.5669674248562 M669.8484656533035,431.8602023241386 L549.9473623618178,363.84037078692694 M510.2414238193806,386.4146514802261 L510.1979388310125,340.08939522161074 M549.9473623618178,363.84037078692694 L510.2414238193806,386.4146514802261 M549.9906578918452,317.5669674248562 L510.1979388310125,340.08939522161074 M580.7081163380731,426.56510821917186 L580.8192399144024,380.14815728814335 M510.2414238193806,386.4146514802261 L580.7081163380731,426.56510821917186 M510.1979388310125,340.08939522161074 L580.8192399144024,380.14815728814335 M580.8710022381429,390.7196595522005 L583.0940794789874,390.56591037005325 M583.0940794789874,390.56591037005325 L585.1862672273706,390.1136269070025 M585.1862672273706,390.1136269070025 L587.0258326793152,389.389162447452 M587.0258326793152,389.389162447452 L588.5057905352324,388.4347289469261 M588.5057905352324,388.4347289469261 L589.5401597095927,387.3059019851445 M589.5401597095927,387.3059019851445 L590.0689373069401,386.06837692743886 M590.0689373069401,386.06837692743886 L590.0615610229252,384.7941243603846 M590.0615610229252,384.7941243603846 L589.5186666457657,383.5571957767022 M589.5186666457657,383.5571957767022 L588.4719574416513,382.42943094466 M588.4719574416513,382.42943094466 L586.982386973639,381.47627861829125 M586.982386973639,381.47627861829125 L585.1365417040354,380.7530230712006 M585.1365417040354,380.7530230712006 L583.0416211799279,380.3015965169998 M583.0416211799279,380.3015965169998 L580.8192399144024,380.14815728814335 M580.7596519181898,437.1606951677513 L580.8710022381429,390.7196595522005 M580.7081163380731,426.56510821917186 L582.9256252108389,426.7188973623258 M582.9256252108389,426.7188973623258 L585.0159490934925,427.17135332549907 M585.0159490934925,427.17135332549907 L586.8577399990606,427.8962579656563 M586.8577399990606,427.8962579656563 L588.3440336897183,428.8515832332138 M588.3440336897183,428.8515832332138 L589.38843422521,429.9819185801038 M589.38843422521,429.9819185801038 L589.9301227209511,431.2216658752182 M589.9301227209511,431.2216658752182 L589.9374666999688,432.4988215288428 M589.9374666999688,432.4988215288428 L589.4098331297362,433.7391653387691 M589.4098331297362,433.7391653387691 L588.377718574215,434.87056290090675 M588.377718574215,434.87056290090675 L586.9009953854809,435.8271694457633 M586.9009953854809,435.8271694457633 L585.0654567790034,436.5532831005249 M585.0654567790034,436.5532831005249 L582.9778537131881,437.00659604394383 M582.9778537131881,437.00659604394383 L580.7596519181898,437.1606951677513 M519.3801434330198,472.3642835834757 L519.3564583946381,425.843566822905 M580.7596519181898,437.1606951677513 L519.3801434330198,472.3642835834757 M580.8710022381429,390.7196595522005 L519.3564583946381,425.843566822905 M500.7082886487892,425.84356682290513 L500.9756575701035,427.1185721787339 M500.9756575701035,427.1185721787339 L501.76955991913866,428.3197654418689 M501.76955991913866,428.3197654418689 L503.04400170800085,429.37726244430934 M503.04400170800085,429.37726244430934 L504.7249871258723,430.22950121538486 M504.7249871258723,430.22950121538486 L506.7148023628993,430.826843264094 M506.7148023628993,430.826843264094 L508.89769114355124,431.13447840727497 M508.89769114355124,431.13447840727497 L511.14662374157376,431.13447885676965 M511.14662374157376,431.13447885676965 L513.3307008755532,430.82684257260456 M513.3307008755532,430.82684257260456 L515.3228216484086,430.22950169937184 M515.3228216484086,430.22950169937184 L517.0070988190239,429.3772628590874 M517.0070988190239,429.3772628590874 L518.2856245990736,428.31976558010024 M518.2856245990736,428.31976558010024 L519.0841638849255,427.1185720405345 M519.0841638849255,427.1185720405345 L519.3564583946381,425.843566822905 M500.7730238503727,472.3642835834757 L500.7082886487892,425.84356682290513 M519.3801434330198,472.3642835834757 L519.108451294491,473.64217140004155 M519.108451294491,473.64217140004155 L518.3116730465425,474.8460800303465 M518.3116730465425,474.8460800303465 L517.03596527734,475.90596709285694 M517.03596527734,475.90596709285694 L515.3553996201358,476.76013151850947 M515.3553996201358,476.76013151850947 L513.3676680591848,477.358821865942 M513.3676680591848,477.358821865942 L511.1884022584299,477.66715308322557 M511.1884022584299,477.66715308322557 L508.94442274187696,477.66715263271556 M508.94442274187696,477.66715263271556 L506.76634006672845,477.35882255899355 M506.76634006672845,477.35882255899355 L504.7809038954953,476.76013103342905 M504.7809038954953,476.76013103342905 L503.1036155111016,475.90596667714163 M503.1036155111016,475.90596667714163 L501.8319737686118,474.84607989180284 M501.8319737686118,474.84607989180284 L501.03981205854444,473.6421715385533 M501.03981205854444,473.6421715385533 L500.7730238503727,472.3642835834757 M470.0991124385288,454.73278657699626 L469.9669298002211,408.25191235055166 M500.7730238503727,472.3642835834757 L470.0991124385288,454.73278657699626 M500.7082886487892,425.84356682290513 L469.9669298002211,408.25191235055166 M322.51294755227525,539.0085066154375 L322.05201546792927,492.3383747091842 M470.0991124385288,454.73278657699626 L322.51294755227525,539.0085066154375 M469.9669298002211,408.25191235055166 L322.05201546792927,492.3383747091842 M442.74235707263114,562.5344867086594 L447.21020384032977,570.876033239222 M447.21020384032977,570.876033239222 L450.590929014518,579.404454180547 M450.590929014518,579.404454180547 L452.8630299361862,588.0726227989461 M452.8630299361862,588.0726227989461 L454.01107767339727,596.8323680275865 M454.01107767339727,596.8323680275865 L454.0258044847459,605.6347957564815 M454.0258044847459,605.6347957564815 L452.90432922042646,614.4305123326615 M452.90432922042646,614.4305123326615 L450.6501321316653,623.1699283394126 M450.6501321316653,623.1699283394126 L447.27314787039245,631.8035102688019 M447.27314787039245,631.8035102688019 L442.78977731730447,640.2821037220446 M442.78977731730447,640.2821037220446 L437.22281723990994,648.5571810758164 M437.22281723990994,648.5571810758164 L430.6014151286724,656.5811879238739 M430.6014151286724,656.5811879238739 L422.9609704633831,664.3077759948761 M422.9609704633831,664.3077759948761 L414.34290767745745,671.6921384440903 M414.34290767745745,671.6921384440903 L404.7945903223346,678.6912529307414 M404.7945903223346,678.6912529307414 L394.36898595959883,685.2641932887619 M394.36898595959883,685.2641932887619 L383.12439848626275,691.3723978521954 M383.12439848626275,691.3723978521954 L371.1241730059045,696.9798744072568 M371.1241730059045,696.9798744072568 L358.43635469144965,702.0535173308575 M358.43635469144965,702.0535173308575 L345.1332585447867,706.5632101906072 M345.1332585447867,706.5632101906072 L331.29107047315006,710.4821781197705 M331.29107047315006,710.4821781197705 L316.98928120325286,713.7870953401699 M316.98928120325286,713.7870953401699 L302.31034690663114,716.458253979151 M302.31034690663114,716.458253979151 L287.33919109619177,718.4796394070712 M287.33919109619177,718.4796394070712 L272.16240724776833,719.8392056239117 M272.16240724776833,719.8392056239117 L256.8681071905753,720.5287752938635 M256.8681071905753,720.5287752938635 L241.54496200156234,720.5442507247801 M241.54496200156234,720.5442507247801 L226.2820277080029,719.8854904965306 M226.2820277080029,719.8854904965306 L211.16785432307555,718.5564732673643 M211.16785432307555,718.5564732673643 L196.2900327775593,716.5651830324928 M196.2900327775593,716.5651830324928 L181.73479753664847,713.9234802902216 M181.73479753664847,713.9234802902216 L167.58619336791298,710.6471976451319 M167.58619336791298,710.6471976451319 L153.92579701443321,706.7558716984252 M153.92579701443321,706.7558716984252 L140.83208515764142,702.2726714322449 M140.83208515764142,702.2726714322449 L128.37995737872063,697.2242563236118 M128.37995737872063,697.2242563236118 L116.64035916939321,691.6405316189258 M116.64035916939321,691.6405316189258 L105.67977405366344,685.5545056341041 M105.67977405366344,685.5545056341041 L95.5599055164804,679.0020231060886 M95.5599055164804,679.0020231060886 L86.33727827146379,672.0215561340741 M86.33727827146379,672.0215561340741 L78.06298220207253,664.6539213778469 M78.06298220207253,664.6539213778469 L70.78232757808127,656.9420522681202 M70.78232757808127,656.9420522681202 L64.53472428184074,648.9306732878108 M64.53472428184074,648.9306732878108 L59.35339051979349,640.6660590538005 M59.35339051979349,640.6660590538005 L55.26524176292264,632.1957482581386 M55.26524176292264,632.1957482581386 L52.29090231247159,623.568180430341 M52.29090231247159,623.568180430341 L50.444373445015685,614.8325446865663 M50.444373445015685,614.8325446865663 L49.73332447857814,606.0383249385568 M49.73332447857814,606.0383249385568 L50.15898538486806,597.2351027891716 M50.15898538486806,597.2351027891716 L51.71605494485618,588.4723372117039 M51.71605494485618,588.4723372117039 L54.393076301370684,579.7989051271834 M54.393076301370684,579.7989051271834 L58.172296533578844,571.2630556407146 M58.172296533578844,571.2630556407146 L63.03009290612965,562.9119243747018 M63.03009290612965,562.9119243747018 L68.93683936780263,554.7915097435005 M68.93683936780263,554.7915097435005 L75.85740272362693,546.9462867233769 M75.85740272362693,546.9462867233769 L83.7512777079155,539.4189900759832 M83.7512777079155,539.4189900759832 L92.5728581263188,532.2504878681168 M92.5728581263188,532.2504878681168 L102.27159421186951,525.4795229107694 M102.27159421186951,525.4795229107694 L112.79254155290215,519.1425475943715 M112.79254155290215,519.1425475943715 L124.07647735251112,513.2735335227629 M124.07647735251112,513.2735335227629 L136.06036261612638,507.90382711402106 M136.06036261612638,507.90382711402106 L148.67760450822277,503.06202298465814 M148.67760450822277,503.06202298465814 L161.8584163893635,498.773845153619 M161.8584163893635,498.773845153619 L175.53024635872987,495.06198140467654 M175.53024635872987,495.06198140467654 L189.6180816184205,491.94604928144764 M189.6180816184205,491.94604928144764 L204.04491034360734,489.44247305797785 M204.04491034360734,489.44247305797785 L218.7320094808956,487.56442346728664 M218.7320094808956,487.56442346728664 L233.59942747442875,486.32177911018425 M233.59942747442875,486.32177911018425 L248.56630642641102,485.7210643096078 M248.56630642641102,485.7210643096078 L263.55133916273223,485.7654256621452 M263.55133916273223,485.7654256621452 L278.4731139784972,486.45464698581424 M278.4731139784972,486.45464698581424 L293.2505616928071,487.7850907330666 M293.2505616928071,487.7850907330666 L307.803275646777,489.7497760820926 M307.803275646777,489.7497760820926 L322.05201546792927,492.3383747091842 M322.51294755227525,539.0085066154375 L308.2956519897624,536.4141264423534 M308.2956519897624,536.4141264423534 L293.77507099565844,534.4450511388598 M293.77507099565844,534.4450511388598 L279.03027541891004,533.1116336766295 M279.03027541891004,533.1116336766295 L264.1415000427744,532.4208715583455 M264.1415000427744,532.4208715583455 L249.18964078010714,532.3764110265056 M249.18964078010714,532.3764110265056 L234.2559352177642,532.9784687827639 M234.2559352177642,532.9784687827639 L219.42151639091253,534.223890704953 M219.42151639091253,534.223890704953 L204.76706863711348,536.1061368787606 M204.76706863711348,536.1061368787606 L190.3723713856385,538.6153051251024 M190.3723713856385,538.6153051251024 L176.31597756369615,541.7381933241899 M176.31597756369615,541.7381933241899 L162.67473180219474,545.4583381447525 M162.67473180219474,545.4583381447525 L149.5234831527863,549.7560755132804 M149.5234831527863,549.7560755132804 L136.9346241405712,554.6086639911264 M136.9346241405712,554.6086639911264 L124.97778698564196,559.9903189372687 M124.97778698564196,559.9903189372687 L113.71941595361301,565.8723786039111 M113.71941595361301,565.8723786039111 L103.22240807937123,572.2234232908934 M103.22240807937123,572.2234232908934 L93.54585137884379,579.0094023404517 M93.54585137884379,579.0094023404517 L84.74456370040474,586.1937789560188 M84.74456370040474,586.1937789560188 L76.86897676491623,593.7377210886323 M76.86897676491623,593.7377210886323 L69.96458852254011,601.6002670628932 M69.96458852254011,601.6002670628932 L64.0718062440568,609.7385847999194 M64.0718062440568,609.7385847999194 L59.225676089371234,618.1080986604097 M59.225676089371234,618.1080986604097 L55.45574847110197,626.6627067746944 M55.45574847110197,626.6627067746944 L52.78558316159365,635.3551681867939 M52.78558316159365,635.3551681867939 L51.23288264775107,644.1371266843767 M51.23288264775107,644.1371266843767 L50.809067044943845,652.95959757014 M50.809067044943845,652.95959757014 L51.51941438393948,661.7730135503286 M51.51941438393948,661.7730135503286 L53.36268612191981,670.527685171805 M53.36268612191981,670.527685171805 L56.331218982045925,679.1740216167775 M56.331218982045925,679.1740216167775 L60.41103229528392,687.6627282156868 M60.41103229528392,687.6627282156868 L65.58153780232351,695.9452621905168 M65.58153780232351,695.9452621905168 L71.81587093707782,703.9739841821092 M71.81587093707782,703.9739841821092 L79.08087946666421,711.7025222104214 M79.08087946666421,711.7025222104214 L87.33723445536589,719.0860582746676 M87.33723445536589,719.0860582746676 L96.53972102559044,726.081569704168 M96.53972102559044,726.081569704168 L106.63735897139208,732.6481554832645 M106.63735897139208,732.6481554832645 L117.57374684094373,738.7472644286538 M117.57374684094373,738.7472644286538 L129.28731747068082,744.3429784925846 M129.28731747068082,744.3429784925846 L141.71173583477247,749.4022221624774 M141.71173583477247,749.4022221624774 L154.77621639079297,753.895029574555 M154.77621639079297,753.895029574555 L168.4060297637629,757.7946874163138 M168.4060297637629,757.7946874163138 L182.5228788170652,761.0779800793874 M182.5228788170652,761.0779800793874 L197.04537451202944,763.7253317610111 M197.04537451202944,763.7253317610111 L211.88966638710514,765.7208781558861 M211.88966638710514,765.7208781558861 L226.9697201204038,767.0527350748611 M226.9697201204038,767.0527350748611 L242.19814869993178,767.7129025878435 M242.19814869993178,767.7129025878435 L257.48660873516235,767.6973940994561 M257.48660873516235,767.6973940994561 L272.7462523178351,767.006351318687 M272.7462523178351,767.006351318687 L287.88861576862973,765.6438801030095 M287.88861576862973,765.6438801030095 L302.82579335773727,763.6181741112078 M302.82579335773727,763.6181741112078 L317.47139404616206,760.9413034074272 M317.47139404616206,760.9413034074272 L331.7406925854914,757.6293146905373 M331.7406925854914,757.6293146905373 L345.55142492285063,753.7019553835598 M345.55142492285063,753.7019553835598 L358.8242850380192,749.1825982125322 M358.8242850380192,749.1825982125322 L371.483263429056,744.0980721167199 M371.483263429056,744.0980721167199 L383.4562118242123,738.4785545930472 M383.4562118242123,738.4785545930472 L394.6752411291729,732.357218668999 M394.6752411291729,732.357218668999 L405.0771506582627,725.770130189594 M405.0771506582627,725.770130189594 L414.60376848657774,718.7559301057031 M414.60376848657774,718.7559301057031 L423.2022459305475,711.355629187756 M423.2022459305475,711.355629187756 L430.825324662952,703.6123392251989 M430.825324662952,703.6123392251989 L437.431671135988,695.5709607794694 M437.431671135988,695.5709607794694 L442.98596231986227,687.2779396689848 M442.98596231986227,687.2779396689848 L447.4591123439535,678.7809310285868 M447.4591123439535,678.7809310285868 L450.8283711456641,670.1285659514559 M450.8283711456641,670.1285659514559 L453.0773696829037,661.3701043461591 M453.0773696829037,661.3701043461591 L454.1961902814429,652.5551867678313 M454.1961902814429,652.5551867678313 L454.1813550027846,643.7335105344797 M454.1813550027846,643.7335105344797 L453.0357330263691,634.9545775103911 M453.0357330263691,634.9545775103911 L450.768565955788,626.2673896524054 M450.768565955788,626.2673896524054 L447.39524309022295,617.7202249949931 M447.39524309022295,617.7202249949931 L442.9372143142399,609.3603156155752 M273.47311477393225,636.7502411445535 L277.02792991648306,639.3192561414589 M277.02792991648306,639.3192561414589 L279.6463773211686,642.2517495862865 M279.6463773211686,642.2517495862865 L281.2272721682225,645.4355134082937 M281.2272721682225,645.4355134082937 L281.70897068682086,648.748549925837 M281.70897068682086,648.748549925837 L281.07194216365633,652.0636618758715 M281.07194216365633,652.0636618758715 L279.33968714672704,655.2533163246823 M279.33968714672704,655.2533163246823 L276.5779021675463,658.1946158650735 M276.5779021675463,658.1946158650735 L272.8921707739317,660.7740184095248 M272.8921707739317,660.7740184095248 L268.4239009008144,662.8918313367452 M268.4239009008144,662.8918313367452 L263.3450727575483,664.4660459264495 M263.3450727575483,664.4660459264495 L257.85143307655983,665.4356730542316 M257.85143307655983,665.4356730542316 L252.1549626655593,665.763116377833 M252.1549626655593,665.763116377833 L246.475611432576,665.4356650102334 M246.475611432576,665.4356650102334 L241.0326133710813,664.4660410434834 M241.0326133710813,664.4660410434834 L236.03601113658237,662.8918304753003 M236.03601113658237,662.8918304753003 L231.6784098017568,660.7740184095247 M231.6784098017568,660.7740184095247 L228.12739288539544,658.1946190209165 M228.12739288539544,658.1946190209165 L225.5192644793046,655.2533143175292 M225.5192644793046,655.2533143175292 L223.95363831314424,652.0636538520763 M223.95363831314424,652.0636538520763 L223.4897882647477,648.748559090169 M223.4897882647477,648.748559090169 L224.14455730235642,645.4355237117386 M224.14455730235642,645.4355237117386 L225.89175749781623,642.2517567371677 M225.89175749781623,642.2517567371677 L228.66340115368916,639.3192684341823 M228.66340115368916,639.3192684341823 L232.35243570409506,636.7502411445535 M232.35243570409506,636.7502411445535 L236.81685951524855,634.6428401426092 M236.81685951524855,634.6428401426092 L241.88536871129702,633.0774368170312 M241.88536871129702,633.0774368170312 L247.36375564202092,632.1136971840202 M247.36375564202092,632.1136971840202 L253.0423774969637,631.7883121417547 M253.0423774969637,631.7883121417547 L258.70398821716236,632.1136869064046 M258.70398821716236,632.1136869064046 L264.13202513496367,633.0774325339132 M264.13202513496367,633.0774325339132 L269.1187686762163,634.6428318594708 M269.1187686762163,634.6428318594708 L273.47311477393225,636.7502411445535 M273.47311477393225,636.7502411445535 L272.8979932547519,589.8643590742745 M272.8979932547519,589.8643590742745 L268.5340057260653,587.7615591162767 M268.5340057260653,587.7615591162767 L263.5361775276655,586.1995848445761 M263.5361775276655,586.1995848445761 L258.09603627625074,585.2379483815007 M258.09603627625074,585.2379483815007 L252.42176285719256,584.9132857903026 M252.42176285719256,584.9132857903026 L246.7304020415137,585.2379586366217 M246.7304020415137,585.2379586366217 L241.23968496240298,586.1995891183212 M241.23968496240298,586.1995891183212 L236.15972431510187,587.7615673812948 M236.15972431510187,587.7615673812948 L231.6851651910691,589.8643590742745 M231.6851651910691,589.8643590742745 L227.98769984319517,592.4277699167947 M227.98769984319517,592.4277699167947 L225.2096547941795,595.3538505676845 M225.2096547941795,595.3538505676845 L223.45833103990037,598.5306649348287 M223.45833103990037,598.5306649348287 L222.80187851771092,601.8364699486082 M222.80187851771092,601.8364699486082 L223.26655441305348,605.1443344809624 M223.26655441305348,605.1443344809624 L224.8354885204605,608.3270426607844 M224.8354885204605,608.3270426607844 L227.44928382459875,611.2619402020961 M227.44928382459875,611.2619402020961 L231.00811156559544,613.8357237817826 M231.00811156559544,613.8357237817826 L235.37536837734126,615.9489270918539 M235.37536837734126,615.9489270918539 L240.38309903553548,617.5197131075565 M240.38309903553548,617.5197131075565 L245.83826825425356,618.4872282648955 M245.83826825425356,618.4872282648955 L251.5303617901601,618.8139675567006 M251.5303617901601,618.8139675567006 L257.2396514946776,618.4872362914007 M257.2396514946776,618.4872362914007 L262.7456901859676,617.5197179799019 M262.7456901859676,617.5197179799019 L267.8360166517854,615.9489279514244 M267.8360166517854,615.9489279514244 L272.3144396553528,613.8357237817825 M272.3144396553528,613.8357237817825 L276.0085876909698,611.2619370531256 M276.0085876909698,611.2619370531256 L278.7767302967379,608.3270446635639 M278.7767302967379,608.3270446635639 L280.5130420853551,605.1443424872632 M280.5130420853551,605.1443424872632 L281.15167448921574,601.8364608042699 M281.15167448921574,601.8364608042699 L280.6690697914693,598.530654653877 M280.6690697914693,598.530654653877 L279.0847981050871,595.3538434324238 M279.0847981050871,595.3538434324238 L276.4606369307488,592.4277576509392 M276.4606369307488,592.4277576509392 L272.8979932547519,589.8643590742745" stroke="black"  stroke-width="4"  fill="red"/>
<path d="M559.6541241789871,402.0638014543201 L559.5888145355116,448.84282257099653 M559.6190993667194,459.555109371855 L557.3800619118149,459.3993123601684 M557.3800619118149,459.3993123601684 L555.2704580071997,458.94100126764687 M555.2704580071997,458.94100126764687 L553.4130396373782,458.20688724438065 M553.4130396373782,458.20688724438065 L551.9158225780144,457.2397394062076 M551.9158225780144,457.2397394062076 L550.8657936127856,456.0958753971671 M550.8657936127856,456.0958753971671 L550.3238701094306,454.84186769369677 M550.3238701094306,454.84186769369677 L550.3213678632324,453.5506440770339 M550.3213678632324,453.5506440770339 L550.8582393888635,452.29724791479276 M550.8582393888635,452.29724791479276 L551.9031070799956,451.15446794827267 M551.9031070799956,451.15446794827267 L553.3951364717077,450.18862647540664 M553.3951364717077,450.18862647540664 L555.2475930968747,449.4557430765602 M555.2475930968747,449.4557430765602 L557.3528885222638,448.9983057852729 M557.3528885222638,448.9983057852729 L559.5888145355116,448.84282257099653 M559.6845434463831,412.751675854114 L559.6190993667194,459.555109371855 M559.6541241789871,402.0638014543201 L557.4132444093191,402.2189299873228 M557.4132444093191,402.2189299873228 L555.3032861730502,402.6753238528171 M555.3032861730502,402.6753238528171 L553.4467280237448,403.4065357114817 M553.4467280237448,403.4065357114817 L551.9513964523035,404.3701746677843 M551.9513964523035,404.3701746677843 L550.9042179411492,405.51034913609465 M550.9042179411492,405.51034913609465 L550.3661617450254,406.7608882360165 M550.3661617450254,406.7608882360165 L550.368675097091,408.04916926112094 M550.368675097091,408.04916926112094 L550.9118057014122,409.30031986189937 M550.9118057014122,409.30031986189937 L551.9641683932871,410.44157829882784 M551.9641683932871,410.44157829882784 L553.4647106610191,411.40652353412116 M553.4647106610191,411.40652353412116 L555.3262525815435,412.13896593549595 M555.3262525815435,412.13896593549595 L557.4405384237183,412.59623354192706 M557.4405384237183,412.59623354192706 L559.6845434463831,412.751675854114 M621.3036959338824,366.8654080166674 L621.1027594157824,413.56368685341744 M621.3036959338824,366.8654080166674 L559.6541241789871,402.0638014543201 M621.1027594157824,413.56368685341744 L559.5888145355116,448.84282257099653 M639.7289087652857,413.56369016156424 L639.444905788215,412.29200452981445 M639.444905788215,412.29200452981445 L638.6363610581801,411.0945062297791 M638.6363610581801,411.0945062297791 L637.3504025027205,410.04072184926866 M637.3504025027205,410.04072184926866 L635.6618372802666,409.1917866774014 M635.6618372802666,409.1917866774014 L633.6687739433017,408.5969247647336 M633.6687739433017,408.5969247647336 L631.4869270068009,408.2906234115702 M631.4869270068009,408.2906234115702 L629.2429338171738,408.29062120837705 M629.2429338171738,408.29062120837705 L627.0670065942738,408.5969258663952 M627.0670065942738,408.5969258663952 L625.0854284841521,409.19178557561366 M625.0854284841521,409.19178557561366 L623.4132540075263,410.0407207473007 M623.4132540075263,410.0407207473007 L622.1476374626815,411.0945073319707 M622.1476374626815,411.0945073319707 L621.3622113703493,412.2920023249231 M621.3622113703493,412.2920023249231 L621.1027594157824,413.56368685341744 M711.3617255666761,454.19621774717285 L639.7289087652857,413.56369016156424 M751.1495881116473,431.1733567670705 L711.3617255666761,454.19621774717285 M629.9249179099374,362.71058921422696 L751.1495881116473,431.1733567670705 M519.3564583946381,425.843566822905 L629.9249179099374,362.71058921422696 M500.7082886487892,425.84356682290513 L500.9756575701035,427.1185721787339 M500.9756575701035,427.1185721787339 L501.76955991913866,428.3197654418689 M501.76955991913866,428.3197654418689 L503.04400170800085,429.37726244430934 M503.04400170800085,429.37726244430934 L504.7249871258723,430.22950121538486 M504.7249871258723,430.22950121538486 L506.7148023628993,430.826843264094 M506.7148023628993,430.826843264094 L508.89769114355124,431.13447840727497 M508.89769114355124,431.13447840727497 L511.14662374157376,431.13447885676965 M511.14662374157376,431.13447885676965 L513.3307008755532,430.82684257260456 M513.3307008755532,430.82684257260456 L515.3228216484086,430.22950169937184 M515.3228216484086,430.22950169937184 L517.0070988190239,429.3772628590874 M517.0070988190239,429.3772628590874 L518.2856245990736,428.31976558010024 M518.2856245990736,428.31976558010024 L519.0841638849255,427.1185720405345 M519.0841638849255,427.1185720405345 L519.3564583946381,425.843566822905 M469.9669298002211,408.25191235055166 L500.7082886487892,425.84356682290513 M469.9669298002211,408.25191235055166 L398.8462650814327,517.7908215875536 M398.8462650814327,517.7908215875536 L590.6652165602562,477.3211609334414 M559.6190993667194,459.555109371855 L590.6652165602562,477.3211609334414 M590.7997567148936,430.4773473767204 L590.6652165602562,477.3211609334414 M559.6845434463831,412.751675854114 L590.7997567148936,430.4773473767204 M621.3036959338824,366.8654080166674 L621.5636961475009,365.5966438109579 M621.5636961475009,365.5966438109579 L622.3508330975073,364.40189939744965 M622.3508330975073,364.40189939744965 L623.6192230406486,363.3505338051018 M623.6192230406486,363.3505338051018 L625.2950719443238,362.50354933817624 M625.2950719443238,362.50354933817624 L627.2810120719264,361.9100566948158 M627.2810120719264,361.9100566948158 L629.461735876809,361.60445602372965 M629.461735876809,361.60445602372965 L631.7106822160988,361.60445822185903 M631.7106822160988,361.60445822185903 L633.8973518840733,361.91005559568623 M633.8973518840733,361.91005559568623 L635.8948279999502,362.50355043743224 M635.8948279999502,362.50355043743224 L637.5871400969341,363.35053490453777 M637.5871400969341,363.35053490453777 L638.8759619796658,364.40189829779007 M638.8759619796658,364.40189829779007 L639.6863197770737,365.5966460107853 M639.6863197770737,365.5966460107853 L639.9709795682829,366.8654113172183 M398.5534521562135,470.85552531696936 L590.7997567148936,430.4773473767204 M469.8341636070457,361.5658361341809 L398.5534521562135,470.85552531696936 M469.8341636070457,361.5658361341809 L500.64326717151914,379.1171235053172 M519.3326686149339,379.1171235053172 L519.0597690570037,380.3892081037699 M519.0597690570037,380.3892081037699 L518.2594609311992,381.5876507333089 M518.2594609311992,381.5876507333089 L516.9781046623557,382.64272669440265 M516.9781046623557,382.64272669440265 L515.2900995476471,383.4930145356701 M515.2900995476471,383.4930145356701 L513.2935701350548,384.088988122053 M513.2935701350548,384.088988122053 L511.10466037520854,384.39592029940593 M511.10466037520854,384.39592029940593 L508.8507527807528,384.39591985094 M508.8507527807528,384.39591985094 L506.66303663668566,384.0889888119597 M506.66303663668566,384.0889888119597 L504.66882297344455,383.49301405279095 M504.66882297344455,383.49301405279095 L502.98412418760125,382.64272628057415 M502.98412418760125,382.64272628057415 L501.70686999374755,381.5876505953943 M501.70686999374755,381.5876505953943 L500.91121933918834,380.3892082416527 M500.91121933918834,380.3892082416527 L500.64326717151914,379.1171235053172 M630.1442562011804,316.129625185443 L519.3326686149339,379.1171235053172 M751.6385512880206,384.43470923020743 L630.1442562011804,316.129625185443 M751.6385512880206,384.43470923020743 L711.7635602617775,407.4049906088945 M711.7635602617775,407.4049906088945 L639.9709795682829,366.8654113172183 M639.9709795682829,366.8654113172183 L639.7289087652857,413.56369016156424 M711.7635602617775,407.4049906088945 L711.3617255666761,454.19621774717285 M751.6385512880206,384.43470923020743 L751.1495881116473,431.1733567670705 M630.1442562011804,316.129625185443 L629.9249179099374,362.71058921422696 M519.3326686149339,379.1171235053172 L519.3564583946381,425.843566822905 M500.64326717151914,379.1171235053172 L500.7082886487892,425.84356682290513 M469.8341636070457,361.5658361341809 L469.9669298002211,408.25191235055166 M398.5534521562135,470.85552531696936 L398.8462650814327,517.7908215875536" stroke="black"  stroke-width="4"  fill="red"/>
<path d="M519.3326686149339,379.1171235053172 L519.3087734114198,332.1836131300324 M500.5779575532087,332.1836131300324 L500.8464955167149,333.45273880718213 M500.8464955167149,333.45273880718213 L501.6439021930986,334.6483940370275 M501.6439021930986,334.6483940370275 L502.92398123092823,335.7010165225945 M502.92398123092823,335.7010165225945 L504.6124098255719,336.5493276018277 M504.6124098255719,336.5493276018277 L506.61104140156476,337.14391706216463 M506.61104140156476,337.14391706216463 L508.80360630550194,337.45013472202555 M508.80360630550194,337.45013472202555 L511.0625109542268,337.45013516944914 M511.0625109542268,337.45013516944914 L513.2562747714303,337.14391637386143 M513.2562747714303,337.14391637386143 L515.257232378302,336.54932808358444 M515.257232378302,336.54932808358444 L516.948981974966,335.70101693546076 M516.948981974966,335.70101693546076 L518.233181291964,334.6483941746216 M518.233181291964,334.6483941746216 L519.0352661107054,333.45273866962 M519.0352661107054,333.45273866962 L519.3087734114198,332.1836131300324 M500.64326717151914,379.1171235053172 L500.5779575532087,332.1836131300324 M519.3326686149339,379.1171235053172 L519.0597690570037,380.3892081037699 M519.0597690570037,380.3892081037699 L518.2594609311992,381.5876507333089 M518.2594609311992,381.5876507333089 L516.9781046623557,382.64272669440265 M516.9781046623557,382.64272669440265 L515.2900995476471,383.4930145356701 M515.2900995476471,383.4930145356701 L513.2935701350548,384.088988122053 M513.2935701350548,384.088988122053 L511.10466037520854,384.39592029940593 M511.10466037520854,384.39592029940593 L508.8507527807528,384.39591985094 M508.8507527807528,384.39591985094 L506.66303663668566,384.0889888119597 M506.66303663668566,384.0889888119597 L504.66882297344455,383.49301405279095 M504.66882297344455,383.49301405279095 L502.98412418760125,382.64272628057415 M502.98412418760125,382.64272628057415 L501.70686999374755,381.5876505953943 M501.70686999374755,381.5876505953943 L500.91121933918834,380.3892082416527 M500.91121933918834,380.3892082416527 L500.64326717151914,379.1171235053172 M580.9828433114956,344.07394472135405 L581.095178324682,297.222221704532 M580.9828433114956,344.07394472135405 L519.3326686149339,379.1171235053172 M581.095178324682,297.222221704532 L519.3087734114198,332.1836131300324 M510.11039548316035,246.82806124903306 L581.0429580011053,286.6998378954472 M581.0429580011053,286.6998378954472 L583.2751485704799,286.8525635205046 M583.2751485704799,286.8525635205046 L585.3793232936697,287.3018907293205 M585.3793232936697,287.3018907293205 L587.2333310775257,288.0217831588933 M587.2333310775257,288.0217831588933 L588.7294986368115,288.97050403193043 M588.7294986368115,288.97050403193043 L589.78085593315,290.09302658683623 M589.78085593315,290.09302658683623 L590.326178249299,291.3242066993931 M590.326178249299,291.3242066993931 L590.3336197861895,292.59253869374095 M590.3336197861895,292.59253869374095 L589.8025391895733,293.82431514431585 M589.8025391895733,293.82431514431585 L588.763631098204,294.94789956103597 M588.763631098204,294.94789956103597 L587.2771612094365,295.89790128505183 M587.2771612094365,295.89790128505183 L585.4294888281106,296.61900231249706 M585.4294888281106,296.61900231249706 L583.3280710363395,297.0691862091886 M583.3280710363395,297.0691862091886 L581.095178324682,297.222221704532 M500.5779575532087,332.1836131300324 L469.7008100633166,314.6732232079829 M398.2593301157304,423.71038956366596 L469.7008100633166,314.6732232079829 M590.9348960447667,383.42491466761004 L398.2593301157304,423.71038956366596 M590.9348960447667,383.42491466761004 L559.7502784839929,365.74015887085477 M559.7502784839929,365.74015887085477 L557.5012838042176,365.5850759556947 M557.5012838042176,365.5850759556947 L555.3822951984175,365.1288656541496 M555.3822951984175,365.1288656541496 L553.5166113791397,364.3981170093159 M553.5166113791397,364.3981170093159 L552.0127291013981,363.4354035378078 M552.0127291013981,363.4354035378078 L550.9580222871462,362.2967851620473 M550.9580222871462,362.2967851620473 L550.4136791929486,361.04852947387576 M550.4136791929486,361.04852947387576 L550.41115466091,359.76322997221575 M550.41115466091,359.76322997221575 L550.9504007667481,358.5155857258248 M550.9504007667481,358.5155857258248 L551.9999003408096,357.3780512116266 M551.9999003408096,357.3780512116266 L553.4985487399501,356.41664389284006 M553.4985487399501,356.41664389284006 L555.3592266144591,355.68712567137027 M555.3592266144591,355.68712567137027 L557.4738683600381,355.2317890237412 M557.4738683600381,355.2317890237412 L559.719723883315,355.07701985994197 M559.719723883315,355.07701985994197 L670.773753069368,291.9583313469005 M670.773753069368,291.9583313469005 L550.0778185731242,224.41136083972194 M550.0778185731242,224.41136083972194 L510.11039548316035,246.82806124903306 M469.8341636070457,361.5658361341809 L469.7008100633166,314.6732232079829 M500.64326717151914,379.1171235053172 L469.8341636070457,361.5658361341809 M580.9828433114956,344.07394472135405 L583.2108174780876,343.92055006524004 M583.2108174780876,343.92055006524004 L585.3076100914949,343.46930956838105 M585.3076100914949,343.46930956838105 L587.1512200968193,342.74651590550536 M587.1512200968193,342.74651590550536 L588.6344268221312,341.79428390773126 M588.6344268221312,341.79428390773126 L589.6710604872214,340.668061204537 M589.6710604872214,340.668061204537 L590.2009870827645,339.43339179821805 M590.2009870827645,339.43339179821805 L590.1935782800817,338.1620803118709 M590.1935782800817,338.1620803118709 L589.6494726412454,336.9280073207492 M589.6494726412454,336.9280073207492 L588.6004445391111,335.8028466296713 M588.6004445391111,335.8028466296713 L587.1075828129849,334.85189566417404 M587.1075828129849,334.85189566417404 L585.2576652893861,334.13031077506105 M585.2576652893861,334.13031077506105 L583.1581278622916,333.6799270897467 M583.1581278622916,333.6799270897467 L580.9308527443096,333.5268423501889 M510.1542631295951,293.56096928971346 L580.9308527443096,333.5268423501889 M550.0341428885729,271.0910658132347 L510.1542631295951,293.56096928971346 M550.0341428885729,271.0910658132347 L670.4639654076343,338.7976946947051 M559.6541241789871,402.0638014543201 L670.4639654076343,338.7976946947051 M559.6541241789871,402.0638014543201 L557.4132444093191,402.2189299873228 M557.4132444093191,402.2189299873228 L555.3032861730502,402.6753238528171 M555.3032861730502,402.6753238528171 L553.4467280237448,403.4065357114817 M553.4467280237448,403.4065357114817 L551.9513964523035,404.3701746677843 M551.9513964523035,404.3701746677843 L550.9042179411492,405.51034913609465 M550.9042179411492,405.51034913609465 L550.3661617450254,406.7608882360165 M550.3661617450254,406.7608882360165 L550.368675097091,408.04916926112094 M550.368675097091,408.04916926112094 L550.9118057014122,409.30031986189937 M550.9118057014122,409.30031986189937 L551.9641683932871,410.44157829882784 M551.9641683932871,410.44157829882784 L553.4647106610191,411.40652353412116 M553.4647106610191,411.40652353412116 L555.3262525815435,412.13896593549595 M555.3262525815435,412.13896593549595 L557.4405384237183,412.59623354192706 M557.4405384237183,412.59623354192706 L559.6845434463831,412.751675854114 M590.7997567148936,430.4773473767204 L559.6845434463831,412.751675854114 M590.7997567148936,430.4773473767204 L398.5534521562135,470.85552531696936 M398.5534521562135,470.85552531696936 L469.8341636070457,361.5658361341809 M580.9308527443096,333.5268423501889 L581.0429580011053,286.6998378954472 M510.1542631295951,293.56096928971346 L510.11039548316035,246.82806124903306 M550.0341428885729,271.0910658132347 L550.0778185731242,224.41136083972194 M670.4639654076343,338.7976946947051 L670.773753069368,291.9583313469005 M559.6541241789871,402.0638014543201 L559.719723883315,355.07701985994197 M559.6845434463831,412.751675854114 L559.7502784839929,365.74015887085477 M590.7997567148936,430.4773473767204 L590.9348960447667,383.42491466761004 M398.5534521562135,470.85552531696936 L398.2593301157304,423.71038956366596" stroke="black"  stroke-width="4"  fill="red"/>
<path d="M559.7856156360665,307.88105415978237 L559.719723883315,355.07701985994197 M559.7502784839929,365.74015887085477 L557.5012838042176,365.5850759556947 M557.5012838042176,365.5850759556947 L555.3822951984175,365.1288656541496 M555.3822951984175,365.1288656541496 L553.5166113791397,364.3981170093159 M553.5166113791397,364.3981170093159 L552.0127291013981,363.4354035378078 M552.0127291013981,363.4354035378078 L550.9580222871462,362.2967851620473 M550.9580222871462,362.2967851620473 L550.4136791929486,361.04852947387576 M550.4136791929486,361.04852947387576 L550.41115466091,359.76322997221575 M550.41115466091,359.76322997221575 L550.9504007667481,358.5155857258248 M550.9504007667481,358.5155857258248 L551.9999003408096,357.3780512116266 M551.9999003408096,357.3780512116266 L553.4985487399501,356.41664389284006 M553.4985487399501,356.41664389284006 L555.3592266144591,355.68712567137027 M555.3592266144591,355.68712567137027 L557.4738683600381,355.2317890237412 M557.4738683600381,355.2317890237412 L559.719723883315,355.07701985994197 M559.8163064752252,318.51913118075163 L559.7502784839929,365.74015887085477 M559.7856156360665,307.88105415978237 L557.5347622112881,308.03545921403645 M557.5347622112881,308.03545921403645 L555.4154161162066,308.4897246975242 M555.4154161162066,308.4897246975242 L553.5506001908093,309.21752693771117 M553.5506001908093,309.21752693771117 L552.0486202157454,310.1766731723853 M552.0486202157454,310.1766731723853 L550.9967892658367,311.3115328912211 M550.9967892658367,311.3115328912211 L550.4563479753075,312.5562440701626 M550.4563479753075,312.5562440701626 L550.4588837620943,313.83852268096354 M550.4588837620943,313.83852268096354 L551.0044447721859,315.0838452235748 M551.0044447721859,315.0838452235748 L552.0615061759818,316.2197886631765 M552.0615061759818,316.2197886631765 L553.5687433670162,317.18024088364143 M553.5687433670162,317.18024088364143 L555.4385875590463,317.9092733895421 M555.4385875590463,317.9092733895421 L557.562299897452,318.36441241272826 M557.562299897452,318.36441241272826 L559.8163064752252,318.51913118075163 M621.708243212257,272.8473480501641 L621.5055218411679,319.9604323357028 M621.708243212257,272.8473480501641 L559.7856156360665,307.88105415978237 M621.5055218411679,319.9604323357028 L559.719723883315,355.07701985994197 M640.21412182985,319.96043562855795 L639.9288021859202,318.6946289852982 M639.9288021859202,318.6946289852982 L639.1166231743064,317.5026679604972 M639.1166231743064,317.5026679604972 L637.8249251868542,316.45375732296714 M637.8249251868542,316.45375732296714 L636.1288495518554,315.60874915340673 M636.1288495518554,315.60874915340673 L634.1269410752052,315.0166393157929 M634.1269410752052,315.0166393157929 L631.9354273102088,314.7117551553068 M631.9354273102088,314.7117551553068 L629.6815059087044,314.71175296230757 M629.6815059087044,314.71175296230757 L627.4959643299885,315.01664041235745 M627.4959643299885,315.01664041235745 L625.5056429402961,315.60874805671597 M625.5056429402961,315.60874805671597 L623.8261034274515,316.45375622609623 M623.8261034274515,316.45375622609623 L622.554927906157,317.50266905759156 M622.554927906157,317.50266905759156 L621.7660726309041,318.69462679060126 M621.7660726309041,318.69462679060126 L621.5055218411679,319.9604323357028 M712.1671805528847,360.4058415830568 L640.21412182985,319.96043562855795 M752.1296824076619,337.488833948617 L712.1671805528847,360.4058415830568 M630.364560558745,269.3434972505715 L752.1296824076619,337.488833948617 M519.3087734114198,332.1836131300324 L630.364560558745,269.3434972505715 M500.5779575532087,332.1836131300324 L500.8464955167149,333.45273880718213 M500.8464955167149,333.45273880718213 L501.6439021930986,334.6483940370275 M501.6439021930986,334.6483940370275 L502.92398123092823,335.7010165225945 M502.92398123092823,335.7010165225945 L504.6124098255719,336.5493276018277 M504.6124098255719,336.5493276018277 L506.61104140156476,337.14391706216463 M506.61104140156476,337.14391706216463 L508.80360630550194,337.45013472202555 M508.80360630550194,337.45013472202555 L511.0625109542268,337.45013516944914 M511.0625109542268,337.45013516944914 L513.2562747714303,337.14391637386143 M513.2562747714303,337.14391637386143 L515.257232378302,336.54932808358444 M515.257232378302,336.54932808358444 L516.948981974966,335.70101693546076 M516.948981974966,335.70101693546076 L518.233181291964,334.6483941746216 M518.233181291964,334.6483941746216 L519.0352661107054,333.45273866962 M519.0352661107054,333.45273866962 L519.3087734114198,332.1836131300324 M469.7008100633166,314.6732232079829 L500.5779575532087,332.1836131300324 M469.7008100633166,314.6732232079829 L398.2593301157304,423.71038956366596 M398.2593301157304,423.71038956366596 L590.9348960447667,383.42491466761004 M559.7502784839929,365.74015887085477 L590.9348960447667,383.42491466761004 M591.0706386662956,336.16242956237875 L590.9348960447667,383.42491466761004 M559.8163064752252,318.51913118075163 L591.0706386662956,336.16242956237875 M621.708243212257,272.8473480501641 L621.9693469102908,271.58453993036636 M621.9693469102908,271.58453993036636 L622.7599280286845,270.395405380821 M622.7599280286845,270.395405380821 L624.0339013905567,269.34897743234046 M624.0339013905567,269.34897743234046 L625.7171478046862,268.50597143814457 M625.7171478046862,268.50597143814457 L627.7118698321135,267.9152669255169 M627.7118698321135,267.9152669255169 L629.9022505210032,267.6111020333726 M629.9022505210032,267.6111020333726 L632.1611690468669,267.6111042211744 M632.1611690468669,267.6111042211744 L634.3575484204857,267.915265831551 M634.3575484204857,267.915265831551 L636.3639089738404,268.50597253223646 M636.3639089738404,268.50597253223646 L638.0637649246648,269.34897852661254 M638.0637649246648,269.34897852661254 L639.3583518822306,270.3954042863254 M639.3583518822306,270.3954042863254 L640.1723603113176,271.5845421198658 M640.1723603113176,271.5845421198658 L640.4583428681578,272.8473513352226 M397.9638899328871,376.3539673647415 L591.0706386662956,336.16242956237875 M469.56686515932915,267.5726635942059 L397.9638899328871,376.3539673647415 M469.56686515932915,267.5726635942059 L500.51235782360374,285.0416198113616 M519.2847720632271,285.04161981136156 L519.0106543066506,286.30774742372716 M519.0106543066506,286.30774742372716 L518.2067848881971,287.5005791857695 M518.2067848881971,287.5005791857695 L516.9197298777007,288.5507165083545 M516.9197298777007,288.5507165083545 L515.224219148022,289.39702498256554 M515.224219148022,289.39702498256554 L513.2188136585025,289.990209766554 M513.2188136585025,289.990209766554 L511.0201742058039,290.2957058019388 M511.0201742058039,290.2957058019388 L508.7562502940732,290.29570535557116 M508.7562502940732,290.29570535557116 L506.55881508747973,289.9902104532326 M506.55881508747973,289.9902104532326 L504.5557459789844,289.3970245019462 M504.5557459789844,289.3970245019462 L502.8635710223894,288.550716096463 M502.8635710223894,288.550716096463 L501.5806546167008,287.50057904850036 M501.5806546167008,287.50057904850036 L500.781484149633,286.30774756096434 M500.781484149633,286.30774756096434 L500.51235782360374,285.0416198113616 M630.5858375501189,222.35081066960907 L519.2847720632271,285.04161981136156 M752.622996301817,290.33431324426067 L630.5858375501189,222.35081066960907 M752.622996301817,290.33431324426067 L712.5725986813634,313.1973452364477 M712.5725986813634,313.1973452364477 L640.4583428681578,272.8473513352226 M640.4583428681578,272.8473513352226 L640.21412182985,319.96043562855795 M712.5725986813634,313.1973452364477 L712.1671805528847,360.4058415830568 M752.622996301817,290.33431324426067 L752.1296824076619,337.488833948617 M630.5858375501189,222.35081066960907 L630.364560558745,269.3434972505715 M519.2847720632271,285.04161981136156 L519.3087734114198,332.1836131300324 M500.51235782360374,285.0416198113616 L500.5779575532087,332.1836131300324 M469.56686515932915,267.5726635942059 L469.7008100633166,314.6732232079829 M397.9638899328871,376.3539673647415 L398.2593301157304,423.71038956366596" stroke="black"  stroke-width="4"  fill="red"/>
<path d="M442.15252361954674,420.7925625714266 L441.9541387681579,373.1190194577053 M591.0706386662957,336.16242956237875 L591.2069885757016,288.68850066802236 M442.15252361954674,420.7925625714266 L591.0706386662957,336.16242956237875 M441.9541387681579,373.1190194577053 L591.2069885757016,288.68850066802236 M559.8163064752252,318.51913118075163 L559.8826293571988,271.08720742078134 M591.0706386662957,336.16242956237875 L559.8163064752252,318.51913118075163 M591.2069885757016,288.68850066802236 L559.8826293571988,271.08720742078134 M559.8518013663221,260.4745226204733 L557.5959277458833,260.6285587721912 M557.5959277458833,260.6285587721912 L555.4718563235226,261.08173899036024 M555.4718563235226,261.08173899036024 L553.6028839006083,261.8078026569833 M553.6028839006083,261.8078026569833 L552.0975575041034,262.7646580338304 M552.0975575041034,262.7646580338304 L551.0433847974253,263.89680772895935 M551.0433847974253,263.89680772895935 L550.5017430125381,265.13854720190807 M550.5017430125381,265.13854720190807 L550.5042901295121,266.417765116929 M550.5042901295121,266.417765116929 L551.0510745175475,267.6601158560652 M551.0510745175475,267.6601158560652 L552.1105010474055,268.7933490968252 M552.1105010474055,268.7933490968252 L553.6211081536862,269.75151025115076 M553.6211081536862,269.75151025115076 L555.4951313147283,270.4788039868551 M555.4951313147283,270.4788039868551 L557.623588493448,270.93285760282663 M557.623588493448,270.93285760282663 L559.8826293571988,271.08720742078134 M559.7856156360665,307.88105415978237 L559.8518013663221,260.4745226204733 M559.8163064752252,318.51913118075163 L557.562299897452,318.36441241272826 M557.562299897452,318.36441241272826 L555.4385875590463,317.9092733895421 M555.4385875590463,317.9092733895421 L553.5687433670162,317.18024088364143 M553.5687433670162,317.18024088364143 L552.0615061759818,316.2197886631765 M552.0615061759818,316.2197886631765 L551.0044447721859,315.0838452235748 M551.0044447721859,315.0838452235748 L550.4588837620943,313.83852268096354 M550.4588837620943,313.83852268096354 L550.4563479753075,312.5562440701626 M550.4563479753075,312.5562440701626 L550.9967892658367,311.3115328912211 M550.9967892658367,311.3115328912211 L552.0486202157454,310.1766731723853 M552.0486202157454,310.1766731723853 L553.5506001908093,309.21752693771117 M553.5506001908093,309.21752693771117 L555.4154161162066,308.4897246975242 M555.4154161162066,308.4897246975242 L557.5347622112881,308.03545921403645 M557.5347622112881,308.03545921403645 L559.7856156360665,307.88105415978237 M671.3974495615487,197.65649100721294 L559.8518013663221,260.4745226204733 M671.0849114549787,244.91171689886633 L671.3974495615487,197.65649100721294 M559.7856156360665,307.88105415978237 L671.0849114549787,244.91171689886633 M550.1657471300277,130.4350640241713 L671.3974495615487,197.65649100721294 M550.1216862364251,177.52647278796763 L550.1657471300277,130.4350640241713 M671.0849114549787,244.91171689886633 L550.1216862364251,177.52647278796763 M510.0663345895577,199.88928389793 L510.0220791861108,152.74329208682644 M550.1216862364251,177.52647278796763 L510.0663345895577,199.88928389793 M550.1657471300277,130.4350640241713 L510.0220791861108,152.74329208682644 M581.1555590377837,239.6657433591324 L581.2686591067992,192.42320017251532 M510.0663345895577,199.88928389793 L581.1555590377837,239.6657433591324 M510.0220791861108,152.74329208682644 L581.2686591067992,192.42320017251532 M581.3213435361979,202.89517668623506 L583.5641387807385,202.742873622765 M583.5641387807385,202.742873622765 L585.6748684182955,202.29484443465608 M585.6748684182955,202.29484443465608 L587.5307195007069,201.5771951654716 M587.5307195007069,201.5771951654716 L589.0237589839239,200.63174158126546 M589.0237589839239,200.63174158126546 L590.0672460016278,199.51353733398687 M590.0672460016278,199.51353733398687 L590.6006497425149,198.28766036625058 M590.6006497425149,198.28766036625058 L590.5931420828674,197.0254042970132 M590.5931420828674,197.0254042970132 L590.0453700169041,195.80012345658025 M590.0453700169041,195.80012345658025 L588.9893231635574,194.68298067017605 M588.9893231635574,194.68298067017605 L587.4864998173912,193.73880745332403 M587.4864998173912,193.73880745332403 L585.6242570064394,193.02236631603495 M585.6242570064394,193.02236631603495 L583.5107459598369,192.5751934875169 M583.5107459598369,192.5751934875169 L581.2686591067992,192.42320017251532 M581.2080106442769,250.1630863998284 L581.3213435361979,202.89517668623506 M581.1555590377837,239.6657433591324 L583.392686804606,239.81810519317995 M583.392686804606,239.81810519317995 L585.5015193560127,240.26636216693015 M585.5015193560127,240.26636216693015 L587.3596355292518,240.98454009352946 M587.3596355292518,240.98454009352946 L588.8591235963379,241.93100182373365 M588.8591235963379,241.93100182373365 L589.9128204535957,243.0508518700294 M589.9128204535957,243.0508518700294 L590.4593649000334,244.27910140421466 M590.4593649000334,244.27910140421466 L590.4668393886059,245.54441506891908 M590.4668393886059,245.54441506891908 L589.9345997544044,246.77326084526675 M589.9345997544044,246.77326084526675 L588.8934072339123,247.89417256982375 M588.8934072339123,247.89417256982375 L587.4036597905562,248.84191492959962 M587.4036597905562,248.84191492959962 L585.5519070893909,249.56130124033643 M585.5519070893909,249.56130124033643 L583.4458436676191,250.01041475146764 M583.4458436676191,250.01041475146764 L581.2080106442769,250.1630863998284 M519.2847720632271,285.04161981136156 L519.2606638708355,237.68976959300545 M581.2080106442769,250.1630863998284 L519.2847720632271,285.04161981136156 M581.3213435361979,202.89517668623506 L519.2606638708355,237.68976959300545 M500.44646607079596,237.68976959300545 L500.71618334270914,238.952860116129 M500.71618334270914,238.952860116129 L501.51712542030543,240.1428308372367 M501.51712542030543,240.1428308372367 L502.80289180010664,241.19044985238344 M502.80289180010664,241.19044985238344 L504.4988297807916,242.034729315432 M504.4988297807916,242.034729315432 L506.5063561708051,242.62649334562755 M506.5063561708051,242.62649334562755 L508.7086833648419,242.93125600809554 M508.7086833648419,242.93125600809554 L510.97764889475343,242.9312564533933 M510.97764889475343,242.9312564533933 L513.181185703399,242.62649266059492 M513.181185703399,242.62649266059492 L515.1910588938077,242.0347297948993 M515.1910588938077,242.0347297948993 L516.8903475174154,241.19045026328757 M516.8903475174154,241.19045026328757 L518.1802709502008,240.14283097417675 M518.1802709502008,240.14283097417675 L518.9859329273479,238.9528599792209 M518.9859329273479,238.9528599792209 L519.2606638708355,237.68976959300545 M500.5123578236038,285.04161981136156 L500.44646607079596,237.68976959300545 M519.2847720632271,285.04161981136156 L519.0106543066506,286.30774742372716 M519.0106543066506,286.30774742372716 L518.2067848881971,287.5005791857695 M518.2067848881971,287.5005791857695 L516.9197298777007,288.5507165083545 M516.9197298777007,288.5507165083545 L515.224219148022,289.39702498256554 M515.224219148022,289.39702498256554 L513.2188136585025,289.990209766554 M513.2188136585025,289.990209766554 L511.0201742058039,290.2957058019388 M511.0201742058039,290.2957058019388 L508.7562502940732,290.29570535557116 M508.7562502940732,290.29570535557116 L506.55881508747973,289.9902104532326 M506.55881508747973,289.9902104532326 L504.5557459789844,289.3970245019462 M504.5557459789844,289.3970245019462 L502.8635710223894,288.550716096463 M502.8635710223894,288.550716096463 L501.5806546167008,287.50057904850036 M501.5806546167008,287.50057904850036 L500.781484149633,286.30774756096434 M500.781484149633,286.30774756096434 L500.5123578236038,285.04161981136156 M469.5668651593292,267.5726635942059 L469.4323250046918,220.26278927050456 M500.5123578236038,285.04161981136156 L469.5668651593292,267.5726635942059 M500.44646607079596,237.68976959300545 L469.4323250046918,220.26278927050456 M320.65685612903724,351.07619620685676 L320.187635798281,303.5668657150097 M469.5668651593292,267.5726635942059 L320.65685612903724,351.07619620685676 M469.4323250046918,220.26278927050456 L320.187635798281,303.5668657150097 M441.9541387681579,373.1190194577053 L446.46169369252425,381.3845987723183 M446.46169369252425,381.3845987723183 L449.8723557177502,389.8354726530319 M449.8723557177502,389.8354726530319 L452.16440848690297,398.42494995727407 M452.16440848690297,398.42494995727407 L453.32226251058023,407.1053020204916 M453.32226251058023,407.1053020204916 L453.3365440664662,415.8280808703116 M453.3365440664662,415.8280808703116 L452.20432332848816,424.54434060010186 M452.20432332848816,424.54434060010186 L449.92908965193584,433.20493835843587 M449.92908965193584,433.20493835843587 L446.5208461259371,441.760783769226 M446.5208461259371,441.760783769226 L441.99612220199566,450.1631593011139 M441.99612220199566,450.1631593011139 L436.377903381502,458.3639658488789 M436.377903381502,458.3639658488789 L429.6955862556492,466.31606626509597 M429.6955862556492,466.31606626509597 L421.9848794353472,473.9735164465426 M421.9848794353472,473.9735164465426 L413.28757492495674,481.29189792931834 M413.28757492495674,481.29189792931834 L403.65146189888554,488.22855914220816 M403.65146189888554,488.22855914220816 L393.12998882669774,494.74292467836545 M393.12998882669774,494.74292467836545 L381.7819935362782,500.7967616393049 M381.7819935362782,500.7967616393049 L369.6714054631526,506.3543831883425 M369.6714054631526,506.3543831883425 L356.8669013365004,511.3829633009969 M356.8669013365004,511.3829633009969 L343.44147085429717,515.8526388821396 M343.44147085429717,515.8526388821396 L329.47201380612535,519.7368594263168 M329.47201380612535,519.7368594263168 L315.0387684242763,523.0124939777736 M315.0387684242763,523.0124939777736 L300.22496840660085,525.6599988054257 M300.22496840660085,525.6599988054257 L285.11633968318347,527.6634923832387 M285.11633968318347,527.6634923832387 L269.8002950456157,529.0110285981161 M269.8002950456157,529.0110285981161 L254.3657804671043,529.6944978705745 M254.3657804671043,529.6944978705745 L238.90230642202823,529.7098364046702 M238.90230642202823,529.7098364046702 L223.4997712461095,529.0569039783296 M223.4997712461095,529.0569039783296 L208.2475611899636,527.7396463022535 M208.2475611899636,527.7396463022535 L193.23409245689405,525.7659812259806 M193.23409245689405,525.7659812259806 L178.54640947609917,523.1476709099277 M178.54640947609917,523.1476709099277 L164.26934332079352,519.9004163839793 M164.26934332079352,519.9004163839793 L150.4852302828377,516.0435915546182 M150.4852302828377,516.0435915546182 L137.2732735264778,511.6001719153963 M137.2732735264778,511.6001719153963 L124.70906127524648,506.59659356504693 M124.70906127524648,506.59659356504693 L112.86418610473339,501.0625102650379 M112.86418610473339,501.0625102650379 L101.80573223100424,495.03065159298274 M101.80573223100424,495.03065159298274 L91.5959545034462,488.5365582349279 M91.5959545034462,488.5365582349279 L82.29187610216007,481.6183743528695 M82.29187610216007,481.6183743528695 L73.94503035929398,474.3165668744028 M73.94503035929398,474.3165668744028 L66.6011131433022,466.67369932235374 M66.6011131433022,466.67369932235374 L60.2998614426337,458.7341086190352 M60.2998614426337,458.7341086190352 L55.07475994944798,450.54366597112755 M55.07475994944798,450.54366597112755 L50.95292962084858,442.1494930625924 M50.95292962084858,442.1494930625924 L47.95514008536168,433.5996018168679 M47.95514008536168,433.5996018168679 L46.09547548461154,424.94274429776374 M46.09547548461154,424.94274429776374 L45.38162906104219,416.22796186475836 M45.38162906104219,416.22796186475836 L45.81479559339704,407.50438976184836 M45.81479559339704,407.50438976184836 L47.389579541886064,398.8210387597018 M47.389579541886064,398.8210387597018 L50.09437491355584,390.22633992922806 M50.09437491355584,390.22633992922806 L53.911224284056914,381.768099391331 M53.911224284056914,381.768099391331 L58.81624976096816,373.49301721522556 M58.81624976096816,373.49301721522556 L64.77951889640337,365.44666411880655 M64.77951889640337,365.44666411880655 L71.76554604090546,357.6730990113043 M71.76554604090546,357.6730990113043 L79.73342918845896,350.2146544962884 M79.73342918845896,350.2146544962884 L88.63712399724824,343.1118118809108 M88.63712399724824,343.1118118809108 L98.42560295929451,336.4029453409172 M98.42560295929451,336.4029453409172 L109.0434095275807,330.12415865045114 M109.0434095275807,330.12415865045114 L120.4307755884314,324.3090969548586 M120.4307755884314,324.3090969548586 L132.52408785188527,318.98880409343457 M132.52408785188527,318.98880409343457 L145.25615250686852,314.1915975374701 M145.25615250686852,314.1915975374701 L158.55655833354768,309.9429510635261 M158.55655833354768,309.9429510635261 L172.35210885533144,306.2653309975635 M172.35210885533144,306.2653309975635 L186.56712906861418,303.17816285113145 M186.56712906861418,303.17816285113145 L201.12393104107872,300.6977097196078 M201.12393104107872,300.6977097196078 L215.94310378919238,298.83701281990193 M215.94310378919238,298.83701281990193 L230.94399976732834,297.6058534629067 M230.94399976732834,297.6058534629067 L246.04505931410299,297.0106916400829 M246.04505931410299,297.0106916400829 L261.16427116905004,297.05464289755264 M261.16427116905004,297.05464289755264 L276.2195196361905,297.7374931971576 M276.2195196361905,297.7374931971576 L291.12903498520325,299.0556408672401 M291.12903498520325,299.0556408672401 L305.8117156360669,301.00217391302255 M305.8117156360669,301.00217391302255 L320.187635798281,303.5668657150097 M320.65685612903724,351.07619620685676 L306.312943423904,348.5054088574831 M306.312943423904,348.5054088574831 L291.66297159498987,346.5542475390685 M291.66297159498987,346.5542475390685 L276.7866939702373,345.23296477068254 M276.7866939702373,345.23296477068254 L261.7650372770096,344.5484900738947 M261.7650372770096,344.5484900738947 L246.6795949770314,344.5044342560943 M246.6795949770314,344.5044342560943 L231.6123056309584,345.1010119013057 M231.6123056309584,345.1010119013057 L216.64500333833803,346.33509955653955 M216.64500333833803,346.33509955653955 L201.85907118150456,348.2002208483613 M201.85907118150456,348.2002208483613 L187.3349815763939,350.6865696904989 M187.3349815763939,350.6865696904989 L173.1519724004982,353.78107188314857 M173.1519724004982,353.78107188314857 L159.3875614498701,357.4674232831703 M159.3875614498701,357.4674232831703 L146.1172570840556,361.7261494714048 M146.1172570840556,361.7261494714048 L133.41409356537508,366.5347277169517 M133.41409356537508,366.5347277169517 L121.34832492387693,371.86762050279043 M121.34832492387693,371.86762050279043 L109.98699371333407,377.69643975964254 M109.98699371333407,377.69643975964254 L99.39356867257868,383.99006456542554 M99.39356867257868,383.99006456542554 L89.62768064865918,390.7147666014386 M89.62768064865918,390.7147666014386 L80.7446572642607,397.8343532666866 M80.7446572642607,397.8343532666866 L72.79540575081535,405.3103564484908 M72.79540575081535,405.3103564484908 L65.82586013030436,413.1021962738812 M65.82586013030436,413.1021962738812 L59.87682250267784,421.16743763793 M59.87682250267784,421.16743763793 L54.983689750296776,429.46191557267355 M54.983689750296776,429.46191557267355 L51.17631713978062,437.93995032394395 M51.17631713978062,437.93995032394395 L48.47851827343993,446.5547307696262 M48.47851827343993,446.5547307696262 L46.90819903017439,455.25833782682173 M46.90819903017439,455.25833782682173 L46.47692779008662,464.0022267171264 M46.47692779008662,464.0022267171264 L47.19007627479499,472.73727234735804 M47.19007627479499,472.73727234735804 L49.04644076909727,481.41422560618014 M49.04644076909727,481.41422560618014 L52.03833397458163,489.9839322228091 M52.03833397458163,489.9839322228091 L56.15169253102579,498.3975286105782 M56.15169253102579,498.3975286105782 L61.36578331657961,506.6068937191501 M61.36578331657961,506.6068937191501 L67.65353702757511,514.5647994285293 M67.65353702757511,514.5647994285293 L74.98153598496742,522.225271553551 M74.98153598496742,522.225271553551 L83.31012547878441,529.543874227058 M83.31012547878441,529.543874227058 L92.59370664979122,536.4779494768825 M92.59370664979122,536.4779494768825 L102.78085774490967,542.9869410673086 M102.78085774490967,542.9869410673086 L113.8146810206697,549.0326210847331 M113.8146810206697,549.0326210847331 L125.63306038873174,554.5793711838346 M125.63306038873174,554.5793711838346 L138.1690628199898,559.5943905862259 M138.1690628199898,559.5943905862259 L151.35125861275486,564.0479612856009 M151.35125861275486,564.0479612856009 L165.104232887456,567.9135901141833 M165.104232887456,567.9135901141833 L179.34896535757508,571.168252142161 M179.34896535757508,571.168252142161 L194.00331094027092,573.7925318921205 M194.00331094027092,573.7925318921205 L208.98263651367625,575.7706947133856 M208.98263651367625,575.7706947133856 L224.20010156139458,577.0909533163845 M224.20010156139458,577.0909533163845 L239.56749765137613,577.745372948508 M239.56749765137613,577.745372948508 L254.99564906814504,577.7299994794571 M254.99564906814504,577.7299994794571 L270.39486954184883,577.0449734373142 M270.39486954184883,577.0449734373142 L285.6758599323766,575.6943672802512 M285.6758599323766,575.6943672802512 L300.7498842782653,573.686307902364 M300.7498842782653,573.686307902364 L315.52973606565604,571.0327669416824 M315.52973606565604,571.0327669416824 L329.9298913858595,567.7496599356207 M329.9298913858595,567.7496599356207 L343.8673122931169,563.8565725557742 M343.8673122931169,563.8565725557742 L357.26194874568023,559.3766855348185 M357.26194874568023,559.3766855348185 L370.0370806753113,554.3366066983017 M370.0370806753113,554.3366066983017 L382.11988823524194,548.7662638589754 M382.11988823524194,548.7662638589754 L393.44185368168905,542.698554461643 M393.44185368168905,542.698554461643 L403.93919467036267,536.1692433405922 M403.93919467036267,536.1692433405922 L413.55320777074684,529.216647357601 M413.55320777074684,529.216647357601 L422.23056555699566,521.8814314894278 M422.23056555699566,521.8814314894278 L429.92358597571297,514.2063419761337 M429.92358597571297,514.2063419761337 L436.59056952489175,506.2358964353063 M436.59056952489175,506.2358964353063 L442.1958853804088,498.01614214151596 M442.1958853804088,498.01614214151596 L446.7101996227808,489.59432274162634 M446.7101996227808,489.59432274162634 L450.1105742235455,481.0186466998091 M450.1105742235455,481.0186466998091 L452.38051205770074,472.3379430224513 M452.38051205770074,472.3379430224513 L453.51002722476187,463.60141514411583 M453.51002722476187,463.60141514411583 L453.4956326228869,454.85831983552794 M453.4956326228869,454.85831983552794 L452.34024578844145,446.15771720875574 M452.34024578844145,446.15771720875574 L450.0532137317944,437.54816901632154 M450.0532137317944,437.54816901632154 L446.65008549595575,429.07751673569993 M446.65008549595575,429.07751673569993 L442.15252361954674,420.7925625714266 M271.1570581503571,447.9373483914264 L274.743395621119,450.4834355752226 M274.743395621119,450.4834355752226 L277.3848485949428,453.3897708491524 M277.3848485949428,453.3897708491524 L278.97933769544886,456.545151550783 M278.97933769544886,456.545151550783 L279.4646807317831,459.8286706267861 M279.4646807317831,459.8286706267861 L278.82118844441396,463.1142651622027 M278.82118844441396,463.1142651622027 L277.07259172777464,466.27553674267534 M277.07259172777464,466.27553674267534 L274.2851995059534,469.1906785773881 M274.2851995059534,469.1906785773881 L270.56556937595917,471.7471538570701 M270.56556937595917,471.7471538570701 L266.0564082676862,473.8461507865776 M266.0564082676862,473.8461507865776 L260.93127233195617,475.4063839504343 M260.93127233195617,475.4063839504343 L255.38769851374585,476.36740138968713 M255.38769851374585,476.36740138968713 L249.63960239264975,476.6919375772668 M249.63960239264975,476.6919375772668 L243.90893655497098,476.36739341710796 M243.90893655497098,476.36739341710796 L238.41692507132106,475.40637911082985 M238.41692507132106,475.40637911082985 L233.37550973989505,473.8461499327848 M233.37550973989505,473.8461499327848 L228.97902809431466,471.7471538570701 M228.97902809431466,471.7471538570701 L225.3965604324937,469.19068170517323 M225.3965604324937,469.19068170517323 L222.7656158756629,466.27553475337737 M222.7656158756629,466.27553475337737 L221.1866738706746,463.11425720982805 M221.1866738706746,463.11425720982805 L220.71950391346226,459.8286797094943 M220.71950391346226,459.8286797094943 L221.3810583712335,456.54516176240077 M221.3810583712335,456.54516176240077 L223.1448701231702,453.3897779362647 M223.1448701231702,453.3897779362647 L225.94229785067557,450.483447758263 M225.94229785067557,450.483447758263 L229.66528831024965,447.9373483914264 M229.66528831024965,447.9373483914264 L234.17053133578895,445.8487637189091 M234.17053133578895,445.8487637189091 L239.28515890714425,444.2973422389308 M239.28515890714425,444.2973422389308 L244.81320170612264,443.34221257499235 M244.81320170612264,443.34221257499235 L250.54312465989148,443.0197348489008 M250.54312465989148,443.0197348489008 L256.25572832809365,443.3422023892043 M256.25572832809365,443.3422023892043 L261.73250866435853,444.2973379940743 M261.73250866435853,444.2973379940743 L266.7638884735809,445.8487555097428 M266.7638884735809,445.8487555097428 L271.1570581503571,447.9373483914264 M271.1570581503571,447.9373483914264 L270.57149754804743,400.2004364010407 M270.57149754804743,400.2004364010407 L266.1685135764147,398.1167079658694 M266.1685135764147,398.1167079658694 L261.12584957063905,396.5689050081791 M261.12584957063905,396.5689050081791 L255.6367462878357,395.61599523665444 M255.6367462878357,395.61599523665444 L249.91125053129224,395.2942792589143 M249.91125053129224,395.2942792589143 L244.1683571428079,395.6160053987035 M244.1683571428079,395.6160053987035 L238.62775940912067,396.56890924314433 M238.62775940912067,396.56890924314433 L233.50147081799088,398.11671615591246 M233.50147081799088,398.11671615591246 L228.98590610930586,400.2004364010407 M228.98590610930586,400.2004364010407 L225.2543288115806,402.7406083176424 M225.2543288115806,402.7406083176424 L222.4503799988048,405.64017583900426 M222.4503799988048,405.64017583900426 L220.68236601000416,408.7882216320823 M220.68236601000416,408.7882216320823 L220.0190935299504,412.0641081381196 M220.0190935299504,412.0641081381196 L220.4871003883395,415.3420540816411 M220.4871003883395,415.3420540816411 L222.06940668008772,418.4959931960623 M222.06940668008772,418.4959931960623 L224.70611771579954,421.40437690734035 M224.70611771579954,421.40437690734035 L228.29653526726912,423.9549209837774 M228.29653526726912,423.9549209837774 L232.7028456215559,426.0490519172354 M232.7028456215559,426.0490519172354 L237.7555901000397,427.6056659654084 M237.7555901000397,427.6056659654084 L243.25999317359225,428.56445407733474 M243.25999317359225,428.56445407733474 L249.00363288028103,428.8882465196499 M249.00363288028103,428.8882465196499 L254.76478197220177,428.56446203144696 M254.76478197220177,428.56446203144696 L260.3209814822046,427.6056707938009 M260.3209814822046,427.6056707938009 L265.45782660683005,426.04905276904964 M265.45782660683005,426.04905276904964 L269.97732772005213,423.9549209837773 M269.97732772005213,423.9549209837773 L273.7055301627995,421.40437378680986 M273.7055301627995,421.40437378680986 L276.49939851937575,418.49599518074376 M276.49939851937575,418.49599518074376 L278.25212886667066,415.34206201554997 M278.25212886667066,415.34206201554997 L278.89725739584463,412.0640990765147 M278.89725739584463,412.0640990765147 L278.41099492282643,408.78821144420516 M278.41099492282643,408.78821144420516 L276.81307074164704,405.6401687683782 M276.81307074164704,405.6401687683782 L274.165803119504,402.74059616295796 M274.165803119504,402.74059616295796 L270.57149754804743,400.2004364010407" stroke="black"  stroke-width="4"  fill="red"/>
<path d="M559.9182830458614,212.85601292528867 L559.8518013663221,260.4745226204733 M559.8826293571985,271.0872074207814 L557.623588493448,270.93285760282663 M557.623588493448,270.93285760282663 L555.4951313147283,270.4788039868551 M555.4951313147283,270.4788039868551 L553.6211081536862,269.75151025115076 M553.6211081536862,269.75151025115076 L552.1105010474055,268.7933490968252 M552.1105010474055,268.7933490968252 L551.0510745175475,267.6601158560652 M551.0510745175475,267.6601158560652 L550.5042901295121,266.417765116929 M550.5042901295121,266.417765116929 L550.5017430125381,265.13854720190807 M550.5017430125381,265.13854720190807 L551.0433847974253,263.89680772895935 M551.0433847974253,263.89680772895935 L552.0975575041034,262.7646580338304 M552.0975575041034,262.7646580338304 L553.6028839006083,261.8078026569833 M553.6028839006083,261.8078026569833 L555.4718563235226,261.08173899036024 M555.4718563235226,261.08173899036024 L557.5959277458833,260.6285587721912 M557.5959277458833,260.6285587721912 L559.8518013663221,260.4745226204733 M559.9492491098729,223.4429715895084 L559.8826293571985,271.0872074207814 M559.9182830458614,212.85601292528867 L557.6573667860974,213.009675328032 M557.6573667860974,213.009675328032 L555.5285489180508,213.46175602245444 M555.5285489180508,213.46175602245444 L553.6554014273679,214.18605827127539 M553.6554014273679,214.18605827127539 L552.1467136644558,215.1405926845012 M552.1467136644558,215.1405926845012 L551.0901887505975,216.26999673461364 M551.0901887505975,216.26999673461364 L550.5473411262242,217.50872543196192 M550.5473411262242,217.50872543196192 L550.5498996495004,218.78484240213885 M550.5498996495004,218.78484240213885 L551.0979129143543,220.02418224847764 M551.0979129143543,220.02418224847764 L552.1597151776755,221.1546696341407 M552.1597151776755,221.1546696341407 L553.6737073020066,222.11050957441873 M553.6737073020066,222.11050957441873 L555.5519281532831,222.8360416560168 M555.5519281532831,222.8360416560168 L557.6851514218195,223.28899557817792 M557.6851514218195,223.28899557817792 L559.9492491098729,223.4429715895084 M622.1163960531575,177.99134401162843 L621.9118659412729,225.52478534728877 M622.1163960531575,177.99134401162843 L559.9182830458614,212.85601292528867 M621.9118659412729,225.52478534728877 L559.8518013663221,260.4745226204733 M640.7036497839322,225.52478862444883 L640.4170012329519,224.26501603047086 M640.4170012329519,224.26501603047086 L639.6011551282966,223.07873829493178 M639.6011551282966,223.07873829493178 L638.3036662498337,222.03482989031153 M638.3036662498337,222.03482989031153 L636.6000130943985,221.19385223486088 M636.6000130943985,221.19385223486088 L634.5891806182933,220.60456700435847 M634.5891806182933,220.60456700435847 L632.3879139827275,220.30113738407272 M632.3879139827275,220.30113738407272 L630.1239761252189,220.30113520153617 M630.1239761252189,220.30113520153617 L627.92873484964,220.60456809569172 M627.92873484964,220.60456809569172 L625.9295926817256,221.19385114340167 M625.9295926817256,221.19385114340167 L624.2426229675156,222.0348287986721 M624.2426229675156,222.0348287986721 L622.9658394225818,223.07873938679455 M622.9658394225818,223.07873938679455 L622.173524894386,224.26501384623717 M622.173524894386,224.26501384623717 L621.9118659412729,225.52478534728877 M712.9798265288655,265.77811802238637 L640.7036497839322,225.52478862444883 M753.1185073631643,242.96977136052016 L712.9798265288655,265.77811802238637 M630.8080935449237,175.1502127232678 L753.1185073631643,242.96977136052016 M519.2606638708355,237.68976959300545 L630.8080935449237,175.1502127232678 M500.4464660707959,237.68976959300545 L500.71618334270914,238.952860116129 M500.71618334270914,238.952860116129 L501.51712542030543,240.1428308372367 M501.51712542030543,240.1428308372367 L502.80289180010664,241.19044985238344 M502.80289180010664,241.19044985238344 L504.4988297807916,242.034729315432 M504.4988297807916,242.034729315432 L506.5063561708051,242.62649334562755 M506.5063561708051,242.62649334562755 L508.7086833648419,242.93125600809554 M508.7086833648419,242.93125600809554 L510.97764889475343,242.9312564533933 M510.97764889475343,242.9312564533933 L513.181185703399,242.62649266059492 M513.181185703399,242.62649266059492 L515.1910588938077,242.0347297948993 M515.1910588938077,242.0347297948993 L516.8903475174154,241.19045026328757 M516.8903475174154,241.19045026328757 L518.1802709502008,240.14283097417675 M518.1802709502008,240.14283097417675 L518.9859329273479,238.9528599792209 M518.9859329273479,238.9528599792209 L519.2606638708355,237.68976959300545 M469.43232500469173,220.26278927050464 L500.4464660707959,237.68976959300545 M469.43232500469173,220.26278927050464 L397.6671228412771,328.78485354352483 M397.6671228412771,328.78485354352483 L591.2069885757016,288.68850066802236 M559.8826293571985,271.0872074207814 L591.2069885757016,288.68850066802236 M591.3439498574651,241.00170586161784 L591.2069885757016,288.68850066802236 M559.9492491098729,223.4429715895084 L591.3439498574651,241.00170586161784 M622.1163960531575,177.99134401162843 L622.3786126230705,176.73464875800528 M622.3786126230705,176.73464875800528 L623.1726681775913,175.5512717050914 M623.1726681775913,175.5512717050914 L624.4522743299185,174.50991131522997 M624.4522743299185,174.50991131522997 L626.1429838520623,173.67098845306163 M626.1429838520623,173.67098845306163 L628.1465657931512,173.08314540695022 M628.1465657931512,173.08314540695022 L630.3466892752253,172.78045405564376 M630.3466892752253,172.78045405564376 L632.6156688200281,172.78045623284638 M632.6156688200281,172.78045623284638 L634.8218445157329,173.0831443182841 M634.8218445157329,173.0831443182841 L636.8371688936315,173.67098954185406 M636.8371688936315,173.67098954185406 L638.5446362558904,174.50991240420234 M638.5446362558904,174.50991240420234 L639.845040093308,175.55127061589565 M639.845040093308,175.55127061589565 L640.6627321876563,176.7346509369048 M640.6627321876563,176.7346509369048 L640.9500498354978,177.99134728078673 M397.3690198814742,281.00161198404555 L591.3439498574651,241.00170586161784 M469.2971856226305,172.74220183896514 L397.3690198814742,281.00161198404555 M469.2971856226305,172.74220183896514 L500.3802803404834,190.12665805320205 M519.2364481192132,190.12665805320205 L518.9611012393975,191.38667147724357 M518.9611012393975,191.38667147724357 L518.1536386912131,192.57374426913162 M518.1536386912131,192.57374426913162 L516.8608340220535,193.61881256691387 M516.8608340220535,193.61881256691387 L515.1577506313139,194.46103659495853 M515.1577506313139,194.46103659495853 L513.1433897890237,195.05135892547668 M513.1433897890237,195.05135892547668 L510.934933758512,195.35538088778424 M510.934933758512,195.35538088778424 L508.66090410556046,195.3553804435703 M508.66090410556046,195.3553804435703 L506.4536630941445,195.05135960884186 M506.4536630941445,195.05135960884186 L504.441659541465,194.46103611665836 M504.441659541465,194.46103611665836 L502.74194176314535,193.6188121570103 M502.74194176314535,193.6188121570103 L501.453312718778,192.57374413252526 M501.453312718778,192.57374413252526 L500.6505911586898,191.38667161381804 M500.6505911586898,191.38667161381804 L500.3802803404834,190.12665805320205 M631.0313350547226,127.74032054827683 L519.2364481192132,190.12665805320205 M753.6162303033868,195.3938020480316 L631.0313350547226,127.74032054827683 M753.6162303033868,195.3938020480316 L713.3888762399229,218.14674578333273 M713.3888762399229,218.14674578333273 L640.9500498354978,177.99134728078673 M640.9500498354978,177.99134728078673 L640.7036497839322,225.52478862444883 M713.3888762399229,218.14674578333273 L712.9798265288655,265.77811802238637 M753.6162303033868,195.3938020480316 L753.1185073631643,242.96977136052016 M631.0313350547226,127.74032054827683 L630.8080935449237,175.1502127232678 M519.2364481192132,190.12665805320205 L519.2606638708355,237.68976959300545 M500.3802803404834,190.12665805320205 L500.4464660707959,237.68976959300545 M469.2971856226305,172.74220183896514 L469.43232500469173,220.26278927050464 M397.3690198814742,281.00161198404555 L397.6671228412771,328.78485354352483" stroke="black"  stroke-width="4"  fill="red"/>
<path d="M519.2364481192132,190.12665805320205 L519.212124105721,142.35090511098213 M500.31379871223527,142.35090511098213 L500.58470569388265,143.60780153291472 M500.58470569388265,143.60780153291472 L501.389214659629,144.79193799851816 M501.389214659629,144.79193799851816 L502.68071914174624,145.83442170932716 M502.68071914174624,145.83442170932716 L504.38423360071465,146.67456331028427 M504.38423360071465,146.67456331028427 L506.40073432704753,147.26342744122078 M506.40073432704753,147.26342744122078 L508.6129111284135,147.56669675408193 M508.6129111284135,147.56669675408193 L510.8920275563586,147.56669719719778 M510.8920275563586,147.56669719719778 L513.1054248176088,147.26342675954493 M513.1054248176088,147.26342675954493 L515.1242933932298,146.6745637874019 M515.1242933932298,146.6745637874019 L516.8311885346546,145.83442211821716 M516.8311885346546,145.83442211821716 L518.1268873380968,144.79193813478676 M518.1268873380968,144.79193813478676 L518.9361585221054,143.6078013966781 M518.9361585221054,143.6078013966781 L519.212124105721,142.35090511098213 M500.3802803404834,190.12665805320205 L500.31379871223527,142.35090511098213 M519.2364481192132,190.12665805320205 L518.9611012393975,191.38667147724357 M518.9611012393975,191.38667147724357 L518.1536386912131,192.57374426913162 M518.1536386912131,192.57374426913162 L516.8608340220535,193.61881256691387 M516.8608340220535,193.61881256691387 L515.1577506313139,194.46103659495853 M515.1577506313139,194.46103659495853 L513.1433897890237,195.05135892547668 M513.1433897890237,195.05135892547668 L510.934933758512,195.35538088778424 M510.934933758512,195.35538088778424 L508.66090410556046,195.3553804435703 M508.66090410556046,195.3553804435703 L506.4536630941445,195.05135960884186 M506.4536630941445,195.05135960884186 L504.441659541465,194.46103611665836 M504.441659541465,194.46103611665836 L502.74194176314535,193.6188121570103 M502.74194176314535,193.6188121570103 L501.453312718778,192.57374413252526 M501.453312718778,192.57374413252526 L500.6505911586898,191.38667161381804 M500.6505911586898,191.38667161381804 L500.3802803404834,190.12665805320205 M581.4351803389794,155.41710015652254 L581.5495243325947,107.7274888274946 M581.4351803389794,155.41710015652254 L519.2364481192132,190.12665805320205 M581.5495243325947,107.7274888274946 L519.212124105721,142.35090511098213 M509.93297970926074,57.8241889092958 L581.4963695826375,97.30723709237805 M581.4963695826375,97.30723709237805 L583.7484408553921,97.45847897559725 M583.7484408553921,97.45847897559725 L585.8713714423311,97.90344116652341 M585.8713714423311,97.90344116652341 L587.7419227589719,98.61634087817777 M587.7419227589719,98.61634087817777 L589.2514613705569,99.55584765457957 M589.2514613705569,99.55584765457957 L590.3122398002638,100.66747012641599 M590.3122398002638,100.66747012641599 L590.862483720606,101.88669754285763 M590.862483720606,101.88669754285763 L590.8700583883843,103.14271888207145 M590.8700583883843,103.14271888207145 L590.3343110941548,104.36254213774919 M590.3343110941548,104.36254213774919 L589.2862046121452,105.47522553180926 M589.2862046121452,105.47522553180926 L587.7865372101455,106.41601202582899 M587.7865372101455,106.41601202582899 L585.9224347023955,107.13011924667092 M585.9224347023955,107.13011924667092 L583.8023103297945,107.57593735780625 M583.8023103297945,107.57593735780625 L581.5495243325947,107.7274888274946 M500.31379871223527,142.35090511098213 L469.1614431057112,125.0095272843568 M397.06957224449917,233.00283068562476 L469.1614431057112,125.0095272843568 M591.4815265265158,193.10064723614204 L397.06957224449917,233.00283068562476 M591.4815265265158,193.10064723614204 L560.0161676792861,175.58503194488998 M560.0161676792861,175.58503194488998 L557.7469904808338,175.43143465074263 M557.7469904808338,175.43143465074263 L555.6089797336084,174.9795948678443 M555.6089797336084,174.9795948678443 L553.7265423480462,174.25584757869697 M553.7265423480462,174.25584757869697 L552.2091500037311,173.30235933554013 M552.2091500037311,173.30235933554013 L551.1449613298688,172.17465385758464 M551.1449613298688,172.17465385758464 L550.5957136531174,170.93836442782208 M550.5957136531174,170.93836442782208 L550.5931436467497,169.66538909883243 M550.5931436467497,169.66538909883243 L551.1372024905781,168.42971068080087 M551.1372024905781,168.42971068080087 L552.1960901303138,167.30308829275256 M552.1960901303138,167.30308829275256 L553.7081543023307,166.35090528336391 M553.7081543023307,166.35090528336391 L555.5854955525243,165.62838755031652 M555.5854955525243,165.62838755031652 L557.7190811228721,165.17742079642767 M557.7190811228721,165.17742079642767 L559.9850626125578,165.02413704292172 M559.9850626125578,165.02413704292172 L672.0267015647969,102.51466691864618 M672.0267015647969,102.51466691864618 L550.2544537032989,35.62723875342721 M550.2544537032989,35.62723875342721 L509.93297970926074,57.8241889092958 M469.2971856226305,172.74220183896514 L469.1614431057112,125.0095272843568 M500.3802803404834,190.12665805320205 L469.2971856226305,172.74220183896514 M581.4351803389794,155.41710015652254 L583.6829598603038,155.26517046833018 M583.6829598603038,155.26517046833018 L585.7983764365644,154.81823969507582 M585.7983764365644,154.81823969507582 L587.6583440818163,154.102350039539 M587.6583440818163,154.102350039539 L589.1546901864053,153.15921496793746 M589.1546901864053,153.15921496793746 L590.2004818361129,152.04375336822 M590.2004818361129,152.04375336822 L590.735054786107,150.8208837656758 M590.735054786107,150.8208837656758 L590.7275137340403,149.56172499238818 M590.7275137340403,149.56172499238818 L590.1785085222546,148.33945138295127 M590.1785085222546,148.33945138295127 L589.1201011676799,147.22505099229625 M589.1201011676799,147.22505099229625 L587.6139276723695,146.28319598430596 M587.6139276723695,146.28319598430596 L585.7475398535248,145.56851416924275 M585.7475398535248,145.56851416924275 L583.6293295068912,145.1224395500173 M583.6293295068912,145.1224395500173 L581.3822615329836,144.97081953440355 M509.9776279819546,105.38871063658917 L581.3822615329836,144.97081953440355 M550.2100025334746,83.13576699850864 L509.9776279819546,105.38871063658917 M550.2100025334746,83.13576699850864 L671.7113765862903,150.19126306923295 M559.9182830458614,212.85601292528867 L671.7113765862903,150.19126306923295 M559.9182830458614,212.85601292528867 L557.6573667860974,213.009675328032 M557.6573667860974,213.009675328032 L555.5285489180508,213.46175602245444 M555.5285489180508,213.46175602245444 L553.6554014273679,214.18605827127539 M553.6554014273679,214.18605827127539 L552.1467136644558,215.1405926845012 M552.1467136644558,215.1405926845012 L551.0901887505975,216.26999673461364 M551.0901887505975,216.26999673461364 L550.5473411262242,217.50872543196192 M550.5473411262242,217.50872543196192 L550.5498996495004,218.78484240213885 M550.5498996495004,218.78484240213885 L551.0979129143543,220.02418224847764 M551.0979129143543,220.02418224847764 L552.1597151776755,221.1546696341407 M552.1597151776755,221.1546696341407 L553.6737073020066,222.11050957441873 M553.6737073020066,222.11050957441873 L555.5519281532831,222.8360416560168 M555.5519281532831,222.8360416560168 L557.6851514218195,223.28899557817792 M557.6851514218195,223.28899557817792 L559.9492491098729,223.4429715895084 M591.3439498574651,241.00170586161784 L559.9492491098729,223.4429715895084 M591.3439498574651,241.00170586161784 L397.3690198814742,281.00161198404555 M397.3690198814742,281.00161198404555 L469.2971856226305,172.74220183896514 M581.3822615329836,144.97081953440355 L581.4963695826375,97.30723709237805 M509.9776279819546,105.38871063658917 L509.93297970926074,57.8241889092958 M550.2100025334746,83.13576699850864 L550.2544537032989,35.62723875342721 M671.7113765862903,150.19126306923295 L672.0267015647969,102.51466691864618 M559.9182830458614,212.85601292528867 L559.9850626125578,165.02413704292172 M559.9492491098729,223.4429715895084 L560.0161676792861,175.58503194488998 M591.3439498574651,241.00170586161784 L591.4815265265158,193.10064723614204 M397.3690198814742,281.00161198404555 L397.06957224449917,233.00283068562476" stroke="black"  stroke-width="4"  fill="red"/>
<path d="M560.0521421766607,116.97738347522471 L559.9850626125578,165.02413704292172 M560.0161676792861,175.58503194488998 L557.7469904808338,175.43143465074263 M557.7469904808338,175.43143465074263 L555.6089797336084,174.9795948678443 M555.6089797336084,174.9795948678443 L553.7265423480462,174.25584757869697 M553.7265423480462,174.25584757869697 L552.2091500037311,173.30235933554013 M552.2091500037311,173.30235933554013 L551.1449613298688,172.17465385758464 M551.1449613298688,172.17465385758464 L550.5957136531174,170.93836442782208 M550.5957136531174,170.93836442782208 L550.5931436467497,169.66538909883243 M550.5931436467497,169.66538909883243 L551.1372024905781,168.42971068080087 M551.1372024905781,168.42971068080087 L552.1960901303138,167.30308829275256 M552.1960901303138,167.30308829275256 L553.7081543023307,166.35090528336391 M553.7081543023307,166.35090528336391 L555.5854955525243,165.62838755031652 M555.5854955525243,165.62838755031652 L557.7190811228721,165.17742079642767 M557.7190811228721,165.17742079642767 L559.9850626125578,165.02413704292172 M560.0833871842676,127.5118731707451 L560.0161676792861,175.58503194488998 M560.0521421766607,116.97738347522471 L557.7810727064502,117.13028362384887 M557.7810727064502,117.13028362384887 L555.6426980266734,117.58012185747691 M555.6426980266734,117.58012185747691 L553.7611441929143,118.30083171570465 M553.7611441929143,118.30083171570465 L552.2456884626513,119.25063253694452 M552.2456884626513,119.25063253694452 L551.1844275039606,120.37443683869657 M551.1844275039606,120.37443683869657 L550.6391520227437,121.60702502703344 M550.6391520227437,121.60702502703344 L550.6417335897007,122.8768175582793 M550.6417335897007,122.8768175582793 L551.1922212528245,124.11001660066961 M551.1922212528245,124.11001660066961 L552.2588070901483,125.23490371049456 M552.2588070901483,125.23490371049456 L553.7796149642945,126.18600942860303 M553.7796149642945,126.18600942860303 L555.666287861912,126.90794852516728 M555.666287861912,126.90794852516728 L557.809107628432,127.35865955990386 M557.809107628432,127.35865955990386 L560.0833871842676,127.5118731707451 M622.5282026355965,82.28619894697857 L622.3218394679914,130.24564819781102 M622.5282026355965,82.28619894697857 L560.0521421766607,116.97738347522471 M622.3218394679914,130.24564819781102 L559.9850626125578,165.02413704292172 M641.1975501548518,130.24565145886345 L640.9095602862558,128.99207143205678 M640.9095602862558,128.99207143205678 L640.0900138329843,127.8116262547378 M640.0900138329843,127.8116262547378 L638.7866819127564,126.77285143686595 M638.7866819127564,126.77285143686595 L637.0753832299745,125.93601011424482 M637.0753832299745,125.93601011424482 L635.055546840536,125.34962363926178 M635.055546840536,125.34962363926178 L632.8444401441468,125.04768673893113 M632.8444401441468,125.04768673893113 L630.5703964106233,125.04768456713185 M630.5703964106233,125.04768456713185 L628.365368961468,125.34962472522614 M628.365368961468,125.34962472522614 L626.3573274868695,125.93600902815416 M626.3573274868695,125.93600902815416 L624.6628615418128,126.77285035059532 M624.6628615418128,126.77285035059532 L623.3804202773772,127.81162734123154 M623.3804202773772,127.81162734123154 L622.5846160310582,128.99206925856106 M622.5846160310582,128.99206925856106 L622.3218394679914,130.24564819781102 M713.7997597506203,170.30183863417784 L641.1975501548518,130.24565145886345 M754.1161795796556,147.60502338545223 L713.7997597506203,170.30183863417784 M631.255568475764,80.11977577063175 L754.1161795796556,147.60502338545223 M519.212124105721,142.35090511098213 L631.255568475764,80.11977577063175 M500.31379871223527,142.35090511098213 L500.58470569388265,143.60780153291472 M500.58470569388265,143.60780153291472 L501.389214659629,144.79193799851816 M501.389214659629,144.79193799851816 L502.68071914174624,145.83442170932716 M502.68071914174624,145.83442170932716 L504.38423360071465,146.67456331028427 M504.38423360071465,146.67456331028427 L506.40073432704753,147.26342744122078 M506.40073432704753,147.26342744122078 L508.6129111284135,147.56669675408193 M508.6129111284135,147.56669675408193 L510.8920275563586,147.56669719719778 M510.8920275563586,147.56669719719778 L513.1054248176088,147.26342675954493 M513.1054248176088,147.26342675954493 L515.1242933932298,146.6745637874019 M515.1242933932298,146.6745637874019 L516.8311885346546,145.83442211821716 M516.8311885346546,145.83442211821716 L518.1268873380968,144.79193813478676 M518.1268873380968,144.79193813478676 L518.9361585221054,143.6078013966781 M518.9361585221054,143.6078013966781 L519.212124105721,142.35090511098213 M469.1614431057112,125.0095272843568 L500.31379871223527,142.35090511098213 M469.1614431057112,125.0095272843568 L397.06957224449917,233.00283068562476 M397.06957224449917,233.00283068562476 L591.4815265265158,193.10064723614204 M560.0161676792861,175.58503194488998 L591.4815265265158,193.10064723614204 M591.6197229532122,144.98380313247912 L591.4815265265158,193.10064723614204 M560.0833871842676,127.5118731707451 L591.6197229532122,144.98380313247912 M622.5282026355965,82.28619894697857 L622.7915415842281,81.03577684004472 M622.7915415842281,81.03577684004472 L623.5891022412575,79.85830821198016 M623.5891022412575,79.85830821198016 L624.8743912101932,78.8221481951478 M624.8743912101932,78.8221481951478 L626.5726303099377,77.98741546001048 M626.5726303099377,77.98741546001048 L628.5851512175161,77.40250885271234 M628.5851512175161,77.40250885271234 L630.7951045477573,77.10132964676467 M630.7951045477573,77.10132964676467 L633.0742351302611,77.10133181309027 M633.0742351302611,77.10133181309027 L635.2902949229522,77.40250776948477 M635.2902949229522,77.40250776948477 L637.3146635760232,77.98741654336413 M637.3146635760232,77.98741654336413 L639.0298108144082,78.8221492786816 M639.0298108144082,78.8221492786816 L640.3360840346692,79.85830712822303 M640.3360840346692,79.85830712822303 L641.1574932760029,81.03577900806658 M641.1574932760029,81.03577900806658 L641.4461585121776,82.28620219981974 M714.2124900578149,122.24188316935101 L641.4461585121776,82.28620219981974 M754.6183709389579,99.60193016157797 L714.2124900578149,122.24188316935101 M754.6183709389579,99.60193016157797 L631.4808007816098,32.28709741215653 M519.1876910649769,94.36100744889762 L631.4808007816098,32.28709741215653 M519.1876910649769,94.36100744889762 L518.9111039904362,95.6147459671584 M518.9111039904362,95.6147459671584 L518.1000160487047,96.79590837401406 M518.1000160487047,96.79590837401406 L516.80141012178,97.8357743443093 M516.80141012178,97.8357743443093 L515.0906861259313,98.67380649648044 M515.0906861259313,98.67380649648044 L513.0672895934417,99.26119107475449 M513.0672895934417,99.26119107475449 L510.8489289368791,99.56370018424855 M510.8489289368791,99.56370018424855 L508.5647029217689,99.56369974224498 M508.5647029217689,99.56369974224498 L506.3475682025148,99.26119175471888 M506.3475682025148,99.26119175471888 L504.32655015010164,98.67380602056068 M504.32655015010164,98.67380602056068 L502.6192220082108,97.835773936446 M502.6192220082108,97.835773936446 L501.3248292250165,96.79590823808775 M501.3248292250165,96.79590823808775 L500.5185248746385,95.61474610305288 M500.5185248746385,95.61474610305288 L500.2470190941329,94.36100744889762 M469.02509319653996,77.0632685311636 L500.2470190941329,94.36100744889762 M469.02509319653996,77.0632685311636 L396.7687703467976,184.78697349010122 M396.7687703467976,184.78697349010122 L591.6197229532122,144.98380313247912 M641.4461585121776,82.28620219981974 L641.1975501548518,130.24565145886345 M714.2124900578149,122.24188316935101 L713.7997597506203,170.30183863417784 M754.6183709389579,99.60193016157797 L754.1161795796556,147.60502338545223 M631.4808007816098,32.28709741215653 L631.255568475764,80.11977577063175 M519.1876910649769,94.36100744889762 L519.212124105721,142.35090511098213 M500.2470190941329,94.36100744889762 L500.31379871223527,142.35090511098213 M469.02509319653996,77.0632685311636 L469.1614431057112,125.0095272843568 M396.7687703467976,184.78697349010122 L397.06957224449917,233.00283068562476" stroke="black"  stroke-width="4"  fill="red"/></svg>