<svg viewBox="0 0 800 800" xmlns="http://www.w3.org/2000/svg"><path d="M602.4495251050607,473.1392708512408 L602.3842154615851,519.9182919679172 M602.414500292793,530.6305787687756 L600.1754628378885,530.474781757089 M600.1754628378885,530.474781757089 L598.0658589332734,530.0164706645676 M598.0658589332734,530.0164706645676 L596.2084405634519,529.2823566413012 M596.2084405634519,529.2823566413012 L594.711223504088,528.3152088031283 M594.711223504088,528.3152088031283 L593.6611945388593,527.1713447940878 M593.6611945388593,527.1713447940878 L593.1192710355042,525.9173370906174 M593.1192710355042,525.9173370906174 L593.116768789306,524.6261134739545 M593.116768789306,524.6261134739545 L593.6536403149371,523.3727173117134 M593.6536403149371,523.3727173117134 L594.6985080060692,522.2299373451933 M594.6985080060692,522.2299373451933 L596.1905373977813,521.2640958723273 M596.1905373977813,521.2640958723273 L598.0429940229483,520.5312124734809 M598.0429940229483,520.5312124734809 L600.1482894483374,520.0737751821936 M600.1482894483374,520.0737751821936 L602.3842154615851,519.9182919679172 M602.4799443724568,483.82714525103466 L602.414500292793,530.6305787687756 M602.4495251050607,473.1392708512408 L600.2086453353926,473.29439938424343 M600.2086453353926,473.29439938424343 L598.0986870991238,473.75079324973774 M598.0986870991238,473.75079324973774 L596.2421289498183,474.48200510840235 M596.2421289498183,474.48200510840235 L594.7467973783771,475.44564406470494 M594.7467973783771,475.44564406470494 L593.6996188672227,476.5858185330153 M593.6996188672227,476.5858185330153 L593.161562671099,477.83635763293717 M593.161562671099,477.83635763293717 L593.1640760231645,479.1246386580416 M593.1640760231645,479.1246386580416 L593.7072066274858,480.37578925882 M593.7072066274858,480.37578925882 L594.7595693193606,481.5170476957485 M594.7595693193606,481.5170476957485 L596.2601115870928,482.4819929310418 M596.2601115870928,482.4819929310418 L598.121653507617,483.2144353324166 M598.121653507617,483.2144353324166 L600.2359393497919,483.6717029388477 M600.2359393497919,483.6717029388477 L602.4799443724568,483.82714525103466 M664.099096859956,437.94087741358805 L663.898160341856,484.6391562503381 M664.099096859956,437.94087741358805 L602.4495251050607,473.1392708512408 M663.898160341856,484.6391562503381 L602.3842154615851,519.9182919679172 M712.9509401210645,456.5066786710918 L673.1599538017454,479.32738395064905 M673.1599538017454,479.32738395064905 L671.089918042758,479.4604949853608 M671.089918042758,479.4604949853608 L669.1260997845668,479.8531722595588 M669.1260997845668,479.8531722595588 L667.3668519608811,480.48578264957666 M667.3668519608811,480.48578264957666 L665.9003239893674,481.3266824029882 M665.9003239893674,481.3266824029882 L664.8000505712823,482.33379693810605 M664.8000505712823,482.33379693810605 L664.121277139471,483.4567055441643 M664.121277139471,483.4567055441643 L663.898160341856,484.6391562503381 M602.414500292793,530.6305787687756 L633.4606174863299,548.3966303303621 M441.6416660075063,588.8662909844743 L633.4606174863299,548.3966303303621 M512.7623307262947,479.3273817474723 L441.6416660075063,588.8662909844743 M512.7623307262947,479.3273817474723 L543.5036895748628,496.9190362198258 M543.5036895748628,496.9190362198258 L543.7710584961771,498.1940415756546 M543.7710584961771,498.1940415756546 L544.5649608452122,499.3952348387896 M544.5649608452122,499.3952348387896 L545.8394026340744,500.45273184123 M545.8394026340744,500.45273184123 L547.5203880519459,501.3049706123055 M547.5203880519459,501.3049706123055 L549.5102032889729,501.90231266101466 M549.5102032889729,501.90231266101466 L551.6930920696249,502.2099478041956 M551.6930920696249,502.2099478041956 L553.9420246676474,502.2099482536903 M553.9420246676474,502.2099482536903 L556.1261018016269,501.9023119695252 M556.1261018016269,501.9023119695252 L558.1182225744823,501.3049710962925 M558.1182225744823,501.3049710962925 L559.8024997450974,500.45273225600806 M559.8024997450974,500.45273225600806 L561.0810255251472,499.3952349770209 M561.0810255251472,499.3952349770209 L561.8795648109991,498.19404143745516 M561.8795648109991,498.19404143745516 L562.1518593207118,496.91903621982567 M562.1518593207118,496.91903621982567 L672.7203188360111,433.7860586111476 M672.7203188360111,433.7860586111476 L712.9509401210645,456.5066786710918 M633.5951576409672,501.55281677364104 L633.4606174863299,548.3966303303621 M602.4799443724568,483.82714525103466 L633.5951576409672,501.55281677364104 M713.2593663337079,409.87316409162577 L673.3812307762546,432.6413077292146 M673.3812307762546,432.6413077292146 L671.3066286436305,432.77411282474657 M671.3066286436305,432.77411282474657 L669.3384836727824,433.16588762278855 M669.3384836727824,433.16588762278855 L667.5753652208432,433.7970442444876 M667.5753652208432,433.7970442444876 L666.1056165005698,434.6360118336317 M666.1056165005698,434.6360118336317 L665.002933711472,435.64081268175823 M665.002933711472,435.64081268175823 L664.3226834171465,436.7611420894185 M664.3226834171465,436.7611420894185 L664.099096859956,437.94087741358805 M441.34885308228706,541.93099471389 L633.5951576409672,501.55281677364104 M512.6295645331193,432.6413055311016 L441.34885308228706,541.93099471389 M512.6295645331193,432.6413055311016 L543.4386680975928,450.19259290223783 M562.1280695410076,450.19259290223783 L561.8551699830773,451.4646775006905 M561.8551699830773,451.4646775006905 L561.0548618572728,452.6631201302296 M561.0548618572728,452.6631201302296 L559.7735055884292,453.7181960913233 M559.7735055884292,453.7181960913233 L558.0855004737207,454.56848393259077 M558.0855004737207,454.56848393259077 L556.0889710611284,455.1644575189737 M556.0889710611284,455.1644575189737 L553.9000613012821,455.4713896963266 M553.9000613012821,455.4713896963266 L551.6461537068265,455.47138924786066 M551.6461537068265,455.47138924786066 L549.4584375627593,455.1644582088804 M549.4584375627593,455.1644582088804 L547.4642238995182,454.5684834497116 M547.4642238995182,454.5684834497116 L545.7795251136748,453.7181956774948 M545.7795251136748,453.7181956774948 L544.5022709198212,452.66311999231493 M544.5022709198212,452.66311999231493 L543.7066202652619,451.46467763857333 M543.7066202652619,451.46467763857333 L543.4386680975928,450.19259290223783 M672.939657127254,387.20509458236364 L562.1280695410076,450.19259290223783 M672.939657127254,387.20509458236364 L713.2593663337079,409.87316409162577 M673.3812307762546,432.6413077292146 L673.1599538017454,479.32738395064905 M713.2593663337079,409.87316409162577 L712.9509401210645,456.5066786710918 M672.939657127254,387.20509458236364 L672.7203188360111,433.7860586111476 M562.1280695410076,450.19259290223783 L562.1518593207118,496.91903621982567 M543.4386680975928,450.19259290223783 L543.5036895748628,496.9190362198258 M512.6295645331193,432.6413055311016 L512.7623307262947,479.3273817474723 M441.34885308228706,541.93099471389 L441.6416660075063,588.8662909844743" stroke="black"  stroke-width="4"  fill="red"/>
<path d="M562.1280695410076,450.19259290223783 L562.1041743374934,403.2590825269531 M543.3733584792824,403.2590825269531 L543.6418964427885,404.5282082041028 M543.6418964427885,404.5282082041028 L544.4393031191722,405.72386343394817 M544.4393031191722,405.72386343394817 L545.7193821570019,406.77648591951515 M545.7193821570019,406.77648591951515 L547.4078107516455,407.62479699874837 M547.4078107516455,407.62479699874837 L549.4064423276384,408.2193864590853 M549.4064423276384,408.2193864590853 L551.5990072315756,408.5256041189462 M551.5990072315756,408.5256041189462 L553.8579118803004,408.5256045663698 M553.8579118803004,408.5256045663698 L556.0516756975039,408.2193857707821 M556.0516756975039,408.2193857707821 L558.0526333043756,407.6247974805051 M558.0526333043756,407.6247974805051 L559.7443829010396,406.7764863323814 M559.7443829010396,406.7764863323814 L561.0285822180375,405.72386357154227 M561.0285822180375,405.72386357154227 L561.830667036779,404.5282080665406 M561.830667036779,404.5282080665406 L562.1041743374934,403.2590825269531 M543.4386680975928,450.19259290223783 L543.3733584792824,403.2590825269531 M562.1280695410076,450.19259290223783 L561.8551699830773,451.4646775006905 M561.8551699830773,451.4646775006905 L561.0548618572728,452.6631201302296 M561.0548618572728,452.6631201302296 L559.7735055884292,453.7181960913233 M559.7735055884292,453.7181960913233 L558.0855004737207,454.56848393259077 M558.0855004737207,454.56848393259077 L556.0889710611284,455.1644575189737 M556.0889710611284,455.1644575189737 L553.9000613012821,455.4713896963266 M553.9000613012821,455.4713896963266 L551.6461537068265,455.47138924786066 M551.6461537068265,455.47138924786066 L549.4584375627593,455.1644582088804 M549.4584375627593,455.1644582088804 L547.4642238995182,454.5684834497116 M547.4642238995182,454.5684834497116 L545.7795251136748,453.7181956774948 M545.7795251136748,453.7181956774948 L544.5022709198212,452.66311999231493 M544.5022709198212,452.66311999231493 L543.7066202652619,451.46467763857333 M543.7066202652619,451.46467763857333 L543.4386680975928,450.19259290223783 M623.7782442375691,415.1494141182747 L623.8905792507556,368.29769110145264 M623.7782442375691,415.1494141182747 L562.1280695410076,450.19259290223783 M623.8905792507556,368.29769110145264 L562.1041743374934,403.2590825269531 M673.1599614848186,340.41896664749214 L633.1933151544639,363.03380511044577 M633.1933151544639,363.03380511044577 L632.9662680560064,364.20466343429194 M632.9662680560064,364.20466343429194 L632.2826672739434,365.31705746133974 M632.2826672739434,365.31705746133974 L631.1766651058284,366.31515136017447 M631.1766651058284,366.31515136017447 L629.7036567889122,367.14881619740675 M629.7036567889122,367.14881619740675 L627.9375006543198,367.77616195591804 M627.9375006543198,367.77616195591804 L625.9668276624673,368.16564833783207 M625.9668276624673,368.16564833783207 L623.8905792507556,368.29769110145264 M543.3733584792824,403.2590825269531 L512.4962109893902,385.74869260490357 M441.05473104180396,494.7858589605866 L512.4962109893902,385.74869260490357 M633.7302969708402,454.5003840645307 L441.05473104180396,494.7858589605866 M633.7302969708402,454.5003840645307 L602.5456794100667,436.8156282677754 M602.5456794100667,436.8156282677754 L600.2966847302911,436.6605453526154 M600.2966847302911,436.6605453526154 L598.177696124491,436.20433505107025 M598.177696124491,436.20433505107025 L596.3120123052133,435.47358640623656 M596.3120123052133,435.47358640623656 L594.8081300274717,434.51087293472847 M594.8081300274717,434.51087293472847 L593.7534232132198,433.37225455896794 M593.7534232132198,433.37225455896794 L593.2090801190222,432.1239988707964 M593.2090801190222,432.1239988707964 L593.2065555869837,430.8386993691364 M593.2065555869837,430.8386993691364 L593.7458016928216,429.59105512274544 M593.7458016928216,429.59105512274544 L594.7953012668833,428.45352060854725 M594.7953012668833,428.45352060854725 L596.2939496660237,427.4921132897607 M596.2939496660237,427.4921132897607 L598.1546275405327,426.7625950682909 M598.1546275405327,426.7625950682909 L600.2692692861117,426.30725842066187 M600.2692692861117,426.30725842066187 L602.5151248093887,426.1524892568626 M602.5151248093887,426.1524892568626 L713.5691539954415,363.03380074382113 M713.5691539954415,363.03380074382113 L673.1599614848186,340.41896664749214 M512.6295645331193,432.6413055311016 L512.4962109893902,385.74869260490357 M543.4386680975928,450.19259290223783 L512.6295645331193,432.6413055311016 M633.0605490209164,409.8731684685083 L632.8339869272003,411.04677701013827 M632.8339869272003,411.04677701013827 L632.1518777593109,412.1617833826907 M632.1518777593109,412.1617833826907 L631.04829956931,413.16222075179644 M631.04829956931,413.16222075179644 L629.5785263401832,413.9978426604814 M629.5785263401832,413.9978426604814 L627.8162541944574,414.6266609486507 M627.8162541944574,414.6266609486507 L625.8499190340641,415.01706146256396 M625.8499190340641,415.01706146256396 L623.7782442375691,415.1494141182747 M672.939657127254,387.20509458236364 L633.0605490209164,409.8731684685083 M713.2593663337079,409.87316409162577 L672.939657127254,387.20509458236364 M602.4495251050607,473.1392708512408 L713.2593663337079,409.87316409162577 M602.4495251050607,473.1392708512408 L600.2086453353926,473.29439938424343 M600.2086453353926,473.29439938424343 L598.0986870991238,473.75079324973774 M598.0986870991238,473.75079324973774 L596.2421289498183,474.48200510840235 M596.2421289498183,474.48200510840235 L594.7467973783771,475.44564406470494 M594.7467973783771,475.44564406470494 L593.6996188672227,476.5858185330153 M593.6996188672227,476.5858185330153 L593.161562671099,477.83635763293717 M593.161562671099,477.83635763293717 L593.1640760231645,479.1246386580416 M593.1640760231645,479.1246386580416 L593.7072066274858,480.37578925882 M593.7072066274858,480.37578925882 L594.7595693193606,481.5170476957485 M594.7595693193606,481.5170476957485 L596.2601115870928,482.4819929310418 M596.2601115870928,482.4819929310418 L598.121653507617,483.2144353324166 M598.121653507617,483.2144353324166 L600.2359393497919,483.6717029388477 M600.2359393497919,483.6717029388477 L602.4799443724568,483.82714525103466 M633.5951576409672,501.55281677364104 L602.4799443724568,483.82714525103466 M633.5951576409672,501.55281677364104 L441.34885308228706,541.93099471389 M441.34885308228706,541.93099471389 L512.6295645331193,432.6413055311016 M633.0605490209164,409.8731684685083 L633.1933151544639,363.03380511044577 M672.939657127254,387.20509458236364 L673.1599614848186,340.41896664749214 M713.2593663337079,409.87316409162577 L713.5691539954415,363.03380074382113 M602.4495251050607,473.1392708512408 L602.5151248093887,426.1524892568626 M602.4799443724568,483.82714525103466 L602.5456794100667,436.8156282677754 M633.5951576409672,501.55281677364104 L633.7302969708402,454.5003840645307 M441.34885308228706,541.93099471389 L441.05473104180396,494.7858589605866" stroke="black"  stroke-width="4"  fill="red"/>
<path d="M363.45225705511086,422.1516656037774 L363.9193845132086,469.4490892955755 M512.3622660854028,338.64813299112654 L512.4962109893903,385.74869260490357 M363.45225705511086,422.1516656037774 L512.3622660854028,338.64813299112654 M363.9193845132086,469.4490892955755 L512.4962109893903,385.74869260490357 M543.3077587496773,356.1170892082822 L543.3733584792824,403.2590825269531 M512.3622660854028,338.64813299112654 L543.3077587496773,356.1170892082822 M512.4962109893903,385.74869260490357 L543.3733584792824,403.2590825269531 M562.1041743374934,403.2590825269531 L561.830667036779,404.5282080665406 M561.830667036779,404.5282080665406 L561.0285822180375,405.72386357154227 M561.0285822180375,405.72386357154227 L559.7443829010396,406.7764863323814 M559.7443829010396,406.7764863323814 L558.0526333043756,407.6247974805051 M558.0526333043756,407.6247974805051 L556.0516756975039,408.2193857707821 M556.0516756975039,408.2193857707821 L553.8579118803004,408.5256045663698 M553.8579118803004,408.5256045663698 L551.5990072315756,408.5256041189462 M551.5990072315756,408.5256041189462 L549.4064423276384,408.2193864590853 M549.4064423276384,408.2193864590853 L547.4078107516455,407.62479699874837 M547.4078107516455,407.62479699874837 L545.7193821570019,406.77648591951515 M545.7193821570019,406.77648591951515 L544.4393031191722,405.72386343394817 M544.4393031191722,405.72386343394817 L543.6418964427885,404.5282082041028 M543.6418964427885,404.5282082041028 L543.3733584792824,403.2590825269531 M562.0801729893008,356.1170892082822 L562.1041743374934,403.2590825269531 M543.3077587496773,356.1170892082822 L543.5768850757066,357.383216957885 M543.5768850757066,357.383216957885 L544.3760555427745,358.576048445421 M544.3760555427745,358.576048445421 L545.658971948463,359.6261854933837 M545.658971948463,359.6261854933837 L547.351146905058,360.47249389886684 M547.351146905058,360.47249389886684 L549.3542160135534,361.06567985015323 M549.3542160135534,361.06567985015323 L551.5516512201468,361.3711747524918 M551.5516512201468,361.3711747524918 L553.8155751318775,361.3711751988595 M553.8155751318775,361.3711751988595 L556.0142145845762,361.06567916347467 M556.0142145845762,361.06567916347467 L558.0196200740955,360.4724943794862 M558.0196200740955,360.4724943794862 L559.7151308037743,359.6261859052752 M559.7151308037743,359.6261859052752 L561.0021858142708,358.57604858269013 M561.0021858142708,358.57604858269013 L561.8060552327242,357.3832168206478 M561.8060552327242,357.3832168206478 L562.0801729893008,356.1170892082822 M562.1041743374934,403.2590825269531 L673.1599614848186,340.41896664749214 M673.3812384761924,293.4262800665297 L673.1599614848186,340.41896664749214 M562.0801729893008,356.1170892082822 L673.3812384761924,293.4262800665297 M713.8803123810524,315.98718629578696 L713.5691539954415,363.03380074382113 M673.3812384761924,293.4262800665297 L713.8803123810524,315.98718629578696 M673.1599614848186,340.41896664749214 L713.5691539954415,363.03380074382113 M673.8267281606952,338.64813517891196 L673.6034866682909,385.7486947978863 M713.8803123810524,315.98718629578696 L673.8267281606952,338.64813517891196 M713.5691539954415,363.03380074382113 L673.6034866682909,385.7486947978863 M664.5036441383306,343.92281744708475 L664.3009227672416,391.0359017326235 M673.8267281606952,338.64813517891196 L671.7429325759057,338.7803163128179 M671.7429325759057,338.7803163128179 L669.7660767324351,339.17025051289875 M669.7660767324351,339.17025051289875 L667.995165704205,339.7984421720399 M667.995165704205,339.7984421720399 L666.5189328616782,340.6334690988035 M666.5189328616782,340.6334690988035 L665.4113995382738,341.6335511503895 M665.4113995382738,341.6335511503895 L664.7281761595478,342.74862022686085 M664.7281761595478,342.74862022686085 L664.5036441383306,343.92281744708475 M673.6034866682909,385.7486947978863 L671.5242979729813,385.88118994136914 M671.5242979729813,385.88118994136914 L669.5518071837736,386.2720504252869 M669.5518071837736,386.2720504252869 L667.7848010357055,386.90173420744566 M667.7848010357055,386.90173420744566 L666.3118173905301,387.7387442817626 M666.3118173905301,387.7387442817626 L665.2067146568689,388.74120108137095 M665.2067146568689,388.74120108137095 L664.5249810613517,389.85891743813 M664.5249810613517,389.85891743813 L664.3009227672416,391.0359017326235 M602.58101656214,378.956523556703 L602.5151248093887,426.1524892568626 M664.5036441383306,343.92281744708475 L602.58101656214,378.956523556703 M664.3009227672416,391.0359017326235 L602.5151248093887,426.1524892568626 M602.5456794100667,436.8156282677753 L600.2966847302911,436.6605453526154 M600.2966847302911,436.6605453526154 L598.177696124491,436.20433505107025 M598.177696124491,436.20433505107025 L596.3120123052133,435.47358640623656 M596.3120123052133,435.47358640623656 L594.8081300274717,434.51087293472847 M594.8081300274717,434.51087293472847 L593.7534232132198,433.37225455896794 M593.7534232132198,433.37225455896794 L593.2090801190222,432.1239988707964 M593.2090801190222,432.1239988707964 L593.2065555869837,430.8386993691364 M593.2065555869837,430.8386993691364 L593.7458016928216,429.59105512274544 M593.7458016928216,429.59105512274544 L594.7953012668833,428.45352060854725 M594.7953012668833,428.45352060854725 L596.2939496660237,427.4921132897607 M596.2939496660237,427.4921132897607 L598.1546275405327,426.7625950682909 M598.1546275405327,426.7625950682909 L600.2692692861117,426.30725842066187 M600.2692692861117,426.30725842066187 L602.5151248093887,426.1524892568626 M602.6117074012989,389.5946005776723 L602.5456794100667,436.8156282677753 M602.58101656214,378.956523556703 L600.3301631373618,379.1109286109571 M600.3301631373618,379.1109286109571 L598.2108170422803,379.56519409444485 M598.2108170422803,379.56519409444485 L596.3460011168829,380.2929963346318 M596.3460011168829,380.2929963346318 L594.844021141819,381.25214256930593 M594.844021141819,381.25214256930593 L593.7921901919102,382.38700228814173 M593.7921901919102,382.38700228814173 L593.2517489013811,383.6317134670833 M593.2517489013811,383.6317134670833 L593.2542846881678,384.9139920778842 M593.2542846881678,384.9139920778842 L593.7998456982596,386.1593146204955 M593.7998456982596,386.1593146204955 L594.8569071020554,387.2952580600971 M594.8569071020554,387.2952580600971 L596.3641442930898,388.2557102805621 M596.3641442930898,388.2557102805621 L598.2339884851198,388.98474278646273 M598.2339884851198,388.98474278646273 L600.3577008235256,389.4398818096489 M600.3577008235256,389.4398818096489 L602.6117074012989,389.5946005776723 M633.8660395923692,407.2378989592994 L633.7302969708403,454.50038406453064 M602.6117074012989,389.5946005776723 L633.8660395923692,407.2378989592994 M602.5456794100667,436.8156282677753 L633.7302969708403,454.50038406453064 M484.94792454562037,491.8680319683472 L485.14541857714835,539.3275036005693 M633.8660395923692,407.2378989592994 L484.94792454562037,491.8680319683472 M633.7302969708403,454.50038406453064 L485.14541857714835,539.3275036005693 M363.9193845132086,469.4490892955755 L349.6073370569465,466.87228621285476 M349.6073370569465,466.87228621285476 L334.98992864336276,464.9165571981426 M334.98992864336276,464.9165571981426 L320.1467408797064,463.5921803521611 M320.1467408797064,463.5921803521611 L305.1585263921324,462.90610250840285 M305.1585263921324,462.90610250840285 L290.1067031311546,462.8619434980281 M290.1067031311546,462.8619434980281 L275.0730332837187,463.4599184442734 M275.0730332837187,463.4599184442734 L260.13917455126125,464.6968960841312 M260.13917455126125,464.6968960841312 L245.38633419909473,466.5663838630104 M245.38633419909473,466.5663838630104 L230.8948102715483,469.05855122333577 M230.8948102715483,469.05855122333577 L216.7436682923179,472.16029138784717 M216.7436682923179,472.16029138784717 L203.01025666400147,475.8552596712787 M203.01025666400147,475.8552596712787 L189.76991783369152,480.1239333508637 M189.76991783369152,480.1239333508637 L177.0955245661287,484.94373398937284 M177.0955245661287,484.94373398937284 L165.0571744011198,490.2890611215321 M165.0571744011198,490.2890611215321 L153.72175931376378,496.1314569608044 M153.72175931376378,496.1314569608044 L143.15260414622088,502.4397244679459 M143.15260414622088,502.4397244679459 L133.4092031067134,509.1800531975537 M133.4092031067134,509.1800531975537 L124.54675548998785,516.3161628450409 M124.54675548998785,516.3161628450409 L116.61604881440314,523.8094925548207 M116.61604881440314,523.8094925548207 L109.66290730654703,531.6193651478252 M109.66290730654703,531.6193651478252 L103.72803364326114,539.7032443352284 M103.72803364326114,539.7032443352284 L98.84673637758266,548.0168604616467 M98.84673637758266,548.0168604616467 L95.04879398485951,556.5144261551247 M95.04879398485951,556.5144261551247 L92.3579561128908,565.1490206943961 M92.3579561128908,565.1490206943961 L90.7920773763139,573.8726135228414 M90.7920773763139,573.8726135228414 L90.36268876286465,582.636547662371 M90.36268876286465,582.636547662371 L91.07513833559108,591.3915852232046 M91.07513833559108,591.3915852232046 L92.92821353562874,600.0883647565024 M92.92821353562874,600.0883647565024 L95.91423303365946,608.6776206071104 M95.91423303365946,608.6776206071104 L100.01915420747059,617.1103791834373 M100.01915420747059,617.1103791834373 L105.22228032501243,625.3384118031217 M105.22228032501243,625.3384118031217 L111.49659354747507,633.3143853772617 M111.49659354747507,633.3143853772617 L118.80874294681655,640.9922241703605 M118.80874294681655,640.9922241703605 L127.11915575556532,648.3273947507469 M127.11915575556532,648.3273947507469 L136.38232971565117,655.277146021971 M136.38232971565117,655.277146021971 L146.54695417309586,661.8008336999205 M146.54695417309586,661.8008336999205 L157.55625627200908,667.8601473067366 M157.55625627200908,667.8601473067366 L169.3482580690982,673.4193919440681 M169.3482580690982,673.4193919440681 L181.8561770432328,678.4456966514406 M181.8561770432328,678.4456966514406 L195.0087456280144,682.9092801006088 M195.0087456280144,682.9092801006088 L208.73072149532499,686.7835928774646 M208.73072149532499,686.7835928774646 L222.94326639451526,690.045561330914 M222.94326639451526,690.045561330914 L237.56442556648244,692.6757290154832 M237.56442556648244,692.6757290154832 L252.5097629198345,694.6583281482655 M252.5097629198345,694.6583281482655 L267.69264089869984,695.9815466765176 M267.69264089869984,695.9815466765176 L283.02505786901327,696.6374331909228 M283.02505786901327,696.6374331909228 L298.41804766198345,696.6220252643514 M298.41804766198345,696.6220252643514 L313.7821350764734,695.9354637265313 M313.7821350764734,695.9354637265313 L329.0282313120589,694.581829571421 M329.0282313120589,694.581829571421 L344.06780943057686,692.569266755401 M344.06780943057686,692.569266755401 L358.81386822551235,689.9097720697258 M358.81386822551235,689.9097720697258 L373.18108486041496,686.6192945690113 M373.18108486041496,686.6192945690113 L387.0866162236731,682.7174612572076 M387.0866162236731,682.7174612572076 L400.4505995838995,678.227501924094 M400.4505995838995,678.227501924094 L413.1964937564886,673.1760808890381 M413.1964937564886,673.1760808890381 L425.2516479574581,667.5931897529982 M425.2516479574581,667.5931897529982 L436.54770269416804,661.5117963594095 M436.54770269416804,661.5117963594095 L447.02102203832214,654.9677424293654 M447.02102203832214,654.9677424293654 L456.613036344236,647.9994275978206 M456.613036344236,647.9994275978206 L465.27053868284725,640.6476051483396 M465.27053868284725,640.6476051483396 L472.94595364280065,632.9551146620273 M472.94595364280065,632.9551146620273 L479.5976738162458,624.9665715272859 M479.5976738162458,624.9665715272859 L485.1901458283917,616.7281247596097 M485.1901458283917,616.7281247596097 L489.69409816600376,608.2871230376904 M489.69409816600376,608.2871230376904 L493.08664007980076,599.6918826870599 M493.08664007980076,599.6918826870599 L495.35130664830183,590.9913426722773 M495.35130664830183,590.9913426722773 L496.4781291066424,582.2348179579188 M496.4781291066424,582.2348179579188 L496.4636226216563,573.4716777039387 M496.4636226216563,573.4716777039387 L495.3106925209048,564.751094703945 M495.3106925209048,564.751094703945 L493.0286592480503,556.1217429822779 M493.0286592480503,556.1217429822779 L489.63303160541875,547.6315753434749 M489.63303160541875,547.6315753434749 L485.14541857714835,539.3275036005693 M484.94792454562037,491.8680319683472 L489.4454864220294,500.1529861326206 M489.4454864220294,500.1529861326206 L492.848614657868,508.6236384132422 M492.848614657868,508.6236384132422 L495.135646714515,517.2331866056763 M495.135646714515,517.2331866056763 L496.2910335489605,525.9337892324486 M496.2910335489605,525.9337892324486 L496.3054281508355,534.6768845410365 M496.3054281508355,534.6768845410365 L495.1759129837743,543.413412419372 M495.1759129837743,543.413412419372 L492.90597514961905,552.0941160967297 M492.90597514961905,552.0941160967297 L489.50560054885443,560.669792138547 M489.50560054885443,560.669792138547 L484.9912863064824,569.0916115384366 M484.9912863064824,569.0916115384366 L479.3859704509654,577.311365832227 M479.3859704509654,577.311365832227 L472.7189869017866,585.2818113730543 M472.7189869017866,585.2818113730543 L465.0259664830693,592.9569008863484 M465.0259664830693,592.9569008863484 L456.3486086968204,600.2921167545217 M456.3486086968204,600.2921167545217 L446.7345955964363,607.2447127375128 M446.7345955964363,607.2447127375128 L436.2372546077627,613.7740238585636 M436.2372546077627,613.7740238585636 L424.9152891613155,619.8417332558961 M424.9152891613155,619.8417332558961 L412.83248160138487,625.4120760952223 M412.83248160138487,625.4120760952223 L400.0573496717538,630.4521549317392 M400.0573496717538,630.4521549317392 L386.66271321919055,634.9320419526948 M386.66271321919055,634.9320419526948 L372.7252923119331,638.8251293325413 M372.7252923119331,638.8251293325413 L358.3251369917296,642.1082363386031 M358.3251369917296,642.1082363386031 L343.54528520433894,644.7617772992846 M343.54528520433894,644.7617772992846 L328.47126085845025,646.7698366771718 M328.47126085845025,646.7698366771718 L313.19027046792246,648.1204428342348 M313.19027046792246,648.1204428342348 L297.7910499942186,648.8054688763777 M297.7910499942186,648.8054688763777 L282.36289857744976,648.8208423454287 M282.36289857744976,648.8208423454287 L266.9955024874682,648.1664227133051 M266.9955024874682,648.1664227133051 L251.77803743974985,646.8461641103063 M251.77803743974985,646.8461641103063 L236.79871186634452,644.8680012890411 M236.79871186634452,644.8680012890411 L222.1443662836487,642.2437215390817 M222.1443662836487,642.2437215390817 L207.8996338135296,638.989059511104 M207.8996338135296,638.989059511104 L194.14665953882846,635.1234306825215 M194.14665953882846,635.1234306825215 L180.96446374606342,630.6698599831466 M180.96446374606342,630.6698599831466 L168.4284613148053,625.6548405807553 M168.4284613148053,625.6548405807553 L156.61008194674332,620.1080904816538 M156.61008194674332,620.1080904816538 L145.5762586709833,614.0624104642293 M145.5762586709833,614.0624104642293 L135.38910757586484,607.5534188738031 M135.38910757586484,607.5534188738031 L126.10552640485804,600.6193436239787 M126.10552640485804,600.6193436239787 L117.77693691104105,593.3007409504717 M117.77693691104105,593.3007409504717 L110.44893795364868,585.64026882545 M110.44893795364868,585.64026882545 L104.16118424265318,577.6823631160707 M104.16118424265318,577.6823631160707 L98.94709345709941,569.4729980074989 M98.94709345709941,569.4729980074989 L94.8337349006552,561.0594016197297 M94.8337349006552,561.0594016197297 L91.84184169517084,552.4896950031008 M91.84184169517084,552.4896950031008 L89.98547720086856,543.8127417442787 M89.98547720086856,543.8127417442787 L89.27232871616025,535.0776961140471 M89.27232871616025,535.0776961140471 L89.70359995624801,526.3338072237424 M89.70359995624801,526.3338072237424 L91.27391919951356,517.6302001665468 M91.27391919951356,517.6302001665468 L93.97171806585425,509.0154197208646 M93.97171806585425,509.0154197208646 L97.7790906763704,500.5373849695942 M97.7790906763704,500.5373849695942 L102.67222342875141,492.24290703485065 M102.67222342875141,492.24290703485065 L108.62126105637799,484.17766567080184 M108.62126105637799,484.17766567080184 L115.59080667688892,476.38582584541143 M115.59080667688892,476.38582584541143 L123.54005819033426,468.90982266360726 M123.54005819033426,468.90982266360726 L132.42308157473275,461.79023599835926 M132.42308157473275,461.79023599835926 L142.1889695986523,455.0655339623462 M142.1889695986523,455.0655339623462 L152.78239463940767,448.7719091565632 M152.78239463940767,448.7719091565632 L164.14372584995053,442.9430898997111 M164.14372584995053,442.9430898997111 L176.20949449144865,437.61019711387235 M176.20949449144865,437.61019711387235 L188.9126580101292,432.8016188683255 M188.9126580101292,432.8016188683255 L202.1829623759437,428.542892680091 M202.1829623759437,428.542892680091 L215.94737332657184,424.8565412800692 M215.94737332657184,424.8565412800692 L230.13038250246748,421.76203908741957 M230.13038250246748,421.76203908741957 L244.65447210757816,419.27569024528196 M244.65447210757816,419.27569024528196 L259.44040426441165,417.4105689534602 M259.44040426441165,417.4105689534602 L274.407706557032,416.17648129822635 M274.407706557032,416.17648129822635 L289.47499590310497,415.579903653015 M289.47499590310497,415.579903653015 L304.56043820308315,415.62395947081535 M304.56043820308315,415.62395947081535 L319.5820948963109,416.3084341676032 M319.5820948963109,416.3084341676032 L334.45837252106344,417.62971693598917 M334.45837252106344,417.62971693598917 L349.10834434997764,419.58087825440373 M349.10834434997764,419.58087825440373 L363.45225705511086,422.1516656037774 M313.9524590764307,519.0128177883471 L309.5592893996545,516.9242249066634 M309.5592893996545,516.9242249066634 L304.52790959043216,515.3728073909949 M304.52790959043216,515.3728073909949 L299.0511292541672,514.417671786125 M299.0511292541672,514.417671786125 L293.33852558596504,514.0952042458214 M293.33852558596504,514.0952042458214 L287.60860263219627,514.417681971913 M287.60860263219627,514.417681971913 L282.0805598332179,515.3728116358515 M282.0805598332179,515.3728116358515 L276.9659322618626,516.9242331158298 M276.9659322618626,516.9242331158298 L272.4606892363232,519.0128177883471 M272.4606892363232,519.0128177883471 L268.7376987767492,521.5589171551837 M268.7376987767492,521.5589171551837 L265.9402710492438,524.4652473331853 M265.9402710492438,524.4652473331853 L264.1764592973071,527.6206311593214 M264.1764592973071,527.6206311593214 L263.51490483953586,530.9041491064149 M263.51490483953586,530.9041491064149 L263.9820747967482,534.1897266067488 M263.9820747967482,534.1897266067488 L265.5610168017365,537.351004150298 M265.5610168017365,537.351004150298 L268.19196135856726,540.2661511020939 M268.19196135856726,540.2661511020939 L271.7744290203883,542.8226232539907 M271.7744290203883,542.8226232539907 L276.1709106659687,544.9216193297054 M276.1709106659687,544.9216193297054 L281.21232599739466,546.4818485077506 M281.21232599739466,546.4818485077506 L286.70433748104455,547.4428628140286 M286.70433748104455,547.4428628140286 L292.4350033187234,547.7674069741875 M292.4350033187234,547.7674069741875 L298.18309943981944,547.4428707866077 M298.18309943981944,547.4428707866077 L303.7266732580298,546.4818533473549 M303.7266732580298,546.4818533473549 L308.8518091937598,544.9216201834982 M308.8518091937598,544.9216201834982 L313.3609703020328,542.8226232539907 M313.3609703020328,542.8226232539907 L317.080600432027,540.2661479743088 M317.080600432027,540.2661479743088 L319.8679926538482,537.3510061395959 M319.8679926538482,537.3510061395959 L321.61658937048753,534.1897345591233 M321.61658937048753,534.1897345591233 L322.26008165785674,530.9041400237068 M322.26008165785674,530.9041400237068 L321.7747386215225,527.6206209477036 M321.7747386215225,527.6206209477036 L320.1802495210164,524.4652402460731 M320.1802495210164,524.4652402460731 L317.53879654719265,521.5589049721432 M317.53879654719265,521.5589049721432 L313.9524590764307,519.0128177883471 M313.9524590764307,519.0128177883471 L314.53538345007007,566.5348153607787 M314.53538345007007,566.5348153607787 L318.1137880592962,569.0867508998855 M318.1137880592962,569.0867508998855 L320.74945185298816,571.9997585881797 M320.74945185298816,571.9997585881797 L322.3405205730545,575.1623793271006 M322.3405205730545,575.1623793271006 L322.82494751261885,578.4534278785511 M322.82494751261885,578.4534278785511 L322.1830832865345,581.7465519771897 M322.1830832865345,581.7465519771897 L320.4386007828441,584.9150638001784 M320.4386007828441,584.9150638001784 L317.6576547604956,587.8368783339466 M317.6576547604956,587.8368783339466 L313.9465576236687,590.3992023048629 M313.9465576236687,590.3992023048629 L309.4476893215338,592.5029991939647 M309.4476893215338,592.5029991939647 L304.33420931819614,594.0667990435695 M304.33420931819614,594.0667990435695 L298.80320394275793,595.0300128397967 M298.80320394275793,595.0300128397967 L293.068101778387,595.355290648195 M293.068101778387,595.355290648195 L287.3503513305868,595.0300048489983 M287.3503513305868,595.0300048489983 L281.87067577122275,594.0667941929034 M281.87067577122275,594.0667941929034 L276.8405389005053,592.5029983382196 M276.8405389005053,592.5029983382196 L272.4538422217692,590.3992023048629 M272.4538422217692,590.3992023048629 L268.87928933775567,587.8368814688893 M268.87928933775567,587.8368814688893 L266.2540861205216,584.9150618063256 M266.2540861205216,584.9150618063256 L264.6784941824716,581.7465440065964 M264.6784941824716,581.7465440065964 L264.2121583448237,578.4534369820805 M264.2121583448237,578.4534369820805 L264.872003512343,575.162389562142 M264.872003512343,575.162389562142 L266.6316329060214,571.9997656915584 M266.6316329060214,571.9997656915584 L269.422569783491,569.0867631109036 M269.422569783491,569.0867631109036 L273.1370128181777,566.5348153607787 M273.1370128181777,566.5348153607787 L277.63198123156013,564.4414311198518 M277.63198123156013,564.4414311198518 L282.73500071074363,562.886443250416 M282.73500071074363,562.886443250416 L288.25054534378904,561.9291174274599 M288.25054534378904,561.9291174274599 L293.967556318634,561.6058981292393 M293.967556318634,561.6058981292393 L299.6673258261127,561.9291072182493 M299.6673258261127,561.9291072182493 L305.13183842038586,562.8864389958001 M305.13183842038586,562.8864389958001 L310.151984419453,564.441422891817 M310.151984419453,564.441422891817 L314.53538345007007,566.5348153607787" stroke="black"  stroke-width="4"  fill="red"/>
<path d="M562.1755443590934,543.4397529803964 L562.1518593207118,496.91903621982567 M543.5036895748628,496.9190362198258 L543.7710584961771,498.1940415756546 M543.7710584961771,498.1940415756546 L544.5649608452122,499.3952348387896 M544.5649608452122,499.3952348387896 L545.8394026340744,500.45273184123 M545.8394026340744,500.45273184123 L547.5203880519459,501.3049706123055 M547.5203880519459,501.3049706123055 L549.5102032889729,501.90231266101466 M549.5102032889729,501.90231266101466 L551.6930920696249,502.2099478041956 M551.6930920696249,502.2099478041956 L553.9420246676474,502.2099482536903 M553.9420246676474,502.2099482536903 L556.1261018016269,501.9023119695252 M556.1261018016269,501.9023119695252 L558.1182225744823,501.3049710962925 M558.1182225744823,501.3049710962925 L559.8024997450974,500.45273225600806 M559.8024997450974,500.45273225600806 L561.0810255251472,499.3952349770209 M561.0810255251472,499.3952349770209 L561.8795648109991,498.19404143745516 M561.8795648109991,498.19404143745516 L562.1518593207118,496.91903621982567 M543.5684247764461,543.4397529803964 L543.5036895748628,496.9190362198258 M562.1755443590934,543.4397529803964 L561.9038522205647,544.7176407969622 M561.9038522205647,544.7176407969622 L561.1070739726161,545.9215494272671 M561.1070739726161,545.9215494272671 L559.8313662034136,546.9814364897776 M559.8313662034136,546.9814364897776 L558.1508005462093,547.8356009154302 M558.1508005462093,547.8356009154302 L556.1630689852584,548.4342912628626 M556.1630689852584,548.4342912628626 L553.9838031845035,548.7426224801462 M553.9838031845035,548.7426224801462 L551.7398236679505,548.7426220296362 M551.7398236679505,548.7426220296362 L549.561740992802,548.4342919559142 M549.561740992802,548.4342919559142 L547.5763048215689,547.8356004303497 M547.5763048215689,547.8356004303497 L545.8990164371752,546.9814360740622 M545.8990164371752,546.9814360740622 L544.6273746946854,545.9215492887236 M544.6273746946854,545.9215492887236 L543.835212984618,544.717640935474 M543.835212984618,544.717640935474 L543.5684247764461,543.4397529803964 M623.5550528442634,508.236164564672 L623.6664031642165,461.79512894912114 M623.5550528442634,508.236164564672 L562.1755443590934,543.4397529803964 M623.6664031642165,461.79512894912114 L562.1518593207118,496.91903621982567 M632.928366365519,456.5066830580999 L632.7022872110588,457.6830063581356 M632.7022872110588,457.6830063581356 L632.0216631632816,458.800591387282 M632.0216631632816,458.800591387282 L630.9204983507814,459.80334199923414 M630.9204983507814,459.80334199923414 L629.4539460318714,460.6408957316348 M629.4539460318714,460.6408957316348 L627.6955408313331,461.27116755010456 M627.6955408313331,461.27116755010456 L625.7335244492158,461.6624704002849 M625.7335244492158,461.6624704002849 L623.6664031642165,461.79512894912114 M672.7203188360111,433.7860586111476 L632.928366365519,456.5066830580999 M712.9509401210645,456.5066786710918 L672.7203188360111,433.7860586111476 M602.3842154615851,519.9182919679172 L712.9509401210645,456.5066786710918 M602.414500292793,530.6305787687756 L600.1754628378885,530.474781757089 M600.1754628378885,530.474781757089 L598.0658589332734,530.0164706645676 M598.0658589332734,530.0164706645676 L596.2084405634519,529.2823566413012 M596.2084405634519,529.2823566413012 L594.711223504088,528.3152088031283 M594.711223504088,528.3152088031283 L593.6611945388593,527.1713447940878 M593.6611945388593,527.1713447940878 L593.1192710355042,525.9173370906174 M593.1192710355042,525.9173370906174 L593.116768789306,524.6261134739545 M593.116768789306,524.6261134739545 L593.6536403149371,523.3727173117134 M593.6536403149371,523.3727173117134 L594.6985080060692,522.2299373451933 M594.6985080060692,522.2299373451933 L596.1905373977813,521.2640958723273 M596.1905373977813,521.2640958723273 L598.0429940229483,520.5312124734809 M598.0429940229483,520.5312124734809 L600.1482894483374,520.0737751821936 M600.1482894483374,520.0737751821936 L602.3842154615851,519.9182919679172 M633.4606174863299,548.3966303303621 L602.414500292793,530.6305787687756 M633.4606174863299,548.3966303303621 L441.6416660075063,588.8662909844743 M441.6416660075063,588.8662909844743 L512.7623307262947,479.3273817474723 M543.5036895748628,496.9190362198258 L512.7623307262947,479.3273817474723 M512.8945133646023,525.8082559739169 L512.7623307262947,479.3273817474723 M543.5684247764461,543.4397529803964 L512.8945133646023,525.8082559739169 M632.7967634262144,502.935676118062 L632.5711651583999,504.1146791022482 M632.5711651583999,504.1146791022482 L631.8920197781347,505.2348094650205 M631.8920197781347,505.2348094650205 L630.7932578105208,506.2398434207771 M630.7932578105208,506.2398434207771 L629.3299123153994,507.0793040034703 M629.3299123153994,507.0793040034703 L627.57535712609,507.7110105593264 M627.57535712609,507.7110105593264 L625.6176405918416,508.1032040782193 M625.6176405918416,508.1032040782193 L623.5550528442634,508.236164564672 M672.5019403964258,480.16317854469804 L632.7967634262144,502.935676118062 M712.643866579377,502.93567172105924 L672.5019403964258,480.16317854469804 M602.3191939968698,566.4909006835546 L712.643866579377,502.93567172105924 M602.3191939968698,566.4909006835546 L600.0881998855588,566.6467339424617 M600.0881998855588,566.6467339424617 L597.9875467068517,567.1052010183621 M597.9875467068517,567.1052010183621 L596.1391735227567,567.8397341021465 M596.1391735227567,567.8397341021465 L594.6504317577273,568.8077492892744 M594.6504317577273,568.8077492892744 L593.6078647100591,569.9531006751758 M593.6078647100591,569.9531006751758 L593.0721726495447,571.2093165221554 M593.0721726495447,571.2093165221554 L593.074663863334,572.5034442246694 M593.074663863334,572.5034442246694 L593.6153856194802,573.7602716348742 M593.6153856194802,573.7602716348742 L594.6630911861323,574.9067071046228 M594.6630911861323,574.9067071046228 L596.1569977425033,575.8760287041174 M596.1569977425033,575.8760287041174 L598.0103107903911,576.6117924570506 M598.0103107903911,576.6117924570506 L600.1152534481644,577.071133368225 M600.1152534481644,577.071133368225 L602.3493452811497,577.2272804333383 M633.3266726080913,595.0331822207058 L602.3493452811497,577.2272804333383 M633.3266726080913,595.0331822207058 L441.9331783701001,635.5931186838704 M441.9331783701001,635.5931186838704 L512.8945133646023,525.8082559739169 M632.7967634262144,502.935676118062 L632.928366365519,456.5066830580999 M672.5019403964258,480.16317854469804 L672.7203188360111,433.7860586111476 M712.643866579377,502.93567172105924 L712.9509401210645,456.5066786710918 M602.3191939968698,566.4909006835546 L602.3842154615851,519.9182919679172 M602.3493452811497,577.2272804333383 L602.414500292793,530.6305787687756 M633.3266726080913,595.0331822207058 L633.4606174863299,548.3966303303621 M441.9331783701001,635.5931186838704 L441.6416660075063,588.8662909844743" stroke="black"  stroke-width="4"  fill="red"/>
<path d="M602.713683971935,283.9314823222093 L602.6472022923957,331.54999201739395 M602.6780302832722,342.16267681770205 L600.4189894195216,342.0083269997473 M600.4189894195216,342.0083269997473 L598.2905322408018,341.55427338377575 M598.2905322408018,341.55427338377575 L596.4165090797599,340.8269796480714 M596.4165090797599,340.8269796480714 L594.905901973479,339.86881849374583 M594.905901973479,339.86881849374583 L593.846475443621,338.73558525298586 M593.846475443621,338.73558525298586 L593.2996910555858,337.49323451384964 M593.2996910555858,337.49323451384964 L593.2971439386117,336.2140165988287 M593.2971439386117,336.2140165988287 L593.838785723499,334.97227712588 M593.838785723499,334.97227712588 L594.892958430177,333.84012743075107 M594.892958430177,333.84012743075107 L596.3982848266818,332.88327205390397 M596.3982848266818,332.88327205390397 L598.2672572495962,332.1572083872809 M598.2672572495962,332.1572083872809 L600.3913286719568,331.70402816911184 M600.3913286719568,331.70402816911184 L602.6472022923957,331.54999201739395 M602.7446500359464,294.518440986429 L602.6780302832722,342.16267681770205 M602.713683971935,283.9314823222093 L600.4527677121711,284.08514472495267 M600.4527677121711,284.08514472495267 L598.3239498441244,284.5372254193751 M598.3239498441244,284.5372254193751 L596.4508023534415,285.26152766819604 M596.4508023534415,285.26152766819604 L594.9421145905294,286.21606208142185 M594.9421145905294,286.21606208142185 L593.885589676671,287.3454661315343 M593.885589676671,287.3454661315343 L593.3427420522978,288.5841948288826 M593.3427420522978,288.5841948288826 L593.345300575574,289.8603117990595 M593.345300575574,289.8603117990595 L593.8933138404278,291.0996516453983 M593.8933138404278,291.0996516453983 L594.9551161037491,292.23013903106136 M594.9551161037491,292.23013903106136 L596.4691082280802,293.1859789713394 M596.4691082280802,293.1859789713394 L598.3473290793567,293.91151105293744 M598.3473290793567,293.91151105293744 L600.4805523478931,294.3644649750986 M600.4805523478931,294.3644649750986 L602.7446500359464,294.518440986429 M664.9117969792311,249.06681340854908 L664.7072668673464,296.60025474420945 M664.9117969792311,249.06681340854908 L602.713683971935,283.9314823222093 M664.7072668673464,296.60025474420945 L602.6472022923957,331.54999201739395 M714.1928504876223,268.7319604041336 L674.050961737453,291.3382608499453 M674.050961737453,291.3382608499453 L671.9625388027491,291.470123871894 M671.9625388027491,291.470123871894 L669.9812985428069,291.8591196861045 M669.9812985428069,291.8591196861045 L668.2064653377128,292.485799725566 M668.2064653377128,292.485799725566 L666.7269689319838,293.31881758864864 M666.7269689319838,293.31881758864864 L665.6169943042087,294.3164938532507 M665.6169943042087,294.3164938532507 L664.932274618262,295.42888104151194 M664.932274618262,295.42888104151194 L664.7072668673464,296.60025474420945 M602.6780302832722,342.16267681770205 L634.0023895017753,359.763970064943 M440.4625237673507,399.8603229404455 L634.0023895017753,359.763970064943 M512.2277259307654,291.3382586674253 L440.4625237673507,399.8603229404455 M512.2277259307654,291.3382586674253 L543.2418669968695,308.7652389899261 M543.2418669968695,308.7652389899261 L543.5115842687827,310.02832951304964 M543.5115842687827,310.02832951304964 L544.3125263463791,311.21830023415737 M544.3125263463791,311.21830023415737 L545.5982927261803,312.2659192493041 M545.5982927261803,312.2659192493041 L547.2942307068652,313.11019871235266 M547.2942307068652,313.11019871235266 L549.3017570968786,313.7019627425482 M549.3017570968786,313.7019627425482 L551.5040842909154,314.0067254050162 M551.5040842909154,314.0067254050162 L553.773049820827,314.00672585031396 M553.773049820827,314.00672585031396 L555.9765866294725,313.7019620575156 M555.9765866294725,313.7019620575156 L557.9864598198814,313.11019919181996 M557.9864598198814,313.11019919181996 L559.6857484434889,312.2659196602082 M559.6857484434889,312.2659196602082 L560.9756718762743,311.21830037109737 M560.9756718762743,311.21830037109737 L561.7813338534214,310.0283293761415 M561.7813338534214,310.0283293761415 L562.0560647969091,308.7652389899261 M562.0560647969091,308.7652389899261 L673.6034944709974,246.22568212018845 M673.6034944709974,246.22568212018845 L714.1928504876223,268.7319604041336 M634.1393507835387,312.0771752585385 L634.0023895017753,359.763970064943 M602.7446500359464,294.518440986429 L634.1393507835387,312.0771752585385 M714.5067775123638,221.2667324661536 L674.2761940265206,243.81767341307196 M674.2761940265206,243.81767341307196 L672.183123144859,243.9492141751503 M672.183123144859,243.9492141751503 L670.1974789771224,244.33725936713233 M670.1974789771224,244.33725936713233 L668.4187061832841,244.96240807383933 M668.4187061832841,244.96240807383933 L666.9359317530192,245.79339066941964 M666.9359317530192,245.79339066941964 L665.8235050352448,246.78862976347713 M665.8235050352448,246.78862976347713 L665.137282475127,247.89830007133662 M665.137282475127,247.89830007133662 L664.9117969792311,249.06681340854908 M440.1644208075478,352.0770813809662 L634.1393507835387,312.0771752585385 M512.092586548704,243.8176712358858 L440.1644208075478,352.0770813809662 M512.092586548704,243.8176712358858 L543.175681266557,261.2021274501227 M562.0318490452868,261.2021274501227 L561.756502165471,262.4621408741642 M561.756502165471,262.4621408741642 L560.9490396172868,263.6492136660523 M560.9490396172868,263.6492136660523 L559.6562349481271,264.69428196383456 M559.6562349481271,264.69428196383456 L557.9531515573875,265.53650599187915 M557.9531515573875,265.53650599187915 L555.9387907150973,266.12682832239733 M555.9387907150973,266.12682832239733 L553.7303346845856,266.4308502847049 M553.7303346845856,266.4308502847049 L551.4563050316341,266.43084984049096 M551.4563050316341,266.43084984049096 L549.249064020218,266.1268290057625 M549.249064020218,266.1268290057625 L547.2370604675386,265.536505513579 M547.2370604675386,265.536505513579 L545.5373426892189,264.694281553931 M545.5373426892189,264.694281553931 L544.2487136448516,263.6492135294459 M544.2487136448516,263.6492135294459 L543.4459920847634,262.4621410107387 M543.4459920847634,262.4621410107387 L543.175681266557,261.2021274501227 M673.8267359807961,198.81578994519748 L562.0318490452868,261.2021274501227 M673.8267359807961,198.81578994519748 L714.5067775123638,221.2667324661536 M674.2761940265206,243.81767341307196 L674.050961737453,291.3382608499453 M714.5067775123638,221.2667324661536 L714.1928504876223,268.7319604041336 M673.8267359807961,198.81578994519748 L673.6034944709974,246.22568212018845 M562.0318490452868,261.2021274501227 L562.0560647969091,308.7652389899261 M543.175681266557,261.2021274501227 L543.2418669968695,308.7652389899261 M512.092586548704,243.8176712358858 L512.2277259307654,291.3382586674253 M440.1644208075478,352.0770813809662 L440.4625237673507,399.8603229404455" stroke="black"  stroke-width="4"  fill="red"/>
<path d="M562.0318490452868,261.2021274501227 L562.0075250317947,213.42637450790278 M543.109199638309,213.42637450790278 L543.3801066199562,214.68327092983534 M543.3801066199562,214.68327092983534 L544.1846155857025,215.86740739543882 M544.1846155857025,215.86740739543882 L545.4761200678198,216.9098911062478 M545.4761200678198,216.9098911062478 L547.1796345267883,217.75003270720492 M547.1796345267883,217.75003270720492 L549.1961352531212,218.33889683814144 M549.1961352531212,218.33889683814144 L551.408312054487,218.64216615100258 M551.408312054487,218.64216615100258 L553.6874284824322,218.64216659411844 M553.6874284824322,218.64216659411844 L555.9008257436824,218.33889615646558 M555.9008257436824,218.33889615646558 L557.9196943193034,217.75003318432255 M557.9196943193034,217.75003318432255 L559.6265894607283,216.90989151513782 M559.6265894607283,216.90989151513782 L560.9222882641703,215.8674075317074 M560.9222882641703,215.8674075317074 L561.731559448179,214.68327079359872 M561.731559448179,214.68327079359872 L562.0075250317947,213.42637450790278 M543.175681266557,261.2021274501227 L543.109199638309,213.42637450790278 M562.0318490452868,261.2021274501227 L561.756502165471,262.4621408741642 M561.756502165471,262.4621408741642 L560.9490396172868,263.6492136660523 M560.9490396172868,263.6492136660523 L559.6562349481271,264.69428196383456 M559.6562349481271,264.69428196383456 L557.9531515573875,265.53650599187915 M557.9531515573875,265.53650599187915 L555.9387907150973,266.12682832239733 M555.9387907150973,266.12682832239733 L553.7303346845856,266.4308502847049 M553.7303346845856,266.4308502847049 L551.4563050316341,266.43084984049096 M551.4563050316341,266.43084984049096 L549.249064020218,266.1268290057625 M549.249064020218,266.1268290057625 L547.2370604675386,265.536505513579 M547.2370604675386,265.536505513579 L545.5373426892189,264.694281553931 M545.5373426892189,264.694281553931 L544.2487136448516,263.6492135294459 M544.2487136448516,263.6492135294459 L543.4459920847634,262.4621410107387 M543.4459920847634,262.4621410107387 L543.175681266557,261.2021274501227 M624.230581265053,226.4925695534432 L624.3449252586684,178.80295822441525 M624.230581265053,226.4925695534432 L562.0318490452868,261.2021274501227 M624.3449252586684,178.80295822441525 L562.0075250317947,213.42637450790278 M674.0509694018376,151.1952451675524 L633.7302930519763,173.5901406398081 M633.7302930519763,173.5901406398081 L633.5012850103881,174.74963558290918 M633.5012850103881,174.74963558290918 L632.8116519646399,175.85123581723496 M632.8116519646399,175.85123581723496 L631.6958464572851,176.83964681114523 M631.6958464572851,176.83964681114523 L630.2097541094422,177.6652252469311 M630.2097541094422,177.6652252469311 L628.4278892906265,178.28648664998065 M628.4278892906265,178.28648664998065 L626.4396718764829,178.67219591199935 M626.4396718764829,178.67219591199935 L624.3449252586684,178.80295822441525 M543.109199638309,213.42637450790278 L511.95684403178484,196.08499668127746 M439.86497317057274,304.0783000825454 L511.95684403178484,196.08499668127746 M634.2769274525895,264.1761166330627 L439.86497317057274,304.0783000825454 M634.2769274525895,264.1761166330627 L602.8115686053598,246.66050134181057 M602.8115686053598,246.66050134181057 L600.5423914069074,246.50690404766328 M600.5423914069074,246.50690404766328 L598.404380659682,246.05506426476495 M598.404380659682,246.05506426476495 L596.5219432741198,245.33131697561763 M596.5219432741198,245.33131697561763 L595.0045509298046,244.37782873246078 M595.0045509298046,244.37782873246078 L593.9403622559424,243.2501232545053 M593.9403622559424,243.2501232545053 L593.3911145791909,242.01383382474273 M593.3911145791909,242.01383382474273 L593.3885445728233,240.7408584957531 M593.3885445728233,240.7408584957531 L593.9326034166517,239.50518007772152 M593.9326034166517,239.50518007772152 L594.9914910563874,238.37855768967322 M594.9914910563874,238.37855768967322 L596.5035552284044,237.42637468028457 M596.5035552284044,237.42637468028457 L598.380896478598,236.70385694723717 M598.380896478598,236.70385694723717 L600.5144820489458,236.25289019334832 M600.5144820489458,236.25289019334832 L602.7804635386314,236.09960643984238 M602.7804635386314,236.09960643984238 L714.8221024908704,173.59013631556687 M714.8221024908704,173.59013631556687 L674.0509694018376,151.1952451675524 M512.092586548704,243.8176712358858 L511.95684403178484,196.08499668127746 M543.175681266557,261.2021274501227 L512.092586548704,243.8176712358858 M633.5951537827967,221.2667368011965 L633.366639142269,222.42912776655513 M633.366639142269,222.42912776655513 L632.6785241193385,223.5334788714256 M632.6785241193385,223.5334788714256 L631.5651857016136,224.52435762782125 M631.5651857016136,224.52435762782125 L630.0823861022,225.3519969515895 M630.0823861022,225.3519969515895 L628.3044745909535,225.97480900820852 M628.3044745909535,225.97480900820852 L626.32067250109,226.36148090545797 M626.32067250109,226.36148090545797 L624.230581265053,226.4925695534432 M673.8267359807961,198.81578994519748 L633.5951537827967,221.2667368011965 M714.5067775123638,221.2667324661536 L673.8267359807961,198.81578994519748 M602.713683971935,283.9314823222093 L714.5067775123638,221.2667324661536 M602.713683971935,283.9314823222093 L600.4527677121711,284.08514472495267 M600.4527677121711,284.08514472495267 L598.3239498441244,284.5372254193751 M598.3239498441244,284.5372254193751 L596.4508023534415,285.26152766819604 M596.4508023534415,285.26152766819604 L594.9421145905294,286.21606208142185 M594.9421145905294,286.21606208142185 L593.885589676671,287.3454661315343 M593.885589676671,287.3454661315343 L593.3427420522978,288.5841948288826 M593.3427420522978,288.5841948288826 L593.345300575574,289.8603117990595 M593.345300575574,289.8603117990595 L593.8933138404278,291.0996516453983 M593.8933138404278,291.0996516453983 L594.9551161037491,292.23013903106136 M594.9551161037491,292.23013903106136 L596.4691082280802,293.1859789713394 M596.4691082280802,293.1859789713394 L598.3473290793567,293.91151105293744 M598.3473290793567,293.91151105293744 L600.4805523478931,294.3644649750986 M600.4805523478931,294.3644649750986 L602.7446500359464,294.518440986429 M634.1393507835387,312.0771752585385 L602.7446500359464,294.518440986429 M634.1393507835387,312.0771752585385 L440.1644208075478,352.0770813809662 M440.1644208075478,352.0770813809662 L512.092586548704,243.8176712358858 M633.5951537827967,221.2667368011965 L633.7302930519763,173.5901406398081 M673.8267359807961,198.81578994519748 L674.0509694018376,151.1952451675524 M714.5067775123638,221.2667324661536 L714.8221024908704,173.59013631556687 M602.713683971935,283.9314823222093 L602.7804635386314,236.09960643984238 M602.7446500359464,294.518440986429 L602.8115686053598,246.66050134181057 M634.1393507835387,312.0771752585385 L634.2769274525895,264.1761166330627 M440.1644208075478,352.0770813809662 L439.86497317057274,304.0783000825454" stroke="black"  stroke-width="4"  fill="red"/>
<path d="M361.5626772612755,230.82860257418497 L362.03826129712684,278.982268677043 M511.8204941226136,148.13873792808425 L511.95684403178484,196.0849966812773 M361.5626772612755,230.82860257418497 L511.8204941226136,148.13873792808425 M362.03826129712684,278.982268677043 L511.95684403178484,196.0849966812773 M543.0424200202066,165.43647684581828 L543.109199638309,213.4263745079027 M511.8204941226136,148.13873792808425 L543.0424200202066,165.43647684581828 M511.95684403178484,196.0849966812773 L543.109199638309,213.4263745079027 M545.8062469372317,169.141805019489 L545.8668695809075,217.14103319960378 M543.0424200202066,165.43647684581828 L543.2213766883954,166.45850225329002 M543.2213766883954,166.45850225329002 L543.7575026980734,167.4414475201487 M543.7575026980734,167.4414475201487 L544.6302855508823,168.34750471134288 M544.6302855508823,168.34750471134288 L545.8062469372317,169.141805019489 M543.109199638309,213.4263745079027 L543.2877629259652,214.45097412409848 M543.2877629259652,214.45097412409848 L543.8226965191931,215.4363947286263 M543.8226965191931,215.4363947286263 L544.6935333375873,216.34473325036254 M544.6935333375873,216.34473325036254 L545.8668695809075,217.14103319960378 M552.5021401193762,170.67740173453205 L552.5477938769336,218.6804949638826 M545.8062469372317,169.141805019489 L547.2402160350734,169.79376403993183 M547.2402160350734,169.79376403993183 L548.8770641010854,170.27826749791237 M548.8770641010854,170.27826749791237 L550.6538286755924,170.576646538055 M550.6538286755924,170.576646538055 L552.5021401193762,170.67740173453205 M545.8668695809075,217.14103319960378 L547.2976352149924,217.79463330887094 M547.2976352149924,217.79463330887094 L548.9308247001068,218.280356219743 M548.9308247001068,218.280356219743 L550.7036164415302,218.57948620188145 M550.7036164415302,218.57948620188145 L552.5477938769336,218.6804949638826 M561.9830919910505,165.43647684581828 L562.0075250317947,213.42637450790278 M552.5021401193762,170.67740173453205 L554.6108229719242,170.54593382360423 M554.6108229719242,170.54593382360423 L556.6141427297836,170.1581435084779 M556.6141427297836,170.1581435084779 L558.4115156939771,169.53353117367442 M558.4115156939771,169.53353117367442 L559.9127457278867,168.70349933036616 M559.9127457278867,168.70349933036616 L561.0425547460877,167.70975902862068 M561.0425547460877,167.70975902862068 L561.7443571906358,166.60222064915183 M561.7443571906358,166.60222064915183 L561.9830919910505,165.43647684581828 M552.5477938769336,218.6804949638826 L554.6517592641659,218.54869619339178 M554.6517592641659,218.54869619339178 L556.6505964357467,218.15992989845967 M556.6505964357467,218.15992989845967 L558.4439470401106,217.5337454160807 M558.4439470401106,217.5337454160807 L559.9418169489543,216.7016241161167 M559.9418169489543,216.7016241161167 L561.0690965681692,215.70538184759135 M561.0690965681692,215.70538184759135 L561.7693268659636,214.59505447088242 M561.7693268659636,214.59505447088242 L562.0075250317947,213.42637450790278 M674.2762017076833,103.36256680907718 L674.0509694018376,151.1952451675524 M561.9830919910505,165.43647684581828 L674.2762017076833,103.36256680907718 M562.0075250317947,213.42637450790278 L674.0509694018376,151.1952451675524 M715.1388352711242,125.70068295436943 L714.8221024908704,173.59013631556687 M674.2762017076833,103.36256680907718 L715.1388352711242,125.70068295436943 M674.0509694018376,151.1952451675524 L714.8221024908704,173.59013631556687 M674.7296813744098,148.13874009439368 L674.5024315402874,196.08499885306023 M715.1388352711242,125.70068295436943 L674.7296813744098,148.13874009439368 M714.8221024908704,173.59013631556687 L674.5024315402874,196.08499885306023 M665.3236035616701,153.36166834389923 L665.117240394065,201.32111759473167 M674.7296813744098,148.13874009439368 L672.6272522587828,148.26962370826806 M672.6272522587828,148.26962370826806 L670.6327412826984,148.65573040176366 M670.6327412826984,148.65573040176366 L668.846036612956,149.27775642574883 M668.846036612956,149.27775642574883 L667.3566623659901,150.1045887076852 M667.3566623659901,150.1045887076852 L666.2392988260902,151.0948579119297 M666.2392988260902,151.0948579119297 L665.5500506443025,152.1989879234215 M665.5500506443025,152.1989879234215 L665.3236035616701,153.36166834389923 M674.5024315402874,196.08499885306023 L672.4046919804034,196.21621316150748 M672.4046919804034,196.21621316150748 L670.4146242867014,196.60329535964743 M670.4146242867014,196.60329535964743 L668.6318943790931,197.2268928026119 M668.6318943790931,197.2268928026119 L667.1458273691703,198.05581363718025 M667.1458273691703,198.05581363718025 L666.0309377060413,199.0485838301438 M666.0309377060413,199.0485838301438 L665.3432056626513,200.15550187847435 M665.3432056626513,200.15550187847435 L665.117240394065,201.32111759473167 M602.8475431027343,188.05285287214537 L602.7804635386314,236.09960643984238 M665.3236035616701,153.36166834389923 L602.8475431027343,188.05285287214537 M665.117240394065,201.32111759473167 L602.7804635386314,236.09960643984238 M593.3666023655611,193.31735038044803 L593.320743443541,241.37730583979607 M602.8475431027343,188.05285287214537 L600.7358261493488,188.18477838646282 M600.7358261493488,188.18477838646282 L598.7306235454278,188.5739574285908 M598.7306235454278,188.5739574285908 L596.9323576541158,189.20093315389786 M596.9323576541158,189.20093315389786 L595.4311292164049,190.03434633892442 M595.4311292164049,190.03434633892442 L594.3022163231518,191.0324964873705 M594.3022163231518,191.0324964873705 L593.6022999217823,192.14541483761417 M593.6022999217823,192.14541483761417 L593.3666023655611,193.31735038044803 M602.7804635386314,236.09960643984238 L600.6734776191913,236.23186293726195 M600.6734776191913,236.23186293726195 L598.6727660222269,236.6220183313301 M598.6727660222269,236.6220183313301 L596.8785264814544,237.25056683861018 M596.8785264814544,237.25056683861018 L595.3806581580985,238.08607038749392 M595.3806581580985,238.08607038749392 L594.2542706516625,239.08672368555196 M594.2542706516625,239.08672368555196 L593.5559179549109,240.20243247689996 M593.5559179549109,240.20243247689996 L593.320743443541,241.37730583979607 M596.1566532574833,197.0432286232263 L596.1045200678781,245.11252009096245 M593.3666023655611,193.31735038044803 L593.5511778685847,194.3450440621825 M593.5511778685847,194.3450440621825 L594.0937140488027,195.33344035388353 M594.0937140488027,195.33344035388353 L594.9734543746058,196.24452265226728 M594.9734543746058,196.24452265226728 L596.1566532574833,197.0432286232263 M593.320743443541,241.37730583979607 L593.5049004437537,242.4075752514985 M593.5049004437537,242.4075752514985 L594.0462155377907,243.39844833780407 M594.0462155377907,243.39844833780407 L594.9239787070866,244.3118133066569 M594.9239787070866,244.3118133066569 L596.1045200678781,245.11252009096245 M602.8787881103414,198.58734256766576 L602.8115686053599,246.66050134181057 M596.1566532574833,197.0432286232263 L597.5978615588368,197.69880405753884 M597.5978615588368,197.69880405753884 L599.2416719160574,198.185995206321 M599.2416719160574,198.185995206321 L601.024853730186,198.4860295120256 M601.024853730186,198.4860295120256 L602.8787881103414,198.58734256766576 M596.1045200678781,245.11252009096245 L597.5424925149807,245.7697375746019 M597.5424925149807,245.7697375746019 L599.1826131369301,246.2581488890936 M599.1826131369301,246.2581488890936 L600.9617934008869,246.55893457536362 M600.9617934008869,246.55893457536362 L602.8115686053599,246.66050134181057 M634.4151238792858,216.05927252939978 L634.2769274525895,264.1761166330627 M602.8787881103414,198.58734256766576 L634.4151238792858,216.05927252939978 M602.8115686053599,246.66050134181057 L634.2769274525895,264.1761166330627 M484.14897969344554,299.8748853697399 L484.35007346837233,348.1994055221455 M634.4151238792858,216.05927252939978 L484.14897969344554,299.8748853697399 M634.2769274525895,264.1761166330627 L484.35007346837233,348.1994055221455 M141.64887195587897,420.91507558131593 L142.63747099305573,469.5339876339865 M484.14897969344554,299.8748853697399 L488.68678191729794,308.0807672595064 M488.68678191729794,308.0807672595064 L492.1202466994623,316.470697755212 M492.1202466994623,316.470697755212 L494.4274946256444,324.99832778467027 M494.4274946256444,324.99832778467027 L495.59281361736987,333.6162762052717 M495.59281361736987,333.6162762052717 L495.60674893341763,342.2764456063427 M495.60674893341763,342.2764456063427 L494.46633338588754,350.93024201466653 M494.46633338588754,350.93024201466653 L492.17506299624335,359.5288736922851 M492.17506299624335,359.5288736922851 L488.74299273958957,368.02359878496463 M488.74299273958957,368.02359878496463 L484.18674979161756,376.36604346260094 M484.18674979161756,376.36604346260094 L478.52946324677714,384.50844585583036 M478.52946324677714,384.50844585583036 L471.8007193210699,392.40399729184526 M471.8007193210699,392.40399729184526 L464.03646203257574,400.0070719309249 M464.03646203257574,400.0070719309249 L455.2787633691221,407.27355722939444 M455.2787633691221,407.27355722939444 L445.57573677436505,414.1610937454001 M445.57573677436505,414.1610937454001 L434.98119716802216,420.6293825093279 M434.98119716802216,420.6293825093279 L423.55438928756166,426.6404497939548 M423.55438928756166,426.6404497939548 L411.3596879405841,432.15884955186334 M411.3596879405841,432.15884955186334 L398.4662512693035,437.15197627110035 M398.4662512693035,437.15197627110035 L384.9475833112351,441.59016669660906 M384.9475833112351,441.59016669660906 L370.8811281053596,445.44704733948504 M370.8811281053596,445.44704733948504 L356.3476937989914,448.6996409797111 M356.3476937989914,448.6996409797111 L341.43110691906134,451.32853342951154 M341.43110691906134,451.32853342951154 L326.21770522225177,453.3179482213101 M326.21770522225177,453.3179482213101 L310.7955262247542,454.6560180916864 M310.7955262247542,454.6560180916864 L295.25415193605056,455.334686949265 M295.25415193605056,455.334686949265 L279.6837328716285,455.3499177586367 M279.6837328716285,455.3499177586367 L264.1748096186737,454.7015712424536 M264.1748096186737,454.7015712424536 L248.8174060341585,453.3935671012617 M248.8174060341585,453.3935671012617 L233.70056754373087,451.43377096762845 M233.70056754373087,451.43377096762845 L218.91195609593376,448.83386737465935 M218.91195609593376,448.83386737465935 L204.53700220806112,445.6094534999195 M204.53700220806112,445.6094534999195 L190.6586211727157,441.77977484766546 M190.6586211727157,441.77977484766546 L177.35656989709923,437.36765422730457 M177.35656989709923,437.36765422730457 L164.70696144647363,432.3993514959673 M164.70696144647363,432.3993514959673 L152.78188150042428,426.9043220332693 M152.78188150042428,426.9043220332693 L141.64887195587897,420.91507558131593 M484.35007346837233,348.1994055221455 L488.8777482634873,356.4254516707981 M488.8777482634873,356.4254516707981 L492.30357833522476,364.8359676999645 M492.30357833522476,364.8359676999645 L494.6057388908051,373.3844890166189 M494.6057388908051,373.3844890166189 L495.768558924693,382.02351710657183 M495.768558924693,382.02351710657183 L495.7826108503335,390.7048361509778 M495.7826108503335,390.7048361509778 L494.64494001662945,399.37973329498135 M494.64494001662945,399.37973329498135 L492.3590402389648,407.99929818574736 M492.3590402389648,407.99929818574736 L488.9349491435779,416.51467121950725 M488.9349491435779,416.51467121950725 L484.3892612066179,424.87736243526433 M484.3892612066179,424.87736243526433 L478.7450574612574,433.03949600757926 M478.7450574612574,433.03949600757926 L472.0318606452146,440.9541522587202 M472.0318606452146,440.9541522587202 L464.28553596411336,448.5755977859322 M464.28553596411336,448.5755977859322 L455.54806166243554,455.85961664581976 M455.54806166243554,455.85961664581976 L445.86744260640035,462.76375065042265 M445.86744260640035,462.76375065042265 L435.29737100867794,469.2476073813417 M435.29737100867794,469.2476073813417 L423.89695534630255,475.27312549307555 M423.89695534630255,475.27312549307555 L411.7304212816516,480.8047775289982 M411.7304212816516,480.8047775289982 L398.86676573786525,485.8098834187171 M398.86676573786525,485.8098834187171 L385.37932050262236,490.25871233470446 M385.37932050262236,490.25871233470446 L371.3453473448277,494.12483092980744 M371.3453473448277,494.12483092980744 L356.8454635431794,497.3852099958552 M356.8454635431794,497.3852099958552 L341.9632970794477,500.02039153627334 M341.9632970794477,500.02039153627334 L326.78498080080806,502.01456355392617 M326.78498080080806,502.01456355392617 L311.39834299294944,503.35583211848837 M311.39834299294944,503.35583211848837 L295.89275264588457,504.0361230487571 M295.89275264588457,504.0361230487571 L280.358145914434,504.05139025862593 M280.358145914434,504.05139025862593 L264.88484828572643,503.4014941513362 M264.88484828572643,503.4014941513362 L249.5626700739405,502.0903632242103 M249.5626700739405,502.0903632242103 L234.4804459721193,500.12588076977295 M234.4804459721193,500.12588076977295 L219.7256311186485,497.51975757467187 M219.7256311186485,497.51975757467187 L205.38345527782224,494.28762593818846 M205.38345527782224,494.28762593818846 L191.53663984003467,490.4487747875628 M191.53663984003467,490.4487747875628 L178.2647562738723,486.02607856483195 M178.2647562738723,486.02607856483195 L165.6437418901028,481.0458567233837 M165.6437418901028,481.0458567233837 L153.74551724807822,475.5376317225107 M153.74551724807822,475.5376317225107 L142.63747099305573,469.5339876339865 M141.64887195587897,420.91507558131593 L131.37060768265087,414.4669130797083 M131.37060768265087,414.4669130797083 L122.00449150127162,407.5977201711392 M122.00449150127162,407.5977201711392 L113.60239439197483,400.3476881520004 M113.60239439197483,400.3476881520004 L106.21030572492157,392.75908909103566 M106.21030572492157,392.75908909103566 L99.86821136025395,384.8759546323779 M99.86821136025395,384.8759546323779 L94.60979861717499,376.7438383116644 M94.60979861717499,376.7438383116644 L90.46234455428123,368.4095335313832 M90.46234455428123,368.4095335313832 L87.44672902598751,359.92071569184117 M87.44672902598751,359.92071569184117 L85.57709877790728,351.32579300551106 M85.57709877790728,351.32579300551106 L84.86116472887579,342.6734587608186 M84.86116472887579,342.6734587608186 L85.30009428150163,334.01249724557647 M85.30009428150163,334.01249724557647 L86.88841946936395,325.39156693340925 M86.88841946936395,325.39156693340925 L89.6144201195109,316.8587485546552 M89.6144201195109,316.8587485546552 L93.45998246158598,308.4615002462597 M93.45998246158598,308.4615002462597 L98.4010336932347,300.2461800324855 M98.4010336932347,300.2461800324855 L104.40740745333687,292.25802285233226 M104.40740745333687,292.25802285233226 L111.44334913212072,284.5407610576943 M111.44334913212072,284.5407610576943 L119.46765407251075,277.13641169662515 M119.46765407251075,277.13641169662515 L128.43394378897187,270.0851526807678 M128.43394378897187,270.0851526807678 L138.29082652321677,263.4250690789444 M138.29082652321677,263.4250690789444 L148.98245533521035,257.1919913214508 M148.98245533521035,257.1919913214508 L160.44864650122108,251.4193086387262 M160.44864650122108,251.4193086387262 L172.62534910638152,246.13782772224044 M172.62534910638152,246.13782772224044 L185.44491144993953,241.3756488688007 M185.44491144993953,241.3756488688007 L198.83644649839516,237.15804979409 M198.83644649839516,237.15804979409 L212.72626678434992,233.5073233416884 M212.72626678434992,233.5073233416884 L227.03819293384578,230.4427446108027 M227.03819293384578,230.4427446108027 L241.6940220999202,227.9804504649854 M241.6940220999202,227.9804504649854 L256.61381941807525,226.1333806960114 M256.61381941807525,226.1333806960114 L271.7164073555411,224.91124043134855 M271.7164073555411,224.91124043134855 L286.91969189196095,224.32043928996825 M286.91969189196095,224.32043928996825 L302.14112565766743,224.364068505859 M302.14112565766743,224.364068505859 L317.29805693158517,225.04191571909007 M317.29805693158517,225.04191571909007 L332.30818258414985,226.3504073490431 M332.30818258414985,226.3504073490431 L347.08987191989945,228.28268529371346 M347.08987191989945,228.28268529371346 L361.5626772612755,230.82860257418497 M142.63747099305573,469.5339876339865 L132.38213736092882,463.07030645432167 M132.38213736092882,463.07030645432167 L123.03679206661621,456.18456122431905 M123.03679206661621,456.18456122431905 L114.65319305265916,448.91703641699803 M114.65319305265916,448.91703641699803 L107.27723144033655,441.31010261929134 M107.27723144033655,441.31010261929134 L100.94880979108706,433.40789465842334 M100.94880979108706,433.40789465842334 L95.70154761560411,425.25607343324384 M95.70154761560411,425.25607343324384 L91.5626697474533,416.90154328629274 M91.5626697474533,416.90154328629274 L88.55301918096438,408.39209333358656 M88.55301918096438,408.39209333358656 L86.6867217505087,399.776247969634 M86.6867217505087,399.776247969634 L85.97148250928058,391.10281808056527 M85.97148250928058,391.10281808056527 L86.40847808074182,382.42070651640785 M86.40847808074182,382.42070651640785 L87.99226480417826,373.7786907557264 M87.99226480417826,373.7786907557264 L90.71116079210537,365.224969862792 M90.71116079210537,365.224969862792 L94.54710467674482,356.8071195026313 M94.54710467674482,356.8071195026313 L99.47608896831184,348.5716132121679 M99.47608896831184,348.5716132121679 L105.46802567468058,340.5637993178795 M105.46802567468058,340.5637993178795 L112.48725028600114,332.8275204365299 M112.48725028600114,332.8275204365299 L120.49265952128837,325.4049001581501 M120.49265952128837,325.4049001581501 L129.4379868107942,318.3362188234223 M129.4379868107942,318.3362188234223 L139.2719623871887,311.6596590995694 M139.2719623871887,311.6596590995694 L149.93887004904397,305.41114368795326 M149.93887004904397,305.41114368795326 L161.37866524878515,299.62414820146194 M161.37866524878515,299.62414820146194 L173.52744361301868,294.32955937482086 M173.52744361301868,294.32955937482086 L186.3177067618948,289.5555508028515 M186.3177067618948,289.5555508028515 L199.67872697867458,285.32746637020756 M199.67872697867458,285.32746637020756 L213.53698118913132,281.66765746689885 M213.53698118913132,281.66765746689885 L227.81645888742702,278.5954499511497 M227.81645888742702,278.5954499511497 L242.43912962081185,276.1270232841032 M242.43912962081185,276.1270232841032 L257.32523391731183,274.27535148310477 M257.32523391731183,274.27535148310477 L272.3937716779646,273.0501653829801 M272.3937716779646,273.0501653829801 L287.5628277774667,272.4578916001583 M287.5628277774667,272.4578916001583 L302.7500343253773,272.50162957232226 M302.7500343253773,272.50162957232226 L317.8729190505776,273.18116637328706 M317.8729190505776,273.18116637328706 L332.8493573938656,274.49291894355457 M332.8493573938656,274.49291894355457 L347.59789579617086,276.430010995775 M347.59789579617086,276.430010995775 L362.03826129712684,278.982268677043 M311.59421970024675,326.7610421239435 L312.18779718212375,375.1515176786024 M269.02576967054875,350.3450432250122 L269.71762805738786,398.793108653459 M311.59421970024675,326.7610421239435 L307.1615280153603,324.6923035765435 M307.1615280153603,324.6923035765435 L302.0847056977003,323.1556388488209 M302.0847056977003,323.1556388488209 L296.55829860611954,322.2095879209138 M296.55829860611954,322.2095879209138 L290.7937750803276,321.8901878549199 M290.7937750803276,321.8901878549199 L285.011615666308,322.20959800981234 M285.011615666308,322.20959800981234 L279.43300863142497,323.1556430533064 M279.43300863142497,323.1556430533064 L274.27141577993433,324.69231170765795 M274.27141577993433,324.69231170765795 L269.7246003474453,326.7610421239435 M269.7246003474453,326.7610421239435 L265.96702331834615,329.2829482734709 M265.96702331834615,329.2829482734709 L263.14332771778305,332.1616760075726 M263.14332771778305,332.1616760075726 L261.36258632595303,335.2871085903314 M261.36258632595303,335.2871085903314 L260.69410672278804,338.53947732606866 M260.69410672278804,338.53947732606866 L261.16464109541175,341.79390475371474 M261.16464109541175,341.79390475371474 L262.75712647074306,344.92522832989266 M262.75712647074306,344.92522832989266 L265.41128943430647,347.81276879729785 M265.41128943430647,347.81276879729785 L269.02576967054875,350.3450432250122 M312.18779718212375,375.1515176786024 L307.7650525073027,373.07771565957535 M307.7650525073027,373.07771565957535 L302.6996675960272,371.53728853813317 M302.6996675960272,371.53728853813317 L297.1857513188908,370.5889207617755 M297.1857513188908,370.5889207617755 L291.4342960369955,370.26873840529106 M291.4342960369955,370.26873840529106 L285.6652848267322,370.58893087538354 M285.6652848267322,370.58893087538354 L280.09940537294136,371.5372927529143 M280.09940537294136,371.5372927529143 L274.94963451406136,373.0777238105954 M274.94963451406136,373.0777238105954 L270.4132839345542,375.1515176786024 M270.4132839345542,375.1515176786024 L266.6644136323449,377.6795939023036 M266.6644136323449,377.6795939023036 L263.8473311001245,380.5653612473703 M263.8473311001245,380.5653612473703 L262.07085243677193,383.6984325544266 M262.07085243677193,383.6984325544266 L261.40411745189834,386.95874563701875 M261.40411745189834,386.95874563701875 L261.87380650545236,390.2211177276288 M261.87380650545236,390.2211177276288 L263.46288438960124,393.36008099745743 M263.46288438960124,393.36008099745743 L266.1112044589849,396.25466251732166 M266.1112044589849,396.25466251732166 L269.71762805738786,398.793108653459 M269.02576967054875,350.3450432250122 L273.46183154673776,352.4241801717203 M273.46183154673776,352.4241801717203 L278.54887101536735,353.9696525702399 M278.54887101536735,353.9696525702399 L284.0907866360609,354.9215796186708 M284.0907866360609,354.9215796186708 L289.8737028133439,355.24305528185414 M289.8737028133439,355.24305528185414 L295.6743689400084,354.9215875158686 M295.6743689400084,354.9215875158686 L301.26879294797686,353.9696573640774 M301.26879294797686,353.9696573640774 L306.4410888440782,352.4241810174368 M306.4410888440782,352.4241810174368 L310.99189642550164,350.3450432250122 M310.99189642550164,350.3450432250122 L314.7460544532135,347.8127656991249 M314.7460544532135,347.8127656991249 L317.55953291927807,344.9252303003468 M317.55953291927807,344.9252303003468 L319.32478204374456,341.7939126307167 M319.32478204374456,341.7939126307167 L319.9748689952758,338.53946832949816 M319.9748689952758,338.53946832949816 L319.48582800065594,335.28709847561544 M319.48582800065594,335.28709847561544 L317.8775094276183,332.16166898775117 M317.8775094276183,332.16166898775117 L315.2126433655395,329.28293620616773 M315.2126433655395,329.28293620616773 L311.59421970024675,326.7610421239435 M269.71762805738786,398.793108653459 L274.1437282252856,400.87731077945966 M274.1437282252856,400.87731077945966 L279.2192844208969,402.4265470007195 M279.2192844208969,402.4265470007195 L284.74863917538164,403.3807918304576 M284.74863917538164,403.3807918304576 L290.5184036433084,403.70305014139 M290.5184036433084,403.70305014139 L296.3058373244664,403.3807997468821 M296.3058373244664,403.3807997468821 L301.88746152701077,402.42655180623035 M301.88746152701077,402.42655180623035 L307.04788625641186,400.87731162723605 M307.04788625641186,400.87731162723605 L311.5882102723285,398.793108653459 M311.5882102723285,398.793108653459 L315.3336763844865,396.2546594115961 M315.3336763844865,396.2546594115961 L318.1405876488555,393.36008297271763 M318.1405876488555,393.36008297271763 L319.90164405893285,390.2211256238542 M319.90164405893285,390.2211256238542 L320.55006985743194,386.9587366184794 M320.55006985743194,386.9587366184794 L320.06195842301196,383.69842241499686 M320.06195842301196,383.69842241499686 L318.45711960282745,380.5653542103873 M318.45711960282745,380.5653542103873 L315.79814560934415,377.6795818054834 M315.79814560934415,377.6795818054834 L312.18779718212375,375.1515176786024" stroke="black"  stroke-width="4"  fill="red"/>
<path d="M562.0801729893008,356.1170892082822 L562.0560647969091,308.7652389899261 M543.2418669968695,308.7652389899261 L543.5115842687827,310.02832951304964 M543.5115842687827,310.02832951304964 L544.3125263463791,311.21830023415737 M544.3125263463791,311.21830023415737 L545.5982927261803,312.2659192493041 M545.5982927261803,312.2659192493041 L547.2942307068652,313.11019871235266 M547.2942307068652,313.11019871235266 L549.3017570968786,313.7019627425482 M549.3017570968786,313.7019627425482 L551.5040842909154,314.0067254050162 M551.5040842909154,314.0067254050162 L553.773049820827,314.00672585031396 M553.773049820827,314.00672585031396 L555.9765866294725,313.7019620575156 M555.9765866294725,313.7019620575156 L557.9864598198814,313.11019919181996 M557.9864598198814,313.11019919181996 L559.6857484434889,312.2659196602082 M559.6857484434889,312.2659196602082 L560.9756718762743,311.21830037109737 M560.9756718762743,311.21830037109737 L561.7813338534214,310.0283293761415 M561.7813338534214,310.0283293761415 L562.0560647969091,308.7652389899261 M543.3077587496773,356.11708920828227 L543.2418669968695,308.7652389899261 M562.0801729893008,356.1170892082822 L561.8060552327242,357.3832168206478 M561.8060552327242,357.3832168206478 L561.0021858142708,358.57604858269013 M561.0021858142708,358.57604858269013 L559.7151308037743,359.6261859052752 M559.7151308037743,359.6261859052752 L558.0196200740955,360.4724943794862 M558.0196200740955,360.4724943794862 L556.0142145845762,361.06567916347467 M556.0142145845762,361.06567916347467 L553.8155751318775,361.3711751988595 M553.8155751318775,361.3711751988595 L551.5516512201468,361.3711747524918 M551.5516512201468,361.3711747524918 L549.3542160135534,361.06567985015323 M549.3542160135534,361.06567985015323 L547.351146905058,360.47249389886684 M547.351146905058,360.47249389886684 L545.658971948463,359.6261854933837 M545.658971948463,359.6261854933837 L544.3760555427745,358.576048445421 M544.3760555427745,358.576048445421 L543.5768850757066,357.383216957885 M543.5768850757066,357.383216957885 L543.3077587496773,356.11708920828227 M624.0034115703505,321.23855579674904 L624.1167444622714,273.9706460831557 M624.0034115703505,321.23855579674904 L562.0801729893008,356.1170892082822 M624.1167444622714,273.9706460831557 L562.0560647969091,308.7652389899261 M633.4606136366268,268.73196474983996 L633.2325902781093,269.89721468384283 M633.2325902781093,269.89721468384283 L632.5459866114959,271.00428145550677 M632.5459866114959,271.00428145550677 L631.435104399991,271.9975963876001 M631.435104399991,271.9975963876001 L629.9555829923895,272.82727021607025 M629.9555829923895,272.82727021607025 L628.1816072887452,273.45161307231126 M628.1816072887452,273.45161307231126 L626.2022009593965,273.8392352784556 M626.2022009593965,273.8392352784556 L624.1167444622714,273.9706460831557 M673.6034944709974,246.22568212018845 L633.4606136366268,268.73196474983996 M714.1928504876223,268.7319604041336 L673.6034944709974,246.22568212018845 M602.6472022923957,331.54999201739395 L714.1928504876223,268.7319604041336 M602.6780302832722,342.16267681770205 L600.4189894195216,342.0083269997473 M600.4189894195216,342.0083269997473 L598.2905322408018,341.55427338377575 M598.2905322408018,341.55427338377575 L596.4165090797599,340.8269796480714 M596.4165090797599,340.8269796480714 L594.905901973479,339.86881849374583 M594.905901973479,339.86881849374583 L593.846475443621,338.73558525298586 M593.846475443621,338.73558525298586 L593.2996910555858,337.49323451384964 M593.2996910555858,337.49323451384964 L593.2971439386117,336.2140165988287 M593.2971439386117,336.2140165988287 L593.838785723499,334.97227712588 M593.838785723499,334.97227712588 L594.892958430177,333.84012743075107 M594.892958430177,333.84012743075107 L596.3982848266818,332.88327205390397 M596.3982848266818,332.88327205390397 L598.2672572495962,332.1572083872809 M598.2672572495962,332.1572083872809 L600.3913286719568,331.70402816911184 M600.3913286719568,331.70402816911184 L602.6472022923957,331.54999201739395 M634.0023895017753,359.763970064943 L602.6780302832722,342.16267681770205 M634.0023895017753,359.763970064943 L440.4625237673507,399.8603229404455 M440.4625237673507,399.8603229404455 L512.2277259307654,291.3382586674253 M543.2418669968695,308.7652389899261 L512.2277259307654,291.3382586674253 M512.3622660854028,338.64813299112654 L512.2277259307654,291.3382586674253 M543.3077587496773,356.11708920828227 L512.3622660854028,338.64813299112654 M633.32666874107,315.9871906520201 L633.0991345587437,317.15526290509086 M633.0991345587437,317.15526290509086 L632.414035624604,318.26501052371407 M632.414035624604,318.26501052371407 L631.3055988058856,319.26073038923244 M631.3055988058856,319.26073038923244 L629.8293411272833,320.092412626915 M629.8293411272833,320.092412626915 L628.0592838442035,320.7182666454172 M628.0592838442035,320.7182666454172 L626.0842538379787,321.10682696859715 M626.0842538379787,321.10682696859715 L624.0034115703505,321.23855579674904 M673.3812384761924,293.4262800665297 L633.32666874107,315.9871906520201 M713.8803123810524,315.98718629578696 L673.3812384761924,293.4262800665297 M602.58101656214,378.956523556703 L713.8803123810524,315.98718629578696 M602.58101656214,378.956523556703 L600.3301631373618,379.1109286109571 M600.3301631373618,379.1109286109571 L598.2108170422803,379.56519409444485 M598.2108170422803,379.56519409444485 L596.3460011168829,380.2929963346318 M596.3460011168829,380.2929963346318 L594.844021141819,381.25214256930593 M594.844021141819,381.25214256930593 L593.7921901919102,382.38700228814173 M593.7921901919102,382.38700228814173 L593.2517489013811,383.6317134670833 M593.2517489013811,383.6317134670833 L593.2542846881678,384.9139920778842 M593.2542846881678,384.9139920778842 L593.7998456982596,386.1593146204955 M593.7998456982596,386.1593146204955 L594.8569071020554,387.2952580600971 M594.8569071020554,387.2952580600971 L596.3641442930898,388.2557102805621 M596.3641442930898,388.2557102805621 L598.2339884851198,388.98474278646273 M598.2339884851198,388.98474278646273 L600.3577008235256,389.4398818096489 M600.3577008235256,389.4398818096489 L602.6117074012989,389.5946005776723 M633.8660395923692,407.2378989592994 L602.6117074012989,389.5946005776723 M633.8660395923692,407.2378989592994 L440.75929085896075,447.42943676166215 M440.75929085896075,447.42943676166215 L512.3622660854028,338.64813299112654 M633.32666874107,315.9871906520201 L633.4606136366268,268.73196474983996 M673.3812384761924,293.4262800665297 L673.6034944709974,246.22568212018845 M713.8803123810524,315.98718629578696 L714.1928504876223,268.7319604041336 M602.58101656214,378.956523556703 L602.6472022923957,331.54999201739395 M602.6117074012989,389.5946005776723 L602.6780302832722,342.16267681770205 M633.8660395923692,407.2378989592994 L634.0023895017753,359.763970064943 M440.75929085896075,447.42943676166215 L440.4625237673507,399.8603229404455" stroke="black"  stroke-width="4"  fill="red"/></svg>