<svg viewBox="0 0 800 800" xmlns="http://www.w3.org/2000/svg"><path d="M532.0708065065289,538.8127725466459 L531.9833505178294,601.4544487896278 M532.023904863481,615.7992466409476 L529.0256151173957,615.5906192320637 M529.0256151173957,615.5906192320637 L526.200649531557,614.9768959349323 M526.200649531557,614.9768959349323 L523.7133849973136,613.9938455872953 M523.7133849973136,613.9938455872953 L521.7084651837029,612.6987402107457 M521.7084651837029,612.6987402107457 L520.3023738864619,611.1669946288619 M520.3023738864619,611.1669946288619 L519.5766854082665,609.487755886968 M519.5766854082665,609.487755886968 L519.5733346563163,607.7586814039739 M519.5733346563163,607.7586814039739 L520.2922580431223,606.0802615754899 M520.2922580431223,606.0802615754899 L521.6914378904603,604.5499676323743 M521.6914378904603,604.5499676323743 L523.6894109106207,603.2566116065095 M523.6894109106207,603.2566116065095 L526.1700311843637,602.2752091851145 M526.1700311843637,602.2752091851145 L528.9892272958883,601.6626559931437 M528.9892272958883,601.6626559931437 L531.9833505178294,601.4544487896278 M532.1115408753608,553.124879809593 L532.023904863481,615.7992466409476 M532.0708065065289,538.8127725466459 L529.0700497211126,539.0205047973093 M529.0700497211126,539.0205047973093 L526.2446096505967,539.6316607402752 M526.2446096505967,539.6316607402752 L523.7584970356064,540.6108248061767 M523.7584970356064,540.6108248061767 L521.7561020744017,541.9012314473346 M521.7561020744017,541.9012314473346 L520.3538278134519,543.4280363739762 M520.3538278134519,543.4280363739762 L519.6333180371987,545.102630317084 M519.6333180371987,545.102630317084 L519.6366836609895,546.8277643827005 M519.6366836609895,546.8277643827005 L520.363988565226,548.503177185155 M520.363988565226,548.503177185155 L521.7732049502845,550.0314336516024 M521.7732049502845,550.0314336516024 L523.7825775425356,551.3235895278593 M523.7825775425356,551.3235895278593 L526.2753639137461,552.3044014105859 M526.2753639137461,552.3044014105859 L529.1065990710681,552.9167273779681 M529.1065990710681,552.9167273779681 L532.1115408753608,553.124879809593 M614.6256018443028,491.67868736570335 L614.3565282294271,554.2122418131124 M614.6256018443028,491.67868736570335 L532.0708065065289,538.8127725466459 M614.3565282294271,554.2122418131124 L531.9833505178294,601.4544487896278 M680.0429893052883,516.540107801658 L626.7589738876354,547.0992601232297 M626.7589738876354,547.0992601232297 L623.9869939117727,547.2775087941452 M623.9869939117727,547.2775087941452 L621.3572495393362,547.8033420008071 M621.3572495393362,547.8033420008071 L619.0014449506164,548.6504690738727 M619.0014449506164,548.6504690738727 L617.0376208217679,549.77651593951 M617.0376208217679,549.77651593951 L615.5642472968595,551.125140625159 M615.5642472968595,551.125140625159 L614.6553034040016,552.6288248766042 M614.6553034040016,552.6288248766042 L614.3565282294271,554.2122418131124 M532.023904863481,615.7992466409476 L573.5976867728655,639.58972415567 M316.73338373765023,693.7825507655987 L573.5976867728655,639.58972415567 M411.9708972030994,547.0992571729608 L316.73338373765023,693.7825507655987 M411.9708972030994,547.0992571729608 L453.13657793545735,570.6561999590664 M453.13657793545735,570.6561999590664 L453.4946110239359,572.3635566074386 M453.4946110239359,572.3635566074386 L454.55772377682484,573.9720716575264 M454.55772377682484,573.9720716575264 L456.26432575400844,575.3881633856874 M456.26432575400844,575.3881633856874 L458.51532934069826,576.5293943029884 M458.51532934069826,576.5293943029884 L461.17988620584316,577.3292936238448 M461.17988620584316,577.3292936238448 L464.1029873953909,577.7412471145356 M464.1029873953909,577.7412471145356 L467.1145277041596,577.7412477164528 M467.1145277041596,577.7412477164528 L470.0392202148302,577.329292697873 M470.0392202148302,577.329292697873 L472.70686441753537,576.5293949510943 M472.70686441753537,576.5293949510943 L474.96227598251807,575.3881639411157 M474.96227598251807,575.3881639411157 L476.6743468226159,573.9720718426315 M476.6743468226159,573.9720718426315 L477.7436688865999,572.3635564223761 M477.7436688865999,572.3635564223761 L478.1082978188219,570.6561999590664 M478.1082978188219,570.6561999590664 L626.1702597475953,486.11497936032254 M626.1702597475953,486.11497936032254 L680.0429893052883,516.540107801658 M573.7778491748845,576.8612845098769 L573.5976867728655,639.58972415567 M532.1115408753608,553.124879809593 L573.7778491748845,576.8612845098769 M680.4560021152201,454.0932790175923 L627.055285359452,484.5820461690515 M627.055285359452,484.5820461690515 L624.2771905634816,484.7598851575372 M624.2771905634816,484.7598851575372 L621.6416523003868,485.2845098605187 M621.6416523003868,485.2845098605187 L619.2806645625517,486.12969019587615 M619.2806645625517,486.12969019587615 L617.312527536677,487.2531497049248 M617.312527536677,487.2531497049248 L615.835927628759,488.5986761378108 M615.835927628759,488.5986761378108 L614.9250060728111,490.09890659079736 M614.9250060728111,490.09890659079736 L614.6256018443028,491.67868736570335 M316.34127864388194,630.9316068346184 L573.7778491748845,576.8612845098769 M411.79311030866734,484.5820432255638 L316.34127864388194,630.9316068346184 M411.79311030866734,484.5820432255638 L453.0495078294405,508.08493052215806 M478.07644098123643,508.08493052215806 L477.7110018303812,509.78837599125427 M477.7110018303812,509.78837599125427 L476.6393111170113,511.3932076744169 M476.6393111170113,511.3932076744169 L474.923449976082,512.8060573918518 M474.923449976082,512.8060573918518 L472.66304633000453,513.9446758236734 M472.66304633000453,513.9446758236734 L469.98949852828264,514.7427426398741 M469.98949852828264,514.7427426398741 L467.0583346597742,515.1537547906914 M467.0583346597742,515.1537547906914 L464.0401323450797,515.1537541901517 M464.0401323450797,515.1537541901517 L461.1105668446305,514.7427435637265 M461.1105668446305,514.7427435637265 L458.44012005737306,513.9446751770511 M458.44012005737306,513.9446751770511 L456.18414390843816,512.8060568376952 M456.18414390843816,512.8060568376952 L454.47377584640003,511.3932074897357 M454.47377584640003,511.3932074897357 L453.40832194172975,509.78837617589284 M453.40832194172975,509.78837617589284 L453.0495078294405,508.08493052215806 M626.4639751332475,423.73852089405386 L478.07644098123643,508.08493052215806 M626.4639751332475,423.73852089405386 L680.4560021152201,454.0932790175923 M627.055285359452,484.5820461690515 L626.7589738876354,547.0992601232297 M680.4560021152201,454.0932790175923 L680.0429893052883,516.540107801658 M626.4639751332475,423.73852089405386 L626.1702597475953,486.11497936032254 M478.07644098123643,508.08493052215806 L478.1082978188219,570.6561999590664 M453.0495078294405,508.08493052215806 L453.13657793545735,570.6561999590664 M411.79311030866734,484.5820432255638 L411.9708972030994,547.0992571729608 M316.34127864388194,630.9316068346184 L316.73338373765023,693.7825507655987" stroke="black"  stroke-width="4"  fill="red"/>
<path d="M478.07644098123643,508.08493052215806 L478.04444297087696,445.2363780793382 M452.96205187443985,445.23637807933824 L453.3216504245452,446.9358612639344 M453.3216504245452,446.9358612639344 L454.38945581387634,448.53696034677745 M454.38945581387634,448.53696034677745 L456.10360661778367,449.94652462095286 M456.10360661778367,449.94652462095286 L458.36457734483804,451.08249597542226 M458.36457734483804,451.08249597542226 L461.0409401485845,451.8787093117171 M461.0409401485845,451.8787093117171 L463.97699861187704,452.28876465385537 M463.97699861187704,452.28876465385537 L467.001892470093,452.2887652529992 M467.001892470093,452.2887652529992 L469.93955639529736,451.878708390012 M469.93955639529736,451.878708390012 L472.6190339814775,451.08249662054163 M472.6190339814775,451.08249662054163 L474.88445185446164,449.9465251738212 M474.88445185446164,449.9465251738212 L476.60412011443236,448.5369605310293 M476.60412011443236,448.5369605310293 L477.6781899931007,446.9358610797253 M477.6781899931007,446.9358610797253 L478.04444297087696,445.2363780793382 M453.0495078294405,508.08493052215806 L452.96205187443985,445.23637807933824 M478.07644098123643,508.08493052215806 L477.7110018303812,509.78837599125427 M477.7110018303812,509.78837599125427 L476.6393111170113,511.3932076744169 M476.6393111170113,511.3932076744169 L474.923449976082,512.8060573918518 M474.923449976082,512.8060573918518 L472.66304633000453,513.9446758236734 M472.66304633000453,513.9446758236734 L469.98949852828264,514.7427426398741 M469.98949852828264,514.7427426398741 L467.0583346597742,515.1537547906914 M467.0583346597742,515.1537547906914 L464.0401323450797,515.1537541901517 M464.0401323450797,515.1537541901517 L461.1105668446305,514.7427435637265 M461.1105668446305,514.7427435637265 L458.44012005737306,513.9446751770511 M458.44012005737306,513.9446751770511 L456.18414390843816,512.8060568376952 M456.18414390843816,512.8060568376952 L454.47377584640003,511.3932074897357 M454.47377584640003,511.3932074897357 L453.40832194172975,509.78837617589284 M453.40832194172975,509.78837617589284 L453.0495078294405,508.08493052215806 M560.6320437167658,461.1586929158867 L560.7824712665265,398.4196617308289 M478.04444297087696,445.2363780793382 L560.7824712665265,398.4196617308289 M560.6320437167658,461.1586929158867 L478.07644098123643,508.08493052215806 M626.7589841760205,361.0873279276806 L573.2397428541593,391.3708044833422 M573.2397428541593,391.3708044833422 L572.9357046230468,392.93869808816646 M572.9357046230468,392.93869808816646 L572.0202964369151,394.42830229179333 M572.0202964369151,394.42830229179333 L570.5392515564272,395.76484746478786 M570.5392515564272,395.76484746478786 L568.5667496124181,396.88120607132674 M568.5667496124181,396.88120607132674 L566.2016941209458,397.7212832888267 M566.2016941209458,397.7212832888267 L563.5627705909192,398.2428435791983 M563.5627705909192,398.2428435791983 L560.7824712665265,398.4196617308289 M452.96205187443985,445.23637807933824 L411.6145368945017,421.7882564598294 M315.94742051696824,567.799667349954 L411.6145368945017,421.7882564598294 M573.9588139310406,513.85348345185 L315.94742051696824,567.799667349954 M573.9588139310406,513.85348345185 L532.1995665083365,490.17186890302366 M532.1995665083365,490.17186890302366 L529.1879430660397,489.9641977391051 M529.1879430660397,489.9641977391051 L526.3504104490996,489.35328760618836 M526.3504104490996,489.35328760618836 L523.8520776710906,488.3747438288293 M523.8520776710906,488.3747438288293 L521.8382324793565,487.0855765021649 M521.8382324793565,487.0855765021649 L520.4258770855818,485.56085533536645 M520.4258770855818,485.56085533536645 L519.6969485390273,483.8893191035187 M519.6969485390273,483.8893191035187 L519.6935679441611,482.1681775888761 M519.6935679441611,482.1681775888761 L520.4156711256908,480.49746013726656 M520.4156711256908,480.49746013726656 L521.8210535164753,478.9741903669161 M521.8210535164753,478.9741903669161 L523.8278900337865,477.6867721062636 M523.8278900337865,477.6867721062636 L526.3195193630271,476.7098759859133 M526.3195193630271,476.7098759859133 L529.1512311097534,476.10013576088375 M529.1512311097534,476.10013576088375 L532.1586509150276,475.8928847406683 M532.1586509150276,475.8928847406683 L680.8708380384003,391.3707986360055 M680.8708380384003,391.3707986360055 L626.7589841760205,361.0873279276806 M411.79311030866734,484.5820432255638 L411.6145368945017,421.7882564598294 M453.0495078294405,508.08493052215806 L411.79311030866734,484.5820432255638 M573.0619560395749,454.09328487866526 L572.7585672771615,455.6648612936018 M572.7585672771615,455.6648612936018 L571.8451565080325,457.1579636828988 M571.8451565080325,457.1579636828988 L570.3673575708885,458.49764699137575 M570.3673575708885,458.49764699137575 L568.3991877252665,459.61662630765585 M568.3991877252665,459.61662630765585 L566.0393332740746,460.4586753861288 M566.0393332740746,460.4586753861288 L563.406218523868,460.98145978849277 M563.406218523868,460.98145978849277 L560.6320437167658,461.1586929158867 M626.4639751332475,423.73852089405386 L573.0619560395749,454.09328487866526 M680.4560021152201,454.0932790175923 L626.4639751332475,423.73852089405386 M532.0708065065289,538.8127725466459 L680.4560021152201,454.0932790175923 M532.0708065065289,538.8127725466459 L529.0700497211126,539.0205047973093 M529.0700497211126,539.0205047973093 L526.2446096505967,539.6316607402752 M526.2446096505967,539.6316607402752 L523.7584970356064,540.6108248061767 M523.7584970356064,540.6108248061767 L521.7561020744017,541.9012314473346 M521.7561020744017,541.9012314473346 L520.3538278134519,543.4280363739762 M520.3538278134519,543.4280363739762 L519.6333180371987,545.102630317084 M519.6333180371987,545.102630317084 L519.6366836609895,546.8277643827005 M519.6366836609895,546.8277643827005 L520.363988565226,548.503177185155 M520.363988565226,548.503177185155 L521.7732049502845,550.0314336516024 M521.7732049502845,550.0314336516024 L523.7825775425356,551.3235895278593 M523.7825775425356,551.3235895278593 L526.2753639137461,552.3044014105859 M526.2753639137461,552.3044014105859 L529.1065990710681,552.9167273779681 M529.1065990710681,552.9167273779681 L532.1115408753608,553.124879809593 M573.7778491748845,576.8612845098769 L532.1115408753608,553.124879809593 M573.7778491748845,576.8612845098769 L316.34127864388194,630.9316068346184 M316.34127864388194,630.9316068346184 L411.79311030866734,484.5820432255638 M573.0619560395749,454.09328487866526 L573.2397428541593,391.3708044833422 M626.4639751332475,423.73852089405386 L626.7589841760205,361.0873279276806 M680.4560021152201,454.0932790175923 L680.8708380384003,391.3707986360055 M532.0708065065289,538.8127725466459 L532.1586509150276,475.8928847406683 M532.1115408753608,553.124879809593 L532.1995665083365,490.17186890302366 M573.7778491748845,576.8612845098769 L573.9588139310406,513.85348345185 M316.34127864388194,630.9316068346184 L315.94742051696824,567.799667349954" stroke="black"  stroke-width="4"  fill="red"/>
<path d="M288.35602353697294,427.73449665800797 L288.8099278379153,490.9699366535907 M411.4351715912165,358.71600877789433 L411.6145368945018,421.7882564598294 M288.35602353697294,427.73449665800797 L411.4351715912165,358.71600877789433 M288.8099278379153,490.9699366535907 L411.6145368945018,421.7882564598294 M446.11913900843876,378.2953612484463 L446.22192374971115,441.414060242912 M411.4351715912165,358.71600877789433 L446.11913900843876,378.2953612484463 M411.6145368945018,421.7882564598294 L446.22192374971115,441.414060242912 M484.79953102427606,441.414060242912 L484.2374644175823,444.02737527344107 M484.2374644175823,444.02737527344107 L482.58646457432195,446.4897203138056 M482.58646457432195,446.4897203138056 L479.94200576327137,448.6577563520922 M479.94200576327137,448.6577563520922 L476.45756055472555,450.40515724485715 M476.45756055472555,450.40515724485715 L472.33570177576087,451.63001644710295 M472.33570177576087,451.63001644710295 L467.8163355422611,452.26085953561324 M467.8163355422611,452.26085953561324 L463.162665162135,452.26086027301824 M463.162665162135,452.26086027301824 L458.6457677831712,451.6300170001062 M458.6457677831712,451.6300170001062 L454.5287029063963,450.405156691952 M454.5287029063963,450.405156691952 L451.0510947870842,448.6577561678371 M451.0510947870842,448.6577561678371 L448.41512521977654,446.4897201296083 M448.41512521977654,446.4897201296083 L446.7737609641265,444.0273760099671 M446.7737609641265,444.0273760099671 L446.22192374971115,441.414060242912 M484.7823976868926,378.2953612484463 L484.79953102427606,441.414060242912 M446.11913900843876,378.2953612484463 L446.67218215692014,380.90250102007633 M446.67218215692014,380.90250102007633 L448.3171738109342,383.3590279384812 M448.3171738109342,383.3590279384812 L450.9589835153972,385.5219436792346 M450.9589835153972,385.5219436792346 L454.4443061050314,387.2652184279938 M454.4443061050314,387.2652184279938 L458.57051111792896,388.48718731123915 M458.57051111792896,388.48718731123915 L463.0974415310175,389.1165415932902 M463.0974415310175,389.1165415932902 L467.7614522981582,389.1165408576257 M467.7614522981582,389.1165408576257 L472.2908625495995,388.48718675954115 M472.2908625495995,388.48718675954115 L476.42188279038913,387.26521897959367 M476.42188279038913,387.26521897959367 L479.9140728851516,385.52194386305456 M479.9140728851516,385.52194386305456 L482.5644095796686,383.35902812224333 M482.5644095796686,383.35902812224333 L484.2190796709465,380.9025002852906 M484.2190796709465,380.9025002852906 L484.7823976868926,378.2953612484463 M484.79953102427606,441.414060242912 L626.7589841760205,361.0873279276806 M627.0552956704207,298.1595327681716 L626.7589841760205,361.0873279276806 M484.7823976868926,378.2953612484463 L627.0552956704207,298.1595327681716 M681.2875094946733,328.37078879758826 L680.8708380384003,391.3707986360055 M627.0552956704207,298.1595327681716 L681.2875094946733,328.37078879758826 M626.7589841760205,361.0873279276806 L680.8708380384003,391.3707986360055 M627.6518498504795,358.71601170755247 L627.352907697408,421.7882593964474 M681.2875094946733,328.37078879758826 L627.6518498504795,358.71601170755247 M680.8708380384003,391.3707986360055 L627.352907697408,421.7882593964474 M608.4395584458093,369.5856694903299 L608.182914340947,432.68372035659337 M627.6518498504795,358.71601170755247 L623.3588863416317,358.98832737755686 M623.3588863416317,358.98832737755686 L619.2860717907608,359.7916746455812 M619.2860717907608,359.7916746455812 L615.6372246440758,361.0859623289153 M615.6372246440758,361.0859623289153 L612.5951152437403,362.8065286014437 M612.5951152437403,362.8065286014437 L610.312282479006,364.8673846999733 M610.312282479006,364.8673846999733 L608.9034153183013,367.1654532919567 M608.9034153183013,367.1654532919567 L608.4395584458093,369.5856694903299 M627.352907697408,421.7882593964474 L623.0694352085709,422.0612219755164 M623.0694352085709,422.0612219755164 L619.005614196057,422.8664775237029 M619.005614196057,422.8664775237029 L615.3648138994836,424.1638392337283 M615.3648138994836,424.1638392337283 L612.3294020695005,425.88849113685404 M612.3294020695005,425.88849113685404 L610.0515817526748,427.95423965331327 M610.0515817526748,427.95423965331327 L608.6457895984856,430.2577621801564 M608.6457895984856,430.2577621801564 L608.182914340947,432.68372035659337 M539.0169615054062,408.8626019102926 L538.9137193357967,472.0535728070104 M608.4395584458093,369.5856694903299 L539.0169615054062,408.8626019102926 M608.182914340947,432.68372035659337 L538.9137193357967,472.0535728070104 M538.9874131111942,494.02124782593114 L534.3527376354202,493.7015777624388 M534.3527376354202,493.7015777624388 L529.9858799593476,492.7612319167747 M529.9858799593476,492.7612319167747 L526.1410971122791,491.25509689411786 M526.1410971122791,491.25509689411786 L523.0420548367144,489.2710359272994 M523.0420548367144,489.2710359272994 L520.8687843940083,486.9247108018533 M520.8687843940083,486.9247108018533 L519.7472333218025,484.3527755046209 M519.7472333218025,484.3527755046209 L519.7420259008634,481.7048672201745 M519.7420259008634,481.7048672201745 L520.8528337422927,479.13487072488317 M520.8528337422927,479.13487072488317 L523.014545787702,476.7919788850487 M523.014545787702,476.7919788850487 L526.1011766883066,474.812060365522 M526.1011766883066,474.812060365522 L529.9332618290956,473.3098237795783 M529.9332618290956,473.3098237795783 L534.2883211987257,472.37224524304105 M534.2883211987257,472.37224524304105 L538.9137193357967,472.0535728070104 M539.0909838706548,430.77864548457774 L538.9874131111942,494.02124782593114 M539.0169615054062,408.8626019102926 L534.3812731865205,409.18052425129497 M534.3812731865205,409.18052425129497 L530.0165284730576,410.1158960932015 M530.0165284730576,410.1158960932015 L526.1759236245429,411.61459758772395 M526.1759236245429,411.61459758772395 L523.0824327883756,413.58985803230996 M523.0824327883756,413.58985803230996 L520.9159196049038,415.92723947002503 M520.9159196049038,415.92723947002503 L519.8026500336232,418.4911934473433 M519.8026500336232,418.4911934473433 L519.8078806765939,421.1328782470361 M519.8078806765939,421.1328782470361 L520.9319413804055,423.69877077670674 M520.9319413804055,423.69877077670674 L523.1100644940093,426.0395850584221 M523.1100644940093,426.0395850584221 L526.2160220471155,428.0189874150081 M526.2160220471155,428.0189874150081 L530.0693812191571,429.5215868497483 M530.0693812191571,429.5215868497483 L534.4459768496604,430.4597256427852 M534.4459768496604,430.4597256427852 L539.0909838706548,430.77864548457774 M574.1405865536225,450.5644017283077 L573.9588139310406,513.85348345185 M539.0909838706548,430.77864548457774 L574.1405865536225,450.5644017283077 M538.9874131111942,494.02124782593114 L573.9588139310406,513.85348345185 M451.0573101972916,520.5126014215127 L451.150104051876,583.964986221225 M574.1405865536225,450.5644017283077 L451.0573101972916,520.5126014215127 M573.9588139310406,513.85348345185 L451.150104051876,583.964986221225 M288.8099278379153,490.9699366535907 L273.0154237175483,491.3354564482231 M273.0154237175483,491.3354564482231 L257.3408688172739,492.563390167782 M257.3408688172739,492.563390167782 L241.92918080882785,494.64278265785845 M241.92918080882785,494.64278265785845 L226.92104436250952,497.55503111630276 M226.92104436250952,497.55503111630276 L212.45370195543416,501.2740939952705 M212.45370195543416,501.2740939952705 L198.65974203505067,505.76664592274483 M198.65974203505067,505.76664592274483 L185.66592961265098,510.992352484374 M185.66592961265098,510.992352484374 L173.59211856518877,516.9042077446497 M173.59211856518877,516.9042077446497 L162.5501073432501,523.4489191959381 M162.5501073432501,523.4489191959381 L152.64275156281914,530.5672832023671 M152.64275156281914,530.5672832023671 L143.96285702479884,538.1947504820298 M143.96285702479884,538.1947504820298 L136.5923399084395,546.2619464547483 M136.5923399084395,546.2619464547483 L130.6014871836103,554.6951965794752 M130.6014871836103,554.6951965794752 L126.04813599819045,563.4172449009519 M126.04813599819045,563.4172449009519 L122.97715957215951,572.3478815311254 M122.97715957215951,572.3478815311254 L121.41989709099408,581.404657407385 M121.41989709099408,581.404657407385 L121.39375828132302,590.5036494257868 M121.39375828132302,590.5036494257868 L122.90197282693964,599.5602080998069 M122.90197282693964,599.5602080998069 L125.93344073989107,608.4897574542315 M125.93344073989107,608.4897574542315 L130.4627544272637,617.208563008052 M130.4627544272637,617.208563008052 L136.4502974754522,625.6345804022385 M136.4502974754522,625.6345804022385 L143.84249769712278,633.6882298535636 M143.84249769712278,633.6882298535636 L152.57232172048523,641.2931669709753 M152.57232172048523,641.2931669709753 L162.5597628528792,648.377072939818 M162.5597628528792,648.377072939818 L173.71255962372504,654.8723767903958 M173.71255962372504,654.8723767903958 L185.92703584768526,660.7169400391715 M185.92703584768526,660.7169400391715 L199.08906616338228,665.854702149639 M199.08906616338228,665.854702149639 L213.07514387003621,670.2362699683554 M213.07514387003621,670.2362699683554 L227.7535528495499,673.8194494725914 M227.7535528495499,673.8194494725914 L242.98570109249275,676.5696528326837 M242.98570109249275,676.5696528326837 L258.62746217132064,678.460311961786 M258.62746217132064,678.460311961786 L274.5305673064222,679.4731508419078 M274.5305673064222,679.4731508419078 L290.5441693399879,679.598363355762 M290.5441693399879,679.598363355762 L306.51630294019617,678.8347349260838 M306.51630294019617,678.8347349260838 L322.29543487347627,677.1896508595906 M322.29543487347627,677.1896508595906 L337.73194987664573,674.6790278583902 M337.73194987664573,674.6790278583902 L352.67968858948285,671.3271418191297 M352.67968858948285,671.3271418191297 L366.9974105307423,667.1663318309288 M366.9974105307423,667.1663318309288 L380.5501072810443,662.2367130278925 M380.5501072810443,662.2367130278925 L393.21047583458216,656.5856905231208 M393.21047583458216,656.5856905231208 L404.86003896886945,650.2674962377951 M404.86003896886945,650.2674962377951 L415.3902395327711,643.3426479832073 M415.3902395327711,643.3426479832073 L424.7035919844312,635.8772370701536 M424.7035919844312,635.8772370701536 L432.7144668026418,627.9423268545971 M432.7144668026418,627.9423268545971 L439.3498592014212,619.6131922282897 M439.3498592014212,619.6131922282897 L444.5500372907773,610.9685850332185 M444.5500372907773,610.9685850332185 L448.2690414249851,602.0899492483252 M448.2690414249851,602.0899492483252 L450.4749332225537,593.0606125512303 M450.4749332225537,593.0606125512303 L451.150104051876,583.964986221225 M451.0573101972916,520.5126014215127 L450.3805631487904,529.5871579420206 M450.3805631487904,529.5871579420206 L448.1696553870889,538.5956046576305 M448.1696553870889,538.5956046576305 L444.44222915825833,547.4537246398168 M444.44222915825833,547.4537246398168 L439.2302891592434,556.0783811159788 M439.2302891592434,556.0783811159788 L432.5798936399687,564.3883157899191 M432.5798936399687,564.3883157899191 L424.5509050739691,572.3049555174059 M424.5509050739691,572.3049555174059 L415.216489897056,579.7531954406272 M415.216489897056,579.7531954406272 L404.6624690488315,586.6621320348847 M404.6624690488315,586.6621320348847 L392.9865476310868,592.9658220380941 M392.9865476310868,592.9658220380941 L380.2975287741356,598.6038827025546 M380.2975287741356,598.6038827025546 L366.71415948231316,603.5222027330371 M366.71415948231316,603.5222027330371 L352.3640337953779,607.6734821434715 M352.3640337953779,607.6734821434715 L337.3824697488125,611.017694534652 M337.3824697488125,611.017694534652 L321.91103249718583,613.5225721979277 M321.91103249718583,613.5225721979277 L306.0962179218951,615.1638927329485 M306.0962179218951,615.1638927329485 L290.0879860667527,615.9257744714039 M290.0879860667527,615.9257744714039 L274.03821942107237,615.8008483505016 M274.03821942107237,615.8008483505016 L258.0992333666079,614.7903262762309 M258.0992333666079,614.7903262762309 L242.42222207723972,612.9039927933189 M242.42222207723972,612.9039927933189 L227.15579470326117,610.1600836827309 M227.15579470326117,610.1600836827309 L212.4444075756997,606.5851084606704 M212.4444075756997,606.5851084606704 L198.42696874423956,602.2135785681745 M198.42696874423956,602.2135785681745 L185.23549327290078,597.0875946334928 M185.23549327290078,597.0875946334928 L172.99376655393345,591.2564401857333 M172.99376655393345,591.2564401857333 L161.8161696558504,584.7760509539694 M161.8161696558504,584.7760509539694 L151.80660905848885,577.7084266025169 M151.80660905848885,577.7084266025169 L143.05754898497503,570.1209865695099 M143.05754898497503,570.1209865695099 L135.6491695584944,562.0858868219577 M135.6491695584944,562.0858868219577 L129.6486468159107,553.6792990836659 M129.6486468159107,553.6792990836659 L125.10966397868276,544.9806223242265 M125.10966397868276,544.9806223242265 L122.07191602889935,536.0717135971817 M122.07191602889935,536.0717135971817 L120.56085640848721,527.0361152792375 M120.56085640848721,527.0361152792375 L120.58759835846007,517.9582083408673 M120.58759835846007,517.9582083408673 L122.14889315790322,508.9224461113041 M122.14889315790322,508.9224461113041 L125.22728044866938,500.01255624295084 M125.22728044866938,500.01255624295084 L129.79133972926633,491.3107948258264 M129.79133972926633,491.3107948258264 L135.79608699418657,482.89718310237873 M135.79608699418657,482.89718310237873 L143.18354641232327,474.84879447161995 M143.18354641232327,474.84879447161995 L151.88326583422094,467.2391285937611 M151.88326583422094,467.2391285937611 L161.81313944892378,460.1373946643032 M161.81313944892378,460.1373946643032 L172.88014917004466,453.60798746347075 M172.88014917004466,453.60798746347075 L184.98120640771344,447.7099683935867 M184.98120640771344,447.7099683935867 L198.00426155383863,442.4965014921164 M198.00426155383863,442.4965014921164 L211.82919333630537,438.01447903641264 M211.82919333630537,438.01447903641264 L226.32895557486125,434.3041376569882 M226.32895557486125,434.3041376569882 L241.3706671624396,431.398721753582 M241.3706671624396,431.398721753582 L256.8167838880639,429.3242094843026 M256.8167838880639,429.3242094843026 L272.5263127410324,428.09915831008703 M272.5263127410324,428.09915831008703 L288.35602353697294,427.73449665800797 M299.6513767340092,513.3606980009195 L295.9701732038268,511.70951293724147 M295.9701732038268,511.70951293724147 L291.69504192876605,510.61090840384213 M291.69504192876605,510.61090840384213 L287.07401959335454,510.12845790380425 M287.07401959335454,510.12845790380425 L282.3750916064564,510.29005775604656 M282.3750916064564,510.29005775604656 L277.8706918354778,511.0863674512566 M277.8706918354778,511.0863674512566 L273.8220700879152,512.4713166749411 M273.8220700879152,512.4713166749411 L270.4642145692573,514.3647389036768 M270.4642145692573,514.3647389036768 L267.9922696684649,516.6569570903044 M267.9922696684649,516.6569570903044 L266.55018848591465,519.2150788908368 M266.55018848591465,519.2150788908368 L266.22229964596926,521.8906430300822 M266.22229964596926,521.8906430300822 L267.0283020030034,524.5281966781848 M267.0283020030034,524.5281966781848 L268.9219364948893,526.9743355966973 M268.9219364948893,526.9743355966973 L271.7935834982828,529.0866253797813 M271.7935834982828,529.0866253797813 L275.4765390597056,530.7419385389892 M275.4765390597056,530.7419385389892 L279.75658954304373,531.8437347185986 M279.75658954304373,531.8437347185986 L284.3845713284912,532.3277092494809 M284.3845713284912,532.3277092494809 L289.09094231348945,532.1655954320099 M289.09094231348945,532.1655954320099 L293.6015422827348,531.366863513012 M293.6015422827348,531.366863513012 L297.65370103437283,529.9781387057344 M297.65370103437283,529.9781387057344 L301.011620076675,528.0804524778968 M301.011620076675,528.0804524778968 L303.4801404695878,525.78445871233 M303.4801404695878,525.78445871233 L304.916093629131,523.2239146893687 M304.916093629131,523.2239146893687 L305.23655478985995,520.5478365834083 M305.23655478985995,520.5478365834083 L304.423547933086,517.9117829704169 M304.423547933086,517.9117829704169 L302.5248991327078,515.4688356974582 M302.5248991327078,515.4688356974582 L299.6513767340092,513.3606980009195 M299.6513767340092,513.3606980009195 L300.0828256071741,576.7964583558846 M300.0828256071741,576.7964583558846 L302.94998423687343,578.9094980915698 M302.94998423687343,578.9094980915698 L304.84445895453064,581.358124137149 M304.84445895453064,581.358124137149 L305.655725912555,584.0003032455589 M305.655725912555,584.0003032455589 L305.3360627882778,586.6825975555478 M305.3360627882778,586.6825975555478 L303.903402089587,589.2490872435819 M303.903402089587,589.2490872435819 L301.4404795836079,591.5504105777198 M301.4404795836079,591.5504105777198 L298.09013982846216,593.4525005176104 M298.09013982846216,593.4525005176104 L294.04710124246185,594.8444472190897 M294.04710124246185,594.8444472190897 L289.5466309252474,595.6450319440106 M289.5466309252474,595.6450319440106 L284.8508079993252,595.8075217891875 M284.8508079993252,595.8075217891875 L280.2331767988452,595.3224246401523 M280.2331767988452,595.3224246401523 L275.9626752565665,594.2180724725873 M275.9626752565665,594.2180724725873 L272.28791016515123,592.558918518357 M272.28791016515123,592.558918518357 L269.42261845431517,590.441726338799 M269.42261845431517,590.441726338799 L267.53313551710437,587.989908393681 M267.53313551710437,587.989908393681 L266.72884164009355,585.3462291577065 M266.72884164009355,585.3462291577065 L267.05589924689053,582.6644488553335 M267.05589924689053,582.6644488553335 L268.49466064680587,580.1003815824852 M268.49466064680587,580.1003815824852 L270.9609924728967,577.8028341277375 M270.9609924728967,577.8028341277375 L274.3112691299969,575.9050085262619 M274.3112691299969,575.9050085262619 L278.35078665340006,574.5168377088174 M278.35078665340006,574.5168377088174 L282.8450845777033,573.7186754004304 M282.8450845777033,573.7186754004304 L287.53349780486747,573.5566995613801 M287.53349780486747,573.5566995613801 L292.14420067221585,574.0402725313808 M292.14420067221585,574.0402725313808 L296.40980489709693,575.1414327987624 M296.40980489709693,575.1414327987624 L300.0828256071741,576.7964583558846" stroke="black"  stroke-width="4"  fill="red"/>
<path d="M478.1400143975507,632.9519814513442 L478.1082978188219,570.6561999590664 M453.13657793545735,570.6561999590664 L453.4946110239359,572.3635566074386 M453.4946110239359,572.3635566074386 L454.55772377682484,573.9720716575264 M454.55772377682484,573.9720716575264 L456.26432575400844,575.3881633856874 M456.26432575400844,575.3881633856874 L458.51532934069826,576.5293943029884 M458.51532934069826,576.5293943029884 L461.17988620584316,577.3292936238448 M461.17988620584316,577.3292936238448 L464.1029873953909,577.7412471145356 M464.1029873953909,577.7412471145356 L467.1145277041596,577.7412477164528 M467.1145277041596,577.7412477164528 L470.0392202148302,577.329292697873 M470.0392202148302,577.329292697873 L472.70686441753537,576.5293949510943 M472.70686441753537,576.5293949510943 L474.96227598251807,575.3881639411157 M474.96227598251807,575.3881639411157 L476.6743468226159,573.9720718426315 M476.6743468226159,573.9720718426315 L477.7436688865999,572.3635564223761 M477.7436688865999,572.3635564223761 L478.1082978188219,570.6561999590664 M453.223264690381,632.9519814513442 L453.13657793545735,570.6561999590664 M478.1400143975507,632.9519814513442 L477.7761920991527,634.6631979960537 M477.7761920991527,634.6631979960537 L476.70922823684884,636.2753491878793 M476.70922823684884,636.2753491878793 L475.00093098839375,637.6946414398124 M475.00093098839375,637.6946414398124 L472.7504895022179,638.838450996591 M472.7504895022179,638.838450996591 L470.0887228827652,639.6401558210703 M470.0887228827652,639.6401558210703 L467.1704732170058,640.0530414229411 M467.1704732170058,640.0530414229411 L464.1655655678869,640.0530408196641 M464.1655655678869,640.0530408196641 L461.2489002228213,639.640156749134 M461.2489002228213,639.640156749134 L458.5902073542963,638.8384503470207 M458.5902073542963,638.8384503470207 L456.34415445636915,637.694640883129 M456.34415445636915,637.694640883129 L454.64130201464263,636.2753490023558 M454.64130201464263,636.2753490023558 L453.5805201472676,634.6631981815344 M453.5805201472676,634.6631981815344 L453.223264690381,632.9519814513442 M560.3331686512786,585.8109396875856 L560.4822776006654,523.6218590276434 M560.3331686512786,585.8109396875856 L478.1400143975507,632.9519814513442 M560.4822776006654,523.6218590276434 L478.1082978188219,570.6561999590664 M572.8849505591975,516.5401136762902 L572.5822084995964,518.1153254177698 M572.5822084995964,518.1153254177698 L571.6707864512875,519.6118808799968 M571.6707864512875,519.6118808799968 L570.1962192622316,520.9546618464835 M570.1962192622316,520.9546618464835 L568.2323625298427,522.0762280633201 M568.2323625298427,522.0762280633201 L565.8776862957814,522.9202235607714 M565.8776862957814,522.9202235607714 L563.2503548113222,523.4442162794905 M563.2503548113222,523.4442162794905 L560.4822776006654,523.6218590276434 M626.1702597475953,486.11497936032254 L572.8849505591975,516.5401136762902 M680.0429893052883,516.540107801658 L626.1702597475953,486.11497936032254 M531.9833505178294,601.4544487896278 L680.0429893052883,516.540107801658 M532.023904863481,615.7992466409476 L529.0256151173957,615.5906192320637 M529.0256151173957,615.5906192320637 L526.200649531557,614.9768959349323 M526.200649531557,614.9768959349323 L523.7133849973136,613.9938455872953 M523.7133849973136,613.9938455872953 L521.7084651837029,612.6987402107457 M521.7084651837029,612.6987402107457 L520.3023738864619,611.1669946288619 M520.3023738864619,611.1669946288619 L519.5766854082665,609.487755886968 M519.5766854082665,609.487755886968 L519.5733346563163,607.7586814039739 M519.5733346563163,607.7586814039739 L520.2922580431223,606.0802615754899 M520.2922580431223,606.0802615754899 L521.6914378904603,604.5499676323743 M521.6914378904603,604.5499676323743 L523.6894109106207,603.2566116065095 M523.6894109106207,603.2566116065095 L526.1700311843637,602.2752091851145 M526.1700311843637,602.2752091851145 L528.9892272958883,601.6626559931437 M528.9892272958883,601.6626559931437 L531.9833505178294,601.4544487896278 M573.5976867728655,639.58972415567 L532.023904863481,615.7992466409476 M573.5976867728655,639.58972415567 L316.73338373765023,693.7825507655987 M316.73338373765023,693.7825507655987 L411.9708972030994,547.0992571729608 M453.13657793545735,570.6561999590664 L411.9708972030994,547.0992571729608 M412.1479026605919,609.3416856222753 L411.9708972030994,547.0992571729608 M453.223264690381,632.9519814513442 L412.1479026605919,609.3416856222753 M572.7087213752652,578.7130681786018 L572.406623269831,580.2918682787725 M572.406623269831,580.2918682787725 L571.4971813016808,581.7918321912217 M571.4971813016808,581.7918321912217 L570.025831756514,583.1376707779823 M570.025831756514,583.1376707779823 L568.0662692742554,584.2617904535235 M568.0662692742554,584.2617904535235 L565.7167485811005,585.1077072044064 M565.7167485811005,585.1077072044064 L563.0951750127258,585.6328926154865 M563.0951750127258,585.6328926154865 L560.3331686512786,585.8109396875856 M625.8778296970211,548.2184706820711 L572.7087213752652,578.7130681786018 M679.6317878538259,578.7130622905856 L625.8778296970211,548.2184706820711 M531.8962804286247,663.8197186758761 L679.6317878538259,578.7130622905856 M531.8962804286247,663.8197186758761 L528.9087615048711,664.0283946233268 M528.9087615048711,664.0283946233268 L526.0957818148696,664.6423267974309 M526.0957818148696,664.6423267974309 L523.6206296673824,665.6259383080142 M523.6206296673824,665.6259383080142 L521.6270591003163,666.9222051494925 M521.6270591003163,666.9222051494925 L520.2309600391848,668.4559424742033 M520.2309600391848,668.4559424742033 L519.5136160713198,670.138138135834 M519.5136160713198,670.138138135834 L519.5169520497973,671.8711014733043 M519.5169520497973,671.8711014733043 L520.2410312711552,673.5541160777997 M520.2410312711552,673.5541160777997 L521.644011310872,675.0893050966195 M521.644011310872,675.0893050966195 L523.6444980377759,676.3873213517996 M523.6444980377759,676.3873213517996 L526.1262651451532,677.3725808485216 M526.1262651451532,677.3725808485216 L528.9449888663999,677.9876831733687 M528.9449888663999,677.9876831733687 L531.9366559419016,678.1967793379663 M573.4183215040606,702.0406201955292 L531.9366559419016,678.1967793379663 M573.4183215040606,702.0406201955292 L317.12374725109095,756.354334927275 M317.12374725109095,756.354334927275 L412.1479026605919,609.3416856222753 M572.7087213752652,578.7130681786018 L572.8849505591975,516.5401136762902 M625.8778296970211,548.2184706820711 L626.1702597475953,486.11497936032254 M679.6317878538259,578.7130622905856 L680.0429893052883,516.540107801658 M531.8962804286247,663.8197186758761 L531.9833505178294,601.4544487896278 M531.9366559419016,678.1967793379663 L532.023904863481,615.7992466409476 M573.4183215040606,702.0406201955292 L573.5976867728655,639.58972415567 M317.12374725109095,756.354334927275 L316.73338373765023,693.7825507655987" stroke="black"  stroke-width="4"  fill="red"/>
<path d="M532.4245410187191,285.4450716252407 L532.3355155593065,349.2109050328932 M532.376797248782,363.4223260814779 L529.351720985348,363.2156366062883 M529.351720985348,363.2156366062883 L526.5015090248655,362.60761448590864 M526.5015090248655,362.60761448590864 L523.9920090540766,361.63369716917157 M523.9920090540766,361.63369716917157 L521.9691586603931,360.3506258396508 M521.9691586603931,360.3506258396508 L520.550483106643,358.8331158943611 M520.550483106643,358.8331158943611 L519.8182854292997,357.16948696576287 M519.8182854292997,357.16948696576287 L519.814874591,355.4564892893667 M519.814874591,355.4564892893667 L520.5401858206633,353.7936789058706 M520.5401858206633,353.7936789058706 L521.9518259922523,352.27761993396587 M521.9518259922523,352.27761993396587 L523.9676049999978,350.9962971679697 M523.9676049999978,350.9962971679697 L526.4703415393378,350.0240270338224 M526.4703415393378,350.0240270338224 L529.3146805438803,349.4171744783689 M529.3146805438803,349.4171744783689 L532.3355155593065,349.2109050328932 M532.4660076016023,299.6220428659976 L532.376797248782,363.4223260814779 M532.4245410187191,285.4450716252407 L529.3969534169312,285.6508405843508 M529.3969534169312,285.6508405843508 L526.5462584582265,286.25622077016277 M526.5462584582265,286.25622077016277 L524.0379310955386,287.22613219390837 M524.0379310955386,287.22613219390837 L522.0176508900086,288.50434696302335 M522.0176508900086,288.50434696302335 L520.6028608833626,290.01672924819763 M520.6028608833626,290.01672924819763 L519.8759349169034,291.67550790922695 M519.8759349169034,291.67550790922695 L519.8793610293551,293.3843531177365 M519.8793610293551,293.3843531177365 L520.6132042927318,295.0439501669296 M520.6132042927318,295.0439501669296 L522.0350611855285,296.55778314417086 M522.0350611855285,296.55778314417086 L524.0624444488557,297.83774614146546 M524.0624444488557,297.83774614146546 L526.5775655366831,298.80930443136634 M526.5775655366831,298.80930443136634 L529.4341597567366,299.41585395437227 M529.4341597567366,299.41585395437227 L532.4660076016023,299.6220428659976 M615.7138866467419,238.75787616296358 L615.4400008589514,302.40979473211297 M615.7138866467419,238.75787616296358 L532.4245410187191,285.4450716252407 M615.4400008589514,302.40979473211297 L532.3355155593065,349.2109050328932 M681.7060285320113,265.0914278697331 L627.9521205013559,295.36347118688764 M627.9521205013559,295.36347118688764 L625.1555183020957,295.54004864687175 M625.1555183020957,295.54004864687175 L622.50244416843,296.0609520191948 M622.50244416843,296.0609520191948 L620.1257692324259,296.90013777389396 M620.1257692324259,296.90013777389396 L618.1445791040737,298.01563001888337 M618.1445791040737,298.01563001888337 L616.6582147122754,299.3516159388671 M616.6582147122754,299.3516159388671 L615.7413082046066,300.84121098469143 M615.7413082046066,300.84121098469143 L615.4400008589514,302.40979473211297 M532.376797248782,363.4223260814779 L574.3231723939604,386.9921761281773 M315.15439716014095,440.6851071770524 L574.3231723939604,386.9921761281773 M411.25500918919744,295.36346826428024 L315.15439716014095,440.6851071770524 M411.25500918919744,295.36346826428024 L452.785971942167,318.69989628683544 M452.785971942167,318.69989628683544 L453.14714970136356,320.39129781098734 M453.14714970136356,320.39129781098734 L454.2196893380744,321.9847847816603 M454.2196893380744,321.9847847816603 L455.94145604812866,323.3876489204615 M455.94145604812866,323.3876489204615 L458.2124825762226,324.5182215472589 M458.2124825762226,324.5182215472589 L460.9007564043306,325.3106513567517 M460.9007564043306,325.3106513567517 L463.8498875271447,325.7187583153316 M463.8498875271447,325.7187583153316 L466.8882538874988,325.7187589116287 M466.8882538874988,325.7187589116287 L469.83900480236684,325.3106504394261 M469.83900480236684,325.3106504394261 L472.5304212253188,324.5182221893125 M472.5304212253188,324.5182221893125 L474.80593459140465,323.3876494707023 M474.80593459140465,323.3876494707023 L476.53326800125177,321.9847849650363 M476.53326800125177,321.9847849650363 L477.61212804425804,320.3912976276542 M477.61212804425804,320.3912976276542 L477.9800195991702,318.6998962868354 M477.9800195991702,318.6998962868354 L627.3529181459937,234.9533239923361 M627.3529181459937,234.9533239923361 L681.7060285320113,265.0914278697331 M574.5065769215721,323.13490229002525 L574.3231723939604,386.9921761281773 M532.4660076016023,299.6220428659976 L574.5065769215721,323.13490229002525 M682.1264074663784,201.53085369965234 L628.2537285255178,231.7287652431214 M628.2537285255178,231.7287652431214 L625.450902271509,231.90491116567728 M625.450902271509,231.90491116567728 L622.7919308753594,232.42454156202882 M622.7919308753594,232.42454156202882 L620.4099804454108,233.2616767126679 M620.4099804454108,233.2616767126679 L618.4244007221764,234.3744435357712 M618.4244007221764,234.3744435357712 L616.934752742475,235.7071658464586 M616.934752742475,235.7071658464586 L616.0158337395674,237.19312272417974 M616.0158337395674,237.19312272417974 L615.7138866467419,238.75787616296358 M314.75520819360673,376.6986817205772 L574.5065769215721,323.13490229002525 M411.07404436315625,231.72876232765654 L314.75520819360673,376.6986817205772 M411.07404436315625,231.72876232765654 L452.6973427876621,255.0082464176797 M477.94759234359924,255.00824641767952 L477.5788759898109,256.6955274057481 M477.5788759898109,256.6955274057481 L476.49760480639856,258.2851337662753 M476.49760480639856,258.2851337662753 L474.7664131397556,259.68458224550255 M474.7664131397556,259.68458224550255 L472.4858182100023,260.8124024441607 M472.4858182100023,260.8124024441607 L469.78839238305824,261.6029016770343 M469.78839238305824,261.6029016770343 L466.83105414985494,262.01001676578585 M466.83105414985494,262.01001676578585 L463.78590643434734,262.0100161709401 M463.78590643434734,262.0100161709401 L460.83019523033363,261.602902592127 M460.83019523033363,261.602902592127 L458.13592604431716,260.81240180367 M458.13592604431716,260.81240180367 L455.85983799817404,259.6845816966015 M455.85983799817404,259.6845816966015 L454.1342379007881,258.2851335833459 M454.1342379007881,258.2851335833459 L453.0593153632923,256.6955275886347 M453.0593153632923,256.6955275886347 L452.6973427876621,255.0082464176797 M627.6518603223583,171.46684981124758 L477.94759234359924,255.00824641767952 M627.6518603223583,171.46684981124758 L682.1264074663784,201.53085369965234 M628.2537285255178,231.7287652431214 L627.9521205013559,295.36347118688764 M682.1264074663784,201.53085369965234 L681.7060285320113,265.0914278697331 M627.6518603223583,171.46684981124758 L627.3529181459937,234.9533239923361 M477.94759234359924,255.00824641767952 L477.9800195991702,318.6998962868354 M452.6973427876621,255.0082464176797 L452.785971942167,318.69989628683544 M411.07404436315625,231.72876232765654 L411.25500918919744,295.36346826428024 M314.75520819360673,376.6986817205772 L315.15439716014095,440.6851071770524" stroke="black"  stroke-width="4"  fill="red"/>
<path d="M477.94759234359924,255.00824641767952 L477.9150201148153,191.0318489508175 M452.6083173969332,191.0318489508175 L452.97108829361343,192.71495596875377 M452.97108829361343,192.71495596875377 L454.04840434178726,194.3006303017166 M454.04840434178726,194.3006303017166 L455.7778549310452,195.69661776665714 M455.7778549310452,195.69661776665714 L458.05902710324136,196.82164939214056 M458.05902710324136,196.82164939214056 L460.75931844383234,197.61019595341273 M460.75931844383234,197.61019595341273 L463.721639152463,198.01630317107546 M463.721639152463,198.01630317107546 L466.7735985563014,198.01630376445075 M466.7735985563014,198.01630376445075 L469.7375535798688,197.6101950405822 M469.7375535798688,197.6101950405822 L472.4410157018263,196.8216500310478 M472.4410157018263,196.8216500310478 L474.72671493788266,195.696618314201 M474.72671493788266,195.696618314201 L476.4617821328802,194.30063048419356 M476.4617821328802,194.30063048419356 L477.54547525623576,192.71495578631942 M477.54547525623576,192.71495578631942 L477.9150201148153,191.0318489508175 M452.6973427876621,255.0082464176797 L452.6083173969332,191.0318489508175 M477.94759234359924,255.00824641767952 L477.5788759898109,256.6955274057481 M477.5788759898109,256.6955274057481 L476.49760480639856,258.2851337662753 M476.49760480639856,258.2851337662753 L474.7664131397556,259.68458224550255 M474.7664131397556,259.68458224550255 L472.4858182100023,260.8124024441607 M472.4858182100023,260.8124024441607 L469.78839238305824,261.6029016770343 M469.78839238305824,261.6029016770343 L466.83105414985494,262.01001676578585 M466.83105414985494,262.01001676578585 L463.78590643434734,262.0100161709401 M463.78590643434734,262.0100161709401 L460.83019523033363,261.602902592127 M460.83019523033363,261.602902592127 L458.13592604431716,260.81240180367 M458.13592604431716,260.81240180367 L455.85983799817404,259.6845816966015 M455.85983799817404,259.6845816966015 L454.1342379007881,258.2851335833459 M454.1342379007881,258.2851335833459 L453.0593153632923,256.6955275886347 M453.0593153632923,256.6955275886347 L452.6973427876621,255.0082464176797 M561.2377671575725,208.52875975040263 L561.3908849282611,144.66771431348477 M477.9150201148153,191.0318489508175 L561.3908849282611,144.66771431348477 M561.2377671575725,208.52875975040263 L477.94759234359924,255.00824641767952 M627.9521307647151,107.69829122949841 L573.9588086832994,137.6872426479017 M573.9588086832994,137.6872426479017 L573.6521445578908,139.23991957651776 M573.6521445578908,139.23991957651776 L572.7286585817633,140.71506983790755 M572.7286585817633,140.71506983790755 L571.2344860729474,142.03864865588037 M571.2344860729474,142.03864865588037 L569.2444633341526,143.14417878141853 M569.2444633341526,143.14417878141853 L566.8583723808894,143.97610845294855 M566.8583723808894,143.97610845294855 L564.1959551565785,144.4926108110258 M564.1959551565785,144.4926108110258 L561.3908849282611,144.66771431348477 M452.6083173969332,191.0318489508175 L410.892271880657,167.81005102748654 M314.35421857306017,312.4236275108283 L410.892271880657,167.81005102748654 M574.6908055128412,258.99070827987197 L314.35421857306017,312.4236275108283 M574.6908055128412,258.99070827987197 L532.5556180992093,235.53558938085578 M532.5556180992093,235.53558938085578 L529.5169682940141,235.32990760851226 M529.5169682940141,235.32990760851226 L526.6539631726016,234.72485002675103 M526.6539631726016,234.72485002675103 L524.1331957337115,233.75568174818812 M524.1331957337115,233.75568174818812 L522.1012592438672,232.47886790293165 M522.1012592438672,232.47886790293165 L520.6762067143741,230.96876017170467 M520.6762067143741,230.96876017170467 L519.9407104529525,229.31324792811466 M519.9407104529525,229.31324792811466 L519.9372689635204,227.608609683869 M519.9372689635204,227.608609683869 L520.6658168710796,225.9539156446389 M520.6658168710796,225.9539156446389 L522.0837707983449,224.4452582765382 M522.0837707983449,224.4452582765382 L524.1085723453003,223.17019226672525 M524.1085723453003,223.17019226672525 L526.6225155614036,222.2026704838202 M526.6225155614036,222.2026704838202 L529.4795949389534,221.598781973135 M529.4795949389534,221.598781973135 L532.5139653781175,221.39352006232068 M532.5139653781175,221.39352006232068 L682.5486583973175,137.68723685732016 M682.5486583973175,137.68723685732016 L627.9521307647151,107.69829122949841 M411.07404436315625,231.72876232765654 L410.892271880657,167.81005102748654 M452.6973427876621,255.0082464176797 L411.07404436315625,231.72876232765654 M573.7778440084176,201.53085950469801 L573.4718405951992,203.08741448985157 M573.4718405951992,203.08741448985157 L572.550387399827,204.56624843546422 M572.550387399827,204.56624843546422 L571.0595185648838,205.89313182832893 M571.0595185648838,205.89313182832893 L569.073905137702,207.0014216840774 M569.073905137702,207.0014216840774 L566.6931080492297,207.83542783212502 M566.6931080492297,207.83542783212502 L564.0366033751916,208.35321925275642 M564.0366033751916,208.35321925275642 L561.2377671575725,208.52875975040263 M627.6518603223583,171.46684981124758 L573.7778440084176,201.53085950469801 M682.1264074663784,201.53085369965234 L627.6518603223583,171.46684981124758 M532.4245410187191,285.4450716252407 L682.1264074663784,201.53085369965234 M532.4245410187191,285.4450716252407 L529.3969534169312,285.6508405843508 M529.3969534169312,285.6508405843508 L526.5462584582265,286.25622077016277 M526.5462584582265,286.25622077016277 L524.0379310955386,287.22613219390837 M524.0379310955386,287.22613219390837 L522.0176508900086,288.50434696302335 M522.0176508900086,288.50434696302335 L520.6028608833626,290.01672924819763 M520.6028608833626,290.01672924819763 L519.8759349169034,291.67550790922695 M519.8759349169034,291.67550790922695 L519.8793610293551,293.3843531177365 M519.8793610293551,293.3843531177365 L520.6132042927318,295.0439501669296 M520.6132042927318,295.0439501669296 L522.0350611855285,296.55778314417086 M522.0350611855285,296.55778314417086 L524.0624444488557,297.83774614146546 M524.0624444488557,297.83774614146546 L526.5775655366831,298.80930443136634 M526.5775655366831,298.80930443136634 L529.4341597567366,299.41585395437227 M529.4341597567366,299.41585395437227 L532.4660076016023,299.6220428659976 M574.5065769215721,323.13490229002525 L532.4660076016023,299.6220428659976 M574.5065769215721,323.13490229002525 L314.75520819360673,376.6986817205772 M314.75520819360673,376.6986817205772 L411.07404436315625,231.72876232765654 M573.7778440084176,201.53085950469801 L573.9588086832994,137.6872426479017 M627.6518603223583,171.46684981124758 L627.9521307647151,107.69829122949841 M682.1264074663784,201.53085369965234 L682.5486583973175,137.68723685732016 M532.4245410187191,285.4450716252407 L532.5139653781175,221.39352006232068 M532.4660076016023,299.6220428659976 L532.5556180992093,235.53558938085578 M574.5065769215721,323.13490229002525 L574.6908055128412,258.99070827987197 M314.75520819360673,376.6986817205772 L314.35421857306017,312.4236275108283" stroke="black"  stroke-width="4"  fill="red"/>
<path d="M286.5199967429022,171.94938529049773 L286.9820924915574,236.32601253468965 M410.7096860406335,103.6053296334972 L410.89227188065706,167.81005102748654 M286.5199967429022,171.94938529049773 L410.7096860406335,103.6053296334972 M286.9820924915574,236.32601253468965 L410.89227188065706,167.81005102748654 M445.703395098923,122.99273209671594 L445.80802802561226,187.24637639111907 M410.7096860406335,103.6053296334972 L445.703395098923,122.99273209671594 M410.89227188065706,167.81005102748654 L445.80802802561226,187.24637639111907 M451.39297052478025,130.62350189203437 L451.4849384550256,194.89636769093832 M445.703395098923,122.99273209671594 L446.0709266611607,125.09719429150834 M446.0709266611607,125.09719429150834 L447.1742302502404,127.12140175434206 M447.1742302502404,127.12140175434206 L448.97119892133395,128.98746101414736 M448.97119892133395,128.98746101414736 L451.39297052478025,130.62350189203437 M445.80802802561226,187.24637639111907 L446.17475427781557,189.35614154756578 M446.17475427781557,189.35614154756578 L447.2756066451745,191.38544835188384 M447.2756066451745,191.38544835188384 L449.06857108315245,193.25620734292409 M449.06857108315245,193.25620734292409 L451.4849384550256,194.89636769093832 M465.1863817201916,133.78680088727663 L465.24751655867095,198.0676291935082 M451.39297052478025,130.62350189203437 L454.3465412292129,131.96646117731905 M454.3465412292129,131.96646117731905 L457.7183423151085,132.96454309829278 M457.7183423151085,132.96454309829278 L461.3786063994165,133.5792328900635 M461.3786063994165,133.5792328900635 L465.1863817201916,133.78680088727663 M451.4849384550256,194.89636769093832 L454.4319123145201,196.24270781643537 M454.4319123145201,196.24270781643537 L457.7961777475817,197.24330197586048 M457.7961777475817,197.24330197586048 L461.4482578169477,197.8595388178731 M461.4482578169477,197.8595388178731 L465.24751655867095,198.0676291935082 M484.71309673250323,122.99273209671594 L484.7305381465905,187.24637639111907 M465.1863817201916,133.78680088727663 L469.5305548350044,133.51595923851062 M469.5305548350044,133.51595923851062 L473.6574902475696,132.7170809707635 M473.6574902475696,132.7170809707635 L477.35983937687604,131.43039968700793 M477.35983937687604,131.43039968700793 L480.451732736906,129.72069421391927 M480.451732736906,129.72069421391927 L482.77812896191244,127.67398113968147 M482.77812896191244,127.67398113968147 L484.22259241886337,125.39314336311736 M484.22259241886337,125.39314336311736 L484.71309673250323,122.99273209671594 M465.24751655867095,198.0676291935082 L469.5819711222433,197.79610592509857 M469.5819711222433,197.79610592509857 L473.69967264713364,196.9952170006018 M473.69967264713364,196.9952170006018 L477.39373738628035,195.70529688707967 M477.39373738628035,195.70529688707967 L480.4787122542641,193.99128689770257 M480.4787122542641,193.99128689770257 L482.7999028095347,191.9394195470988 M482.7999028095347,191.9394195470988 L484.24113346407853,189.65283625295285 M484.24113346407853,189.65283625295285 L484.7305381465905,187.24637639111907 M628.2537388113449,43.64566507272502 L627.9521307647151,107.69829122949841 M484.71309673250323,122.99273209671594 L628.2537388113449,43.64566507272502 M484.7305381465905,187.24637639111907 L627.9521307647151,107.69829122949841 M682.9727945122379,73.55858342904082 L682.5486583973175,137.68723685732016 M628.2537388113449,43.64566507272502 L682.9727945122379,73.55858342904082 M627.9521307647151,107.69829122949841 L682.5486583973175,137.68723685732016 M628.8609923576514,103.60533253439678 L628.5566826436909,167.8100539357159 M682.9727945122379,73.55858342904082 L628.8609923576514,103.60533253439678 M682.5486583973175,137.68723685732016 L628.5566826436909,167.8100539357159 M609.4776256350347,114.36836635588668 L609.2163697420374,178.6002630296347 M628.8609923576514,103.60533253439678 L624.5296404245673,103.87497510869946 M624.5296404245673,103.87497510869946 L620.4204501060685,104.6704371450636 M620.4204501060685,104.6704371450636 L616.7390566954903,105.95202253895184 M616.7390566954903,105.95202253895184 L613.6698588340175,107.65570632487675 M613.6698588340175,107.65570632487675 L611.3667537342278,109.69634598896937 M611.3667537342278,109.69634598896937 L609.9454508656074,111.9718776267872 M609.9454508656074,111.9718776267872 L609.4776256350347,114.36836635588668 M628.5566826436909,167.8100539357159 L624.2349920391705,168.0803777930278 M624.2349920391705,168.0803777930278 L620.1349564443567,168.87784951499208 M620.1349564443567,168.87784951499208 L616.461753910839,170.1626723126209 M616.461753910839,170.1626723126209 L613.399373291066,171.8706589167001 M613.399373291066,171.8706589167001 L611.1013699538623,173.91645114363308 M611.1013699538623,173.91645114363308 L609.6831965446343,176.1977268080726 M609.6831965446343,176.1977268080726 L609.2163697420374,178.6002630296347 M539.4345660069237,153.2612909198298 L539.3294632449552,217.59106622218405 M609.4776256350347,114.36836635588668 L539.4345660069237,153.2612909198298 M609.2163697420374,178.6002630296347 L539.3294632449552,217.59106622218405 M519.9078862058104,164.1039024293955 L519.8464766320858,228.46087481297047 M539.4345660069237,153.2612909198298 L535.0854410317339,153.53292561491955 M535.0854410317339,153.53292561491955 L530.9557803146018,154.33427130240767 M530.9557803146018,154.33427130240767 L527.2522659364267,155.62532525575273 M527.2522659364267,155.62532525575273 L524.160377342599,157.34160446059477 M524.160377342599,157.34160446059477 L521.8351560744422,159.39733329917752 M521.8351560744422,159.39733329917752 L520.3934280666562,161.6896899172343 M520.3934280666562,161.6896899172343 L519.9078862058104,164.1039024293955 M539.3294632449552,217.59106622218405 L534.9900789656879,217.86338274982532 M534.9900789656879,217.86338274982532 L530.8696643187733,218.6667397590105 M530.8696643187733,218.6667397590105 L527.1744395361745,219.96103371860607 M527.1744395361745,219.96103371860607 L524.0894694024328,221.68161920964332 M524.0894694024328,221.68161920964332 L521.7694485334952,223.74250475278524 M521.7694485334952,223.74250475278524 L520.3309410775387,226.04060998906542 M520.3309410775387,226.04060998906542 L519.8464766320858,228.46087481297047 M525.6569499213119,171.78129507478565 L525.5826092944307,236.15750142620607 M519.9078862058104,164.1039024293955 L520.2881571780515,166.22121992348568 M520.2881571780515,166.22121992348568 L521.4060044484174,168.25779580855263 M521.4060044484174,168.25779580855263 L523.2187581813471,170.13525746731077 M523.2187581813471,170.13525746731077 L525.6569499213119,171.78129507478565 M519.8464766320858,228.46087481297047 L520.2258853388267,230.58349872295582 M520.2258853388267,230.58349872295582 L521.3412163562778,232.62517726345888 M521.3412163562778,232.62517726345888 L523.1498952519308,234.50734169448197 M523.1498952519308,234.50734169448197 L525.5826092944307,236.15750142620607 M539.509924955845,174.96392911915018 L539.4044846743102,239.34810309452482 M525.6569499213119,171.78129507478565 L528.6269519954153,173.13246384632762 M528.6269519954153,173.13246384632762 L532.0145549708704,174.13664646717461 M532.0145549708704,174.13664646717461 L535.6893821533927,174.7550922633549 M535.6893821533927,174.7550922633549 L539.509924955845,174.96392911915018 M525.5826092944307,236.15750142620607 L528.5459410059486,237.51205321744303 M528.5459410059486,237.51205321744303 L531.9259376116489,238.5187496903749 M531.9259376116489,238.5187496903749 L535.5925155944251,239.13874352546594 M535.5925155944251,239.13874352546594 L539.4044846743102,239.34810309452482 M574.8758640201037,194.55755644760396 L574.6908055128413,258.99070827987197 M539.509924955845,174.96392911915018 L574.8758640201037,194.55755644760396 M539.4044846743102,239.34810309452482 L574.6908055128413,258.99070827987197 M450.6819340137769,263.8305813923106 L450.7764138956485,328.43587068861814 M574.8758640201037,194.55755644760396 L450.6819340137769,263.8305813923106 M574.6908055128413,258.99070827987197 L450.7764138956485,328.43587068861814 M164.3058804271214,330.7653097782754 L165.0507516886999,395.53541086259867 M450.6819340137769,263.8305813923106 L450.02767853443174,272.6386205353642 M450.02767853443174,272.6386205353642 L447.886398072157,281.3854883828651 M447.886398072157,281.3854883828651 L444.27442665387696,289.99265517276956 M444.27442665387696,289.99265517276956 L439.2214625169545,298.38253359005927 M439.2214625169545,298.38253359005927 L432.77029914339886,306.4792240895763 M432.77029914339886,306.4792240895763 L424.9766290782102,314.20921341751125 M424.9766290782102,314.20921341751125 L415.9085433337714,321.50209039025583 M415.9085433337714,321.50209039025583 L405.64604324657705,328.29116929227473 M405.64604324657705,328.29116929227473 L394.2802941244505,334.51424023331833 M394.2802941244505,334.51424023331833 L381.9128877563148,340.11406645148736 M381.9128877563148,340.11406645148736 L368.65488599546006,345.03905139317976 M368.65488599546006,345.03905139317976 L354.6259044417082,349.2436769228482 M354.6259044417082,349.2436769228482 L339.952838995284,352.6890400775417 M339.952838995284,352.6890400775417 L324.7688278253157,355.3431913337971 M324.7688278253157,355.3431913337971 L309.21191465915797,357.18150041270434 M309.21191465915797,357.18150041270434 L293.42374494416026,358.1868701207143 M293.42374494416026,358.1868701207143 L277.548173938918,358.34996813396197 M277.548173938918,358.34996813396197 L261.7299708469652,357.6692617757716 M261.7299708469652,357.6692617757716 L246.11330489685125,356.1510870008935 M246.11330489685125,356.1510870008935 L230.84037971628726,353.80956776836325 M230.84037971628726,353.80956776836325 L216.05016449740833,350.66642694650295 M216.05016449740833,350.66642694650295 L201.87690515652463,346.7508477293518 M201.87690515652463,346.7508477293518 L188.44899295148647,342.0990800608033 M188.44899295148647,342.0990800608033 L175.88766678019357,336.7541268988631 M175.88766678019357,336.7541268988631 L164.3058804271214,330.7653097782754 M450.7764138956485,328.43587068861814 L450.12369790413584,337.2656827449076 M450.12369790413584,337.2656827449076 L447.9873210451024,346.0341467747728 M447.9873210451024,346.0341467747728 L444.3835861481977,354.66253999820185 M444.3835861481977,354.66253999820185 L439.34212955668283,363.07308528687616 M439.34212955668283,363.07308528687616 L432.9056525087901,371.18969826052097 M432.9056525087901,371.18969826052097 L425.1297251653705,378.93868743669975 M425.1297251653705,378.93868743669975 L416.08228694948843,386.2494716539106 M416.08228694948843,386.2494716539106 L405.84315935391044,393.05520486445846 M405.84315935391044,393.05520486445846 L394.5033011774367,399.29352818095583 M394.5033011774367,399.29352818095583 L382.16407265663497,404.9070682361653 M382.16407265663497,404.9070682361653 L368.93628122906244,409.8441057308147 M368.93628122906244,409.8441057308147 L354.9392673600083,414.05901455147034 M354.9392673600083,414.05901455147034 L340.2996341116059,417.51279968200595 M340.2996341116059,417.51279968200595 L325.1502116414712,420.1734361554219 M325.1502116414712,420.1734361554219 L309.6287237488018,422.0162356305768 M309.6287237488018,422.0162356305768 L293.8764872540215,423.02406065744094 M293.8764872540215,423.02406065744094 L278.0370235387582,423.18755695778896 M278.0370235387582,423.18755695778896 L262.254765923068,422.5051882488053 M262.254765923068,422.5051882488053 L246.6735494936853,420.9833053894427 M246.6735494936853,420.9833053894427 L231.43524887992376,418.63606558278786 M231.43524887992376,418.63606558278786 L216.6785125802526,415.4852428772627 M216.6785125802526,415.4852428772627 L202.53727775904815,411.5600893320544 M202.53727775904815,411.5600893320544 L189.13964164043378,406.89694059296573 M189.13964164043378,406.89694059296573 L176.60656691942387,401.5389015247225 M176.60656691942387,401.5389015247225 L165.0507516886999,395.53541086259867 M164.3058804271214,330.7653097782754 L153.80730693911644,324.18774795000286 M153.80730693911644,324.18774795000286 L144.48540523688555,317.081807912931 M144.48540523688555,317.081807912931 L136.422599071232,309.5125058217397 M136.422599071232,309.5125058217397 L129.68953090173926,301.5488931857704 M129.68953090173926,301.5488931857704 L124.34448621272173,293.26338655307313 M124.34448621272173,293.26338655307313 L120.43304203858611,284.7310274091014 M120.43304203858611,284.7310274091014 L117.98757260819679,276.0288552167069 M117.98757260819679,276.0288552167069 L117.02720548776216,267.23510478903864 M117.02720548776216,267.23510478903864 L117.55767186853086,258.42854536965365 M117.55767186853086,258.42854536965365 L119.57133096132782,249.68778456155138 M119.57133096132782,249.68778456155138 L123.04743600499222,241.09050667105606 M123.04743600499222,241.09050667105606 L127.95230754095013,232.71284403368344 M127.95230754095013,232.71284403368344 L134.23982326102862,224.62870536105447 M134.23982326102862,224.62870536105447 L141.85184050472458,216.9091578500075 M141.85184050472458,216.9091578500075 L150.71885197186384,209.62179348233386 M150.71885197186384,209.62179348233386 L160.76055413171395,202.8302574989836 M160.76055413171395,202.8302574989836 L171.8867362007648,196.59364184097225 M171.8867362007648,196.59364184097225 L183.997960789616,190.96606555269688 M183.997960789616,190.96606555269688 L196.98662332426392,185.99622139884232 M196.98662332426392,185.99622139884232 L210.73768858079995,181.72702744709343 M210.73768858079995,181.72702744709343 L225.12985915159044,178.19525765320836 M225.12985915159044,178.19525765320836 L240.03650807834055,175.43129595742417 M240.03650807834055,175.43129595742417 L255.32677255010785,173.4588649599575 M255.32677255010785,173.4588649599575 L270.8666180486016,172.2949033444183 M270.8666180486016,172.2949033444183 L286.5199967429022,171.94938529049773 M165.0507516886999,395.53541086259867 L154.57563612208023,388.9417192392481 M154.57563612208023,388.9417192392481 L145.27447119169025,381.8183375347053 M145.27447119169025,381.8183375347053 L137.229499413108,374.2304379841506 M137.229499413108,374.2304379841506 L130.51121028481418,366.2472385266334 M130.51121028481418,366.2472385266334 L125.17776572214035,357.9413309864464 M125.17776572214035,357.9413309864464 L121.27464914177403,349.387939276725 M121.27464914177403,349.387939276725 L118.83417195629022,340.6642909980184 M118.83417195629022,340.6642909980184 L117.87542950676402,331.84881290830845 M117.87542950676402,331.84881290830845 L118.40415136856768,323.02046841834425 M118.40415136856768,323.02046841834425 L120.41272535842182,314.25805981715723 M120.41272535842182,314.25805981715723 L123.88046260705289,305.63946471704963 M123.88046260705289,305.63946471704963 L128.77377012736747,297.24100577769036 M128.77377012736747,297.24100577769036 L135.04663926068497,289.1367773150981 M135.04663926068497,289.1367773150981 L142.64106695845499,281.3980257791127 M142.64106695845499,281.3980257791127 L151.48770979158058,274.0925143587495 M151.48770979158058,274.0925143587495 L161.50645090702136,267.2840501468726 M161.50645090702136,267.2840501468726 L172.60728687350473,261.03187592173595 M172.60728687350473,261.03187592173595 L184.691006728291,255.39024934816285 M184.691006728291,255.39024934816285 L197.6502489985674,250.4079883055303 M197.6502489985674,250.4079883055303 L211.37023662040843,246.12812144636274 M211.37023662040843,246.12812144636274 L225.72994286850692,242.58751771299464 M225.72994286850692,242.58751771299464 L240.60302203524498,239.81663968741393 M240.60302203524498,239.81663968741393 L255.85890085294133,237.83927147431558 M255.85890085294133,237.83927147431558 L271.3638404704407,236.6723957257803 M271.3638404704407,236.6723957257803 L286.9820924915574,236.32601253468965 M297.90605976536176,256.7474215437296 L298.3453438024685,321.3351830118776 M269.7938847800497,272.3222795746067 L270.29719878276757,336.9485602558362 M297.90605976536176,256.7474215437296 L294.1917571013851,255.1121169410616 M294.1917571013851,255.1121169410616 L289.8780882374309,254.0240803140295 M289.8780882374309,254.0240803140295 L285.215321934742,253.54627118671567 M285.215321934742,253.54627118671567 L280.4738590165555,253.70631634825344 M280.4738590165555,253.70631634825344 L275.92859363127,254.49496554362773 M275.92859363127,254.49496554362773 L271.8431408926568,255.86659350653514 M271.8431408926568,255.86659350653514 L268.45462393852586,257.74180769079237 M268.45462393852586,257.74180769079237 L265.95996895918506,260.01198902094404 M265.95996895918506,260.01198902094404 L264.5044541442859,262.54552564544144 M264.5044541442859,262.54552564544144 L264.1731982848471,265.19538496028565 M264.1731982848471,265.19538496028565 L264.98610752992965,267.80760801444455 M264.98610752992965,267.80760801444455 L266.89653220470643,270.2302626862638 M266.89653220470643,270.2302626862638 L269.7938847800497,272.3222795746067 M298.3453438024685,321.3351830118776 L294.63937159747377,319.69582935167915 M294.63937159747377,319.69582935167915 L290.3354021212201,318.60509822467054 M290.3354021212201,318.60509822467054 L285.68314235796856,318.1261056886908 M285.68314235796856,318.1261056886908 L280.9523852044497,318.28654724882995 M280.9523852044497,318.28654724882995 L276.4174055821963,319.0771496400006 M276.4174055821963,319.0771496400006 L272.3412232720981,320.4521741315697 M272.3412232720981,320.4521741315697 L268.96042405033086,322.33203085079947 M268.96042405033086,322.33203085079947 L266.4714856136127,324.60783098620465 M266.4714856136127,324.60783098620465 L265.0193525981638,327.1476362099881 M265.0193525981638,327.1476362099881 L264.68894486994895,329.80404965262034 M264.68894486994895,329.80404965262034 L265.50011635433475,332.42273146104594 M265.50011635433475,332.42273146104594 L267.4063156435635,334.8513741497158 M267.4063156435635,334.8513741497158 L270.29719878276757,336.9485602558362 M269.7938847800497,272.3222795746067 L273.5099705855401,273.9617097435057 M273.5099705855401,273.9617097435057 L277.82864770558535,275.0529359780443 M277.82864770558535,275.0529359780443 L282.4985000438144,275.5322680551208 M282.4985000438144,275.5322680551208 L287.247541427644,275.37170925665396 M287.247541427644,275.37170925665396 L291.7991201328209,274.58063938471275 M291.7991201328209,274.58063938471275 L295.88817473633935,273.20523824992165 M295.88817473633935,273.20523824992165 L299.2767569553071,271.32576279027637 M299.2767569553071,271.32576279027637 L301.76792564949017,269.05180829293147 M301.76792564949017,269.05180829293147 L303.2172012981321,266.51585099327065 M303.2172012981321,266.51585099327065 L303.54089443075173,263.8654780400236 M303.54089443075173,263.8654780400236 L302.7208528656231,261.2547541703757 M302.7208528656231,261.2547541703757 L300.80532222779163,258.8352891053591 M300.80532222779163,258.8352891053591 L297.90605976536176,256.7474215437296 M270.29719878276757,336.9485602558362 L274.00494627419994,338.5920403177785 M274.00494627419994,338.5920403177785 L278.3139015192686,339.685961719052 M278.3139015192686,339.685961719052 L282.97321535016556,340.1664775500558 M282.97321535016556,340.1664775500558 L287.71151675779686,340.0055222456173 M287.71151675779686,340.0055222456173 L292.252781131049,339.2124986718603 M292.252781131049,339.2124986718603 L296.3325489246064,337.83370021965794 M296.3325489246064,337.83370021965794 L299.7134129700047,335.94958133425166 M299.7134129700047,335.94958133425166 L302.1988807216611,333.67000724289505 M302.1988807216611,333.67000724289505 L303.64480263843933,331.1277808379178 M303.64480263843933,331.1277808379178 L303.9676817449558,328.4708536495088 M303.9676817449558,328.4708536495088 L303.1494102213086,325.8536713120878 M303.1494102213086,325.8536713120878 L301.23812811683274,323.4282188969911 M301.23812811683274,323.4282188969911 L298.3453438024685,321.3351830118776" stroke="black"  stroke-width="4"  fill="red"/>
<path d="M478.0123028224304,382.10864662143786 L477.9800195991702,318.6998962868354 M452.785971942167,318.69989628683544 L453.14714970136356,320.39129781098734 M453.14714970136356,320.39129781098734 L454.2196893380744,321.9847847816603 M454.2196893380744,321.9847847816603 L455.94145604812866,323.3876489204615 M455.94145604812866,323.3876489204615 L458.2124825762226,324.5182215472589 M458.2124825762226,324.5182215472589 L460.9007564043306,325.3106513567517 M460.9007564043306,325.3106513567517 L463.8498875271447,325.7187583153316 M463.8498875271447,325.7187583153316 L466.8882538874988,325.7187589116287 M466.8882538874988,325.7187589116287 L469.83900480236684,325.3106504394261 M469.83900480236684,325.3106504394261 L472.5304212253188,324.5182221893125 M472.5304212253188,324.5182221893125 L474.80593459140465,323.3876494707023 M474.80593459140465,323.3876494707023 L476.53326800125177,321.9847849650363 M476.53326800125177,321.9847849650363 L477.61212804425804,320.3912976276542 M477.61212804425804,320.3912976276542 L477.9800195991702,318.6998962868354 M452.87420743209265,382.1086466214381 L452.785971942167,318.69989628683544 M478.0123028224304,382.10864662143786 L477.6452323846568,383.80411510459146 M477.6452323846568,383.80411510459146 L476.5687727527461,385.40143328839514 M476.5687727527461,385.40143328839514 L474.84528044038376,386.80766968671514 M474.84528044038376,386.80766968671514 L472.574826043099,387.9409593575483 M472.574826043099,387.9409593575483 L469.88939230781307,388.7352916950761 M469.88939230781307,388.7352916950761 L466.94519943067957,389.14438071158963 M466.94519943067957,389.14438071158963 L463.91358428927543,389.1443801138598 M463.91358428927543,389.1443801138598 L460.9710040152456,388.7352926146056 M460.9710040152456,388.7352926146056 L458.28869892224844,387.94095871395206 M458.28869892224844,387.94095871395206 L456.0227114507895,386.8076691351521 M456.0227114507895,386.8076691351521 L454.30476113431087,385.4014331045785 M454.30476113431087,385.4014331045785 L453.2345938570574,383.8041152883656 M453.2345938570574,383.8041152883656 L452.87420743209265,382.1086466214381 M560.933564758119,335.4028852429383 L561.0853285649266,272.10653943920227 M560.933564758119,335.4028852429383 L478.0123028224304,382.10864662143786 M561.0853285649266,272.10653943920227 L477.9800195991702,318.6998962868354 M573.5976816177374,265.0914336890582 L573.292336079094,266.6518171123432 M573.292336079094,266.6518171123432 L572.3729067373818,268.1342876009188 M572.3729067373818,268.1342876009188 L570.885327002363,269.464433270883 M570.885327002363,269.464433270883 L568.9041033940628,270.575447527053 M568.9041033940628,270.575447527053 L566.5285767362168,271.4115035652443 M566.5285767362168,271.4115035652443 L563.8779584146598,271.93056754226325 M563.8779584146598,271.93056754226325 L561.0853285649266,272.10653943920227 M627.3529181459937,234.9533239923361 L573.5976816177374,265.0914336890582 M681.7060285320113,265.0914278697331 L627.3529181459937,234.9533239923361 M532.3355155593065,349.2109050328932 L681.7060285320113,265.0914278697331 M532.376797248782,363.4223260814779 L529.351720985348,363.2156366062883 M529.351720985348,363.2156366062883 L526.5015090248655,362.60761448590864 M526.5015090248655,362.60761448590864 L523.9920090540766,361.63369716917157 M523.9920090540766,361.63369716917157 L521.9691586603931,360.3506258396508 M521.9691586603931,360.3506258396508 L520.550483106643,358.8331158943611 M520.550483106643,358.8331158943611 L519.8182854292997,357.16948696576287 M519.8182854292997,357.16948696576287 L519.814874591,355.4564892893667 M519.814874591,355.4564892893667 L520.5401858206633,353.7936789058706 M520.5401858206633,353.7936789058706 L521.9518259922523,352.27761993396587 M521.9518259922523,352.27761993396587 L523.9676049999978,350.9962971679697 M523.9676049999978,350.9962971679697 L526.4703415393378,350.0240270338224 M526.4703415393378,350.0240270338224 L529.3146805438803,349.4171744783689 M529.3146805438803,349.4171744783689 L532.3355155593065,349.2109050328932 M574.3231723939604,386.9921761281773 L532.376797248782,363.4223260814779 M574.3231723939604,386.9921761281773 L315.15439716014095,440.6851071770524 M315.15439716014095,440.6851071770524 L411.25500918919744,295.36346826428024 M452.785971942167,318.69989628683544 L411.25500918919744,295.36346826428024 M411.43517159121643,358.71600877789433 L411.25500918919744,295.36346826428024 M452.87420743209265,382.1086466214381 L411.43517159121643,358.71600877789433 M573.4183163257416,328.37079463100974 L573.1136258417755,329.9349574150656 M573.1136258417755,329.9349574150656 L572.1962114837506,331.42101781944694 M572.1962114837506,331.42101781944694 L570.7119063684131,332.7543839300574 M570.7119063684131,332.7543839300574 L568.7350532118761,333.8680876422407 M568.7350532118761,333.8680876422407 L566.3647737017156,334.70616727423226 M566.3647737017156,334.70616727423226 L563.7200157040756,335.226487481549 M563.7200157040756,335.226487481549 L560.933564758119,335.4028852429383 M627.0552956704207,298.1595327681716 L573.4183163257416,328.37079463100974 M681.2875094946733,328.37078879758826 L627.0552956704207,298.1595327681716 M532.2468864048776,412.69287899470964 L681.2875094946733,328.37078879758826 M532.2468864048776,412.69287899470964 L529.2327739215555,412.8996424366966 M529.2327739215555,412.8996424366966 L526.3947625915664,413.50794826836466 M526.3947625915664,413.50794826836466 L523.8975920081944,414.4825465222486 M523.8975920081944,414.4825465222486 L521.8862941854647,415.76693697052826 M521.8862941854647,415.76693697052826 L520.477789854812,417.2866249287521 M520.477789854812,417.2866249287521 L519.7540862042968,418.95341471669565 M519.7540862042968,418.95341471669565 L519.7574818703696,420.6705109635527 M519.7574818703696,420.6705109635527 L520.4880413252098,422.33811942713675 M520.4880413252098,422.33811942713675 L521.903549744259,423.8592585932681 M521.903549744259,423.8592585932681 L523.9218874924275,425.1453978840232 M523.9218874924275,425.1453978840232 L526.4257914157229,426.12164358380676 M526.4257914157229,426.12164358380676 L529.2696495717931,426.73111917041354 M529.2696495717931,426.73111917041354 L532.2879844348131,426.93830270576507 M574.1405865536225,450.5644017283077 L532.2879844348131,426.93830270576507 M574.1405865536225,450.5644017283077 L315.5517972687461,504.3847946870146 M315.5517972687461,504.3847946870146 L411.43517159121643,358.71600877789433 M573.4183163257416,328.37079463100974 L573.5976816177374,265.0914336890582 M627.0552956704207,298.1595327681716 L627.3529181459937,234.9533239923361 M681.2875094946733,328.37078879758826 L681.7060285320113,265.0914278697331 M532.2468864048776,412.69287899470964 L532.3355155593065,349.2109050328932 M532.2879844348131,426.93830270576507 L532.376797248782,363.4223260814779 M574.1405865536225,450.5644017283077 L574.3231723939604,386.9921761281773 M315.5517972687461,504.3847946870146 L315.15439716014095,440.6851071770524" stroke="black"  stroke-width="4"  fill="red"/></svg>