<svg viewBox="0 0 800 800" xmlns="http://www.w3.org/2000/svg"><path d="M602.5057382325134,472.75660117211436 L602.440864401346,519.4506850464065 M602.4704848318836,529.978974500455 L600.2699241353297,529.8258555173833 M600.2699241353297,529.8258555173833 L598.1965754273472,529.3754234684297 M598.1965754273472,529.3754234684297 L596.3710764913053,528.6539280129371 M596.3710764913053,528.6539280129371 L594.8995850160239,527.7034008654455 M594.8995850160239,527.7034008654455 L593.8675994855537,526.5791936517503 M593.8675994855537,526.5791936517503 L593.3349851670549,525.34672941513 M593.3349851670549,525.34672941513 L593.3325274091518,524.0776851409705 M593.3325274091518,524.0776851409705 L593.8601777736883,522.8458122370013 M593.8601777736883,522.8458122370013 L594.8871037222185,521.7226526174197 M594.8871037222185,521.7226526174197 L596.3535181614042,520.7733918479238 M596.3535181614042,520.7733918479238 L598.1741708508267,520.0530867093155 M598.1741708508267,520.0530867093155 L600.2433246013061,519.6035003347533 M600.2433246013061,519.6035003347533 L602.440864401346,519.4506850464065 M602.5354901477721,483.2608975392093 L602.4704848318836,529.978974500455 M602.5057382325134,472.75660117211436 L600.3033296796967,472.9090678703976 M600.3033296796967,472.9090678703976 L598.2295931223881,473.35762874187355 M598.2295931223881,473.35762874187355 L596.4049092902562,474.0762910489984 M596.4049092902562,474.0762910489984 L594.9352493383252,475.02338713459267 M594.9352493383252,475.02338713459267 L593.9060522371251,476.14398600776735 M593.9060522371251,476.14398600776735 L593.3772375461455,477.37305092097915 M593.3772375461455,477.37305092097915 L593.3797062155256,478.6392031484622 M593.3797062155256,478.6392031484622 L593.913506895753,479.86885935629994 M593.913506895753,479.86885935629994 L594.9477860381413,480.99050575534744 M594.9477860381413,480.99050575534744 L596.4225455626308,481.9388681303864 M596.4225455626308,481.9388681303864 L598.2520971509384,482.65872067660837 M598.2520971509384,482.65872067660837 L600.3300472909186,483.1081271639099 M600.3300472909186,483.1081271639099 L602.5354901477721,483.2608975392093 M664.3293251578614,437.45885498537746 L664.1284416175175,484.0719686767473 M664.3293251578614,437.45885498537746 L602.5057382325134,472.75660117211436 M664.1284416175175,484.0719686767473 L602.440864401346,519.4506850464065 M712.9496604739936,456.07229463068137 L673.2310825762316,478.8514726348186 M673.2310825762316,478.8514726348186 L671.196604919836,478.9822961669592 M671.196604919836,478.9822961669592 L669.2665174896783,479.36823020125854 M669.2665174896783,479.36823020125854 L667.537496786261,479.9899703684865 M667.537496786261,479.9899703684865 L666.0961691685653,480.8164230146374 M666.0961691685653,480.8164230146374 L665.0148069980928,481.80623434282194 M665.0148069980928,481.80623434282194 L664.347706850418,482.9098455840752 M664.347706850418,482.9098455840752 L664.1284416175175,484.0719686767473 M602.4704848318836,529.978974500455 L633.6039879051019,547.795032381173 M442.13409305407504,588.1910496170145 L633.6039879051019,547.795032381173 M513.1253381341782,478.8514704356511 L442.13409305407504,588.1910496170145 M513.1253381341782,478.8514704356511 L543.9537116114889,496.49291877985064 M543.9537116114889,496.49291877985064 L544.2165075997312,497.7460419998509 M544.2165075997312,497.7460419998509 L544.996792122743,498.92661482925024 M544.996792122743,498.92661482925024 L546.2493599168014,499.96595524801324 M546.2493599168014,499.96595524801324 L547.9014852917744,500.8035602981045 M547.9014852917744,500.8035602981045 L549.8571262960456,501.3906421014253 M549.8571262960456,501.3906421014253 L552.0025233736565,501.6929937674717 M552.0025233736565,501.6929937674717 L554.2128261947271,501.6929934223357 M554.2128261947271,501.6929934223357 L556.3593920057713,501.3906417563095 M556.3593920057713,501.3906417563095 L558.3173014653576,500.80356009105833 M558.3173014653576,500.80356009105833 L559.9726582193981,499.96595524801324 M559.9726582193981,499.96595524801324 L561.2292408570838,498.9266156571356 M561.2292408570838,498.9266156571356 L562.014082574176,497.7460419308762 M562.014082574176,497.7460419308762 L562.2817195282668,496.4929193315155 M562.2817195282668,496.4929193315155 L672.7922476226829,433.393019719162 M672.7922476226829,433.393019719162 L712.9496604739936,456.07229463068137 M633.7382832344375,501.03646141110573 L633.6039879051019,547.795032381173 M602.5354901477721,483.2608975392093 L633.7382832344375,501.03646141110573 M713.2575254375379,409.5236399527837 L673.451956888783,432.25035196238116 M673.451956888783,432.25035196238116 L671.4129912986405,432.3808748128257 M671.4129912986405,432.3808748128257 L669.4786514780465,432.7659218678867 M669.4786514780465,432.7659218678867 L667.7458266656721,433.38623324366046 M667.7458266656721,433.38623324366046 L666.3013336687392,434.2107869126424 M666.3013336687392,434.2107869126424 L665.2176035733187,435.1983242890586 M665.2176035733187,435.1983242890586 L664.5490520011922,436.29940063015135 M664.5490520011922,436.29940063015135 L664.3293251578614,437.45885498537746 M441.8418129661561,541.3411624059343 L633.7382832344375,501.03646141110573 M512.9928135381928,432.2503497682682 L441.8418129661561,541.3411624059343 M512.9928135381928,432.2503497682682 L543.8891240237164,449.8513170571892 M562.2576560700343,449.85131760759015 L561.9894243752802,451.10156975203347 M561.9894243752802,451.10156975203347 L561.202844117293,452.27943981727475 M561.202844117293,452.27943981727475 L559.9434795345442,453.31639968110323 M559.9434795345442,453.31639968110323 L558.2844588239685,454.1520870336892 M558.2844588239685,454.1520870336892 L556.3222164231761,454.7378248974354 M556.3222164231761,454.7378248974354 L554.1709009826197,455.0394845522727 M554.1709009826197,455.0394845522727 L551.9557086200389,455.0394848966188 M551.9557086200389,455.0394848966188 L549.8055670867311,454.7378252417614 M549.8055670867311,454.7378252417614 L547.8456031849323,454.15208724026144 M547.8456031849323,454.15208724026144 L546.1898281707697,453.31639968110323 M546.1898281707697,453.31639968110323 L544.9344962071714,452.27943899128513 M544.9344962071714,452.27943899128513 L544.1524933249771,451.10156982085033 M544.1524933249771,451.10156982085033 L543.8891240237164,449.8513170571892 M673.0111867798271,386.89681996470046 L562.2576560700343,449.85131760759015 M673.0111867798271,386.89681996470046 L713.2575254375379,409.5236399527837 M673.451956888783,432.25035196238116 L673.2310825762316,478.8514726348186 M713.2575254375379,409.5236399527837 L712.9496604739936,456.07229463068137 M673.0111867798271,386.89681996470046 L672.7922476226829,433.393019719162 M562.2576560700343,449.85131760759015 L562.2817195282668,496.4929193315155 M543.8891240237164,449.8513170571892 L543.9537116114889,496.49291877985064 M512.9928135381928,432.2503497682682 L513.1253381341782,478.8514704356511 M441.8418129661561,541.3411624059343 L442.13409305407504,588.1910496170145" stroke="black"  stroke-width="4"  fill="red"/>
<path d="M562.2576560700343,449.85131760759015 L562.2334859743481,403.0030231635227 M543.8242502154088,403.0030226144021 L544.0881953359387,404.25036714173956 M544.0881953359387,404.25036714173956 L544.871924161634,405.4254970603821 M544.871924161634,405.4254970603821 L546.1300325205742,406.4600466862995 M546.1300325205742,406.4600466862995 L547.7894733327054,407.29379150159014 M547.7894733327054,407.29379150159014 L549.7537792840066,407.87816800131384 M549.7537792840066,407.87816800131384 L551.9086863020077,408.17912652935547 M551.9086863020077,408.17912652935547 L554.1287898850512,408.1791261858097 M554.1287898850512,408.1791261858097 L556.284876018558,407.87816765778814 M556.284876018558,407.87816765778814 L558.2514705793928,407.29379129549807 M558.2514705793928,407.29379129549807 L559.9141715006127,406.4600466862995 M559.9141715006127,406.4600466862995 L561.1763303725463,405.425497884451 M561.1763303725463,405.425497884451 L561.9646568900843,404.2503670730829 M561.9646568900843,404.2503670730829 L562.2334859743481,403.0030231635227 M543.8891240237164,449.8513170571892 L543.8242502154088,403.0030226144021 M562.2576560700343,449.85131760759015 L561.9894243752802,451.10156975203347 M561.9894243752802,451.10156975203347 L561.202844117293,452.27943981727475 M561.202844117293,452.27943981727475 L559.9434795345442,453.31639968110323 M559.9434795345442,453.31639968110323 L558.2844588239685,454.1520870336892 M558.2844588239685,454.1520870336892 L556.3222164231761,454.7378248974354 M556.3222164231761,454.7378248974354 L554.1709009826197,455.0394845522727 M554.1709009826197,455.0394845522727 L551.9557086200389,455.0394848966188 M551.9557086200389,455.0394848966188 L549.8055670867311,454.7378252417614 M549.8055670867311,454.7378252417614 L547.8456031849323,454.15208724026144 M547.8456031849323,454.15208724026144 L546.1898281707697,453.31639968110323 M546.1898281707697,453.31639968110323 L544.9344962071714,452.27943899128513 M544.9344962071714,452.27943899128513 L544.1524933249771,451.10156982085033 M544.1524933249771,451.10156982085033 L543.8891240237164,449.8513170571892 M624.0818476315859,414.7092241953834 L624.1942922901925,367.94294796269367 M624.0818476315859,414.7092241953834 L562.2576560700343,449.85131760759015 M624.1942922901925,367.94294796269367 L562.2334859743481,403.0030231635227 M673.2310902453238,340.1958296448493 L633.3371719884199,362.7695154521806 M633.3371719884199,362.7695154521806 L633.1140270745575,363.9202595241738 M633.1140270745575,363.9202595241738 L632.4421674019163,365.01354278041254 M632.4421674019163,365.01354278041254 L631.3551737914886,365.9944831908092 M631.3551737914886,365.9944831908092 L629.9074771735279,366.8138199738564 M629.9074771735279,366.8138199738564 L628.1716680029383,367.4303836909703 M628.1716680029383,367.4303836909703 L626.2348587811996,367.81317633912727 M626.2348587811996,367.81317633912727 L624.1942922901925,367.94294796269367 M543.8242502154088,403.0030226144021 L512.8597026604668,385.4430682298731 M441.5482261451956,494.2818175610693 L512.8597026604668,385.4430682298731 M633.8731766486782,454.0696509169248 L441.5482261451956,494.2818175610693 M633.8731766486782,454.0696509169248 L602.6007844686114,436.33511824846903 M602.6007844686114,436.33511824846903 L600.390437742079,436.1827010977213 M600.390437742079,436.1827010977213 L598.307865702329,435.7343337532991 M598.307865702329,435.7343337532991 L596.4742434293329,435.01614587052484 M596.4742434293329,435.01614587052484 L594.9962013085383,434.06997692770216 M594.9962013085383,434.06997692770216 L593.9596183372506,432.9509252396754 M593.9596183372506,432.9509252396754 L593.4246259989873,431.7241142209705 M593.4246259989873,431.7241142209705 L593.4221463453149,430.460892303317 M593.4221463453149,430.460892303317 L593.9521305120032,429.23467252312753 M593.9521305120032,429.23467252312753 L594.9836088329847,428.11666826069353 M594.9836088329847,428.11666826069353 L596.4565286943739,427.1717654800356 M596.4565286943739,427.1717654800356 L598.2852615581116,426.4547677221667 M598.2852615581116,426.4547677221667 L600.363601265728,426.00724590914115 M600.363601265728,426.00724590914115 L602.5709001912377,425.8551324084125 M602.5709001912377,425.8551324084125 L713.5667493727175,362.76951109350193 M713.5667493727175,362.76951109350193 L673.2310902453238,340.1958296448493 M512.9928135381928,432.2503497682682 L512.8597026604668,385.4430682298731 M543.8891240237164,449.8513170571892 L512.9928135381928,432.2503497682682 M633.2046474519539,409.52364432170145 L632.981979206239,410.6770913697642 M632.981979206239,410.6770913697642 L632.3115855229114,411.77294210427715 M632.3115855229114,411.77294210427715 L631.226974215651,412.75618572754524 M631.226974215651,412.75618572754524 L629.7824570697436,413.5774459662466 M629.7824570697436,413.5774459662466 L628.050465117241,414.19545692307474 M628.050465117241,414.19545692307474 L626.1179191469116,414.5791480054171 M626.1179191469116,414.5791480054171 L624.0818476315859,414.7092241953834 M673.0111867798271,386.89681996470046 L633.2046474519539,409.52364432170145 M713.2575254375379,409.5236399527837 L673.0111867798271,386.89681996470046 M602.5057382325134,472.75660117211436 L713.2575254375379,409.5236399527837 M602.5057382325134,472.75660117211436 L600.3033296796967,472.9090678703976 M600.3033296796967,472.9090678703976 L598.2295931223881,473.35762874187355 M598.2295931223881,473.35762874187355 L596.4049092902562,474.0762910489984 M596.4049092902562,474.0762910489984 L594.9352493383252,475.02338713459267 M594.9352493383252,475.02338713459267 L593.9060522371251,476.14398600776735 M593.9060522371251,476.14398600776735 L593.3772375461455,477.37305092097915 M593.3772375461455,477.37305092097915 L593.3797062155256,478.6392031484622 M593.3797062155256,478.6392031484622 L593.913506895753,479.86885935629994 M593.913506895753,479.86885935629994 L594.9477860381413,480.99050575534744 M594.9477860381413,480.99050575534744 L596.4225455626308,481.9388681303864 M596.4225455626308,481.9388681303864 L598.2520971509384,482.65872067660837 M598.2520971509384,482.65872067660837 L600.3300472909186,483.1081271639099 M600.3300472909186,483.1081271639099 L602.5354901477721,483.2608975392093 M633.7382832344375,501.03646141110573 L602.5354901477721,483.2608975392093 M633.7382832344375,501.03646141110573 L441.8418129661561,541.3411624059343 M441.8418129661561,541.3411624059343 L512.9928135381928,432.2503497682682 M633.2046474519539,409.52364432170145 L633.3371719884199,362.7695154521806 M673.0111867798271,386.89681996470046 L673.2310902453238,340.1958296448493 M713.2575254375379,409.5236399527837 L713.5667493727175,362.76951109350193 M602.5057382325134,472.75660117211436 L602.5709001912377,425.8551324084125 M602.5354901477721,483.2608975392093 L602.6007844686114,436.33511824846903 M633.7382832344375,501.03646141110573 L633.8731766486782,454.0696509169248 M441.8418129661561,541.3411624059343 L441.5482261451956,494.2818175610693" stroke="black"  stroke-width="4"  fill="red"/>
<path d="M364.9669481942799,421.2863352453462 L365.431240935598,468.4965364088106 M512.726001498592,338.42821840847785 L512.8597026604668,385.4430682298731 M364.9669481942799,421.2863352453462 L512.726001498592,338.42821840847785 M365.431240935598,468.4965364088106 L512.8597026604668,385.4430682298731 M543.759088229429,355.9466221148127 L543.8242502154088,403.0030226144021 M512.726001498592,338.42821840847785 L543.759088229429,355.9466221148127 M512.8597026604668,385.4430682298731 L543.8242502154088,403.0030226144021 M562.2334859743481,403.0030231635227 L561.9646568900843,404.2503670730829 M561.9646568900843,404.2503670730829 L561.1763303725463,405.425497884451 M561.1763303725463,405.425497884451 L559.9141715006127,406.4600466862995 M559.9141715006127,406.4600466862995 L558.2514705793928,407.29379129549807 M558.2514705793928,407.29379129549807 L556.284876018558,407.87816765778814 M556.284876018558,407.87816765778814 L554.1287898850512,408.1791261858097 M554.1287898850512,408.1791261858097 L551.9086863020077,408.17912652935547 M551.9086863020077,408.17912652935547 L549.7537792840066,407.87816800131384 M549.7537792840066,407.87816800131384 L547.7894733327054,407.29379150159014 M547.7894733327054,407.29379150159014 L546.1300325205742,406.4600466862995 M546.1300325205742,406.4600466862995 L544.871924161634,405.4254970603821 M544.871924161634,405.4254970603821 L544.0881953359387,404.25036714173956 M544.0881953359387,404.25036714173956 L543.8242502154088,403.0030226144021 M562.2092085120361,355.94662266263606 L562.2334859743481,403.0030231635227 M543.759088229429,355.9466221148127 L544.0236116923929,357.19102020452686 M544.0236116923929,357.19102020452686 L544.8090740975688,358.36337488156965 M544.8090740975688,358.36337488156965 L546.0699711610976,359.39548175909715 M546.0699711610976,359.39548175909715 L547.7330940403725,360.22725829586443 M547.7330940403725,360.22725829586443 L549.7017613240772,360.81025539638034 M549.7017613240772,360.81025539638034 L551.8614549995867,361.1105035802725 M551.8614549995867,361.1105035802725 L554.0864916303541,361.11050323753756 M554.0864916303541,361.11050323753756 L556.2473696643781,360.8102550536655 M556.2473696643781,360.8102550536655 L558.2183357356209,360.22725809025894 M558.2183357356209,360.22725809025894 L559.8847332328498,359.39548175909715 M559.8847332328498,359.39548175909715 L561.1496988226004,358.36337570369244 M561.1496988226004,358.36337570369244 L561.939779371217,357.1910201360323 M561.939779371217,357.1910201360323 L562.2092085120361,355.94662266263606 M562.2334859743481,403.0030231635227 L673.2310902453238,340.1958296448493 M673.4519645747092,293.28865655764037 L673.2310902453238,340.1958296448493 M562.2092085120361,355.94662266263606 L673.4519645747092,293.28865655764037 M713.8773415374415,315.8085082727961 L713.5667493727175,362.76951109350193 M673.4519645747092,293.28865655764037 L713.8773415374415,315.8085082727961 M673.2310902453238,340.1958296448493 L713.5667493727175,362.76951109350193 M673.8966435930823,338.428220592282 L673.6738083375067,385.4430704188652 M713.8773415374415,315.8085082727961 L673.8966435930823,338.428220592282 M713.5667493727175,362.76951109350193 L673.6738083375067,385.4430704188652 M664.7337657544693,343.6122636776844 L664.531097845871,390.6394230403418 M673.8966435930823,338.428220592282 L671.8486424733373,338.5581302037178 M671.8486424733373,338.5581302037178 L669.9057414114436,338.94136826677794 M669.9057414114436,338.94136826677794 L668.1652579435333,339.5587656204823 M668.1652579435333,339.5587656204823 L666.7143922965132,340.3794463127446 M666.7143922965132,340.3794463127446 L665.6258951062679,341.36234593380783 M665.6258951062679,341.36234593380783 L664.9544216598524,342.4582522919677 M664.9544216598524,342.4582522919677 L664.7337657544693,343.6122636776844 M673.6738083375067,385.4430704188652 L671.6303349713743,385.57328864370504 M671.6303349713743,385.57328864370504 L669.6917239828558,385.9574370848471 M669.6917239828558,385.9574370848471 L667.9550782870373,386.57630092564904 M667.9550782870373,386.57630092564904 L666.5074059785464,387.3989307024408 M666.5074059785464,387.3989307024408 L665.4212975666666,388.3841642872062 M665.4212975666666,388.3841642872062 L664.75128824249,389.4826724574026 M664.75128824249,389.4826724574026 L664.531097845871,390.6394230403418 M602.6363522518576,378.7448576901264 L602.5709001912377,425.8551324084125 M664.7337657544693,343.6122636776844 L602.6363522518576,378.7448576901264 M664.531097845871,390.6394230403418 L602.5709001912377,425.8551324084125 M602.6007844686114,436.33511824846903 L600.390437742079,436.1827010977213 M600.390437742079,436.1827010977213 L598.307865702329,435.7343337532991 M598.307865702329,435.7343337532991 L596.4742434293329,435.01614587052484 M596.4742434293329,435.01614587052484 L594.9962013085383,434.06997692770216 M594.9962013085383,434.06997692770216 L593.9596183372506,432.9509252396754 M593.9596183372506,432.9509252396754 L593.4246259989873,431.7241142209705 M593.4246259989873,431.7241142209705 L593.4221463453149,430.460892303317 M593.4221463453149,430.460892303317 L593.9521305120032,429.23467252312753 M593.9521305120032,429.23467252312753 L594.9836088329847,428.11666826069353 M594.9836088329847,428.11666826069353 L596.4565286943739,427.1717654800356 M596.4565286943739,427.1717654800356 L598.2852615581116,426.4547677221667 M598.2852615581116,426.4547677221667 L600.363601265728,426.00724590914115 M600.363601265728,426.00724590914115 L602.5709001912377,425.8551324084125 M602.6663697766674,389.2002120118761 L602.6007844686114,436.33511824846903 M602.6363522518576,378.7448576901264 L600.4241411856178,378.89661333429626 M600.4241411856178,378.89661333429626 L598.3411778448833,379.34308238194865 M598.3411778448833,379.34308238194865 L596.5083779381596,380.0583936299525 M596.5083779381596,380.0583936299525 L595.0321836720647,381.0010741645843 M595.0321836720647,381.0010741645843 L593.9984139953368,382.1164495732103 M593.9984139953368,382.1164495732103 L593.4672551685328,383.33978666266336 M593.4672551685328,383.33978666266336 L593.4697458799708,384.60003957928654 M593.4697458799708,384.60003957928654 L594.0059352090469,385.8239678327387 M594.0059352090469,385.8239678327387 L595.0448322964227,386.94039053407016 M595.0448322964227,386.94039053407016 L596.5261716605127,387.88433706417095 M596.5261716605127,387.88433706417095 L598.3638827744005,388.6008382858391 M598.3638827744005,388.6008382858391 L600.4510973221475,389.04815275413756 M600.4510973221475,389.04815275413756 L602.6663697766674,389.2002120118761 M634.0086722567534,406.89317026300006 L633.8731766486782,454.0696509169248 M602.6663697766674,389.2002120118761 L634.0086722567534,406.89317026300006 M602.6007844686114,436.33511824846903 L633.8731766486782,454.0696509169248 M486.24162334039806,490.8691526357277 L486.4367726718875,538.2411063120376 M634.0086722567534,406.89317026300006 L486.24162334039806,490.8691526357277 M633.8731766486782,454.0696509169248 L486.4367726718875,538.2411063120376 M365.431240935598,468.4965364088106 L351.0650074570201,465.8868121089954 M351.0650074570201,465.8868121089954 L336.38906676093615,463.9011885678679 M336.38906676093615,463.9011885678679 L321.48349830483323,462.5501159841633 M321.48349830483323,462.5501159841633 L306.4294749899642,461.84071800813797 M306.4294749899642,461.84071800813797 L291.3089960273886,461.7766986511617 M291.3089960273886,461.7766986511617 L276.20428306963254,462.358407236324 M276.20428306963254,462.358407236324 L261.1975547085375,463.5827901697381 M261.1975547085375,463.5827901697381 L246.3705177867825,465.4434072647675 M246.3705177867825,465.4434072647675 L231.80406683076012,467.9304549656278 M231.80406683076012,467.9304549656278 L217.57776700357823,471.03084123243497 M217.57776700357823,471.03084123243497 L203.7695442183256,474.72819685862913 M203.7695442183256,474.72819685862913 L190.45524056003129,479.0029705039334 M190.45524056003129,479.0029705039334 L177.7083029567262,483.8324924294325 M177.7083029567262,483.8324924294325 L165.59930424625094,489.19108782526064 M165.59930424625094,489.19108782526064 L154.19568795023585,495.0501961001963 M154.19568795023585,495.0501961001963 L143.5612523361968,501.37847015407664 M143.5612523361968,501.37847015407664 L133.75599787343037,508.14189217861315 M133.75599787343037,508.14189217861315 L124.8355632656972,515.3040775781698 M124.8355632656972,515.3040775781698 L116.85111919368569,522.826212288558 M116.85111919368569,522.826212288558 L109.84893411188642,530.6674311790612 M109.84893411188642,530.6674311790612 L103.87005837762752,538.784907855422 M103.87005837762752,538.784907855422 L98.95017092988013,547.134123394026 M98.95017092988013,547.134123394026 L95.11927094484508,555.6690542929416 M95.11927094484508,555.6690542929416 L92.40142812119086,564.3424425373654 M92.40142812119086,564.3424425373654 L90.81465513881699,573.1059994784057 M90.81465513881699,573.1059994784057 L90.37071605141534,581.910693241246 M90.37071605141534,581.910693241246 L91.07501854117913,590.7070207495476 M91.07501854117913,590.7070207495476 L92.92643323177873,599.4452826051495 M92.92643323177873,599.4452826051495 L95.9173578817938,608.0758608788558 M95.9173578817938,608.0758608788558 L100.03365107404903,616.549463104378 M100.03365107404903,616.549463104378 L105.25457415703534,624.8175266727094 M105.25457415703534,624.8175266727094 L111.55297886518713,632.8323969992656 M111.55297886518713,632.8323969992656 L118.89529800860367,640.5476914373895 M118.89529800860367,640.5476914373895 L127.24180893929793,647.9185244478722 M127.24180893929793,647.9185244478722 L136.54665457840218,654.9018892241016 M136.54665457840218,654.9018892241016 L146.75826240773213,661.4568201042796 M146.75826240773213,661.4568201042796 L157.8194350236397,667.5447707529198 M157.8194350236397,667.5447707529198 L169.66783644603714,673.1297682020362 M169.66783644603714,673.1297682020362 L182.2361659585958,678.1787521085578 M182.2361659585958,678.1787521085578 L195.4527435982285,682.6616962097819 M195.4527435982285,682.6616962097819 L209.241732870939,686.551921203943 M209.241732870939,686.551921203943 L223.52377020386012,689.8261848478991 M223.52377020386012,689.8261848478991 L238.21633756728767,692.464911760655 M238.21633756728767,692.464911760655 L253.23440155402122,694.452267651683 M253.23440155402122,694.452267651683 L268.49074430967494,695.776342733089 M268.49074430967494,695.776342733089 L283.89671271005113,696.4291941126974 M283.89671271005113,696.4291941126974 L299.3627054108856,696.4068742293846 M299.3627054108856,696.4068742293846 L314.79873280695176,695.7095310199395 M314.79873280695176,695.7095310199395 L330.1149901816121,694.3413565549573 M330.1149901816121,694.3413565549573 L345.2224366909288,692.3105700265842 M345.2224366909288,692.3105700265842 L360.03341248991455,689.6293423708 M360.03341248991455,689.6293423708 L374.46211462450935,686.3137464912406 M374.46211462450935,686.3137464912406 L388.4251954439283,682.3836268055127 M388.4251954439283,682.3836268055127 L401.842217577587,677.8624214797917 M401.842217577587,677.8624214797917 L414.63624885055503,672.7770679353284 M414.63624885055503,672.7770679353284 L426.7341373794608,667.1577977892262 M426.7341373794608,667.1577977892262 L438.06729288851693,661.0378597980376 M438.06729288851693,661.0378597980376 L448.5716725787046,654.4534167808035 M448.5716725787046,654.4534167808035 L458.1884103718453,647.4431740341172 M458.1884103718453,647.4431740341172 L466.86409555236446,640.0482392461416 M466.86409555236446,640.0482392461416 L474.55100959442655,632.3117628406876 M474.55100959442655,632.3117628406876 L481.20738085667665,624.2787286438569 M481.20738085667665,624.2787286438569 L486.79761331006557,615.9956105154148 M486.79761331006557,615.9956105154148 L491.2924088946961,607.5101257232909 M491.2924088946961,607.5101257232909 L494.66892919873965,598.8709114243734 M494.66892919873965,598.8709114243734 L496.9107908218315,590.1272806264218 M496.9107908218315,590.1272806264218 L498.00815887694046,581.3288617507569 M498.00815887694046,581.3288617507569 L497.9577327267091,572.5253686611484 M497.9577327267091,572.5253686611484 L496.76270689822957,563.7662552058779 M496.76270689822957,563.7662552058779 L494.432604577244,555.1005407309801 M494.432604577244,555.1005407309801 L490.98330355247435,546.5764251753143 M490.98330355247435,546.5764251753143 L486.4367726718875,538.2411063120376 M486.24162334039806,490.8691526357277 L490.79823629741304,499.1852802670367 M490.79823629741304,499.1852802670367 L494.25515971751486,507.6898008528657 M494.25515971751486,507.6898008528657 L496.5903703314293,516.3356269330798 M496.5903703314293,516.3356269330798 L497.78794920956636,525.0746705042541 M497.78794920956636,525.0746705042541 L497.8383460659985,533.8580253174816 M497.8383460659985,533.8580253174816 L496.73835342737925,542.636350875083 M496.73835342737925,542.636350875083 L494.49127369501275,551.3600465074842 M494.49127369501275,551.3600465074842 L491.1069584973145,559.9795960469539 M491.1069584973145,559.9795960469539 L486.60182316340934,568.4457972951279 M486.60182316340934,568.4457972951279 L480.99875317726094,576.7101216763934 M480.99875317726094,576.7101216763934 L474.3271089829085,584.7249577731243 M474.3271089829085,584.7249577731243 L466.6225640800013,592.4439341764217 M466.6225640800013,592.4439341764217 L457.9269825124742,599.8221656310311 M457.9269825124742,599.8221656310311 L448.2881897195422,606.8165957164608 M448.2881897195422,606.8165957164608 L437.75971733776225,613.3862058055784 M437.75971733776225,613.3862058055784 L426.40056587928484,619.4923740141943 M426.40056587928484,619.4923740141943 L414.2749254768618,625.0990150804577 M414.2749254768618,625.0990150804577 L401.4515451896692,630.1729512244126 M401.4515451896692,630.1729512244126 L388.0037471275855,634.6840151029928 M388.0037471275855,634.6840151029928 L374.00864327984766,638.6053263500448 M374.00864327984766,638.6053263500448 L359.546859690452,641.9134962753344 M359.546859690452,641.9134962753344 L344.70194006258873,644.5887222368791 M344.70194006258873,644.5887222368791 L329.5598895934579,646.6149650875857 M329.5598895934579,646.6149650875857 L314.208575027292,647.9800794033163 M314.208575027292,647.9800794033163 L298.7372474961267,648.6758631991493 M298.7372474961267,648.6758631991493 L283.2359237905232,648.6981331737269 M283.2359237905232,648.6981331737269 L267.79480585546975,648.0467417016291 M267.79480585546975,648.0467417016291 L252.5037061295436,646.7256280832053 M252.5037061295436,646.7256280832053 L237.45148611721584,644.7427185846941 M237.45148611721584,644.7427185846941 L222.725568040514,642.1098980323977 M222.725568040514,642.1098980323977 L208.4111837774351,638.8429674639708 M208.4111837774351,638.8429674639708 L194.59104303007135,634.9614610614044 M194.59104303007135,634.9614610614044 L181.34469265301337,630.4885720102791 M181.34469265301337,630.4885720102791 L168.74814308390532,625.4509231213599 M168.74814308390532,625.4509231213599 L156.87323737387817,619.878476835924 M156.87323737387817,619.878476835924 L145.78742792981413,613.8042229420801 M145.78742792981413,613.8042229420801 L135.55318967004712,607.2640572828129 M135.55318967004712,607.2640572828129 L126.22784581776983,600.2964431511546 M126.22784581776983,600.2964431511546 L117.86308052792964,592.9422574867 M117.86308052792964,592.9422574867 L110.50484822071274,585.2444134419544 M110.50484822071274,585.2444134419544 L104.19295373777811,577.2476982382906 M104.19295373777811,577.2476982382906 L98.96103141428767,568.9983923139812 M98.96103141428767,568.9983923139812 L94.83628116838565,560.5440445858405 M94.83628116838565,560.5440445858405 L91.8394780193143,551.9331092950646 M91.8394780193143,551.9331092950646 L89.98478422482856,543.2147681922186 M89.98478422482856,543.2147681922186 L89.2798076888053,534.4385270254877 M89.2798076888053,534.4385270254877 L89.72566862924839,525.653972081489 M89.72566862924839,525.653972081489 L91.3169354534316,516.9104930228123 M91.3169354534316,516.9104930228123 L94.04180606489456,508.2570086468379 M94.04180606489456,508.2570086468379 L97.8822160573178,499.74169550980696 M97.8822160573178,499.74169550980696 L102.81403095117696,491.4117012184235 M102.81403095117696,491.4117012184235 L108.80717419765665,483.3129410733485 M108.80717419765665,483.3129410733485 L115.82587762121625,475.48982869128525 M115.82587762121625,475.48982869128525 L123.82899059508412,467.9850885637348 M123.82899059508412,467.9850885637348 L132.77013383100075,460.83948802884294 M132.77013383100075,460.83948802884294 L142.59801604292943,454.09174776811636 M142.59801604292943,454.09174776811636 L153.25686920995201,447.7781643782258 M153.25686920995201,447.7781643782258 L164.68655509038342,441.9326730069879 M164.68655509038342,441.9326730069879 L176.82313048017423,436.5865442383222 M176.82313048017423,436.5865442383222 L189.59900008213987,431.76826866018524 M189.59900008213987,431.76826866018524 L202.94343355673254,427.5034579189134 M202.94343355673254,427.5034579189134 L216.7828212552405,423.8147257977172 M216.7828212552405,423.8147257977172 L231.04115413797965,420.7215752363309 M231.04115413797965,420.7215752363309 L245.640335689519,418.240334818925 M245.640335689519,418.240334818925 L260.5006273659789,416.3840640269674 M260.5006273659789,416.3840640269674 L275.5409590295418,415.1625420006517 M275.5409590295418,415.1625420006517 L290.679446999292,414.5821928686229 M290.679446999292,414.5821928686229 L305.8336951267198,414.6460626052067 M305.8336951267198,414.6460626052067 L320.92130445247506,415.35380275701874 M320.92130445247506,415.35380275701874 L335.86009903968943,416.70171855755166 M335.86009903968943,416.70171855755166 L350.56873102733107,418.68270411288864 M350.56873102733107,418.68270411288864 L364.9669481942799,421.2863352453462 M314.6772446237304,518.4646901268363 L310.29206928213796,516.3798978977081 M310.29206928213796,516.3798978977081 L305.26984517132723,514.8313035262711 M305.26984517132723,514.8313035262711 L299.803031037362,513.8779059999943 M299.803031037362,513.8779059999943 L294.1008227037031,513.5560252600633 M294.1008227037031,513.5560252600633 L288.3813266007139,513.8779161672469 M288.3813266007139,513.8779161672469 L282.86334328732266,514.831307763403 M282.86334328732266,514.831307763403 L277.75802290192956,516.379906091936 M277.75802290192956,516.379906091936 L273.2609781535979,518.4646901268363 M273.2609781535979,518.4646901268363 L269.5447624912225,521.0061563077851 M269.5447624912225,521.0061563077851 L266.75242529664695,523.9071977809774 M266.75242529664695,523.9071977809774 L264.99182318681,527.0568396946004 M264.99182318681,527.0568396946004 L264.3314725723836,530.3343825610614 M264.3314725723836,530.3343825610614 L264.79779241145786,533.6139812329542 M264.79779241145786,533.6139812329542 L266.37386118537324,536.7695061390797 M266.37386118537324,536.7695061390797 L269.0000181618954,539.6793483420137 M269.0000181618954,539.6793483420137 L272.57596673855005,542.2311684324666 M272.57596673855005,542.2311684324666 L276.96444802209345,544.326344924734 M276.96444802209345,544.326344924734 L281.99668939327546,545.8837349237965 M281.99668939327546,545.8837349237965 L287.4787069582144,546.8430004538957 M287.4787069582144,546.8430004538957 L293.19894459327344,547.1669540348171 M293.19894459327344,547.1669540348171 L298.9365807935284,546.843008411967 M298.9365807935284,546.843008411967 L304.4700668640579,545.8837397545942 M304.4700668640579,545.8837397545942 L309.58587649155334,544.3263457769731 M309.58587649155334,544.3263457769731 L314.0868321928084,542.2311684324666 M314.0868321928084,542.2311684324666 L317.7996936404601,539.6793452199203 M317.7996936404601,539.6793452199203 L320.58201359115384,536.7695081247576 M320.58201359115384,536.7695081247576 L322.3274283527852,533.6139891708576 M322.3274283527852,533.6139891708576 L322.9697496648878,530.3343734948812 M322.9697496648878,530.3343734948812 L322.4852898165924,527.0568295015648 M322.4852898165924,527.0568295015648 L320.8937022385073,523.9071907067616 M320.8937022385073,523.9071907067616 L318.2570559673603,521.0061441469143 M318.2570559673603,521.0061441469143 L314.6772446237304,518.4646901268363 M314.6772446237304,518.4646901268363 L315.25910823869845,565.9002110081439 M315.25910823869845,565.9002110081439 L318.83100115637285,568.447502741168 M318.83100115637285,568.447502741168 L321.46186878207027,571.3552095734594 M321.46186878207027,571.3552095734594 L323.05004220384757,574.512075230718 M323.05004220384757,574.512075230718 L323.5335876224119,577.7971349979507 M323.5335876224119,577.7971349979507 L322.8928914089797,581.0842665354585 M322.8928914089797,581.0842665354585 L321.1515833735851,584.247012556666 M321.1515833735851,584.247012556666 L318.3756978920911,587.1635102084457 M318.3756978920911,587.1635102084457 L314.6713539099553,589.7211714692507 M314.6713539099553,589.7211714692507 L310.18067228482147,591.8211400387728 M310.18067228482147,591.8211400387728 L305.0764973791945,593.3820942117757 M305.0764973791945,593.3820942117757 L299.5555568804006,594.3435552293697 M299.5555568804006,594.3435552293697 L293.83089099151834,594.6682411234967 M293.83089099151834,594.6682411234967 L288.123545243955,594.3435472531123 M288.123545243955,594.3435472531123 L282.6538411553837,593.3820893699365 M282.6538411553837,593.3820893699365 L277.63285772127875,591.821139184585 M277.63285772127875,591.821139184585 L273.2541435986876,589.7211714692506 M273.2541435986876,589.7211714692506 L269.68609539716743,587.1635133376836 M269.68609539716743,587.1635133376836 L267.06566931261614,584.2470105664416 M267.06566931261614,584.2470105664416 L265.49294450945786,581.0842585793694 M265.49294450945786,581.0842585793694 L265.0274572720847,577.7971440849142 M265.0274572720847,577.7971440849142 L265.68610170668745,574.5120854471345 M265.68610170668745,574.5120854471345 L267.44252906898373,571.3552166639118 M267.44252906898373,571.3552166639118 L270.2283872250478,568.4475149299656 M270.2283872250478,568.4475149299656 L273.936071016449,565.9002110081439 M273.936071016449,565.9002110081439 L278.42285984953276,563.8106361387006 M278.42285984953276,563.8106361387006 L283.5165932662222,562.2584779105375 M283.5165932662222,562.2584779105375 L289.02210115683295,561.3028941517565 M289.02210115683295,561.3028941517565 L294.7287087770742,560.9802630218967 M294.7287087770742,560.9802630218967 L300.41810630457815,561.3028839611238 M300.41810630457815,561.3028839611238 L305.8726750203972,562.2584736636638 M305.8726750203972,562.2584736636638 L310.8836857634327,563.8106279256386 M310.8836857634327,563.8106279256386 L315.25910823869845,565.9002110081439" stroke="black"  stroke-width="4"  fill="red"/>
<path d="M562.3056770393957,542.9291664235539 L562.2817195282668,496.4929193315155 M543.9537116114889,496.49291877985064 L544.2165075997312,497.7460419998509 M544.2165075997312,497.7460419998509 L544.996792122743,498.92661482925024 M544.996792122743,498.92661482925024 L546.2493599168014,499.96595524801324 M546.2493599168014,499.96595524801324 L547.9014852917744,500.8035602981045 M547.9014852917744,500.8035602981045 L549.8571262960456,501.3906421014253 M549.8571262960456,501.3906421014253 L552.0025233736565,501.6929937674717 M552.0025233736565,501.6929937674717 L554.2128261947271,501.6929934223357 M554.2128261947271,501.6929934223357 L556.3593920057713,501.3906417563095 M556.3593920057713,501.3906417563095 L558.3173014653576,500.80356009105833 M558.3173014653576,500.80356009105833 L559.9726582193981,499.96595524801324 M559.9726582193981,499.96595524801324 L561.2292408570838,498.9266156571356 M561.2292408570838,498.9266156571356 L562.014082574176,497.7460419308762 M562.014082574176,497.7460419308762 L562.2817195282668,496.4929193315155 M544.018014831662,542.9291658706416 L543.9537116114889,496.49291877985064 M562.3056770393957,542.9291664235539 L562.0386321943583,544.1851221101188 M562.0386321943583,544.1851221101188 L561.2555213495704,545.3683642929832 M561.2555213495704,545.3683642929832 L560.001708392846,546.4100526179964 M560.001708392846,546.4100526179964 L558.3499994465728,547.2495499742346 M558.3499994465728,547.2495499742346 L556.3964038338912,547.8379579342687 M556.3964038338912,547.8379579342687 L554.2545667253851,548.1409925953772 M554.2545667253851,548.1409925953772 L552.0491319072904,548.1409929412928 M552.0491319072904,548.1409929412928 L549.9084583925439,547.8379582801642 M549.9084583925439,547.8379582801642 L547.957121257778,547.2495501817484 M547.957121257778,547.2495501817484 L546.3086294677262,546.4100526179964 M546.3086294677262,546.4100526179964 L545.0588136963952,545.3683634632268 M545.0588136963952,545.3683634632268 L544.2802399971421,544.1851221792493 M544.2802399971421,544.1851221792493 L544.018014831662,542.9291658706416 M623.8584383790743,507.6262106076582 L623.9698973910442,461.26986956846804 M623.8584383790743,507.6262106076582 L562.3056770393957,542.9291664235539 M623.9698973910442,461.26986956846804 L562.2817195282668,496.4929193315155 M633.0727053318717,456.07229900970634 L632.8505117243258,457.22841418362066 M632.8505117243258,457.22841418362066 L632.1815776478393,458.32679928627067 M632.1815776478393,458.32679928627067 L631.0993382254513,459.3123164144855 M631.0993382254513,459.3123164144855 L629.6579866178666,460.13547529503694 M629.6579866178666,460.13547529503694 L627.9297951329248,460.7549148187629 M627.9297951329248,460.7549148187629 L626.0014936885741,461.1394927422833 M626.0014936885741,461.1394927422833 L623.9698973910442,461.26986956846804 M672.7922476226829,433.393019719162 L633.0727053318717,456.07229900970634 M712.9496604739936,456.07229463068137 L672.7922476226829,433.393019719162 M602.440864401346,519.4506850464065 L712.9496604739936,456.07229463068137 M602.4704848318836,529.978974500455 L600.2699241353297,529.8258555173833 M600.2699241353297,529.8258555173833 L598.1965754273472,529.3754234684297 M598.1965754273472,529.3754234684297 L596.3710764913053,528.6539280129371 M596.3710764913053,528.6539280129371 L594.8995850160239,527.7034008654455 M594.8995850160239,527.7034008654455 L593.8675994855537,526.5791936517503 M593.8675994855537,526.5791936517503 L593.3349851670549,525.34672941513 M593.3349851670549,525.34672941513 L593.3325274091518,524.0776851409705 M593.3325274091518,524.0776851409705 L593.8601777736883,522.8458122370013 M593.8601777736883,522.8458122370013 L594.8871037222185,521.7226526174197 M594.8871037222185,521.7226526174197 L596.3535181614042,520.7733918479238 M596.3535181614042,520.7733918479238 L598.1741708508267,520.0530867093155 M598.1741708508267,520.0530867093155 L600.2433246013061,519.6035003347533 M600.2433246013061,519.6035003347533 L602.440864401346,519.4506850464065 M633.6039879051019,547.795032381173 L602.4704848318836,529.978974500455 M633.6039879051019,547.795032381173 L442.13409305407504,588.1910496170145 M442.13409305407504,588.1910496170145 L513.1253381341782,478.8514704356511 M543.9537116114889,496.49291877985064 L513.1253381341782,478.8514704356511 M513.2572802372016,525.2477625231077 L513.1253381341782,478.8514704356511 M544.018014831662,542.9291658706416 L513.2572802372016,525.2477625231077 M632.9413418729617,502.41680433983487 L632.7196208862607,503.5755531678889 M632.7196208862607,503.5755531678889 L632.0521400748911,504.67643988819333 M632.0521400748911,504.67643988819333 L630.9722621859097,505.6642011361677 M630.9722621859097,505.6642011361677 L629.5340622724934,506.4892341143623 M629.5340622724934,506.4892341143623 L627.8096546124181,507.11008373506365 M627.8096546124181,507.11008373506365 L625.8855790892787,507.49553703272846 M625.8855790892787,507.49553703272846 L623.8584383790743,507.6262106076582 M672.5742665705355,479.68574631740256 L632.9413418729617,502.41680433983487 M712.6431457199238,502.41679995083337 L672.5742665705355,479.68574631740256 M602.3762768281725,565.9387296819341 L712.6431457199238,502.41679995083337 M602.3762768281725,565.9387296819341 L600.1835843012511,566.0918890032608 M600.1835843012511,566.0918890032608 L598.1189931460552,566.542487473849 M598.1189931460552,566.542487473849 L596.3023538264208,567.2644139637894 M596.3023538264208,567.2644139637894 L594.8391705965647,568.2158111093356 M594.8391705965647,568.2158111093356 L593.814505798781,569.3414979815914 M593.814505798781,569.3414979815914 L593.288014644687,570.5761421405826 M593.288014644687,570.5761421405826 L593.2904615632926,571.8480406171234 M593.2904615632926,571.8480406171234 L593.8218947818211,573.083276129021 M593.8218947818211,573.083276129021 L594.8515968508569,574.2100106321508 M594.8515968508569,574.2100106321508 L596.3198347294173,575.162674206189 M596.3198347294173,575.162674206189 L598.1412989283875,575.8857910550319 M598.1412989283875,575.8857910550319 L600.2100665391266,576.3372352331648 M600.2100665391266,576.3372352331648 L602.4057666437212,576.4906982577987 M633.4702867689293,594.3467188428956 L602.4057666437212,576.4906982577987 M633.4702867689293,594.3467188428956 L442.4250749460273,634.8328476111672 M442.4250749460273,634.8328476111672 L513.2572802372016,525.2477625231077 M632.9413418729617,502.41680433983487 L633.0727053318717,456.07229900970634 M672.5742665705355,479.68574631740256 L672.7922476226829,433.393019719162 M712.6431457199238,502.41679995083337 L712.9496604739936,456.07229463068137 M602.3762768281725,565.9387296819341 L602.440864401346,519.4506850464065 M602.4057666437212,576.4906982577987 L602.4704848318836,529.978974500455 M633.4702867689293,594.3467188428956 L633.6039879051019,547.795032381173 M442.4250749460273,634.8328476111672 L442.13409305407504,588.1910496170145" stroke="black"  stroke-width="4"  fill="red"/>
<path d="M602.768134386154,283.8923428743756 L602.702096330612,331.42439777043114 M602.7322479960401,341.85479601529437 L600.5120278106632,341.70309937093646 M600.5120278106632,341.70309937093646 L598.4201500103525,341.25685166471584 M598.4201500103525,341.25685166471584 L596.578331779213,340.54205934640447 M596.578331779213,340.54205934640447 L595.0936804278647,339.6003645317331 M595.0936804278647,339.6003645317331 L594.0524588690537,338.4866054737993 M594.0524588690537,338.4866054737993 L593.5150671809755,337.26559797937966 M593.5150671809755,337.26559797937966 L593.5125653376464,336.0083531849789 M593.5125653376464,336.0083531849789 L594.0449040430675,334.78793676131016 M594.0449040430675,334.78793676131016 L595.0809752783227,333.6752248300095 M595.0809752783227,333.6752248300095 L596.5604585399958,332.7347958039985 M596.5604585399958,332.7347958039985 L598.3973436199564,332.02119327040407 M598.3973436199564,332.02119327040407 L600.4849512118456,331.5757908472922 M600.4849512118456,331.5757908472922 L602.702096330612,331.42439777043114 M602.7984210933835,294.2974568623523 L602.7322479960401,341.85479601529437 M602.768134386154,283.8923428743756 L600.546033156122,284.04336862064605 M600.546033156122,284.04336862064605 L598.4537605568216,284.4876904054976 M598.4537605568216,284.4876904054976 L596.6127720518699,285.19956177250316 M596.6127720518699,285.19956177250316 L595.1299851060021,286.13770970091787 M595.1299851060021,286.13770970091787 L594.0916020411416,287.2477231451559 M594.0916020411416,287.2477231451559 L593.5580782037499,288.4651805043286 M593.5580782037499,288.4651805043286 L593.56059125376,289.71937761880133 M593.56059125376,289.71937761880133 L594.0991907052221,290.93742593641343 M594.0991907052221,290.93742593641343 L595.1427471604791,292.0484863074398 M595.1427471604791,292.0484863074398 L596.6307253421639,292.987899776884 M596.6307253421639,292.987899776884 L598.476669089727,293.7009607012865 M598.476669089727,293.7009607012865 L600.5732310265222,294.14612760444766 M600.5732310265222,294.14612760444766 L602.7984210933835,294.2974568623523 M665.1418109341121,248.9292631822762 L664.9373347761307,296.3760096048347 M665.1418109341121,248.9292631822762 L602.768134386154,283.8923428743756 M664.9373347761307,296.3760096048347 L602.702096330612,331.42439777043114 M714.1893109124201,268.63927362271886 L674.1204691276965,291.20443694970197 M674.1204691276965,291.20443694970197 L672.0679201453723,291.33403391585233 M672.0679201453723,291.33403391585233 L670.1207099805166,291.7163497066193 M670.1207099805166,291.7163497066193 L668.3763717411348,292.33226141157934 M668.3763717411348,292.33226141157934 L666.9222986368203,293.15096754844114 M666.9222986368203,293.15096754844114 L665.8314021380522,294.1315027001274 M665.8314021380522,294.1315027001274 L665.1584581579399,295.2247732330824 M665.1584581579399,295.2247732330824 L664.9373347761307,296.3760096048347 M602.7322479960401,341.85479601529437 L634.144774047612,359.50563058827174 M440.9570965216865,399.52901936083344 L634.144774047612,359.50563058827174 M512.5917061692564,291.2044347711534 L440.9570965216865,399.52901936083344 M512.5917061692564,291.2044347711534 L543.6936361665967,308.6807440747124 M543.6936361665967,308.6807440747124 L543.9587405115523,309.92215710231835 M543.9587405115523,309.92215710231835 L544.7459441823027,311.0917001492105 M544.7459441823027,311.0917001492105 L546.0096423406262,312.12133224277 M546.0096423406262,312.12133224277 L547.676463663339,312.9511146833838 M547.676463663339,312.9511146833838 L549.6495116893944,313.53271428890486 M549.6495116893944,313.53271428890486 L551.8140133347895,313.8322428091536 M551.8140133347895,313.8322428091536 L554.0440049844647,313.8322424672401 M554.0440049844647,313.8322424672401 L556.2096962664433,313.5327139470115 M556.2096962664433,313.5327139470115 L558.1850533261032,312.9511144782713 M558.1850533261032,312.9511144782713 L559.8551638726767,312.12133224277 M559.8551638726767,312.12133224277 L561.1229486908942,311.0917009693621 M561.1229486908942,311.0917009693621 L561.914791093432,309.9221570339881 M561.914791093432,309.9221570339881 L562.1848229755186,308.68074462122144 M562.1848229755186,308.68074462122144 L673.6738161260143,246.17395044535465 M673.6738161260143,246.17395044535465 L714.1893109124201,268.63927362271886 M634.2814860983023,311.90561235768115 L634.144774047612,359.50563058827174 M602.7984210933835,294.2974568623523 L634.2814860983023,311.90561235768115 M714.5026666781291,221.26041907106944 L674.3452915572444,243.77032363790187 M674.3452915572444,243.77032363790187 L672.2881744691118,243.89960388213564 M672.2881744691118,243.89960388213564 L670.3366360448116,244.28098537438024 M670.3366360448116,244.28098537438024 L668.5884259213813,244.89539205625502 M668.5884259213813,244.89539205625502 L667.1311311471674,245.71209788409513 M667.1311311471674,245.71209788409513 L666.0378247399418,246.6902377220527 M666.0378247399418,246.6902377220527 L665.363403772478,247.78083803897124 M665.363403772478,247.78083803897124 L665.1418109341121,248.9292631822762 M440.65953602556135,351.83272988317606 L634.2814860983023,311.90561235768115 M512.4568127029227,243.7703214646777 L440.65953602556135,351.83272988317606 M512.4568127029227,243.7703214646777 L543.6278920856196,261.2039865999499 M562.1603286415268,261.2039871451276 L561.8896913154024,262.44237544320094 M561.8896913154024,262.44237544320094 L561.0960791836504,263.6090709529237 M561.0960791836504,263.6090709529237 L559.8254625424821,264.63619505237324 M559.8254625424821,264.63619505237324 L558.1516223628653,265.463957087327 M558.1516223628653,265.463957087327 L556.1718547063073,266.0441407642561 M556.1718547063073,266.0441407642561 L554.0013286859675,266.3429401976391 M554.0013286859675,266.3429401976391 L551.7663598990873,266.3429405387203 M551.7663598990873,266.3429405387203 L549.5970288287734,266.0441411053173 M549.5970288287734,266.0441411053173 L547.6195805205563,265.46395729194023 M547.6195805205563,265.46395729194023 L545.9490442686158,264.63619505237324 M545.9490442686158,264.63619505237324 L544.6825325425332,263.6090701347696 M544.6825325425332,263.6090701347696 L543.8935798688857,262.44237551136473 M543.8935798688857,262.44237551136473 L543.6278920856196,261.2039865999499 M673.8966513989529,198.8503309611442 L562.1603286415268,261.2039871451276 M673.8966513989529,198.8503309611442 L714.5026666781291,221.26041907106944 M674.3452915572444,243.77032363790187 L674.1204691276965,291.20443694970197 M714.5026666781291,221.26041907106944 L714.1893109124201,268.63927362271886 M673.8966513989529,198.8503309611442 L673.6738161260143,246.17395044535465 M562.1603286415268,261.2039871451276 L562.1848229755186,308.68074462122144 M543.6278920856196,261.2039865999499 L543.6936361665967,308.6807440747124 M512.4568127029227,243.7703214646777 L512.5917061692564,291.2044347711534 M440.65953602556135,351.83272988317606 L440.9570965216865,399.52901936083344" stroke="black"  stroke-width="4"  fill="red"/>
<path d="M562.1603286415268,261.2039871451276 L562.1357247993266,213.51497263650646 M543.5618540788507,213.51497209267762 L543.8281278732018,214.75029740122073 M543.8281278732018,214.75029740122073 L544.6188373373975,215.91410640018742 M544.6188373373975,215.91410640018742 L545.8881751855173,216.93869139094738 M545.8881751855173,216.93869139094738 L547.5624429600668,217.76440703530213 M547.5624429600668,217.76440703530213 L549.5443112178679,218.34315655661635 M549.5443112178679,218.34315655661635 L551.7184933083192,218.64121737553717 M551.7184933083192,218.64121737553717 L553.9584614952694,218.6412170352992 M553.9584614952694,218.6412170352992 L556.1338438848752,218.34315621639837 M556.1338438848752,218.34315621639837 L558.1180418750304,217.76440683119455 M558.1180418750304,217.76440683119455 L559.7956283798467,216.93869139094738 M559.7956283798467,216.93869139094738 L561.0690895208376,215.91410721631814 M561.0690895208376,215.91410721631814 L561.8644793086446,214.75029733322552 M561.8644793086446,214.75029733322552 L562.1357247993266,213.51497263650646 M543.6278920856196,261.2039865999499 L543.5618540788507,213.51497209267762 M562.1603286415268,261.2039871451276 L561.8896913154024,262.44237544320094 M561.8896913154024,262.44237544320094 L561.0960791836504,263.6090709529237 M561.0960791836504,263.6090709529237 L559.8254625424821,264.63619505237324 M559.8254625424821,264.63619505237324 L558.1516223628653,265.463957087327 M558.1516223628653,265.463957087327 L556.1718547063073,266.0441407642561 M556.1718547063073,266.0441407642561 L554.0013286859675,266.3429401976391 M554.0013286859675,266.3429401976391 L551.7663598990873,266.3429405387203 M551.7663598990873,266.3429405387203 L549.5970288287734,266.0441411053173 M549.5970288287734,266.0441411053173 L547.6195805205563,265.46395729194023 M547.6195805205563,265.46395729194023 L545.9490442686158,264.63619505237324 M545.9490442686158,264.63619505237324 L544.6825325425332,263.6090701347696 M544.6825325425332,263.6090701347696 L543.8935798688857,262.44237551136473 M543.8935798688857,262.44237551136473 L543.6278920856196,261.2039865999499 M624.5346261421539,226.3964562984665 L624.6490817260155,178.79382654646002 M624.5346261421539,226.3964562984665 L562.1603286415268,261.2039871451276 M624.6490817260155,178.79382654646002 L562.1357247993266,213.51497263650646 M674.1204767781342,151.31644220286412 L633.8731727369455,173.6705852539796 M633.8731727369455,173.6705852539796 L633.6481005860317,174.81016113967877 M633.6481005860317,174.81016113967877 L632.9703122799222,175.89283598909466 M632.9703122799222,175.89283598909466 L631.8736838776686,176.86425983519882 M631.8736838776686,176.86425983519882 L630.413128162911,177.67564911626403 M630.413128162911,177.67564911626403 L628.6618803621843,178.28623297606686 M628.6618803621843,178.28623297606686 L626.7078283600207,178.66531336813267 M626.7078283600207,178.66531336813267 L624.6490817260155,178.79382654646002 M543.5618540788507,213.51497209267762 L512.3213171992669,196.12450697414164 M440.360633299199,303.9212928883769 L512.3213171992669,196.12450697414164 M634.4188124164476,264.0917202080035 L440.360633299199,303.9212928883769 M634.4188124164476,264.0917202080035 L602.8648910016567,246.52680537212694 M602.8648910016567,246.52680537212694 L600.6347087574557,246.37584832682296 M600.6347087574557,246.37584832682296 L598.5334416632849,245.931776423826 M598.5334416632849,245.931776423826 L596.6833538794118,245.22046963394388 M596.6833538794118,245.22046963394388 L595.192033926888,244.28336746892845 M595.192033926888,244.28336746892845 L594.1461320816957,243.17504121786124 M594.1461320816957,243.17504121786124 L593.6063194268859,241.9599909218233 M593.6063194268859,241.9599909218233 L593.6037950947425,240.7088814845812 M593.6037950947425,240.7088814845812 L594.138509351702,239.4944220152704 M594.138509351702,239.4944220152704 L595.1792145843598,238.3871424567782 M595.1792145843598,238.3871424567782 L596.6653199990945,237.45130554361788 M596.6653199990945,237.45130554361788 L598.5104303001998,236.74118804476126 M598.5104303001998,236.74118804476126 L600.6073887990075,236.29796106753275 M600.6073887990075,236.29796106753275 L602.8344683434574,236.14730746803528 M602.8344683434574,236.14730746803528 L714.8174178537199,173.67058093760693 M714.8174178537199,173.67058093760693 L674.1204767781342,151.31644220286412 M512.4568127029227,243.7703214646777 L512.3213171992669,196.12450697414164 M543.6278920856196,261.2039865999499 L512.4568127029227,243.7703214646777 M633.7382793832878,221.26042339822388 L633.5136921525011,222.40284555967378 M633.5136921525011,222.40284555967378 L632.8373957905629,223.48822403254084 M632.8373957905629,223.48822403254084 L631.7431920615192,224.46207324758092 M631.7431920615192,224.46207324758092 L630.2858724877332,225.27548801651696 M630.2858724877332,225.27548801651696 L628.538510031499,225.88759589721568 M628.538510031499,225.88759589721568 L626.5887974405231,226.2676223930967 M626.5887974405231,226.2676223930967 L624.5346261421539,226.3964562984665 M673.8966513989529,198.8503309611442 L633.7382793832878,221.26042339822388 M714.5026666781291,221.26041907106944 L673.8966513989529,198.8503309611442 M602.768134386154,283.8923428743756 L714.5026666781291,221.26041907106944 M602.768134386154,283.8923428743756 L600.546033156122,284.04336862064605 M600.546033156122,284.04336862064605 L598.4537605568216,284.4876904054976 M598.4537605568216,284.4876904054976 L596.6127720518699,285.19956177250316 M596.6127720518699,285.19956177250316 L595.1299851060021,286.13770970091787 M595.1299851060021,286.13770970091787 L594.0916020411416,287.2477231451559 M594.0916020411416,287.2477231451559 L593.5580782037499,288.4651805043286 M593.5580782037499,288.4651805043286 L593.56059125376,289.71937761880133 M593.56059125376,289.71937761880133 L594.0991907052221,290.93742593641343 M594.0991907052221,290.93742593641343 L595.1427471604791,292.0484863074398 M595.1427471604791,292.0484863074398 L596.6307253421639,292.987899776884 M596.6307253421639,292.987899776884 L598.476669089727,293.7009607012865 M598.476669089727,293.7009607012865 L600.5732310265222,294.14612760444766 M600.5732310265222,294.14612760444766 L602.7984210933835,294.2974568623523 M634.2814860983023,311.90561235768115 L602.7984210933835,294.2974568623523 M634.2814860983023,311.90561235768115 L440.65953602556135,351.83272988317606 M440.65953602556135,351.83272988317606 L512.4568127029227,243.7703214646777 M633.7382793832878,221.26042339822388 L633.8731727369455,173.6705852539796 M673.8966513989529,198.8503309611442 L674.1204767781342,151.31644220286412 M714.5026666781291,221.26041907106944 L714.8174178537199,173.67058093760693 M602.768134386154,283.8923428743756 L602.8344683434574,236.14730746803528 M602.7984210933835,294.2974568623523 L602.8648910016567,246.52680537212694 M634.2814860983023,311.90561235768115 L634.4188124164476,264.0917202080035 M440.65953602556135,351.83272988317606 L440.360633299199,303.9212928883769" stroke="black"  stroke-width="4"  fill="red"/>
<path d="M363.0888361400903,230.31619939072652 L363.5615337339079,278.38102252421965 M512.1852154086424,148.26549694828657 L512.3213171992669,196.12450697414164 M363.0888361400903,230.31619939072652 L512.1852154086424,148.26549694828657 M363.5615337339079,278.38102252421965 L512.3213171992669,196.12450697414164 M543.4955200682989,165.6121999420055 L543.5618540788507,213.51497209267762 M512.1852154086424,148.26549694828657 L543.4955200682989,165.6121999420055 M512.3213171992669,196.12450697414164 L543.5618540788507,213.51497209267762 M546.2119350472013,169.25392261802907 L546.2722175710184,217.1658650350123 M543.4955200682989,165.6121999420055 L543.671420323313,166.6166861283948 M543.671420323313,166.6166861283948 L544.1983525217033,167.58275814287344 M544.1983525217033,167.58275814287344 L545.0561595216582,168.47326052490922 M545.0561595216582,168.47326052490922 L546.2119350472013,169.25392261802907 M543.5618540788507,213.51497209267762 L543.7373676364562,214.5219882786613 M543.7373676364562,214.5219882786613 L544.263127830207,215.49049311447615 M544.263127830207,215.49049311447615 L545.1190221538528,216.38323764516392 M545.1190221538528,216.38323764516392 L546.2722175710184,217.1658650350123 M552.7928322333374,170.76314671559666 L552.838402913876,218.678887794822 M546.2119350472013,169.25392261802907 L547.6212809280885,169.89468507020186 M547.6212809280885,169.89468507020186 L549.2300194086457,170.37086769807496 M549.2300194086457,170.37086769807496 L550.976267993098,170.6641221996133 M550.976267993098,170.6641221996133 L552.7928322333374,170.76314671559666 M546.2722175710184,217.1658650350123 L547.6784149771447,217.8082403870855 M547.6784149771447,217.8082403870855 L549.2835576948713,218.28562152295615 M549.2835576948713,218.28562152295615 L551.0259016755572,218.579614068865 M551.0259016755572,218.579614068865 L552.838402913876,218.678887794822 M562.1110106747191,165.61220048446793 L562.1357247993266,213.51497263650646 M552.7928322333374,170.76314671559666 L554.8652960280546,170.63393686182363 M554.8652960280546,170.63393686182363 L556.8342087165763,170.25280693994773 M556.8342087165763,170.25280693994773 L558.6007174269813,169.63892199612653 M558.6007174269813,169.63892199612653 L560.0761732928182,168.82314336540372 M560.0761732928182,168.82314336540372 L561.1865914534948,167.84646404282563 M561.1865914534948,167.84646404282563 L561.8763584332639,166.7579372996695 M561.8763584332639,166.7579372996695 L562.1110106747191,165.61220048446793 M552.838402913876,218.678887794822 L554.9062302702515,218.5493527642982 M554.9062302702515,218.5493527642982 L556.8707373548091,218.16726362615688 M556.8707373548091,218.16726362615688 L558.6332927613405,217.55183353907023 M558.6332927613405,217.55183353907023 L560.1054461647492,216.73400134031172 M560.1054461647492,216.73400134031172 L561.2133783025206,215.75486302236328 M561.2133783025206,215.75486302236328 L561.9016000556512,214.66359518320905 M561.9016000556512,214.66359518320905 L562.1357247993266,213.51497263650646 M674.3452992244297,103.5708058873027 L674.1204767781342,151.31644220286412 M562.1110106747191,165.61220048446793 L674.3452992244297,103.5708058873027 M562.1357247993266,213.51497263650646 L674.1204767781342,151.31644220286412 M715.133574269254,125.86827293388546 L714.8174178537199,173.67058093760693 M674.3452992244297,103.5708058873027 L715.133574269254,125.86827293388546 M674.1204767781342,151.31644220286412 L714.8174178537199,173.67058093760693 M674.7979536855026,148.26549911065393 L674.5711173822651,196.12450914197234 M715.133574269254,125.86827293388546 L674.7979536855026,148.26549911065393 M714.8174178537199,173.67058093760693 L674.5711173822651,196.12450914197234 M665.553508862325,153.39867714502822 L665.347200146836,201.27065109641703 M674.7979536855026,148.26549911065393 L672.7316391165753,148.39413349961 M672.7316391165753,148.39413349961 L670.7713861940608,148.7736097805261 M670.7713861940608,148.7736097805261 L669.0153805099826,149.3849474303076 M669.0153805099826,149.3849474303076 L667.5515993811276,150.19757423212232 M667.5515993811276,150.19757423212232 L666.4534410768571,151.17082953555115 M666.4534410768571,151.17082953555115 L665.7760466042309,152.2559847157151 M665.7760466042309,152.2559847157151 L665.553508862325,153.39867714502822 M674.5711173822651,196.12450914197234 L672.5094118131793,196.25346854259826 M672.5094118131793,196.25346854259826 L670.5535258482831,196.63390357715826 M670.5535258482831,196.63390357715826 L668.8014266170264,197.24678564743886 M668.8014266170264,197.24678564743886 L667.3408958681335,198.0614651279259 M667.3408958681335,198.0614651279259 L666.2451688839907,199.03717846677722 M666.2451688839907,199.03717846677722 L665.5692644340987,200.1250737965446 M665.5692644340987,200.1250737965446 L665.347200146836,201.27065109641703 M602.9011002987221,188.18778277449724 L602.8344683434574,236.14730746803528 M665.553508862325,153.39867714502822 L602.9011002987221,188.18778277449724 M665.347200146836,201.27065109641703 L602.8344683434574,236.14730746803528 M593.5829326332166,193.36189701240835 L593.5371571615573,241.3343968483398 M602.9011002987221,188.18778277449724 L600.8256369460257,188.31744433686117 M600.8256369460257,188.31744433686117 L598.8548576422655,188.69994471014346 M598.8548576422655,188.69994471014346 L597.0874624002253,189.31615907288412 M597.0874624002253,189.31615907288412 L595.612008081637,190.13526631542385 M595.612008081637,190.13526631542385 L594.5024795509663,191.11628082804125 M594.5024795509663,191.11628082804125 L593.8145822802803,192.21008898777114 M593.8145822802803,192.21008898777114 L593.5829326332166,193.36189701240835 M602.8344683434574,236.14730746803528 L600.763654843578,236.27729432894108 M600.763654843578,236.27729432894108 L598.797289491116,236.66075428614164 M598.797289491116,236.66075428614164 L597.0338515156927,237.27851441706227 M597.0338515156927,237.27851441706227 L595.5616996491498,238.09967612060234 M595.5616996491498,238.09967612060234 L594.4546531578485,239.08315079158132 M594.4546531578485,239.08315079158132 L593.7682927457018,240.17970146413109 M593.7682927457018,240.17970146413109 L593.5371571615573,241.3343968483398 M596.3250446894073,197.0237572461166 L596.2731027898645,245.00543272595135 M593.5829326332166,193.36189701240835 L593.7643373569284,194.37193695354654 M593.7643373569284,194.37193695354654 L594.2975533795907,195.34335194973488 M594.2975533795907,195.34335194973488 L595.1621785624923,196.23877881694762 M595.1621785624923,196.23877881694762 L596.3250446894073,197.0237572461166 M593.5371571615573,241.3343968483398 L593.7181505724517,242.34696827706472 M593.7181505724517,242.34696827706472 L594.2501664900948,243.32081752503 M594.2501664900948,243.32081752503 L595.1128484975989,244.21848785398313 M595.1128484975989,244.21848785398313 L596.2731027898645,245.00543272595135 M602.9316598254511,198.5413290152515 L602.8648910016568,246.52680537212694 M596.3250446894073,197.0237572461166 L597.7414867480587,197.66806475859832 M597.7414867480587,197.66806475859832 L599.3570480605655,198.1468812336635 M599.3570480605655,198.1468812336635 L601.1095833607463,198.44175674606532 M601.1095833607463,198.44175674606532 L602.9316598254511,198.5413290152515 M596.2731027898645,245.00543272595135 L597.6863646276486,245.65135408238154 M597.6863646276486,245.65135408238154 L599.2982996470887,246.1313697640357 M599.2982996470887,246.1313697640357 L601.0469022062293,246.4269837478961 M601.0469022062293,246.4269837478961 L602.8648910016568,246.52680537212694 M634.5567573644539,216.06243524911514 L634.4188124164476,264.0917202080034 M602.9316598254511,198.5413290152515 L634.5567573644539,216.06243524911514 M602.8648910016568,246.52680537212694 L634.4188124164476,264.0917202080034 M485.45216419838664,299.23015690215493 L485.65087036263037,347.46552176818363 M634.5567573644539,216.06243524911514 L485.45216419838664,299.23015690215493 M634.4188124164476,264.0917202080034 L485.65087036263037,347.46552176818363 M141.85947694054045,421.00403874799355 L142.84821831618171,469.5355809858 M485.45216419838664,299.23015690215493 L490.04955649668295,307.46690785946623 M490.04955649668295,307.46690785946623 L493.5373092505914,315.8903775804788 M493.5373092505914,315.8903775804788 L495.89317880593353,324.4539346450305 M495.89317880593353,324.4539346450305 L497.10107955286765,333.1099538954373 M497.10107955286765,333.1099538954373 L497.1513513129472,341.80999683406947 M497.1513513129472,341.80999683406947 L496.0407339740225,350.50519186642896 M496.0407339740225,350.50519186642896 L493.7725368110215,359.146406683628 M493.7725368110215,359.146406683628 L490.35667892782396,367.6845896908578 M490.35667892782396,367.6845896908578 L485.80970458846946,376.0709973882206 M485.80970458846946,376.0709973882206 L480.15468950114416,384.25755077520665 M480.15468950114416,384.25755077520665 L473.4212463131314,392.197076797759 M473.4212463131314,392.197076797759 L465.6453618005447,399.8436284235069 M465.6453618005447,399.8436284235069 L456.8692737379333,407.15272878681077 M456.8692737379333,407.15272878681077 L447.14124005003055,414.0817110120115 M447.14124005003055,414.0817110120115 L436.51528158166286,420.58992560718383 M436.51528158166286,420.58992560718383 L425.0509427770956,426.6390964754912 M425.0509427770956,426.6390964754912 L412.8130099450892,432.1934599241981 M412.8130099450892,432.1934599241981 L399.87087469699145,437.2201325061716 M399.87087469699145,437.2201325061716 L386.298548042845,441.6892134546421 M386.298548042845,441.6892134546421 L372.17386970998757,445.57405907085075 M372.17386970998757,445.57405907085075 L357.5782293653951,448.85148591791324 M357.5782293653951,448.85148591791324 L342.5959642257229,451.50186467891854 M342.5959642257229,451.50186467891854 L327.3138980772488,453.5092962728088 M327.3138980772488,453.5092962728088 L311.8207351116562,454.8617411391227 M311.8207351116562,454.8617411391227 L296.2065776307893,455.5510686990101 M296.2065776307893,455.5510686990101 L280.5623008221485,455.5731320425011 M280.5623008221485,455.5731320425011 L264.978966095356,454.9277848360344 M264.978966095356,454.9277848360344 L249.54724029688987,453.6189320990955 M249.54724029688987,453.6189320990955 L234.35682833132503,451.6544311036363 M234.35682833132503,451.6544311036363 L219.49597954997088,449.04606309517317 M219.49597954997088,449.04606309517317 L205.05072905744936,445.8094911348276 M205.05072905744936,445.8094911348276 L191.10456222522373,441.96407847036687 M191.10456222522373,441.96407847036687 L177.73776757148593,437.53281476898957 M177.73776757148593,437.53281476898957 L165.02705935406368,432.5420885113988 M165.02705935406368,432.5420885113988 L153.04494045729882,427.02159743742715 M153.04494045729882,427.02159743742715 L141.85947694054045,421.00403874799355 M485.65087036263037,347.46552176818363 L490.23799956327844,355.7225145740265 M490.23799956327844,355.7225145740265 L493.7179935653555,364.166653717286 M493.7179935653555,364.166653717286 L496.0686642198567,372.7511915164317 M496.0686642198567,372.7511915164317 L497.27396790774753,381.4283848027047 M497.27396790774753,381.4283848027047 L497.32427214987035,390.14967580147834 M497.32427214987035,390.14967580147834 L496.2163301233719,398.8660733321258 M496.2163301233719,398.8660733321258 L493.953449412705,407.528325622452 M493.953449412705,407.528325622452 L490.54553217604064,416.0872625649997 M490.54553217604064,416.0872625649997 L486.00909025935744,424.4940236305712 M486.00909025935744,424.4940236305712 L480.36715152206705,432.70041510218084 M480.36715152206705,432.70041510218084 L473.6492651572273,440.6591520558597 M473.6492651572273,440.6591520558597 L465.89133910826195,448.3241791452589 M465.89133910826195,448.3241791452589 L457.1355170934993,455.65091525848544 M457.1355170934993,455.65091525848544 L447.42994818492616,462.59659407225854 M447.42994818492616,462.59659407225854 L436.8285300890593,469.1204718469126 M436.8285300890593,469.1204718469126 L425.3906703291125,475.1841841895213 M425.3906703291125,475.1841841895213 L413.18100513412946,480.7518852872307 M413.18100513412946,480.7518852872307 L400.26876435420087,485.79061652104605 M400.26876435420087,485.79061652104605 L386.72778556392194,490.27040903560106 M386.72778556392194,490.27040903560106 L372.63572527195106,494.16455867814744 M372.63572527195106,494.16455867814744 L358.0737808874199,497.44982957851323 M358.0737808874199,497.44982957851323 L343.1260898397743,500.10654814028453 M343.1260898397743,500.10654814028453 L327.8792698118068,502.11877949787277 M327.8792698118068,502.11877949787277 L312.4218141416793,503.4744570433233 M312.4218141416793,503.4744570433233 L296.84361082183653,504.1654319535238 M296.84361082183653,504.1654319535238 L281.23531891090516,504.1875480203438 M281.23531891090516,504.1875480203438 L265.68778342206434,503.54065858018936 M265.68778342206434,503.54065858018936 L250.29145608090195,502.22867741139015 M250.29145608090195,502.22867741139015 L235.13582944604602,500.25947941401245 M235.13582944604602,500.25947941401245 L220.3089446239639,497.64487229786454 M220.3089446239639,497.64487229786454 L205.8966344978899,494.400554374821 M205.8966344978899,494.400554374821 L191.98218916233031,490.5459325615857 M191.98218916233031,490.5459325615857 L178.6457104271225,486.1040485155401 M178.6457104271225,486.1040485155401 L165.9637353770269,481.10135057471246 M165.9637353770269,481.10135057471246 L154.00860080561597,475.56760408900846 M154.00860080561597,475.56760408900846 L142.84821831618171,469.5355809858 M141.85947694054045,421.00403874799355 L131.5337057116771,414.52498850526337 M131.5337057116771,414.52498850526337 L122.12545883987093,407.6225657445634 M122.12545883987093,407.6225657445634 L113.68687187971057,400.33727967012675 M113.68687187971057,400.33727967012675 L106.26429275364382,392.71165533149906 M106.26429275364382,392.71165533149906 L99.89785846541287,384.7900726032823 M99.89785846541287,384.7900726032823 L94.62147458082757,376.6183885457208 M94.62147458082757,376.6183885457208 L90.46254952732608,368.243714461801 M90.46254952732608,368.243714461801 L87.4420049619398,359.714055894791 M87.4420049619398,359.714055894791 L85.57408693713427,351.07813627784185 M85.57408693713427,351.07813627784185 L84.86642573074596,342.3849970797382 M84.86642573074596,342.3849970797382 L85.32010396935163,333.6837565614464 M85.32010396935163,333.6837565614464 L86.9295927907254,325.0233352142465 M86.9295927907254,325.0233352142465 L89.68293566867999,316.4521841589544 M89.68293566867999,316.4521841589544 L93.5618584310215,308.0180164492734 M93.5618584310215,308.0180164492734 L98.5419640505288,299.7675232526101 M98.5419640505288,299.7675232526101 L104.59286252837182,291.74617264659867 M104.59286252837182,291.74617264659867 L111.67842428820006,283.99794307589923 M111.67842428820006,283.99794307589923 L119.75709271958664,276.56513800892833 M119.75709271958664,276.56513800892833 L128.78203986846717,269.4881208178663 M128.78203986846717,269.4881208178663 L138.70148631112897,262.8052265020983 M138.70148631112897,262.8052265020983 L149.45914070764815,256.5523882736036 M149.45914070764815,256.5523882736036 L160.99430735433492,250.76319999207507 M160.99430735433492,250.76319999207507 L173.24245666572503,245.46861636766783 M173.24245666572503,245.46861636766783 L186.1353793578948,240.6968390398161 M186.1353793578948,240.6968390398161 L199.60170799877008,236.47321896930046 M199.60170799877008,236.47321896930046 L213.56717478979627,232.82013902605803 M213.56717478979627,232.82013902605803 L227.9550954644946,229.7569024332969 M227.9550954644946,229.7569024332969 L242.6866835701915,227.299670166974 M242.6866835701915,227.299670166974 L257.6814994258553,225.46136738137844 M257.6814994258553,225.46136738137844 L272.85776276586074,224.25167248924717 M272.85776276586074,224.25167248924717 L288.1328748446481,223.67694337383244 M288.1328748446481,223.67694337383244 L303.42372156137424,223.740194576585 M303.42372156137424,223.740194576585 L318.64718702593586,224.44108123215668 M318.64718702593586,224.44108123215668 L333.7203807242372,225.77594671144743 M333.7203807242372,225.77594671144743 L348.5612473577578,227.73775837302966 M348.5612473577578,227.73775837302966 L363.0888361400903,230.31619939072652 M142.84821831618171,469.5355809858 L132.54548337533538,463.04093899123 M132.54548337533538,463.04093899123 L123.15809999818543,456.12188504671354 M123.15809999818543,456.12188504671354 L114.73809015520658,448.8190222474833 M114.73809015520658,448.8190222474833 L107.33170276748513,441.17497472338687 M107.33170276748513,441.17497472338687 L100.97899128599266,433.2342263298836 M100.97899128599266,433.2342263298836 L95.71379306837696,425.0427421872271 M95.71379306837696,425.0427421872271 L91.56346412793368,416.6477452779015 M91.56346412793368,416.6477452779015 L88.54888928629538,408.09735563881543 M88.54888928629538,408.09735563881543 L86.68429358250876,399.4404136361961 M86.68429358250876,399.4404136361961 L85.9773017434083,390.72607917761775 M85.9773017434083,390.72607917761775 L86.4290059391945,382.00358990292966 M86.4290059391945,382.00358990292966 L88.03390187208038,373.32198595894874 M88.03390187208038,373.32198595894874 L90.78007196591079,364.72983772543625 M90.78007196591079,364.72983772543625 L94.64929492358488,356.2749764356314 M94.64929492358488,356.2749764356314 L99.61723987376973,348.0042096210444 M99.61723987376973,348.0042096210444 L105.65359578007497,339.9631193600004 M105.65359578007497,339.9631193600004 L112.72232409114952,332.1957950128922 M112.72232409114952,332.1957950128922 L120.78197043552694,324.7446473454788 M120.78197043552694,324.7446473454788 L129.78581983287398,317.65014266907485 M129.78581983287398,317.65014266907485 L139.6822157594566,310.95071425307594 M139.6822157594566,310.95071425307594 L150.4149986211499,304.6823878889636 M150.4149986211499,304.6823878889636 L161.9236130444812,298.87884437869866 M161.9236130444812,298.87884437869866 L174.14367704375596,293.57111889359953 M174.14367704375596,293.57111889359953 L187.0071358737967,288.7874866699939 M187.0071358737967,288.7874866699939 L200.44278244809635,284.55336506220004 M200.44278244809635,284.55336506220004 L214.37651460538456,280.8911957473967 M214.37651460538456,280.8911957473967 L228.73181800698904,277.8203328082919 M228.73181800698904,277.8203328082919 L243.43007982371353,275.3569799017387 M243.43007982371353,275.3569799017387 L258.3910368109754,273.51409638666746 M258.3910368109754,273.51409638666746 L273.5330873975196,272.3013863240404 M273.5330873975196,272.3013863240404 L288.7738127708108,271.72522446480224 M288.7738127708108,271.72522446480224 L304.0302794870427,271.7886333538688 M304.0302794870427,271.7886333538688 L319.2195520543794,272.4912672122657 M319.2195520543794,272.4912672122657 L334.25891976414783,273.8294597003585 M334.25891976414783,273.8294597003585 L349.0665053268757,275.79615952473705 M349.0665053268757,275.79615952473705 L363.5615337339079,278.38102252421965 M312.32329658100366,326.56275870870775 L312.9157939185436,374.8651771861885 M269.8323091768874,350.1038435502993 L270.5229085757403,398.4637471041692 M312.32329658100366,326.56275870870775 L307.89867115025766,324.4977846845499 M307.89867115025766,324.4977846845499 L302.8310872236141,322.9639162551273 M302.8310872236141,322.9639162551273 L297.31473664109217,322.0195868742523 M297.31473664109217,322.0195868742523 L291.5607029294049,321.700768026689 M291.5607029294049,321.700768026689 L285.7890654218544,322.01959694479183 M285.7890654218544,322.01959694479183 L280.220609885269,322.9639204519618 M280.220609885269,322.9639204519618 L275.0684096833623,324.497792800868 M275.0684096833623,324.497792800868 L270.52986817818777,326.56275870870775 M270.52986817818777,326.56275870870775 L266.7791288841317,329.08007569720905 M266.7791288841317,329.08007569720905 L263.96057161665124,331.95356495519843 M263.96057161665124,331.95356495519843 L262.1830706741117,335.07331012829644 M262.1830706741117,335.07331012829644 L261.5158075161114,338.3197604662191 M261.5158075161114,338.3197604662191 L261.9854856483058,341.56826574980937 M261.9854856483058,341.56826574980937 L263.57507314743333,344.6938911963727 M263.57507314743333,344.6938911963727 L266.2244062797077,347.5761771509657 M266.2244062797077,347.5761771509657 L269.8323091768874,350.1038435502993 M312.9157939185436,374.8651771861885 L308.50109739709785,372.7951489045002 M308.50109739709785,372.7951489045002 L303.4449300639709,371.25752492785796 M303.4449300639709,371.25752492785796 L297.9410475661187,370.310882914546 M297.9410475661187,370.310882914546 L292.2000583177937,369.99128320004127 M292.2000583177937,369.99128320004127 L286.4415450879608,370.3108930097502 M286.4415450879608,370.3108930097502 L280.885793971844,371.2575291349694 M280.885793971844,371.2575291349694 L275.74539424984107,372.7951570406876 M275.74539424984107,372.7951570406876 L271.21729855455453,374.8651771861885 M271.21729855455453,374.8651771861885 L267.47525014359036,377.3886530210614 M267.47525014359036,377.3886530210614 L264.66329391052517,380.2691690799005 M264.66329391052517,380.2691690799005 L262.89004793949414,383.3965390769629 M262.89004793949414,383.3965390769629 L262.22452622507,386.6509193052599 M262.22452622507,386.6509193052599 L262.69336057643795,389.90735479475836 M262.69336057643795,389.90735479475836 L264.2795467850602,393.0406060328753 M264.2795467850602,393.0406060328753 L266.92304765558146,395.929920227189 M266.92304765558146,395.929920227189 L270.5229085757403,398.4637471041692 M269.8323091768874,350.1038435502993 L274.2602986661341,352.1791970515983 M274.2602986661341,352.1791970515983 L279.3380811514016,353.7218571243303 M279.3380811514016,353.7218571243303 L284.869912041868,354.67205193283985 M284.869912041868,354.67205193283985 L290.6423049355855,354.9929426005884 M290.6423049355855,354.9929426005884 L296.4324154787606,354.67205981566707 M296.4324154787606,354.67205981566707 L302.01665920598197,353.72186190944444 M302.01665920598197,353.72186190944444 L307.17954297596367,352.1791978957758 M307.17954297596367,352.1791978957758 L311.72206936548264,350.1038435502993 M311.72206936548264,350.1038435502993 L315.46939587977374,347.5761740584305 M315.46939587977374,347.5761740584305 L318.2777546050715,344.69389316324134 M318.2777546050715,344.69389316324134 L320.03979147182383,341.5682736124774 M320.03979147182383,341.5682736124774 L320.6886954476516,338.3197514860198 M320.6886954476516,338.3197514860198 L320.20054437031627,335.0733000319865 M320.20054437031627,335.0733000319865 L318.5951524854561,331.95355794815123 M318.5951524854561,331.95355794815123 L315.93513573130025,329.080063651865 M315.93513573130025,329.080063651865 L312.32329658100366,326.56275870870775 M270.5229085757403,398.4637471041692 L274.94095448420757,400.5441565675568 M274.94095448420757,400.5441565675568 L280.00727459278903,402.09057361392877 M280.00727459278903,402.09057361392877 L285.52656747429614,403.0430819860342 M285.52656747429614,403.0430819860342 L291.2858325910752,403.36475387733265 M291.2858325910752,403.36475387733265 L297.062734768079,403.04308988805303 M297.062734768079,403.04308988805303 L302.63420198192784,402.0905784106948 M302.63420198192784,402.0905784106948 L307.78523618739916,400.54415741379046 M307.78523618739916,400.54415741379046 L312.31729808855664,398.4637471041692 M312.31729808855664,398.4637471041692 L316.05594850413956,395.929917127115 M316.05594850413956,395.929917127115 L318.85775197820465,393.0406080045412 M318.85775197820465,393.0406080045412 L320.61560376013074,389.907362676615 M320.61560376013074,389.907362676615 L321.26284960575833,386.65091030313175 M321.26284960575833,386.65091030313175 L320.77562639708435,383.396528955984 M320.77562639708435,383.396528955984 L319.1737079329044,380.26916205572286 M319.1737079329044,380.26916205572286 L316.5195725254336,377.388640946254 M316.5195725254336,377.388640946254 L312.9157939185436,374.8651771861885" stroke="black"  stroke-width="4"  fill="red"/>
<path d="M562.2092085120361,355.94662266263606 L562.1848229755186,308.68074462122144 M543.6936361665967,308.6807440747124 L543.9587405115523,309.92215710231835 M543.9587405115523,309.92215710231835 L544.7459441823027,311.0917001492105 M544.7459441823027,311.0917001492105 L546.0096423406262,312.12133224277 M546.0096423406262,312.12133224277 L547.676463663339,312.9511146833838 M547.676463663339,312.9511146833838 L549.6495116893944,313.53271428890486 M549.6495116893944,313.53271428890486 L551.8140133347895,313.8322428091536 M551.8140133347895,313.8322428091536 L554.0440049844647,313.8322424672401 M554.0440049844647,313.8322424672401 L556.2096962664433,313.5327139470115 M556.2096962664433,313.5327139470115 L558.1850533261032,312.9511144782713 M558.1850533261032,312.9511144782713 L559.8551638726767,312.12133224277 M559.8551638726767,312.12133224277 L561.1229486908942,311.0917009693621 M561.1229486908942,311.0917009693621 L561.914791093432,309.9221570339881 M561.914791093432,309.9221570339881 L562.1848229755186,308.68074462122144 M543.759088229429,355.9466221148127 L543.6936361665967,308.6807440747124 M562.2092085120361,355.94662266263606 L561.939779371217,357.1910201360323 M561.939779371217,357.1910201360323 L561.1496988226004,358.36337570369244 M561.1496988226004,358.36337570369244 L559.8847332328498,359.39548175909715 M559.8847332328498,359.39548175909715 L558.2183357356209,360.22725809025894 M558.2183357356209,360.22725809025894 L556.2473696643781,360.8102550536655 M556.2473696643781,360.8102550536655 L554.0864916303541,361.11050323753756 M554.0864916303541,361.11050323753756 L551.8614549995867,361.1105035802725 M551.8614549995867,361.1105035802725 L549.7017613240772,360.81025539638034 M549.7017613240772,360.81025539638034 L547.7330940403725,360.22725829586443 M547.7330940403725,360.22725829586443 L546.0699711610976,359.39548175909715 M546.0699711610976,359.39548175909715 L544.8090740975688,358.36337488156965 M544.8090740975688,358.36337488156965 L544.0236116923929,357.19102020452686 M544.0236116923929,357.19102020452686 L543.759088229429,355.9466221148127 M624.3072347366729,320.969639350767 L624.4206782400801,273.78793874459325 M624.3072347366729,320.969639350767 L562.2092085120361,355.94662266263606 M624.4206782400801,273.78793874459325 L562.1848229755186,308.68074462122144 M633.6039840624045,268.63927796051735 L633.3798796691225,269.7845099806536 M633.3798796691225,269.7845099806536 L632.7050686994074,270.8725574780234 M632.7050686994074,270.8725574780234 L631.6132789473477,271.84880101808136 M631.6132789473477,271.84880101808136 L630.1591812082804,272.66421534506424 M630.1591812082804,272.66421534506424 L628.4156868975765,273.2778277339471 M628.4156868975765,273.2778277339471 L626.4702944905636,273.65878821915624 M626.4702944905636,273.65878821915624 L624.4206782400801,273.78793874459325 M673.6738161260143,246.17395044535465 L633.6039840624045,268.63927796051735 M714.1893109124201,268.63927362271886 L673.6738161260143,246.17395044535465 M602.702096330612,331.42439777043114 L714.1893109124201,268.63927362271886 M602.7322479960401,341.85479601529437 L600.5120278106632,341.70309937093646 M600.5120278106632,341.70309937093646 L598.4201500103525,341.25685166471584 M598.4201500103525,341.25685166471584 L596.578331779213,340.54205934640447 M596.578331779213,340.54205934640447 L595.0936804278647,339.6003645317331 M595.0936804278647,339.6003645317331 L594.0524588690537,338.4866054737993 M594.0524588690537,338.4866054737993 L593.5150671809755,337.26559797937966 M593.5150671809755,337.26559797937966 L593.5125653376464,336.0083531849789 M593.5125653376464,336.0083531849789 L594.0449040430675,334.78793676131016 M594.0449040430675,334.78793676131016 L595.0809752783227,333.6752248300095 M595.0809752783227,333.6752248300095 L596.5604585399958,332.7347958039985 M596.5604585399958,332.7347958039985 L598.3973436199564,332.02119327040407 M598.3973436199564,332.02119327040407 L600.4849512118456,331.5757908472922 M600.4849512118456,331.5757908472922 L602.702096330612,331.42439777043114 M634.144774047612,359.50563058827174 L602.7322479960401,341.85479601529437 M634.144774047612,359.50563058827174 L440.9570965216865,399.52901936083344 M440.9570965216865,399.52901936083344 L512.5917061692564,291.2044347711534 M543.6936361665967,308.6807440747124 L512.5917061692564,291.2044347711534 M512.726001498592,338.42821840847785 L512.5917061692564,291.2044347711534 M543.759088229429,355.9466221148127 L512.726001498592,338.42821840847785 M633.4702829089448,315.808512621102 L633.2466592835497,316.9565184799563 M633.2466592835497,316.9565184799563 L632.5733271960337,318.0472007802008 M632.5733271960337,318.0472007802008 L631.4839407935044,319.02580793995025 M631.4839407935044,319.02580793995025 L630.0330506750936,319.8431961779994 M630.0330506750936,319.8431961779994 L628.2934074219438,320.4582937752175 M628.2934074219438,320.4582937752175 L626.3523160958681,320.84017626743145 M626.3523160958681,320.84017626743145 L624.3072347366729,320.969639350767 M673.4519645747092,293.28865655764037 L633.4702829089448,315.808512621102 M713.8773415374415,315.8085082727961 L673.4519645747092,293.28865655764037 M602.6363522518576,378.7448576901264 L713.8773415374415,315.8085082727961 M602.6363522518576,378.7448576901264 L600.4241411856178,378.89661333429626 M600.4241411856178,378.89661333429626 L598.3411778448833,379.34308238194865 M598.3411778448833,379.34308238194865 L596.5083779381596,380.0583936299525 M596.5083779381596,380.0583936299525 L595.0321836720647,381.0010741645843 M595.0321836720647,381.0010741645843 L593.9984139953368,382.1164495732103 M593.9984139953368,382.1164495732103 L593.4672551685328,383.33978666266336 M593.4672551685328,383.33978666266336 L593.4697458799708,384.60003957928654 M593.4697458799708,384.60003957928654 L594.0059352090469,385.8239678327387 M594.0059352090469,385.8239678327387 L595.0448322964227,386.94039053407016 M595.0448322964227,386.94039053407016 L596.5261716605127,387.88433706417095 M596.5261716605127,387.88433706417095 L598.3638827744005,388.6008382858391 M598.3638827744005,388.6008382858391 L600.4510973221475,389.04815275413756 M600.4510973221475,389.04815275413756 L602.6663697766672,389.2002120118761 M634.0086722567532,406.89317026300006 L602.6663697766672,389.2002120118761 M634.0086722567532,406.89317026300006 L441.25332358052367,447.0115707525838 M441.25332358052367,447.0115707525838 L512.726001498592,338.42821840847785 M633.4702829089448,315.808512621102 L633.6039840624045,268.63927796051735 M673.4519645747092,293.28865655764037 L673.6738161260143,246.17395044535465 M713.8773415374415,315.8085082727961 L714.1893109124201,268.63927362271886 M602.6363522518576,378.7448576901264 L602.702096330612,331.42439777043114 M602.6663697766672,389.2002120118761 L602.7322479960401,341.85479601529437 M634.0086722567532,406.89317026300006 L634.144774047612,359.50563058827174 M441.25332358052367,447.0115707525838 L440.9570965216865,399.52901936083344" stroke="black"  stroke-width="4"  fill="red"/></svg>